<?xml version="1.0" encoding="UTF-8" standalone="no"?>
<!-- Created with Inkscape (http://www.inkscape.org/) -->

<svg
   xmlns:dc="http://purl.org/dc/elements/1.1/"
   xmlns:cc="http://creativecommons.org/ns#"
   xmlns:rdf="http://www.w3.org/1999/02/22-rdf-syntax-ns#"
   xmlns:svg="http://www.w3.org/2000/svg"
   xmlns="http://www.w3.org/2000/svg"
   xmlns:sodipodi="http://sodipodi.sourceforge.net/DTD/sodipodi-0.dtd"
   xmlns:inkscape="http://www.inkscape.org/namespaces/inkscape"
   width="79.571373"
   height="115.96954"
   id="svg3237"
   version="1.1"
   inkscape:version="0.48.3.1 r9886"
   sodipodi:docname="M1.svg">
  <defs
     id="defs3239" />
  <sodipodi:namedview
     id="base"
     pagecolor="#ffffff"
     bordercolor="#666666"
     borderopacity="1.0"
     inkscape:pageopacity="0.0"
     inkscape:pageshadow="2"
     inkscape:zoom="0.7"
     inkscape:cx="243.57143"
     inkscape:cy="53.294375"
     inkscape:document-units="px"
     inkscape:current-layer="layer1"
     showgrid="false"
     fit-margin-top="0"
     fit-margin-left="0"
     fit-margin-right="0"
     fit-margin-bottom="0"
     inkscape:window-width="574"
     inkscape:window-height="436"
     inkscape:window-x="264"
     inkscape:window-y="176"
     inkscape:window-maximized="0" />
  <metadata
     id="metadata3242">
    <rdf:RDF>
      <cc:Work
         rdf:about="">
        <dc:format>image/svg+xml</dc:format>
        <dc:type
           rdf:resource="http://purl.org/dc/dcmitype/StillImage" />
        <dc:title />
      </cc:Work>
    </rdf:RDF>
  </metadata>
  <g
     inkscape:label="Layer 1"
     inkscape:groupmode="layer"
     id="layer1"
     transform="translate(-219.42185,-460.02004)">
    <rect
       ry="5.4056678"
       y="460.52454"
       x="219.92635"
       height="114.96053"
       width="78.56237"
       id="rect6731-9-219"
       style="fill:#ffffff;stroke:#000000;stroke-width:1.00899994;stroke-miterlimit:4;stroke-opacity:1;stroke-dasharray:none;stroke-dashoffset:0" />
    <g
       transform="translate(142.51168,-75.129338)"
       id="g7207">
      <path
         style="font-size:144px;font-style:normal;font-variant:normal;font-weight:500;font-stretch:normal;text-align:start;line-height:125%;letter-spacing:0px;word-spacing:0px;text-anchor:start;fill:#ff0000;fill-opacity:1;stroke:none;font-family:GL-MahjongTile;-inkscape-font-specification:GL-MahjongTile Medium"
         d="m 122.75893,579.88393 c -2.59205,0.96005 -4.29455,2.30329 -5.0625,4.03125 0.19195,0.28804 0.5802,0.73654 1.15625,1.3125 0.67195,0.48004 0.99995,0.98654 1,1.5625 -5e-5,0.96004 -0.5668,2.54204 -1.71875,4.75 -1.05605,2.20803 -1.86155,3.31253 -2.4375,3.3125 -0.48005,3e-5 -0.8393,-0.23872 -1.03125,-0.71875 0.096,-0.57597 0.3057,-1.35247 0.59375,-2.3125 0.38395,-1.05596 0.62271,-1.95071 0.71875,-2.71875 0.19195,-0.86396 0.2812,-1.66946 0.28125,-2.4375 -5e-5,-0.95996 -0.32805,-1.43746 -1,-1.4375 -0.48005,4e-5 -0.92855,0.17854 -1.3125,0.5625 -0.28804,0.28804 -0.70529,0.91504 -1.28125,1.875 -0.48004,0.86404 -0.80804,1.43079 -1,1.71875 -0.19204,0.38404 -0.49104,0.77229 -0.875,1.15625 l -0.71875,0.71875 c -0.096,0.19204 -0.15629,0.49103 -0.15625,0.875 0.19196,0.28803 0.55121,0.52678 1.03125,0.71875 0.57596,0.096 0.84371,0.27453 0.84375,0.5625 -4e-5,1.34403 -0.32804,2.20978 -1,2.59375 -0.67204,0.38403 -1.95504,0.59378 -3.875,0.59375 -1.34404,3e-5 -3.04653,-0.23872 -5.0625,-0.71875 -1.92003,-0.47997 -3.352529,-0.74997 -4.312501,-0.75 -0.864026,3e-5 -2.147025,0.53778 -3.875,1.59375 1.727975,2.11203 5.458721,3.18753 11.218751,3.1875 1.82396,3e-5 5.58596,-0.83672 11.25,-2.46875 5.66395,-1.72797 9.93244,-2.59372 12.8125,-2.59375 3.93594,3e-5 6.50193,0.0602 7.75,0.15625 1.43993,-0.67197 2.51543,-1.68722 3.1875,-3.03125 -0.48007,-0.67196 -2.27182,-0.99996 -5.34375,-1 -1.53606,4e-5 -2.96856,0.0893 -4.3125,0.28125 -1.34406,0.096 -2.68731,0.27453 -4.03125,0.5625 -1.34406,0.28803 -2.3883,0.49775 -3.15625,0.59375 0.0959,-1.15196 0.5132,-2.40596 1.28125,-3.75 0.86394,-1.34396 1.31244,-2.47746 1.3125,-3.4375 -6e-5,-2.87996 -0.95506,-4.6717 -2.875,-5.34375 z m 2.15625,17.71875 c -1.05605,3e-5 -3.74255,0.56678 -8.0625,1.71875 -4.22404,1.15203 -8.13554,2.01778 -11.6875,2.59375 -0.38404,1.63202 -0.56254,4.25827 -0.5625,7.90625 -4e-5,4.70401 0.71621,7.51101 2.15625,8.375 0.38396,-0.38399 0.80121,-0.98199 1.28125,-1.75 l 0.59375,-1.125 c 1.15196,-0.47999 1.92846,-0.71874 2.3125,-0.71875 -4e-5,0.38401 -0.0603,1.10026 -0.15625,2.15625 -4e-5,1.05601 -4e-5,1.71201 0,2 -2.30404,0.76801 -4.12479,1.15626 -5.46875,1.15625 -0.57604,-1.05599 -1.05354,-2.39924 -1.4375,-4.03125 -0.38403,-1.63199 -0.86153,-2.88599 -1.4375,-3.75 -0.48003,-0.95998 -1.31678,-1.52673 -2.468751,-1.71875 -0.384029,0.38402 -0.562529,0.68302 -0.5625,0.875 -2.9e-5,0.48001 0.08922,1.19626 0.28125,2.15625 0.191971,0.86401 0.430721,1.99751 0.718751,3.4375 0.28797,1.34401 0.49772,2.41951 0.59375,3.1875 l -0.59375,0 c -0.86403,1e-5 -2.057779,-0.12049 -3.593751,-0.3125 -1.536025,-0.192 -2.729774,-0.28124 -3.59375,-0.28125 -2.3e-5,0.19201 -0.06027,0.40176 -0.15625,0.59375 -2.2e-5,0.19201 -2.2e-5,0.31025 0,0.40625 -2.2e-5,1.056 0.776477,1.89275 2.3125,2.46875 1.535974,0.576 3.207222,0.84375 5.031251,0.84375 l 1.75,0 c 0.096,0.192 0.21422,0.6405 0.40625,1.3125 0.19197,0.672 0.40172,1.299 0.59375,1.875 0.28797,0.576 0.52672,1.203 0.71875,1.875 0.28796,0.576 0.58696,1.0535 0.875,1.4375 0.38396,0.384 0.71196,0.5625 1,0.5625 0.28796,0 0.52671,-0.0892 0.71875,-0.28125 0.19196,-0.192 0.28121,-0.43075 0.28125,-0.71875 0.096,-0.384 0.15621,-0.683 0.15625,-0.875 0.096,-0.288 0.12496,-0.67625 0.125,-1.15625 0.096,-0.48 0.15621,-0.74775 0.15625,-0.84375 2.59196,0.768 4.11371,1.15625 4.59375,1.15625 0.28796,0 0.73646,-0.23875 1.3125,-0.71875 0.57596,-0.48 1.05345,-0.779 1.4375,-0.875 1.34395,0.864 3.6422,1.9685 6.90625,3.3125 3.35994,1.248 5.65819,1.87499 6.90625,1.875 0.86394,-10e-6 2.11794,-0.299 3.75,-0.875 1.72794,-0.672 2.83243,-1 3.3125,-1 1.91993,0 3.50193,-0.41725 4.75,-1.28125 1.24793,-0.864 1.87493,-2.118 1.875,-3.75 -7e-5,-1.92 -1.16482,-3.62249 -3.46875,-5.0625 -2.20807,-1.43999 -4.35682,-2.39499 -6.46875,-2.875 -2.11206,-0.47999 -4.08231,-0.74775 -5.90625,-0.84375 -0.19205,-1.72799 -0.28131,-3.37024 -0.28125,-4.90625 -6e-5,-2.68798 0.32794,-5.28523 1,-7.78125 l 1,-3.75 c -6e-5,-1.34397 -0.98406,-1.99997 -3,-2 z m -4.625,3.59375 c -5e-5,0.38402 -0.0291,0.92177 -0.125,1.59375 -5e-5,0.67202 -5e-5,1.23877 0,1.71875 -0.57605,0.096 -1.50205,0.27452 -2.75,0.5625 -1.24805,0.19202 -2.35255,0.40177 -3.3125,0.59375 -5e-5,-0.38398 0.0602,-0.86148 0.15625,-1.4375 0.19196,-0.57598 0.2812,-1.11373 0.28125,-1.59375 0.67195,-0.096 1.5667,-0.27448 2.71875,-0.5625 1.15195,-0.38398 2.1672,-0.68297 3.03125,-0.875 z m -8.78125,2.15625 c -0.19204,1.15202 -0.28129,2.10702 -0.28125,2.875 l -2.59375,0.4375 -0.28125,-0.15625 -0.3125,0 0,-2.5625 3.46875,-0.59375 z m 8.5,3.3125 c -0.0961,0.76802 -0.1563,1.87252 -0.15625,3.3125 -2.49605,0.76802 -4.40605,1.2165 -5.75,1.3125 l 0,-3.1875 c 1.82395,-0.28798 3.7942,-0.76548 5.90625,-1.4375 z m -9.0625,2.03125 0,3.3125 c -1.34404,0.192 -2.27004,0.28126 -2.75,0.28125 -4e-5,-0.19199 -0.0603,-0.51999 -0.15625,-1 -4e-5,-0.47998 -4e-5,-0.83923 0,-1.03125 -4e-5,-0.19198 -4e-5,-0.37048 0,-0.5625 -4e-5,-0.28798 -4e-5,-0.49775 0,-0.59375 0.096,-0.096 0.45521,-0.12498 1.03125,-0.125 0.67196,-0.096 1.29896,-0.18525 1.875,-0.28125 z m 8.90625,3.71875 c 0.0959,0.86401 0.1562,2.11801 0.15625,3.75 -1.63205,0.67201 -3.51305,1.20976 -5.625,1.59375 l 0,-3.875 2.875,-0.75 c 1.24795,-0.28799 2.1137,-0.52674 2.59375,-0.71875 z m 6.78125,6.21875 c 1.63194,0.096 3.45269,0.51326 5.46875,1.28125 2.01593,0.67201 3.03118,1.38826 3.03125,2.15625 -7e-5,1.056 -0.38832,1.8325 -1.15625,2.3125 -0.76806,0.384 -1.81231,0.62275 -3.15625,0.71875 -1.34406,0.096 -2.27006,0.2455 -2.75,0.4375 -0.38406,0.192 -1.10031,0.6695 -2.15625,1.4375 -1.05606,0.672 -1.98205,1 -2.75,1 -0.86405,0 -2.0578,-0.299 -3.59375,-0.875 -1.53605,-0.672 -2.49105,-1.26775 -2.875,-1.84375 0.47995,-0.192 1.0467,-0.55125 1.71875,-1.03125 0.76795,-0.48 1.4552,-0.808 2.03125,-1 0.0959,0.192 0.24545,0.52 0.4375,1 0.19195,0.48 0.3102,0.779 0.40625,0.875 1.72795,0 3.51969,-0.627 5.34375,-1.875 0.28794,-0.576 0.43744,-1.11375 0.4375,-1.59375 -6e-5,-0.47999 -0.0893,-1.04674 -0.28125,-1.71875 -0.0961,-0.67199 -0.15631,-1.08924 -0.15625,-1.28125 z m -6.46875,0.125 c -0.0961,0.48001 -0.0671,1.25651 0.125,2.3125 -0.67205,0.19201 -1.3883,0.43075 -2.15625,0.71875 -0.67205,0.288 -1.2388,0.52675 -1.71875,0.71875 -0.38405,0.096 -0.7723,0.15625 -1.15625,0.15625 -0.48005,0 -0.7188,-0.7765 -0.71875,-2.3125 3.16795,-0.95999 5.04895,-1.49775 5.625,-1.59375 z m -9.375,2.59375 c -4e-5,0.96 0.23871,1.7365 0.71875,2.3125 -1.72804,0.768 -3.24979,1.30575 -4.59375,1.59375 -0.28804,-0.576 -0.64729,-1.3525 -1.03125,-2.3125 l 4.90625,-1.59375 z"
         id="path3898"
         inkscape:connector-curvature="0" />
      <path
         style="font-size:144px;font-style:normal;font-variant:normal;font-weight:500;font-stretch:normal;text-align:start;line-height:125%;letter-spacing:0px;word-spacing:0px;text-anchor:start;fill:#000000;fill-opacity:1;stroke:none;font-family:GL-MahjongTile;-inkscape-font-specification:GL-MahjongTile Medium"
         d="m 99.847481,566.49254 c -5.664024,6e-5 -8.496021,-0.71994 -8.496,-2.16 -2.1e-5,-0.86394 0.767978,-1.29594 2.304,-1.296 0.383977,6e-5 1.055976,0.0481 2.016,0.144 0.959974,6e-5 1.727973,6e-5 2.304,0 5.183969,6e-5 11.135959,-1.43994 17.855999,-4.32 6.81595,-2.87993 10.89594,-4.31993 12.24,-4.32 1.53594,7e-5 3.07194,0.24007 4.608,0.72 1.63194,0.38407 2.83194,0.57607 3.6,0.576 2.11193,7e-5 3.50393,0.28807 4.176,0.864 0.67193,0.57607 1.00793,1.58407 1.008,3.024 -7e-5,0.96007 -0.28807,1.87206 -0.864,2.736 -0.48007,0.86406 -1.15207,1.29606 -2.016,1.296 -0.0961,6e-5 -1.34407,-0.47994 -3.744,-1.44 -2.40006,-0.95993 -5.28006,-1.43993 -8.64,-1.44 -4.51205,7e-5 -9.26405,0.96006 -14.256,2.88 -4.89604,1.82406 -8.92803,2.73606 -12.095999,2.736"
         id="path3025"
         inkscape:connector-curvature="0" />
    </g>
  </g>
</svg>
