<?xml version="1.0" encoding="UTF-8" standalone="no"?>
<!-- Created with Inkscape (http://www.inkscape.org/) -->

<svg
   xmlns:dc="http://purl.org/dc/elements/1.1/"
   xmlns:cc="http://creativecommons.org/ns#"
   xmlns:rdf="http://www.w3.org/1999/02/22-rdf-syntax-ns#"
   xmlns:svg="http://www.w3.org/2000/svg"
   xmlns="http://www.w3.org/2000/svg"
   xmlns:sodipodi="http://sodipodi.sourceforge.net/DTD/sodipodi-0.dtd"
   xmlns:inkscape="http://www.inkscape.org/namespaces/inkscape"
   width="79.59375"
   height="115.96875"
   id="svg3237"
   version="1.1"
   inkscape:version="0.48.3.1 r9886"
   sodipodi:docname="M9.svg">
  <defs
     id="defs3239" />
  <sodipodi:namedview
     id="base"
     pagecolor="#ffffff"
     bordercolor="#666666"
     borderopacity="1.0"
     inkscape:pageopacity="0.0"
     inkscape:pageshadow="2"
     inkscape:zoom="0.7"
     inkscape:cx="-0.84572122"
     inkscape:cy="61.139581"
     inkscape:document-units="px"
     inkscape:current-layer="layer1"
     showgrid="false"
     fit-margin-top="0"
     fit-margin-left="0"
     fit-margin-right="0"
     fit-margin-bottom="0"
     inkscape:window-width="794"
     inkscape:window-height="600"
     inkscape:window-x="230"
     inkscape:window-y="145"
     inkscape:window-maximized="0" />
  <metadata
     id="metadata3242">
    <rdf:RDF>
      <cc:Work
         rdf:about="">
        <dc:format>image/svg+xml</dc:format>
        <dc:type
           rdf:resource="http://purl.org/dc/dcmitype/StillImage" />
        <dc:title />
      </cc:Work>
    </rdf:RDF>
  </metadata>
  <g
     inkscape:label="Layer 1"
     inkscape:groupmode="layer"
     id="layer1"
     transform="translate(148.9375,-296.4375)">
    <rect
       ry="5.4056678"
       y="296.95087"
       x="-148.42244"
       height="114.96053"
       width="78.56237"
       id="rect6731-9-10"
       style="fill:#ffffff;stroke:#000000;stroke-width:1.00899994000000004;stroke-miterlimit:4;stroke-opacity:1;stroke-dasharray:none;stroke-dashoffset:0;fill-opacity:1" />
    <g
       transform="translate(-964.34107,-233.73496)"
       id="g7161">
      <path
         style="font-size:144px;font-style:normal;font-variant:normal;font-weight:500;font-stretch:normal;text-align:start;line-height:125%;letter-spacing:0px;word-spacing:0px;text-anchor:start;fill:#ff0000;fill-opacity:1;stroke:none;font-family:GL-MahjongTile;-inkscape-font-specification:GL-MahjongTile Medium"
         d="m 862.91518,597.60268 c -1.05605,3e-5 -3.74255,0.56678 -8.0625,1.71875 -4.22404,1.15203 -8.13554,2.01778 -11.6875,2.59375 -0.38403,1.63202 -0.56253,4.25827 -0.5625,7.90625 -3e-5,4.70401 0.71622,7.51101 2.15625,8.375 0.38397,-0.38399 0.80122,-0.98199 1.28125,-1.75 l 0.59375,-1.125 c 1.15196,-0.47999 1.92846,-0.71874 2.3125,-0.71875 -4e-5,0.38401 -0.0602,1.10026 -0.15625,2.15625 -4e-5,1.05601 -4e-5,1.71201 0,2 -2.30404,0.76801 -4.12478,1.15626 -5.46875,1.15625 -0.57603,-1.05599 -1.05353,-2.39924 -1.4375,-4.03125 -0.38403,-1.63199 -0.86153,-2.88599 -1.4375,-3.75 -0.48003,-0.95998 -1.31678,-1.52673 -2.46875,-1.71875 -0.38403,0.38402 -0.56253,0.68302 -0.5625,0.875 -3e-5,0.48001 0.0892,1.19626 0.28125,2.15625 0.19197,0.86401 0.43072,1.99751 0.71875,3.4375 0.28797,1.34401 0.49775,2.41951 0.59375,3.1875 l -0.59375,0 c -0.86403,1e-5 -2.05778,-0.12049 -3.59375,-0.3125 -1.53602,-0.192 -2.72977,-0.28124 -3.59375,-0.28125 -2e-5,0.19201 -0.0602,0.40176 -0.15625,0.59375 -2e-5,0.19201 -2e-5,0.31025 0,0.40625 -2e-5,1.056 0.77648,1.89275 2.3125,2.46875 1.53598,0.576 3.20722,0.84375 5.03125,0.84375 l 1.75,0 c 0.096,0.192 0.21422,0.6405 0.40625,1.3125 0.19197,0.672 0.40172,1.299 0.59375,1.875 0.28797,0.576 0.52672,1.203 0.71875,1.875 0.28797,0.576 0.58697,1.0535 0.875,1.4375 0.38397,0.384 0.71197,0.5625 1,0.5625 0.28797,0 0.52672,-0.0892 0.71875,-0.28125 0.192,-0.192 0.28122,-0.43075 0.28125,-0.71875 0.096,-0.384 0.15622,-0.683 0.15625,-0.875 0.096,-0.288 0.12497,-0.67625 0.125,-1.15625 0.096,-0.48 0.15622,-0.74775 0.15625,-0.84375 2.59196,0.768 4.11371,1.15625 4.59375,1.15625 0.28796,0 0.73646,-0.23875 1.3125,-0.71875 0.57596,-0.48 1.05346,-0.779 1.4375,-0.875 1.34396,0.864 3.6422,1.9685 6.90625,3.3125 3.35995,1.248 5.6582,1.87499 6.90625,1.875 0.86394,-10e-6 2.11794,-0.299 3.75,-0.875 1.72794,-0.672 2.83244,-1 3.3125,-1 1.91994,0 3.50193,-0.41725 4.75,-1.28125 1.24793,-0.864 1.87493,-2.118 1.875,-3.75 -7e-5,-1.92 -1.16482,-3.62249 -3.46875,-5.0625 -2.20806,-1.43999 -4.35681,-2.39499 -6.46875,-2.875 -2.11206,-0.47999 -4.08231,-0.74775 -5.90625,-0.84375 -0.192,-1.72799 -0.2813,-3.37024 -0.28125,-4.90625 -5e-5,-2.68798 0.32795,-5.28523 1,-7.78125 l 1,-3.75 c -6e-5,-1.34397 -0.98405,-1.99997 -3,-2 z m -4.625,3.59375 c -5e-5,0.38402 -0.029,0.92177 -0.125,1.59375 -5e-5,0.67202 -5e-5,1.23877 0,1.71875 -0.57605,0.096 -1.50205,0.27452 -2.75,0.5625 -1.24804,0.19202 -2.35254,0.40177 -3.3125,0.59375 -4e-5,-0.38398 0.0602,-0.86148 0.15625,-1.4375 0.192,-0.57598 0.28121,-1.11373 0.28125,-1.59375 0.67196,-0.096 1.56671,-0.27448 2.71875,-0.5625 1.15195,-0.38398 2.1672,-0.68297 3.03125,-0.875 z m -8.78125,2.15625 c -0.192,1.15202 -0.28129,2.10702 -0.28125,2.875 l -2.59375,0.4375 -0.28125,-0.15625 -0.3125,0 0,-2.5625 3.46875,-0.59375 z m 8.5,3.3125 c -0.096,0.76802 -0.1563,1.87252 -0.15625,3.3125 -2.49604,0.76802 -4.40604,1.2165 -5.75,1.3125 l 0,-3.1875 c 1.82396,-0.28798 3.7942,-0.76548 5.90625,-1.4375 z m -9.0625,2.03125 0,3.3125 c -1.34404,0.192 -2.27004,0.28126 -2.75,0.28125 -4e-5,-0.19199 -0.0602,-0.51999 -0.15625,-1 -4e-5,-0.47998 -4e-5,-0.83923 0,-1.03125 -4e-5,-0.19198 -4e-5,-0.37048 0,-0.5625 -4e-5,-0.28798 -4e-5,-0.49775 0,-0.59375 0.096,-0.096 0.45521,-0.12498 1.03125,-0.125 0.67196,-0.096 1.29896,-0.18525 1.875,-0.28125 z m 8.90625,3.71875 c 0.096,0.86401 0.1562,2.11801 0.15625,3.75 -1.63205,0.67201 -3.51304,1.20976 -5.625,1.59375 l 0,-3.875 2.875,-0.75 c 1.24795,-0.28799 2.1137,-0.52674 2.59375,-0.71875 z m 6.78125,6.21875 c 1.63194,0.096 3.45269,0.51326 5.46875,1.28125 2.01594,0.67201 3.03119,1.38826 3.03125,2.15625 -6e-5,1.056 -0.38831,1.8325 -1.15625,2.3125 -0.76806,0.384 -1.81231,0.62275 -3.15625,0.71875 -1.34406,0.096 -2.27006,0.2455 -2.75,0.4375 -0.38406,0.192 -1.1003,0.6695 -2.15625,1.4375 -1.05605,0.672 -1.98205,1 -2.75,1 -0.86405,0 -2.0578,-0.299 -3.59375,-0.875 -1.53605,-0.672 -2.49104,-1.26775 -2.875,-1.84375 0.47996,-0.192 1.0467,-0.55125 1.71875,-1.03125 0.76795,-0.48 1.4552,-0.808 2.03125,-1 0.096,0.192 0.24545,0.52 0.4375,1 0.19195,0.48 0.31025,0.779 0.40625,0.875 1.72795,0 3.5197,-0.627 5.34375,-1.875 0.28795,-0.576 0.43745,-1.11375 0.4375,-1.59375 -5e-5,-0.47999 -0.0893,-1.04674 -0.28125,-1.71875 -0.0961,-0.67199 -0.1563,-1.08924 -0.15625,-1.28125 z m -6.46875,0.125 c -0.096,0.48001 -0.067,1.25651 0.125,2.3125 -0.67205,0.19201 -1.3883,0.43075 -2.15625,0.71875 -0.67204,0.288 -1.23879,0.52675 -1.71875,0.71875 -0.38404,0.096 -0.77229,0.15625 -1.15625,0.15625 -0.48004,0 -0.71879,-0.7765 -0.71875,-2.3125 3.16795,-0.95999 5.04895,-1.49775 5.625,-1.59375 z m -9.375,2.59375 c -4e-5,0.96 0.23871,1.7365 0.71875,2.3125 -1.72804,0.768 -3.24979,1.30575 -4.59375,1.59375 -0.28803,-0.576 -0.64728,-1.3525 -1.03125,-2.3125 l 4.90625,-1.59375 z"
         id="path4009"
         inkscape:connector-curvature="0" />
      <path
         style="font-size:144px;font-style:normal;font-variant:normal;font-weight:500;font-stretch:normal;text-align:start;line-height:125%;letter-spacing:0px;word-spacing:0px;text-anchor:start;fill:#ff0000;fill-opacity:1;stroke:none;font-family:GL-MahjongTile;-inkscape-font-specification:GL-MahjongTile Medium"
         d="m 866.93548,594.86054 c -2.88005,3e-5 -7.15205,0.86403 -12.816,2.592 -5.66404,1.63203 -9.40803,2.44803 -11.232,2.448 -5.76003,3e-5 -9.50402,-1.05597 -11.232,-3.168 1.72798,-1.05597 3.02398,-1.58397 3.888,-1.584 0.95997,3e-5 2.39997,0.24003 4.32,0.72 2.01597,0.48003 3.69597,0.72003 5.04,0.72 1.91996,3e-5 3.21596,-0.19197 3.888,-0.576 0.67196,-0.38397 1.00796,-1.24797 1.008,-2.592 -4e-5,-0.28797 -0.28804,-0.47997 -0.864,-0.576 -0.48004,-0.19197 -0.81604,-0.43197 -1.008,-0.72 -4e-5,-0.38397 0.048,-0.67196 0.144,-0.864 0.19196,-0.19196 0.43196,-0.43196 0.72,-0.72 0.38396,-0.38396 0.67196,-0.76796 0.864,-1.152 0.19196,-0.28796 0.52796,-0.86396 1.008,-1.728 0.57596,-0.95996 1.00796,-1.58396 1.296,-1.872 0.38396,-0.38396 0.81596,-0.57596 1.296,-0.576 0.67196,4e-5 1.00796,0.48004 1.008,1.44 -4e-5,0.76804 -0.096,1.58404 -0.288,2.448 -0.096,0.76804 -0.33604,1.68004 -0.72,2.736 -0.28804,0.96003 -0.48004,1.72803 -0.576,2.304 0.19196,0.48003 0.52796,0.72003 1.008,0.72 0.57596,3e-5 1.39196,-1.10397 2.448,-3.312 1.15195,-2.20796 1.72795,-3.79196 1.728,-4.752 -5e-5,-0.57596 -0.33605,-1.10396 -1.008,-1.584 -0.57605,-0.57596 -0.96005,-1.00796 -1.152,-1.296 0.76795,-1.72796 2.44795,-3.07195 5.04,-4.032 1.91995,0.67205 2.87995,2.44804 2.88,5.328 -5e-5,0.96004 -0.43205,2.11204 -1.296,3.456 -0.76805,1.34404 -1.20005,2.59204 -1.296,3.744 0.76795,-0.096 1.82395,-0.28797 3.168,-0.576 1.34395,-0.28797 2.68794,-0.47996 4.032,-0.576 1.34394,-0.19196 2.78394,-0.28796 4.32,-0.288 3.07193,4e-5 4.84793,0.33604 5.328,1.008 -0.67207,1.34403 -1.72807,2.35203 -3.168,3.024 -1.24806,-0.096 -3.84006,-0.14397 -7.776,-0.144"
         id="path4007"
         inkscape:connector-curvature="0" />
      <path
         style="font-size:144px;font-style:normal;font-variant:normal;font-weight:500;font-stretch:normal;text-align:start;line-height:125%;letter-spacing:0px;word-spacing:0px;text-anchor:start;fill:#000000;fill-opacity:1;stroke:none;font-family:GL-MahjongTile;-inkscape-font-specification:GL-MahjongTile Medium"
         d="m 855.84748,564.04454 c -5e-5,2.11206 0.19195,3.40806 0.576,3.888 0.76795,0.96006 2.01595,1.92006 3.744,2.88 1.72795,0.86405 3.21595,1.29605 4.464,1.296 1.43994,5e-5 2.63994,-0.33595 3.6,-1.008 0.0959,-0.57594 0.14394,-1.48794 0.144,-2.736 -6e-5,-0.95994 -0.0961,-2.30394 -0.288,-4.032 -0.19206,-1.82394 -0.28806,-3.21593 -0.288,-4.176 0.76794,7e-5 1.67994,1.44006 2.736,4.32 1.15194,2.78406 1.82394,4.22406 2.016,4.32 1.34394,0.38406 2.63994,1.00806 3.888,1.872 1.24793,0.86405 1.87193,1.82405 1.872,2.88 -7e-5,1.53605 -1.24807,2.88005 -3.744,4.032 -2.49606,1.05605 -4.94406,1.58405 -7.344,1.584 -4.41605,5e-5 -7.92005,-1.00795 -10.512,-3.024 -2.78404,-2.20795 -4.17604,-4.60795 -4.176,-7.2 -4e-5,-4.03194 0.23996,-7.10394 0.72,-9.216 0.57596,-2.20793 0.86396,-3.40793 0.864,-3.6 -4e-5,-0.19193 -0.096,-0.67193 -0.288,-1.44 -0.67204,7e-5 -1.10404,0.19207 -1.296,0.576 -0.19204,0.28807 -0.38404,1.29607 -0.576,3.024 -0.28804,3.07207 -3.21604,6.48006 -8.784,10.224 -5.47203,3.74405 -9.31202,5.61605 -11.52,5.616 -0.48002,5e-5 -0.91202,-0.19195 -1.296,-0.576 0.19198,-0.28795 1.19998,-0.86395 3.024,-1.728 1.82398,-0.86394 3.98397,-2.20794 6.48,-4.032 2.59197,-1.91994 4.75197,-4.22394 6.48,-6.912 -0.19204,-0.38393 -0.81603,-0.91193 -1.872,-1.584 -0.96003,-0.76793 -1.44003,-1.43993 -1.44,-2.016 -3e-5,-0.38393 0.47997,-0.81593 1.44,-1.296 0.95997,-0.57593 1.58396,-1.19993 1.872,-1.872 -4e-5,-0.67193 -0.14404,-1.53593 -0.432,-2.592 -0.19204,-1.15192 -0.28804,-1.96792 -0.288,-2.448 -4e-5,-1.24792 0.33596,-2.11192 1.008,-2.592 3.26396,8e-5 5.47196,1.15208 6.624,3.456 0.096,8e-5 0.28796,0.0481 0.576,0.144 0.28796,8e-5 0.52796,8e-5 0.72,0 0.67196,-1.34392 1.10395,-2.01592 1.296,-2.016 0.28795,8e-5 0.57595,0.0481 0.864,0.144 0.38395,0.0961 0.71995,0.14408 1.008,0.144 1.05595,8e-5 2.59195,-0.62392 4.608,-1.872 2.11195,-1.24792 3.50394,-1.87192 4.176,-1.872 1.24794,8e-5 1.87194,1.15208 1.872,3.456 -6e-5,0.76808 -0.91206,1.87208 -2.736,3.312 -0.096,0.19207 -0.43205,0.24007 -1.008,0.144 -0.57605,-0.19192 -0.96005,-0.28792 -1.152,-0.288 -2.20805,8e-5 -4.12805,0.33607 -5.76,1.008 -1.24805,4.70407 -1.87205,8.64007 -1.872,11.808"
         id="path3041"
         inkscape:connector-curvature="0" />
    </g>
  </g>
</svg>
