<?xml version="1.0" encoding="UTF-8" standalone="no"?>
<!-- Created with Inkscape (http://www.inkscape.org/) -->

<svg
   xmlns:dc="http://purl.org/dc/elements/1.1/"
   xmlns:cc="http://creativecommons.org/ns#"
   xmlns:rdf="http://www.w3.org/1999/02/22-rdf-syntax-ns#"
   xmlns:svg="http://www.w3.org/2000/svg"
   xmlns="http://www.w3.org/2000/svg"
   xmlns:sodipodi="http://sodipodi.sourceforge.net/DTD/sodipodi-0.dtd"
   xmlns:inkscape="http://www.inkscape.org/namespaces/inkscape"
   width="79.571373"
   height="115.96954"
   id="svg3237"
   version="1.1"
   inkscape:version="0.48.3.1 r9886"
   sodipodi:docname="P4.svg">
  <defs
     id="defs3239" />
  <sodipodi:namedview
     id="base"
     pagecolor="#ffffff"
     bordercolor="#666666"
     borderopacity="1.0"
     inkscape:pageopacity="0.0"
     inkscape:pageshadow="2"
     inkscape:zoom="0.7"
     inkscape:cx="-49.753123"
     inkscape:cy="64.293937"
     inkscape:document-units="px"
     inkscape:current-layer="layer1"
     showgrid="false"
     fit-margin-top="0"
     fit-margin-left="0"
     fit-margin-right="0"
     fit-margin-bottom="0"
     inkscape:window-width="748"
     inkscape:window-height="600"
     inkscape:window-x="530"
     inkscape:window-y="365"
     inkscape:window-maximized="0" />
  <metadata
     id="metadata3242">
    <rdf:RDF>
      <cc:Work
         rdf:about="">
        <dc:format>image/svg+xml</dc:format>
        <dc:type
           rdf:resource="http://purl.org/dc/dcmitype/StillImage" />
        <dc:title />
      </cc:Work>
    </rdf:RDF>
  </metadata>
  <g
     inkscape:label="Layer 1"
     inkscape:groupmode="layer"
     id="layer1"
     transform="translate(100.0301,-471.0197)">
    <rect
       ry="5.4056678"
       y="471.5242"
       x="-99.525604"
       height="114.96053"
       width="78.56237"
       id="rect6731-9-50"
       style="fill:#ffffff;stroke:#000000;stroke-width:1.00899994;stroke-miterlimit:4;stroke-opacity:1;stroke-dasharray:none;stroke-dashoffset:0" />
    <g
       transform="translate(-451.25111,-514.51561)"
       id="g7484">
      <path
         style="font-size:144px;font-style:normal;font-variant:normal;font-weight:500;font-stretch:normal;text-align:start;line-height:125%;letter-spacing:0px;word-spacing:0px;text-anchor:start;fill:#000000;fill-opacity:1;stroke:none;font-family:GL-MahjongTile;-inkscape-font-specification:GL-MahjongTile Medium"
         d="m 408.27232,1062.2545 c -3.74402,0 -6.96827,1.3433 -9.65625,4.0312 -2.68801,2.6881 -4.03126,5.9123 -4.03125,9.6563 -10e-6,3.744 1.34324,6.937 4.03125,9.6249 2.68798,2.6881 5.91223,4.0314 9.65625,4.0313 3.74397,1e-4 6.96822,-1.3432 9.65625,-4.0313 2.68796,-2.6879 4.03121,-5.8809 4.03125,-9.6249 -4e-5,-3.744 -1.34329,-6.9682 -4.03125,-9.6563 -2.68803,-2.6879 -5.91228,-4.0312 -9.65625,-4.0312 z m 0,2.1562 c 3.16797,1e-4 5.85447,1.1648 8.0625,3.4688 2.30396,2.208 3.43746,4.8945 3.4375,8.0625 -4e-5,3.168 -1.13354,5.8835 -3.4375,8.1875 -2.20803,2.208 -4.89453,3.3125 -8.0625,3.3124 -3.16802,10e-5 -5.91477,-1.1044 -8.21875,-3.3124 -2.20802,-2.304 -3.31252,-5.0195 -3.3125,-8.1875 -2e-5,-3.168 1.10448,-5.8545 3.3125,-8.0625 2.30398,-2.304 5.05073,-3.4687 8.21875,-3.4688 z"
         id="path4836-7"
         inkscape:connector-curvature="0" />
      <path
         style="font-size:144px;font-style:normal;font-variant:normal;font-weight:500;font-stretch:normal;text-align:start;line-height:125%;letter-spacing:0px;word-spacing:0px;text-anchor:start;fill:#000000;fill-opacity:1;stroke:none;font-family:GL-MahjongTile;-inkscape-font-specification:GL-MahjongTile Medium"
         d="m 408.27232,1065.8482 c -2.78402,1e-4 -5.20277,1.0153 -7.21875,3.0313 -1.92002,1.92 -2.87502,4.2785 -2.875,7.0625 -2e-5,2.784 0.95498,5.1715 2.875,7.1875 2.01598,1.92 4.43473,2.875 7.21875,2.8749 2.78397,10e-5 5.14247,-0.9549 7.0625,-2.8749 2.01596,-2.016 2.99996,-4.4035 3,-7.1875 -4e-5,-2.784 -0.98404,-5.1425 -3,-7.0625 -1.92003,-2.016 -4.27853,-3.0312 -7.0625,-3.0313 z m 0,1.4375 c 0.95997,1e-4 2.00422,0.2098 3.15625,0.5938 l 0.59375,1.5625 -1.59375,2.3125 -0.59375,0 c -0.38403,-0.096 -0.89053,-0.1562 -1.5625,-0.1563 -0.67203,1e-4 -1.20978,0.06 -1.59375,0.1563 l -0.5625,0 -1.59375,-2.3125 0.5625,-1.5625 c 1.15198,-0.384 2.22747,-0.5937 3.1875,-0.5938 z m -6.625,3.0313 1.71875,0 1.59375,2.3125 c -0.096,0.192 -0.24552,0.4598 -0.4375,0.8437 -0.19202,0.3841 -0.3415,0.7723 -0.4375,1.1563 -0.096,0.384 -0.12502,0.8615 -0.125,1.4375 l -0.3125,0.5937 -2.71875,0.8438 -1.3125,-1 0,-0.5625 c -2e-5,-2.112 0.68723,-3.993 2.03125,-5.625 z m 11.5,0 1.75,0 c 1.34397,1.632 1.99996,3.513 2,5.625 l 0,0.5625 -1.28125,1 -2.75,-0.8438 -0.28125,-0.5937 c -3e-5,-0.576 -0.0602,-1.0535 -0.15625,-1.4375 -0.096,-0.384 -0.21428,-0.7722 -0.40625,-1.1563 -0.19203,-0.3839 -0.3415,-0.6517 -0.4375,-0.8437 l 1.5625,-2.3125 z m -4.875,2.7187 c 0.76797,1e-4 1.42397,0.2991 2,0.875 0.57597,0.5761 0.87497,1.2633 0.875,2.0313 -3e-5,0.768 -0.29903,1.424 -0.875,2 -0.57603,0.576 -1.23203,0.875 -2,0.875 -0.76803,0 -1.45528,-0.299 -2.03125,-0.875 -0.57602,-0.576 -0.84377,-1.232 -0.84375,-2 -2e-5,-0.768 0.26773,-1.4552 0.84375,-2.0313 0.57597,-0.5759 1.26322,-0.8749 2.03125,-0.875 z m -4.1875,5.0625 0.59375,0.2813 c 0.57598,0.864 1.38148,1.4308 2.4375,1.7187 l 0.4375,0.4375 0,2.875 -1.3125,0.875 c -2.40002,-0.5759 -4.16052,-1.8299 -5.3125,-3.75 l 0.5625,-1.5937 2.59375,-0.8438 z m 8.34375,0 2.59375,0.8438 0.59375,1.5937 c -1.15203,1.9201 -2.94378,3.1741 -5.34375,3.75 l -1.28125,-0.875 0,-2.875 c 0.86397,-0.3839 1.99747,-1.1894 3.4375,-2.4375 z"
         id="path4834-87"
         inkscape:connector-curvature="0" />
      <path
         style="font-size:144px;font-style:normal;font-variant:normal;font-weight:500;font-stretch:normal;text-align:start;line-height:125%;letter-spacing:0px;word-spacing:0px;text-anchor:start;fill:#000000;fill-opacity:1;stroke:none;font-family:GL-MahjongTile;-inkscape-font-specification:GL-MahjongTile Medium"
         d="m 408.26587,1074.4913 c 0.95997,1e-4 1.43997,0.4801 1.44,1.44 -3e-5,0.9601 -0.48003,1.4401 -1.44,1.44 -0.96003,10e-5 -1.44003,-0.4799 -1.44,-1.44 -3e-5,-0.9599 0.47997,-1.4399 1.44,-1.44"
         id="path4830-55"
         inkscape:connector-curvature="0" />
      <path
         style="font-size:144px;font-style:normal;font-variant:normal;font-weight:500;font-stretch:normal;text-align:start;line-height:125%;letter-spacing:0px;word-spacing:0px;text-anchor:start;fill:#0000ff;fill-opacity:1;stroke:none;font-family:GL-MahjongTile;-inkscape-font-specification:GL-MahjongTile Medium"
         d="m 373.74107,1062.2545 c -3.74402,0 -6.96827,1.3433 -9.65625,4.0312 -2.68801,2.6881 -4.03126,5.9123 -4.03125,9.6563 -10e-6,3.744 1.34324,6.937 4.03125,9.6249 2.68798,2.6881 5.91223,4.0314 9.65625,4.0313 3.74397,1e-4 6.96822,-1.3432 9.65625,-4.0313 2.68796,-2.6879 4.03121,-5.8809 4.03125,-9.6249 -4e-5,-3.744 -1.34329,-6.9682 -4.03125,-9.6563 -2.68803,-2.6879 -5.91228,-4.0312 -9.65625,-4.0312 z m 0,2.1562 c 3.16797,1e-4 5.85447,1.1648 8.0625,3.4688 2.30396,2.208 3.43746,4.8945 3.4375,8.0625 -4e-5,3.168 -1.13354,5.8835 -3.4375,8.1875 -2.20803,2.208 -4.89453,3.3125 -8.0625,3.3124 -3.16802,10e-5 -5.91477,-1.1044 -8.21875,-3.3124 -2.20802,-2.304 -3.31252,-5.0195 -3.3125,-8.1875 -2e-5,-3.168 1.10448,-5.8545 3.3125,-8.0625 2.30398,-2.304 5.05073,-3.4687 8.21875,-3.4688 z"
         id="path4836-5"
         inkscape:connector-curvature="0" />
      <path
         style="font-size:144px;font-style:normal;font-variant:normal;font-weight:500;font-stretch:normal;text-align:start;line-height:125%;letter-spacing:0px;word-spacing:0px;text-anchor:start;fill:#0000ff;fill-opacity:1;stroke:none;font-family:GL-MahjongTile;-inkscape-font-specification:GL-MahjongTile Medium"
         d="m 373.74107,1065.8482 c -2.78402,1e-4 -5.20277,1.0153 -7.21875,3.0313 -1.92002,1.92 -2.87502,4.2785 -2.875,7.0625 -2e-5,2.784 0.95498,5.1715 2.875,7.1875 2.01598,1.92 4.43473,2.875 7.21875,2.8749 2.78397,10e-5 5.14247,-0.9549 7.0625,-2.8749 2.01596,-2.016 2.99996,-4.4035 3,-7.1875 -4e-5,-2.784 -0.98404,-5.1425 -3,-7.0625 -1.92003,-2.016 -4.27853,-3.0312 -7.0625,-3.0313 z m 0,1.4375 c 0.95997,1e-4 2.00422,0.2098 3.15625,0.5938 l 0.59375,1.5625 -1.59375,2.3125 -0.59375,0 c -0.38403,-0.096 -0.89053,-0.1562 -1.5625,-0.1563 -0.67203,1e-4 -1.20978,0.06 -1.59375,0.1563 l -0.5625,0 -1.59375,-2.3125 0.5625,-1.5625 c 1.15198,-0.384 2.22747,-0.5937 3.1875,-0.5938 z m -6.625,3.0313 1.71875,0 1.59375,2.3125 c -0.096,0.192 -0.24552,0.4598 -0.4375,0.8437 -0.19202,0.3841 -0.3415,0.7723 -0.4375,1.1563 -0.096,0.384 -0.12502,0.8615 -0.125,1.4375 l -0.3125,0.5937 -2.71875,0.8438 -1.3125,-1 0,-0.5625 c -2e-5,-2.112 0.68723,-3.993 2.03125,-5.625 z m 11.5,0 1.75,0 c 1.34397,1.632 1.99996,3.513 2,5.625 l 0,0.5625 -1.28125,1 -2.75,-0.8438 -0.28125,-0.5937 c -3e-5,-0.576 -0.0602,-1.0535 -0.15625,-1.4375 -0.096,-0.384 -0.21428,-0.7722 -0.40625,-1.1563 -0.19203,-0.3839 -0.3415,-0.6517 -0.4375,-0.8437 l 1.5625,-2.3125 z m -4.875,2.7187 c 0.76797,1e-4 1.42397,0.2991 2,0.875 0.57597,0.5761 0.87497,1.2633 0.875,2.0313 -3e-5,0.768 -0.29903,1.424 -0.875,2 -0.57603,0.576 -1.23203,0.875 -2,0.875 -0.76803,0 -1.45528,-0.299 -2.03125,-0.875 -0.57602,-0.576 -0.84377,-1.232 -0.84375,-2 -2e-5,-0.768 0.26773,-1.4552 0.84375,-2.0313 0.57597,-0.5759 1.26322,-0.8749 2.03125,-0.875 z m -4.1875,5.0625 0.59375,0.2813 c 0.57598,0.864 1.38148,1.4308 2.4375,1.7187 l 0.4375,0.4375 0,2.875 -1.3125,0.875 c -2.40002,-0.5759 -4.16052,-1.8299 -5.3125,-3.75 l 0.5625,-1.5937 2.59375,-0.8438 z m 8.34375,0 2.59375,0.8438 0.59375,1.5937 c -1.15203,1.9201 -2.94378,3.1741 -5.34375,3.75 l -1.28125,-0.875 0,-2.875 c 0.86397,-0.3839 1.99747,-1.1894 3.4375,-2.4375 z"
         id="path4834-8"
         inkscape:connector-curvature="0" />
      <path
         style="font-size:144px;font-style:normal;font-variant:normal;font-weight:500;font-stretch:normal;text-align:start;line-height:125%;letter-spacing:0px;word-spacing:0px;text-anchor:start;fill:#0000ff;fill-opacity:1;stroke:none;font-family:GL-MahjongTile;-inkscape-font-specification:GL-MahjongTile Medium"
         d="m 373.73462,1074.4913 c 0.95997,1e-4 1.43997,0.4801 1.44,1.44 -3e-5,0.9601 -0.48003,1.4401 -1.44,1.44 -0.96003,10e-5 -1.44003,-0.4799 -1.44,-1.44 -3e-5,-0.9599 0.47997,-1.4399 1.44,-1.44"
         id="path4830-05"
         inkscape:connector-curvature="0" />
      <path
         style="font-size:144px;font-style:normal;font-variant:normal;font-weight:500;font-stretch:normal;text-align:start;line-height:125%;letter-spacing:0px;word-spacing:0px;text-anchor:start;fill:#000000;fill-opacity:1;stroke:none;font-family:GL-MahjongTile;-inkscape-font-specification:GL-MahjongTile Medium"
         d="m 373.74107,997.44196 c -3.74402,8e-5 -6.96827,1.34334 -9.65625,4.03124 -2.68801,2.6881 -4.03126,5.9123 -4.03125,9.6563 -10e-6,3.744 1.34324,6.937 4.03125,9.625 2.68798,2.688 5.91223,4.0313 9.65625,4.0312 3.74397,1e-4 6.96822,-1.3432 9.65625,-4.0312 2.68796,-2.688 4.03121,-5.881 4.03125,-9.625 -4e-5,-3.744 -1.34329,-6.9682 -4.03125,-9.6563 -2.68803,-2.6879 -5.91228,-4.03116 -9.65625,-4.03124 z m 0,2.15625 c 3.16797,8e-5 5.85447,1.16479 8.0625,3.46879 2.30396,2.208 3.43746,4.8945 3.4375,8.0625 -4e-5,3.168 -1.13354,5.8835 -3.4375,8.1875 -2.20803,2.208 -4.89453,3.3125 -8.0625,3.3125 -3.16802,0 -5.91477,-1.1045 -8.21875,-3.3125 -2.20802,-2.304 -3.31252,-5.0195 -3.3125,-8.1875 -2e-5,-3.168 1.10448,-5.8545 3.3125,-8.0625 2.30398,-2.304 5.05073,-3.46871 8.21875,-3.46879 z"
         id="path4836-3"
         inkscape:connector-curvature="0" />
      <path
         style="font-size:144px;font-style:normal;font-variant:normal;font-weight:500;font-stretch:normal;text-align:start;line-height:125%;letter-spacing:0px;word-spacing:0px;text-anchor:start;fill:#000000;fill-opacity:1;stroke:none;font-family:GL-MahjongTile;-inkscape-font-specification:GL-MahjongTile Medium"
         d="m 373.74107,1001.0357 c -2.78402,10e-5 -5.20277,1.0153 -7.21875,3.0313 -1.92002,1.92 -2.87502,4.2785 -2.875,7.0625 -2e-5,2.784 0.95498,5.1715 2.875,7.1875 2.01598,1.92 4.43473,2.875 7.21875,2.875 2.78397,0 5.14247,-0.955 7.0625,-2.875 2.01596,-2.016 2.99996,-4.4035 3,-7.1875 -4e-5,-2.784 -0.98404,-5.1425 -3,-7.0625 -1.92003,-2.016 -4.27853,-3.0312 -7.0625,-3.0313 z m 0,1.4375 c 0.95997,10e-5 2.00422,0.2098 3.15625,0.5938 l 0.59375,1.5625 -1.59375,2.3125 -0.59375,0 c -0.38403,-0.096 -0.89053,-0.1562 -1.5625,-0.1563 -0.67203,10e-5 -1.20978,0.06 -1.59375,0.1563 l -0.5625,0 -1.59375,-2.3125 0.5625,-1.5625 c 1.15198,-0.384 2.22747,-0.5937 3.1875,-0.5938 z m -6.625,3.0313 1.71875,0 1.59375,2.3125 c -0.096,0.192 -0.24552,0.4598 -0.4375,0.8437 -0.19202,0.3841 -0.3415,0.7723 -0.4375,1.1563 -0.096,0.384 -0.12502,0.8615 -0.125,1.4375 l -0.3125,0.5937 -2.71875,0.8438 -1.3125,-1 0,-0.5625 c -2e-5,-2.112 0.68723,-3.993 2.03125,-5.625 z m 11.5,0 1.75,0 c 1.34397,1.632 1.99996,3.513 2,5.625 l 0,0.5625 -1.28125,1 -2.75,-0.8438 -0.28125,-0.5937 c -3e-5,-0.576 -0.0602,-1.0535 -0.15625,-1.4375 -0.096,-0.384 -0.21428,-0.7722 -0.40625,-1.1563 -0.19203,-0.3839 -0.3415,-0.6517 -0.4375,-0.8437 l 1.5625,-2.3125 z m -4.875,2.7187 c 0.76797,10e-5 1.42397,0.2991 2,0.875 0.57597,0.5761 0.87497,1.2633 0.875,2.0313 -3e-5,0.768 -0.29903,1.424 -0.875,2 -0.57603,0.576 -1.23203,0.875 -2,0.875 -0.76803,0 -1.45528,-0.299 -2.03125,-0.875 -0.57602,-0.576 -0.84377,-1.232 -0.84375,-2 -2e-5,-0.768 0.26773,-1.4552 0.84375,-2.0313 0.57597,-0.5759 1.26322,-0.8749 2.03125,-0.875 z m -4.1875,5.0625 0.59375,0.2813 c 0.57598,0.864 1.38148,1.4308 2.4375,1.7187 l 0.4375,0.4375 0,2.875 -1.3125,0.875 c -2.40002,-0.5759 -4.16052,-1.8299 -5.3125,-3.75 l 0.5625,-1.5937 2.59375,-0.8438 z m 8.34375,0 2.59375,0.8438 0.59375,1.5937 c -1.15203,1.9201 -2.94378,3.1741 -5.34375,3.75 l -1.28125,-0.875 0,-2.875 c 0.86397,-0.3839 1.99747,-1.1894 3.4375,-2.4375 z"
         id="path4834-85"
         inkscape:connector-curvature="0" />
      <path
         style="font-size:144px;font-style:normal;font-variant:normal;font-weight:500;font-stretch:normal;text-align:start;line-height:125%;letter-spacing:0px;word-spacing:0px;text-anchor:start;fill:#000000;fill-opacity:1;stroke:none;font-family:GL-MahjongTile;-inkscape-font-specification:GL-MahjongTile Medium"
         d="m 373.73462,1009.6788 c 0.95997,10e-5 1.43997,0.4801 1.44,1.44 -3e-5,0.9601 -0.48003,1.4401 -1.44,1.44 -0.96003,10e-5 -1.44003,-0.4799 -1.44,-1.44 -3e-5,-0.9599 0.47997,-1.4399 1.44,-1.44"
         id="path4830-4"
         inkscape:connector-curvature="0" />
      <path
         style="font-size:144px;font-style:normal;font-variant:normal;font-weight:500;font-stretch:normal;text-align:start;line-height:125%;letter-spacing:0px;word-spacing:0px;text-anchor:start;fill:#0000ff;fill-opacity:1;stroke:none;font-family:GL-MahjongTile;-inkscape-font-specification:GL-MahjongTile Medium"
         d="m 408.27232,997.44196 c -3.74402,8e-5 -6.96827,1.34334 -9.65625,4.03124 -2.68801,2.6881 -4.03126,5.9123 -4.03125,9.6563 -10e-6,3.744 1.34324,6.937 4.03125,9.625 2.68798,2.688 5.91223,4.0313 9.65625,4.0312 3.74397,1e-4 6.96822,-1.3432 9.65625,-4.0312 2.68796,-2.688 4.03121,-5.881 4.03125,-9.625 -4e-5,-3.744 -1.34329,-6.9682 -4.03125,-9.6563 -2.68803,-2.6879 -5.91228,-4.03116 -9.65625,-4.03124 z m 0,2.15625 c 3.16797,8e-5 5.85447,1.16479 8.0625,3.46879 2.30396,2.208 3.43746,4.8945 3.4375,8.0625 -4e-5,3.168 -1.13354,5.8835 -3.4375,8.1875 -2.20803,2.208 -4.89453,3.3125 -8.0625,3.3125 -3.16802,0 -5.91477,-1.1045 -8.21875,-3.3125 -2.20802,-2.304 -3.31252,-5.0195 -3.3125,-8.1875 -2e-5,-3.168 1.10448,-5.8545 3.3125,-8.0625 2.30398,-2.304 5.05073,-3.46871 8.21875,-3.46879 z"
         id="path4836-77"
         inkscape:connector-curvature="0" />
      <path
         style="font-size:144px;font-style:normal;font-variant:normal;font-weight:500;font-stretch:normal;text-align:start;line-height:125%;letter-spacing:0px;word-spacing:0px;text-anchor:start;fill:#0000ff;fill-opacity:1;stroke:none;font-family:GL-MahjongTile;-inkscape-font-specification:GL-MahjongTile Medium"
         d="m 408.27232,1001.0357 c -2.78402,10e-5 -5.20277,1.0153 -7.21875,3.0313 -1.92002,1.92 -2.87502,4.2785 -2.875,7.0625 -2e-5,2.784 0.95498,5.1715 2.875,7.1875 2.01598,1.92 4.43473,2.875 7.21875,2.875 2.78397,0 5.14247,-0.955 7.0625,-2.875 2.01596,-2.016 2.99996,-4.4035 3,-7.1875 -4e-5,-2.784 -0.98404,-5.1425 -3,-7.0625 -1.92003,-2.016 -4.27853,-3.0312 -7.0625,-3.0313 z m 0,1.4375 c 0.95997,10e-5 2.00422,0.2098 3.15625,0.5938 l 0.59375,1.5625 -1.59375,2.3125 -0.59375,0 c -0.38403,-0.096 -0.89053,-0.1562 -1.5625,-0.1563 -0.67203,10e-5 -1.20978,0.06 -1.59375,0.1563 l -0.5625,0 -1.59375,-2.3125 0.5625,-1.5625 c 1.15198,-0.384 2.22747,-0.5937 3.1875,-0.5938 z m -6.625,3.0313 1.71875,0 1.59375,2.3125 c -0.096,0.192 -0.24552,0.4598 -0.4375,0.8437 -0.19202,0.3841 -0.3415,0.7723 -0.4375,1.1563 -0.096,0.384 -0.12502,0.8615 -0.125,1.4375 l -0.3125,0.5937 -2.71875,0.8438 -1.3125,-1 0,-0.5625 c -2e-5,-2.112 0.68723,-3.993 2.03125,-5.625 z m 11.5,0 1.75,0 c 1.34397,1.632 1.99996,3.513 2,5.625 l 0,0.5625 -1.28125,1 -2.75,-0.8438 -0.28125,-0.5937 c -3e-5,-0.576 -0.0602,-1.0535 -0.15625,-1.4375 -0.096,-0.384 -0.21428,-0.7722 -0.40625,-1.1563 -0.19203,-0.3839 -0.3415,-0.6517 -0.4375,-0.8437 l 1.5625,-2.3125 z m -4.875,2.7187 c 0.76797,10e-5 1.42397,0.2991 2,0.875 0.57597,0.5761 0.87497,1.2633 0.875,2.0313 -3e-5,0.768 -0.29903,1.424 -0.875,2 -0.57603,0.576 -1.23203,0.875 -2,0.875 -0.76803,0 -1.45528,-0.299 -2.03125,-0.875 -0.57602,-0.576 -0.84377,-1.232 -0.84375,-2 -2e-5,-0.768 0.26773,-1.4552 0.84375,-2.0313 0.57597,-0.5759 1.26322,-0.8749 2.03125,-0.875 z m -4.1875,5.0625 0.59375,0.2813 c 0.57598,0.864 1.38148,1.4308 2.4375,1.7187 l 0.4375,0.4375 0,2.875 -1.3125,0.875 c -2.40002,-0.5759 -4.16052,-1.8299 -5.3125,-3.75 l 0.5625,-1.5937 2.59375,-0.8438 z m 8.34375,0 2.59375,0.8438 0.59375,1.5937 c -1.15203,1.9201 -2.94378,3.1741 -5.34375,3.75 l -1.28125,-0.875 0,-2.875 c 0.86397,-0.3839 1.99747,-1.1894 3.4375,-2.4375 z"
         id="path4834-4"
         inkscape:connector-curvature="0" />
      <path
         style="font-size:144px;font-style:normal;font-variant:normal;font-weight:500;font-stretch:normal;text-align:start;line-height:125%;letter-spacing:0px;word-spacing:0px;text-anchor:start;fill:#0000ff;fill-opacity:1;stroke:none;font-family:GL-MahjongTile;-inkscape-font-specification:GL-MahjongTile Medium"
         d="m 408.26587,1009.6788 c 0.95997,10e-5 1.43997,0.4801 1.44,1.44 -3e-5,0.9601 -0.48003,1.4401 -1.44,1.44 -0.96003,10e-5 -1.44003,-0.4799 -1.44,-1.44 -3e-5,-0.9599 0.47997,-1.4399 1.44,-1.44"
         id="path4830-49"
         inkscape:connector-curvature="0" />
    </g>
  </g>
</svg>
