<?xml version="1.0" encoding="UTF-8" standalone="no"?>
<!-- Created with Inkscape (http://www.inkscape.org/) -->

<svg
   xmlns:dc="http://purl.org/dc/elements/1.1/"
   xmlns:cc="http://creativecommons.org/ns#"
   xmlns:rdf="http://www.w3.org/1999/02/22-rdf-syntax-ns#"
   xmlns:svg="http://www.w3.org/2000/svg"
   xmlns="http://www.w3.org/2000/svg"
   xmlns:sodipodi="http://sodipodi.sourceforge.net/DTD/sodipodi-0.dtd"
   xmlns:inkscape="http://www.inkscape.org/namespaces/inkscape"
   width="79.571373"
   height="115.96954"
   id="svg3237"
   version="1.1"
   inkscape:version="0.48.3.1 r9886"
   sodipodi:docname="P6.svg">
  <defs
     id="defs3239" />
  <sodipodi:namedview
     id="base"
     pagecolor="#ffffff"
     bordercolor="#666666"
     borderopacity="1.0"
     inkscape:pageopacity="0.0"
     inkscape:pageshadow="2"
     inkscape:zoom="0.7"
     inkscape:cx="288.36398"
     inkscape:cy="82.402186"
     inkscape:document-units="px"
     inkscape:current-layer="layer1"
     showgrid="false"
     fit-margin-top="0"
     fit-margin-left="0"
     fit-margin-right="0"
     fit-margin-bottom="0"
     inkscape:window-width="748"
     inkscape:window-height="600"
     inkscape:window-x="362"
     inkscape:window-y="239"
     inkscape:window-maximized="0" />
  <metadata
     id="metadata3242">
    <rdf:RDF>
      <cc:Work
         rdf:about="">
        <dc:format>image/svg+xml</dc:format>
        <dc:type
           rdf:resource="http://purl.org/dc/dcmitype/StillImage" />
        <dc:title />
      </cc:Work>
    </rdf:RDF>
  </metadata>
  <g
     inkscape:label="Layer 1"
     inkscape:groupmode="layer"
     id="layer1"
     transform="translate(438.1472,-394.31624)">
    <rect
       ry="5.4056678"
       y="394.82074"
       x="-437.6427"
       height="114.96053"
       width="78.56237"
       id="rect6731-9-91"
       style="fill:#ffffff;stroke:#000000;stroke-width:1.00899994;stroke-miterlimit:4;stroke-opacity:1;stroke-dasharray:none;stroke-dashoffset:0" />
    <g
       transform="translate(-976.01103,-495.50479)"
       id="g7560">
      <path
         style="font-size:144px;font-style:normal;font-variant:normal;font-weight:500;font-stretch:normal;text-align:start;line-height:125%;letter-spacing:0px;word-spacing:0px;text-anchor:start;fill:#ff0000;fill-opacity:1;stroke:none;font-family:GL-MahjongTile;-inkscape-font-specification:GL-MahjongTile Medium"
         d="m 566.13393,951.41518 c -2.11203,4e-5 -3.99303,0.80553 -5.625,2.4375 -1.53603,1.53603 -2.28127,3.35678 -2.28125,5.46875 -2e-5,2.11203 0.74522,3.99302 2.28125,5.625 1.63197,1.53602 3.51297,2.31252 5.625,2.3125 2.11197,2e-5 3.93271,-0.77648 5.46875,-2.3125 1.63196,-1.63198 2.46871,-3.51297 2.46875,-5.625 -4e-5,-2.11197 -0.83679,-3.93272 -2.46875,-5.46875 -1.53604,-1.63197 -3.35678,-2.43746 -5.46875,-2.4375 z m 0,1.4375 c 0.95997,3e-5 1.82572,0.17853 2.59375,0.5625 l 0.4375,1.15625 -0.875,1.15625 -1,0.15625 c -0.19203,-0.096 -0.58028,-0.15622 -1.15625,-0.15625 -0.57603,3e-5 -0.96428,0.0602 -1.15625,0.15625 l -1,-0.15625 -0.875,-1.15625 0.4375,-1.15625 c 0.76797,-0.38397 1.63372,-0.56247 2.59375,-0.5625 z m -4.90625,2.15625 1.3125,0 0.875,1.15625 c -0.096,0.57603 -0.30578,1.08253 -0.59375,1.5625 -0.192,0.48003 -0.28128,1.01778 -0.28125,1.59375 -0.28803,0.76803 -0.91503,1.24553 -1.875,1.4375 l -1,-0.84375 0,-0.59375 c -3e-5,-1.63197 0.50647,-3.06447 1.5625,-4.3125 z m 8.5,0 1.3125,0 c 1.05596,1.24803 1.56246,2.68053 1.5625,4.3125 l 0,0.59375 -1,0.84375 -1.28125,-0.4375 -0.59375,-1 c -4e-5,-0.57597 -0.14954,-1.11372 -0.4375,-1.59375 -0.19204,-0.47997 -0.31025,-0.98647 -0.40625,-1.5625 l 0.84375,-1.15625 z m -3.59375,2.15625 c 0.57597,3e-5 1.05347,0.23878 1.4375,0.71875 0.47997,0.38403 0.71872,0.86153 0.71875,1.4375 -3e-5,0.57603 -0.23878,1.11378 -0.71875,1.59375 -0.38403,0.38403 -0.86153,0.56252 -1.4375,0.5625 -0.57603,2e-5 -1.11378,-0.17847 -1.59375,-0.5625 -0.38403,-0.47997 -0.56253,-1.01772 -0.5625,-1.59375 -3e-5,-0.57597 0.17847,-1.05347 0.5625,-1.4375 0.47997,-0.47997 1.01772,-0.71872 1.59375,-0.71875 z m -3.875,3.75 0.84375,0.4375 c 0.57597,0.67202 1.26322,1.14952 2.03125,1.4375 l 0.71875,0.71875 0,1.4375 -1.15625,0.71875 c -1.63203,-0.38398 -3.03553,-1.39923 -4.1875,-3.03125 l 0.4375,-1.28125 1.3125,-0.4375 z m 7.78125,0 1.28125,0.4375 0.4375,1.28125 c -1.15204,1.63202 -2.55554,2.64727 -4.1875,3.03125 l -1.15625,-0.71875 0,-1.4375 c 1.24797,-1.24798 2.47296,-2.11372 3.625,-2.59375 z"
         id="path4540"
         inkscape:connector-curvature="0" />
      <path
         style="font-size:144px;font-style:normal;font-variant:normal;font-weight:500;font-stretch:normal;text-align:start;line-height:125%;letter-spacing:0px;word-spacing:0px;text-anchor:start;fill:#ff0000;fill-opacity:1;stroke:none;font-family:GL-MahjongTile;-inkscape-font-specification:GL-MahjongTile Medium"
         d="m 566.13393,974.44643 c -2.11203,1e-5 -3.99303,0.80551 -5.625,2.4375 -1.53603,1.53601 -2.28127,3.35676 -2.28125,5.46875 -2e-5,2.112 0.74522,3.993 2.28125,5.625 1.63197,1.53595 3.51297,2.31255 5.625,2.31255 2.11197,0 3.93271,-0.7766 5.46875,-2.31255 1.63196,-1.632 2.46871,-3.513 2.46875,-5.625 -4e-5,-2.11199 -0.83679,-3.93274 -2.46875,-5.46875 -1.53604,-1.63199 -3.35678,-2.43749 -5.46875,-2.4375 z m 0,1.4375 c 0.95997,1e-5 1.82572,0.17851 2.59375,0.5625 l 0.4375,1.15625 -0.875,1.15625 -1,0.15625 c -0.19203,-0.096 -0.58028,-0.15624 -1.15625,-0.15625 -0.57603,1e-5 -0.96428,0.0602 -1.15625,0.15625 l -1,-0.15625 -0.875,-1.15625 0.4375,-1.15625 c 0.76797,-0.38399 1.63372,-0.56249 2.59375,-0.5625 z m -4.90625,2.15625 1.3125,0 0.875,1.15625 c -0.096,0.57601 -0.30578,1.11376 -0.59375,1.59375 -0.192,0.48001 -0.28128,0.9865 -0.28125,1.5625 -0.28803,0.768 -0.91503,1.2455 -1.875,1.4375 l -1,-0.84375 0,-0.59375 c -3e-5,-1.63199 0.50647,-3.06449 1.5625,-4.3125 z m 8.5,0 1.3125,0 c 1.05596,1.24801 1.56246,2.68051 1.5625,4.3125 l 0,0.59375 -1,0.84375 -1.28125,-0.40625 -0.59375,-1.03125 c -4e-5,-0.576 -0.14954,-1.08249 -0.4375,-1.5625 -0.19204,-0.47999 -0.31025,-1.01774 -0.40625,-1.59375 l 0.84375,-1.15625 z m -3.59375,2.15625 c 0.57597,1e-5 1.05347,0.23876 1.4375,0.71875 0.47997,0.38401 0.71872,0.8615 0.71875,1.4375 -3e-5,0.576 -0.23878,1.11375 -0.71875,1.59375 -0.38403,0.384 -0.86153,0.5625 -1.4375,0.5625 -0.57603,0 -1.11378,-0.1785 -1.59375,-0.5625 -0.38403,-0.48 -0.56253,-1.01775 -0.5625,-1.59375 -3e-5,-0.576 0.17847,-1.05349 0.5625,-1.4375 0.47997,-0.47999 1.01772,-0.71874 1.59375,-0.71875 z m -3.875,3.75 0.84375,0.4375 c 0.57597,0.672 1.26322,1.1495 2.03125,1.4375 l 0.71875,0.71875 0,1.4375 -1.15625,0.71875 c -1.63203,-0.38399 -3.03553,-1.39925 -4.1875,-3.03125 l 0.4375,-1.28125 1.3125,-0.4375 z m 7.78125,0 1.28125,0.4375 0.4375,1.28125 c -1.15204,1.632 -2.55554,2.64726 -4.1875,3.03125 l -1.15625,-0.71875 0,-1.4375 c 1.24797,-1.248 2.47296,-2.11375 3.625,-2.59375 z"
         id="path4572"
         inkscape:connector-curvature="0" />
      <path
         style="font-size:144px;font-style:normal;font-variant:normal;font-weight:500;font-stretch:normal;text-align:start;line-height:125%;letter-spacing:0px;word-spacing:0px;text-anchor:start;fill:#ff0000;fill-opacity:1;stroke:none;font-family:GL-MahjongTile;-inkscape-font-specification:GL-MahjongTile Medium"
         d="m 589.16518,974.44643 c -2.11205,1e-5 -3.9618,0.80551 -5.59375,2.4375 -1.53605,1.53601 -2.31255,3.35676 -2.3125,5.46875 -5e-5,2.112 0.77645,3.993 2.3125,5.625 1.63195,1.53595 3.4817,2.31255 5.59375,2.31255 2.11194,0 3.93269,-0.7766 5.46875,-2.31255 1.63194,-1.632 2.46869,-3.513 2.46875,-5.625 -6e-5,-2.11199 -0.83681,-3.93274 -2.46875,-5.46875 -1.53606,-1.63199 -3.35681,-2.43749 -5.46875,-2.4375 z m 0,1.4375 c 0.95994,1e-5 1.82569,0.17851 2.59375,0.5625 l 0.4375,1.15625 -0.84375,1.15625 -1.03125,0.15625 c -0.19206,-0.096 -0.58031,-0.15624 -1.15625,-0.15625 -0.57605,1e-5 -0.93305,0.0602 -1.125,0.15625 l -1.03125,-0.15625 -0.84375,-1.15625 0.40625,-1.15625 c 0.76795,-0.38399 1.6337,-0.56249 2.59375,-0.5625 z m -4.875,2.15625 1.28125,0 0.875,1.15625 c -0.096,0.57601 -0.3058,1.11376 -0.59375,1.59375 -0.192,0.48001 -0.2813,0.9865 -0.28125,1.5625 -0.28805,0.768 -0.91505,1.2455 -1.875,1.4375 l -1,-0.84375 0,-0.59375 c -5e-5,-1.63199 0.5377,-3.06449 1.59375,-4.3125 z m 8.5,0 1.28125,0 c 1.05594,1.24801 1.59369,2.68051 1.59375,4.3125 l 0,0.59375 -1.03125,0.84375 -1.28125,-0.40625 -0.5625,-1.03125 c -6e-5,-0.576 -0.14956,-1.08249 -0.4375,-1.5625 -0.19206,-0.47999 -0.3416,-1.01774 -0.4375,-1.59375 l 0.875,-1.15625 z m -3.625,2.15625 c 0.57594,1e-5 1.05344,0.23876 1.4375,0.71875 0.47994,0.38401 0.74994,0.8615 0.75,1.4375 -6e-5,0.576 -0.27006,1.11375 -0.75,1.59375 -0.38406,0.384 -0.86156,0.5625 -1.4375,0.5625 -0.57605,0 -1.08255,-0.1785 -1.5625,-0.5625 -0.38405,-0.48 -0.5938,-1.01775 -0.59375,-1.59375 -5e-5,-0.576 0.2097,-1.05349 0.59375,-1.4375 0.47995,-0.47999 0.98645,-0.71874 1.5625,-0.71875 z m -3.875,3.75 0.875,0.4375 c 0.57595,0.672 1.23195,1.1495 2,1.4375 l 0.71875,0.71875 0,1.4375 -1.15625,0.71875 c -1.63205,-0.38399 -3.0043,-1.39925 -4.15625,-3.03125 l 0.4375,-1.28125 1.28125,-0.4375 z m 7.78125,0 1.28125,0.4375 0.4375,1.28125 c -1.15206,1.632 -2.55556,2.64726 -4.1875,3.03125 l -1.125,-0.71875 0,-1.4375 c 1.24794,-1.248 2.44169,-2.11375 3.59375,-2.59375 z"
         id="path4588"
         inkscape:connector-curvature="0" />
      <path
         style="font-size:144px;font-style:normal;font-variant:normal;font-weight:500;font-stretch:normal;text-align:start;line-height:125%;letter-spacing:0px;word-spacing:0px;text-anchor:start;fill:#ff0000;fill-opacity:1;stroke:none;font-family:GL-MahjongTile;-inkscape-font-specification:GL-MahjongTile Medium"
         d="m 589.16518,951.41518 c -2.11205,4e-5 -3.9618,0.80553 -5.59375,2.4375 -1.53605,1.53603 -2.31255,3.35678 -2.3125,5.46875 -5e-5,2.11203 0.77645,3.99302 2.3125,5.625 1.63195,1.53602 3.4817,2.31252 5.59375,2.3125 2.11194,2e-5 3.93269,-0.77648 5.46875,-2.3125 1.63194,-1.63198 2.46869,-3.51297 2.46875,-5.625 -6e-5,-2.11197 -0.83681,-3.93272 -2.46875,-5.46875 -1.53606,-1.63197 -3.35681,-2.43746 -5.46875,-2.4375 z m 0,1.4375 c 0.95994,3e-5 1.82569,0.17853 2.59375,0.5625 l 0.4375,1.15625 -0.84375,1.15625 -1.03125,0.15625 c -0.19206,-0.096 -0.58031,-0.15622 -1.15625,-0.15625 -0.57605,3e-5 -0.93305,0.0602 -1.125,0.15625 l -1.03125,-0.15625 -0.84375,-1.15625 0.40625,-1.15625 c 0.76795,-0.38397 1.6337,-0.56247 2.59375,-0.5625 z m -4.875,2.15625 1.28125,0 0.875,1.15625 c -0.096,0.57603 -0.3058,1.08253 -0.59375,1.5625 -0.192,0.48003 -0.2813,1.01778 -0.28125,1.59375 -0.28805,0.76803 -0.91505,1.24553 -1.875,1.4375 l -1,-0.84375 0,-0.59375 c -5e-5,-1.63197 0.5377,-3.06447 1.59375,-4.3125 z m 8.5,0 1.28125,0 c 1.05594,1.24803 1.59369,2.68053 1.59375,4.3125 l 0,0.59375 -1.03125,0.84375 -1.28125,-0.4375 -0.5625,-1 c -6e-5,-0.57597 -0.14956,-1.11372 -0.4375,-1.59375 -0.19206,-0.47997 -0.3416,-0.98647 -0.4375,-1.5625 l 0.875,-1.15625 z m -3.625,2.15625 c 0.57594,3e-5 1.05344,0.23878 1.4375,0.71875 0.47994,0.38403 0.74994,0.86153 0.75,1.4375 -6e-5,0.57603 -0.27006,1.11378 -0.75,1.59375 -0.38406,0.38403 -0.86156,0.56252 -1.4375,0.5625 -0.57605,2e-5 -1.08255,-0.17847 -1.5625,-0.5625 -0.38405,-0.47997 -0.5938,-1.01772 -0.59375,-1.59375 -5e-5,-0.57597 0.2097,-1.05347 0.59375,-1.4375 0.47995,-0.47997 0.98645,-0.71872 1.5625,-0.71875 z m -3.875,3.75 0.875,0.4375 c 0.57595,0.67202 1.23195,1.14952 2,1.4375 l 0.71875,0.71875 0,1.4375 -1.15625,0.71875 c -1.63205,-0.38398 -3.0043,-1.39923 -4.15625,-3.03125 l 0.4375,-1.28125 1.28125,-0.4375 z m 7.78125,0 1.28125,0.4375 0.4375,1.28125 c -1.15206,1.63202 -2.55556,2.64727 -4.1875,3.03125 l -1.125,-0.71875 0,-1.4375 c 1.24794,-1.24798 2.44169,-2.11372 3.59375,-2.59375 z"
         id="path4556"
         inkscape:connector-curvature="0" />
      <path
         style="font-size:144px;font-style:normal;font-variant:normal;font-weight:500;font-stretch:normal;text-align:start;line-height:125%;letter-spacing:0px;word-spacing:0px;text-anchor:start;fill:#0000ff;fill-opacity:1;stroke:none;font-family:GL-MahjongTile;-inkscape-font-specification:GL-MahjongTile Medium"
         d="m 566.13393,905.32143 c -2.11203,8e-5 -3.99303,0.80558 -5.625,2.4375 -1.53603,1.53608 -2.28127,3.38808 -2.28125,5.5 -2e-5,2.11207 0.74522,3.96182 2.28125,5.59375 1.63197,1.53607 3.51297,2.31257 5.625,2.3125 2.11197,7e-5 3.93271,-0.77643 5.46875,-2.3125 1.63196,-1.63193 2.46871,-3.48168 2.46875,-5.59375 -4e-5,-2.11192 -0.83679,-3.96392 -2.46875,-5.5 -1.53604,-1.63192 -3.35678,-2.43742 -5.46875,-2.4375 z m 0,1.4375 c 0.95997,8e-5 1.82572,0.20983 2.59375,0.59375 l 0.4375,1.125 -0.875,1.15625 -1,0.15625 c -0.19203,-0.0959 -0.58028,-0.15617 -1.15625,-0.15625 -0.57603,8e-5 -0.96428,0.0603 -1.15625,0.15625 l -1,-0.15625 -0.875,-1.15625 0.4375,-1.125 c 0.76797,-0.38392 1.63372,-0.59367 2.59375,-0.59375 z m -4.90625,2.15625 1.3125,0 0.875,1.15625 c -0.096,0.57608 -0.30578,1.11383 -0.59375,1.59375 -0.192,0.48007 -0.28128,1.01782 -0.28125,1.59375 -0.28803,0.76807 -0.91503,1.24557 -1.875,1.4375 l -1,-0.875 0,-0.5625 c -3e-5,-1.63193 0.50647,-3.09567 1.5625,-4.34375 z m 8.5,0 1.3125,0 c 1.05596,1.24808 1.56246,2.71182 1.5625,4.34375 l 0,0.5625 -1,0.875 -1.28125,-0.4375 -0.59375,-1 c -4e-5,-0.57593 -0.14954,-1.11368 -0.4375,-1.59375 -0.19204,-0.47992 -0.31025,-1.01767 -0.40625,-1.59375 l 0.84375,-1.15625 z m -3.59375,2.15625 c 0.57597,8e-5 1.05347,0.23883 1.4375,0.71875 0.47997,0.38407 0.71872,0.89282 0.71875,1.46875 -3e-5,0.57607 -0.23878,1.08257 -0.71875,1.5625 -0.38403,0.38407 -0.86153,0.59382 -1.4375,0.59375 -0.57603,7e-5 -1.11378,-0.20968 -1.59375,-0.59375 -0.38403,-0.47993 -0.56253,-0.98643 -0.5625,-1.5625 -3e-5,-0.57593 0.17847,-1.08468 0.5625,-1.46875 0.47997,-0.47992 1.01772,-0.71867 1.59375,-0.71875 z m -3.875,3.75 0.84375,0.4375 c 0.57597,0.67207 1.26322,1.14957 2.03125,1.4375 l 0.71875,0.71875 0,1.4375 -1.15625,0.71875 c -1.63203,-0.38393 -3.03553,-1.36793 -4.1875,-3 l 0.4375,-1.3125 1.3125,-0.4375 z m 7.78125,0 1.28125,0.4375 0.4375,1.3125 c -1.15204,1.63207 -2.55554,2.61607 -4.1875,3 l -1.15625,-0.71875 0,-1.4375 c 1.24797,-1.24793 2.47296,-2.11368 3.625,-2.59375 z"
         id="path4518"
         inkscape:connector-curvature="0" />
      <path
         style="font-size:144px;font-style:normal;font-variant:normal;font-weight:500;font-stretch:normal;text-align:start;line-height:125%;letter-spacing:0px;word-spacing:0px;text-anchor:start;fill:#0000ff;fill-opacity:1;stroke:none;font-family:GL-MahjongTile;-inkscape-font-specification:GL-MahjongTile Medium"
         d="m 589.16518,905.32143 c -2.11205,8e-5 -3.9618,0.80558 -5.59375,2.4375 -1.53605,1.53608 -2.31255,3.38808 -2.3125,5.5 -5e-5,2.11207 0.77645,3.96182 2.3125,5.59375 1.63195,1.53607 3.4817,2.31257 5.59375,2.3125 2.11194,7e-5 3.93269,-0.77643 5.46875,-2.3125 1.63194,-1.63193 2.46869,-3.48168 2.46875,-5.59375 -6e-5,-2.11192 -0.83681,-3.96392 -2.46875,-5.5 -1.53606,-1.63192 -3.35681,-2.43742 -5.46875,-2.4375 z m 0,1.4375 c 0.95994,8e-5 1.82569,0.20983 2.59375,0.59375 l 0.4375,1.125 -0.84375,1.15625 -1.03125,0.15625 c -0.19206,-0.0959 -0.58031,-0.15617 -1.15625,-0.15625 -0.57605,8e-5 -0.93305,0.0603 -1.125,0.15625 l -1.03125,-0.15625 -0.84375,-1.15625 0.40625,-1.125 c 0.76795,-0.38392 1.6337,-0.59367 2.59375,-0.59375 z m -4.875,2.15625 1.28125,0 0.875,1.15625 c -0.096,0.57608 -0.3058,1.11383 -0.59375,1.59375 -0.192,0.48007 -0.2813,1.01782 -0.28125,1.59375 -0.28805,0.76807 -0.91505,1.24557 -1.875,1.4375 l -1,-0.875 0,-0.5625 c -5e-5,-1.63193 0.5377,-3.09567 1.59375,-4.34375 z m 8.5,0 1.28125,0 c 1.05594,1.24808 1.59369,2.71182 1.59375,4.34375 l 0,0.5625 -1.03125,0.875 -1.28125,-0.4375 -0.5625,-1 c -6e-5,-0.57593 -0.14956,-1.11368 -0.4375,-1.59375 -0.19206,-0.47992 -0.3416,-1.01767 -0.4375,-1.59375 l 0.875,-1.15625 z m -3.625,2.15625 c 0.57594,8e-5 1.05344,0.23883 1.4375,0.71875 0.47994,0.38407 0.74994,0.89282 0.75,1.46875 -6e-5,0.57607 -0.27006,1.08257 -0.75,1.5625 -0.38406,0.38407 -0.86156,0.59382 -1.4375,0.59375 -0.57605,7e-5 -1.08255,-0.20968 -1.5625,-0.59375 -0.38405,-0.47993 -0.5938,-0.98643 -0.59375,-1.5625 -5e-5,-0.57593 0.2097,-1.08468 0.59375,-1.46875 0.47995,-0.47992 0.98645,-0.71867 1.5625,-0.71875 z m -3.875,3.75 0.875,0.4375 c 0.57595,0.67207 1.23195,1.14957 2,1.4375 l 0.71875,0.71875 0,1.4375 -1.15625,0.71875 c -1.63205,-0.38393 -3.0043,-1.36793 -4.15625,-3 l 0.4375,-1.3125 1.28125,-0.4375 z m 7.78125,0 1.28125,0.4375 0.4375,1.3125 c -1.15206,1.63207 -2.55556,2.61607 -4.1875,3 l -1.125,-0.71875 0,-1.4375 c 1.24794,-1.24793 2.44169,-2.11368 3.59375,-2.59375 z"
         id="path4502"
         inkscape:connector-curvature="0" />
      <path
         style="font-size:144px;font-style:normal;font-variant:normal;font-weight:500;font-stretch:normal;text-align:start;line-height:125%;letter-spacing:0px;word-spacing:0px;text-anchor:start;fill:#0000ff;fill-opacity:1;stroke:none;font-family:GL-MahjongTile;-inkscape-font-specification:GL-MahjongTile Medium"
         d="m 566.13393,901.00893 c -3.36003,9e-5 -6.22503,1.19383 -8.625,3.59375 -2.40002,2.40008 -3.62502,5.29633 -3.625,8.65625 -2e-5,3.36007 1.22498,6.22507 3.625,8.625 2.39997,2.40006 5.26497,3.59381 8.625,3.59375 2.59197,6e-5 4.95046,-0.71619 7.0625,-2.15625 2.11196,-1.53594 3.60471,-3.50618 4.46875,-5.90625 0.86396,2.40007 2.3567,4.37031 4.46875,5.90625 2.11195,1.44006 4.4392,2.15631 7.03125,2.15625 3.35994,6e-5 6.25619,-1.19369 8.65625,-3.59375 2.39993,-2.39993 3.59368,-5.26493 3.59375,-8.625 -7e-5,-3.35992 -1.19382,-6.25617 -3.59375,-8.65625 -2.40006,-2.39992 -5.29631,-3.59366 -8.65625,-3.59375 -2.59205,9e-5 -4.9193,0.77658 -7.03125,2.3125 -2.11205,1.44008 -3.60479,3.35008 -4.46875,5.75 -0.86404,-2.39992 -2.35679,-4.30992 -4.46875,-5.75 -2.11204,-1.53592 -4.47053,-2.31241 -7.0625,-2.3125 z m 0,2.15625 c 2.78396,8e-5 5.14246,1.01533 7.0625,3.03125 2.01596,1.92008 3.03121,4.27858 3.03125,7.0625 -4e-5,2.78407 -1.01529,5.17157 -3.03125,7.1875 -1.92004,1.92006 -4.27854,2.87506 -7.0625,2.875 -2.78403,6e-5 -5.17153,-0.95494 -7.1875,-2.875 -1.92002,-2.01593 -2.87502,-4.40343 -2.875,-7.1875 -2e-5,-2.78392 0.95498,-5.14242 2.875,-7.0625 2.01597,-2.01592 4.40347,-3.03117 7.1875,-3.03125 z m 23.03125,0 c 2.78394,8e-5 5.14244,1.01533 7.0625,3.03125 2.01594,1.92008 3.03118,4.27858 3.03125,7.0625 -7e-5,2.78407 -1.01531,5.17157 -3.03125,7.1875 -1.92006,1.92006 -4.27856,2.87506 -7.0625,2.875 -2.78405,6e-5 -5.17155,-0.95494 -7.1875,-2.875 -1.92005,-2.01593 -2.87505,-4.40343 -2.875,-7.1875 -5e-5,-2.78392 0.95495,-5.14242 2.875,-7.0625 2.01595,-2.01592 4.40345,-3.03117 7.1875,-3.03125 z"
         id="path4494"
         inkscape:connector-curvature="0" />
      <path
         style="font-size:144px;font-style:normal;font-variant:normal;font-weight:500;font-stretch:normal;text-align:start;line-height:125%;letter-spacing:0px;word-spacing:0px;text-anchor:start;fill:#ff0000;fill-opacity:1;stroke:none;font-family:GL-MahjongTile;-inkscape-font-specification:GL-MahjongTile Medium"
         d="m 566.13393,947.07143 c -3.36003,4e-5 -6.22503,1.22504 -8.625,3.625 -2.40002,2.40003 -3.62502,5.26503 -3.625,8.625 -2e-5,2.59202 0.74748,4.95052 2.1875,7.0625 1.53598,2.11202 3.47497,3.60477 5.875,4.46875 -2.40003,0.86401 -4.33902,2.35676 -5.875,4.46875 -1.44002,2.11201 -2.18752,4.43926 -2.1875,7.03125 -2e-5,3.36 1.22498,6.25625 3.625,8.65625 2.39997,2.4 5.26497,3.5937 8.625,3.5937 2.59197,0 4.95046,-0.7766 7.0625,-2.3124 2.11196,-1.4402 3.60471,-3.3501 4.46875,-5.75005 0.86396,2.39995 2.3567,4.30985 4.46875,5.75005 2.11195,1.5358 4.4392,2.3124 7.03125,2.3124 3.35994,0 6.25619,-1.1937 8.65625,-3.5937 2.39993,-2.4 3.59368,-5.29625 3.59375,-8.65625 -7e-5,-2.59199 -0.77657,-4.91924 -2.3125,-7.03125 -1.44006,-2.11199 -3.35006,-3.60474 -5.75,-4.46875 2.39994,-0.86398 4.30994,-2.35673 5.75,-4.46875 1.53593,-2.11198 2.31243,-4.47048 2.3125,-7.0625 -7e-5,-3.35997 -1.19382,-6.22497 -3.59375,-8.625 -2.40006,-2.39996 -5.29631,-3.62496 -8.65625,-3.625 -2.59205,4e-5 -4.9193,0.77654 -7.03125,2.3125 -2.11205,1.44004 -3.60479,3.35003 -4.46875,5.75 -0.86404,-2.39997 -2.35679,-4.30996 -4.46875,-5.75 -2.11204,-1.53596 -4.47053,-2.31246 -7.0625,-2.3125 z m 0,2.1875 c 2.78396,4e-5 5.14246,0.98404 7.0625,3 2.01596,1.92003 3.03121,4.27853 3.03125,7.0625 -4e-5,2.78402 -1.01529,5.17152 -3.03125,7.1875 -1.92004,1.92002 -4.27854,2.90627 -7.0625,2.90625 -2.78403,2e-5 -5.17153,-0.98623 -7.1875,-2.90625 -1.92002,-2.01598 -2.87502,-4.40348 -2.875,-7.1875 -2e-5,-2.78397 0.95498,-5.14247 2.875,-7.0625 2.01597,-2.01596 4.40347,-2.99996 7.1875,-3 z m 23.03125,0 c 2.78394,4e-5 5.14244,0.98404 7.0625,3 2.01594,1.92003 3.03118,4.27853 3.03125,7.0625 -7e-5,2.78402 -1.01531,5.17152 -3.03125,7.1875 -1.92006,1.92002 -4.27856,2.90627 -7.0625,2.90625 -2.78405,2e-5 -5.17155,-0.98623 -7.1875,-2.90625 -1.92005,-2.01598 -2.87505,-4.40348 -2.875,-7.1875 -5e-5,-2.78397 0.95495,-5.14247 2.875,-7.0625 2.01595,-2.01596 4.40345,-2.99996 7.1875,-3 z m -11.5,14.25 c 1.34395,3.55202 3.7917,5.99977 7.34375,7.34375 -3.55205,1.34401 -5.9998,3.79176 -7.34375,7.34375 -1.34404,-3.55199 -3.79179,-5.99974 -7.34375,-7.34375 3.55196,-1.34398 5.99971,-3.79173 7.34375,-7.34375 z m -11.53125,8.78125 c 2.78396,1e-5 5.14246,1.01526 7.0625,3.03125 2.01596,1.92001 3.03121,4.24726 3.03125,7.03125 -4e-5,2.784 -1.01529,5.20276 -3.03125,7.21875 -1.92004,1.92 -4.27854,2.875 -7.0625,2.875 -2.78403,0 -5.17153,-0.955 -7.1875,-2.875 -1.92002,-2.01599 -2.87502,-4.43475 -2.875,-7.21875 -2e-5,-2.78399 0.95498,-5.11124 2.875,-7.03125 2.01597,-2.01599 4.40347,-3.03124 7.1875,-3.03125 z m 23.03125,0 c 2.78394,1e-5 5.14244,1.01526 7.0625,3.03125 2.01594,1.92001 3.03118,4.24726 3.03125,7.03125 -7e-5,2.784 -1.01531,5.20276 -3.03125,7.21875 -1.92006,1.92 -4.27856,2.875 -7.0625,2.875 -2.78405,0 -5.17155,-0.955 -7.1875,-2.875 -1.92005,-2.01599 -2.87505,-4.43475 -2.875,-7.21875 -5e-5,-2.78399 0.95495,-5.11124 2.875,-7.03125 2.01595,-2.01599 4.40345,-3.03124 7.1875,-3.03125 z"
         id="path4530"
         inkscape:connector-curvature="0" />
      <path
         style="font-size:144px;font-style:normal;font-variant:normal;font-weight:500;font-stretch:normal;text-align:start;line-height:125%;letter-spacing:0px;word-spacing:0px;text-anchor:start;fill:#ff0000;fill-opacity:1;stroke:none;font-family:GL-MahjongTile;-inkscape-font-specification:GL-MahjongTile Medium"
         d="m 589.17748,983.08454 c -0.48005,0 -0.72005,-0.24 -0.72,-0.72 -5e-5,-0.48 0.23995,-0.72 0.72,-0.72 0.47994,0 0.71994,0.24 0.72,0.72 -6e-5,0.48 -0.24006,0.72 -0.72,0.72"
         id="path4594"
         inkscape:connector-curvature="0" />
      <path
         style="font-size:144px;font-style:normal;font-variant:normal;font-weight:500;font-stretch:normal;text-align:start;line-height:125%;letter-spacing:0px;word-spacing:0px;text-anchor:start;fill:#ff0000;fill-opacity:1;stroke:none;font-family:GL-MahjongTile;-inkscape-font-specification:GL-MahjongTile Medium"
         d="m 566.13748,983.08454 c -0.48003,0 -0.72003,-0.24 -0.72,-0.72 -3e-5,-0.48 0.23997,-0.72 0.72,-0.72 0.47997,0 0.71997,0.24 0.72,0.72 -3e-5,0.48 -0.24003,0.72 -0.72,0.72"
         id="path4578"
         inkscape:connector-curvature="0" />
      <path
         style="font-size:144px;font-style:normal;font-variant:normal;font-weight:500;font-stretch:normal;text-align:start;line-height:125%;letter-spacing:0px;word-spacing:0px;text-anchor:start;fill:#ff0000;fill-opacity:1;stroke:none;font-family:GL-MahjongTile;-inkscape-font-specification:GL-MahjongTile Medium"
         d="m 589.17748,960.04454 c -0.48005,3e-5 -0.72005,-0.23997 -0.72,-0.72 -5e-5,-0.47997 0.23995,-0.71997 0.72,-0.72 0.47994,3e-5 0.71994,0.24003 0.72,0.72 -6e-5,0.48003 -0.24006,0.72003 -0.72,0.72"
         id="path4562"
         inkscape:connector-curvature="0" />
      <path
         style="font-size:144px;font-style:normal;font-variant:normal;font-weight:500;font-stretch:normal;text-align:start;line-height:125%;letter-spacing:0px;word-spacing:0px;text-anchor:start;fill:#ff0000;fill-opacity:1;stroke:none;font-family:GL-MahjongTile;-inkscape-font-specification:GL-MahjongTile Medium"
         d="m 566.13748,960.04454 c -0.48003,3e-5 -0.72003,-0.23997 -0.72,-0.72 -3e-5,-0.47997 0.23997,-0.71997 0.72,-0.72 0.47997,3e-5 0.71997,0.24003 0.72,0.72 -3e-5,0.48003 -0.24003,0.72003 -0.72,0.72"
         id="path4546"
         inkscape:connector-curvature="0" />
      <path
         style="font-size:144px;font-style:normal;font-variant:normal;font-weight:500;font-stretch:normal;text-align:start;line-height:125%;letter-spacing:0px;word-spacing:0px;text-anchor:start;fill:#0000ff;fill-opacity:1;stroke:none;font-family:GL-MahjongTile;-inkscape-font-specification:GL-MahjongTile Medium"
         d="m 566.13748,913.96454 c -0.48003,7e-5 -0.72003,-0.23993 -0.72,-0.72 -3e-5,-0.47993 0.23997,-0.71993 0.72,-0.72 0.47997,7e-5 0.71997,0.24007 0.72,0.72 -3e-5,0.48007 -0.24003,0.72007 -0.72,0.72"
         id="path4512"
         inkscape:connector-curvature="0" />
      <path
         style="font-size:144px;font-style:normal;font-variant:normal;font-weight:500;font-stretch:normal;text-align:start;line-height:125%;letter-spacing:0px;word-spacing:0px;text-anchor:start;fill:#0000ff;fill-opacity:1;stroke:none;font-family:GL-MahjongTile;-inkscape-font-specification:GL-MahjongTile Medium"
         d="m 589.17748,913.96454 c -0.48005,7e-5 -0.72005,-0.23993 -0.72,-0.72 -5e-5,-0.47993 0.23995,-0.71993 0.72,-0.72 0.47994,7e-5 0.71994,0.24007 0.72,0.72 -6e-5,0.48007 -0.24006,0.72007 -0.72,0.72"
         id="path4496"
         inkscape:connector-curvature="0" />
    </g>
  </g>
</svg>
