<?xml version="1.0" encoding="UTF-8" standalone="no"?>
<!-- Created with Inkscape (http://www.inkscape.org/) -->

<svg
   xmlns:dc="http://purl.org/dc/elements/1.1/"
   xmlns:cc="http://creativecommons.org/ns#"
   xmlns:rdf="http://www.w3.org/1999/02/22-rdf-syntax-ns#"
   xmlns:svg="http://www.w3.org/2000/svg"
   xmlns="http://www.w3.org/2000/svg"
   xmlns:sodipodi="http://sodipodi.sourceforge.net/DTD/sodipodi-0.dtd"
   xmlns:inkscape="http://www.inkscape.org/namespaces/inkscape"
   width="79.59375"
   height="115.96875"
   id="svg3237"
   version="1.1"
   inkscape:version="0.48.3.1 r9886"
   sodipodi:docname="P9.svg">
  <defs
     id="defs3239" />
  <sodipodi:namedview
     id="base"
     pagecolor="#ffffff"
     bordercolor="#666666"
     borderopacity="1.0"
     inkscape:pageopacity="0.0"
     inkscape:pageshadow="2"
     inkscape:zoom="0.7"
     inkscape:cx="-1.3457218"
     inkscape:cy="-84.008605"
     inkscape:document-units="px"
     inkscape:current-layer="layer1"
     showgrid="false"
     fit-margin-top="0"
     fit-margin-left="0"
     fit-margin-right="0"
     fit-margin-bottom="0"
     inkscape:window-width="748"
     inkscape:window-height="600"
     inkscape:window-x="399"
     inkscape:window-y="247"
     inkscape:window-maximized="0" />
  <metadata
     id="metadata3242">
    <rdf:RDF>
      <cc:Work
         rdf:about="">
        <dc:format>image/svg+xml</dc:format>
        <dc:type
           rdf:resource="http://purl.org/dc/dcmitype/StillImage" />
        <dc:title />
      </cc:Work>
    </rdf:RDF>
  </metadata>
  <g
     inkscape:label="Layer 1"
     inkscape:groupmode="layer"
     id="layer1"
     transform="translate(148.4375,-227.90625)">
    <rect
       ry="5.4056678"
       y="228.42413"
       x="-147.91956"
       height="114.96053"
       width="78.56237"
       id="rect6731-9-01"
       style="fill:#ffffff;stroke:#000000;stroke-width:1.00899994;stroke-miterlimit:4;stroke-opacity:1;stroke-dasharray:none;stroke-dashoffset:0" />
    <g
       transform="translate(-963.03788,-661.90141)"
       id="g7587">
      <path
         inkscape:connector-curvature="0"
         style="font-size:144px;font-style:normal;font-variant:normal;font-weight:500;font-stretch:normal;text-align:start;line-height:125%;letter-spacing:0px;word-spacing:0px;text-anchor:start;fill:#0000ff;fill-opacity:1;stroke:none;font-family:GL-MahjongTile;-inkscape-font-specification:GL-MahjongTile Medium"
         d="m 834.25893,969.41518 c -2.97602,8e-5 -5.54427,1.04433 -7.65625,3.15625 -2.11201,2.11208 -3.15626,4.68032 -3.15625,7.65625 -10e-6,2.97607 1.04424,5.51307 3.15625,7.625 2.11198,2.11205 4.68023,3.15635 7.65625,3.15625 2.30397,1e-4 4.36347,-0.6269 6.1875,-1.875 1.82397,-1.34394 3.10697,-3.01518 3.875,-5.03125 0.76797,2.01607 2.08221,3.68731 3.90625,5.03125 1.82396,1.2481 3.88346,1.8751 6.1875,1.875 2.30395,1e-4 4.36345,-0.6269 6.1875,-1.875 1.82395,-1.34394 3.10695,-3.01518 3.875,-5.03125 0.76795,2.01607 2.08219,3.68731 3.90625,5.03125 1.82394,1.2481 3.88344,1.8751 6.1875,1.875 2.97593,1e-4 5.51293,-1.0442 7.625,-3.15625 2.11193,-2.11193 3.15618,-4.64893 3.15625,-7.625 -7e-5,-2.97593 -1.04432,-5.54417 -3.15625,-7.65625 -2.11207,-2.11192 -4.64907,-3.15617 -7.625,-3.15625 -2.30406,8e-5 -4.36356,0.68733 -6.1875,2.03125 -1.82406,1.24808 -3.1383,2.85908 -3.90625,4.875 -0.76805,-2.01592 -2.05105,-3.62692 -3.875,-4.875 -1.82405,-1.34392 -3.88355,-2.03117 -6.1875,-2.03125 -2.30404,8e-5 -4.36354,0.68733 -6.1875,2.03125 -1.82404,1.24808 -3.13828,2.85908 -3.90625,4.875 -0.76803,-2.01592 -2.05103,-3.62692 -3.875,-4.875 -1.82403,-1.34392 -3.88353,-2.03117 -6.1875,-2.03125 z m 0,2.15625 c 2.39997,8e-5 4.39922,0.86583 6.03125,2.59375 1.72797,1.63208 2.59372,3.66257 2.59375,6.0625 -3e-5,2.40007 -0.86578,4.45957 -2.59375,6.1875 -1.63203,1.63206 -3.63128,2.43755 -6.03125,2.43745 -2.40002,10e-5 -4.49077,-0.80539 -6.21875,-2.43745 -1.63202,-1.72793 -2.43752,-3.78743 -2.4375,-6.1875 -2e-5,-2.39993 0.80548,-4.43042 2.4375,-6.0625 1.72798,-1.72792 3.81873,-2.59367 6.21875,-2.59375 z m 20.15625,0 c 2.39995,8e-5 4.3992,0.86583 6.03125,2.59375 1.72795,1.63208 2.5937,3.66257 2.59375,6.0625 -5e-5,2.40007 -0.8658,4.45957 -2.59375,6.1875 -1.63205,1.63206 -3.6313,2.43755 -6.03125,2.43745 -2.40004,10e-5 -4.45954,-0.80539 -6.1875,-2.43745 -1.63204,-1.72793 -2.46879,-3.78743 -2.46875,-6.1875 -4e-5,-2.39993 0.83671,-4.43042 2.46875,-6.0625 1.72796,-1.72792 3.78746,-2.59367 6.1875,-2.59375 z m 20.15625,0 c 2.39993,8e-5 4.39918,0.86583 6.03125,2.59375 1.72793,1.63208 2.59368,3.66257 2.59375,6.0625 -7e-5,2.40007 -0.86582,4.45957 -2.59375,6.1875 -1.63207,1.63206 -3.63132,2.43755 -6.03125,2.43745 -2.40006,10e-5 -4.45956,-0.80539 -6.1875,-2.43745 -1.63206,-1.72793 -2.46881,-3.78743 -2.46875,-6.1875 -6e-5,-2.39993 0.83669,-4.43042 2.46875,-6.0625 1.72794,-1.72792 3.78744,-2.59367 6.1875,-2.59375 z m -40.3125,1.4375 c -2.01602,8e-5 -3.74752,0.71633 -5.1875,2.15625 -1.34402,1.34407 -2.03127,3.04657 -2.03125,5.0625 -2e-5,2.01607 0.68723,3.74757 2.03125,5.1875 1.43998,1.34406 3.17148,2.00006 5.1875,2 2.01597,6e-5 3.68722,-0.65594 5.03125,-2 1.43997,-1.43993 2.15622,-3.17143 2.15625,-5.1875 -3e-5,-2.01593 -0.71628,-3.71843 -2.15625,-5.0625 -1.34403,-1.43992 -3.01528,-2.15617 -5.03125,-2.15625 z m 20.15625,0 c -2.01604,8e-5 -3.74754,0.71633 -5.1875,2.15625 -1.34404,1.34407 -2.03129,3.04657 -2.03125,5.0625 -4e-5,2.01607 0.68721,3.74757 2.03125,5.1875 1.43996,1.34406 3.17146,2.00006 5.1875,2 2.01595,6e-5 3.6872,-0.65594 5.03125,-2 1.43995,-1.43993 2.1562,-3.17143 2.15625,-5.1875 -5e-5,-2.01593 -0.7163,-3.71843 -2.15625,-5.0625 -1.34405,-1.43992 -3.0153,-2.15617 -5.03125,-2.15625 z m 20.15625,0 c -2.01606,8e-5 -3.74756,0.71633 -5.1875,2.15625 -1.34406,1.34407 -2.03131,3.04657 -2.03125,5.0625 -6e-5,2.01607 0.68719,3.74757 2.03125,5.1875 1.43994,1.34406 3.17144,2.00006 5.1875,2 2.01593,6e-5 3.68718,-0.65594 5.03125,-2 1.43993,-1.43993 2.15618,-3.17143 2.15625,-5.1875 -7e-5,-2.01593 -0.71632,-3.71843 -2.15625,-5.0625 -1.34407,-1.43992 -3.01532,-2.15617 -5.03125,-2.15625 z m -40.3125,0.71875 c 0.95998,8e-5 1.76547,0.14958 2.4375,0.4375 l 0.5625,1.3125 c -0.28803,0.86407 -0.85478,1.3416 -1.71875,1.4375 -0.57602,-0.1919 -0.99327,-0.31243 -1.28125,-0.3125 -0.28802,7e-5 -0.73652,0.12057 -1.3125,0.3125 -0.86402,-0.0959 -1.43077,-0.57343 -1.71875,-1.4375 l 0.5625,-1.3125 c 0.67198,-0.28792 1.50873,-0.43742 2.46875,-0.4375 z m 20.15625,0 c 0.95996,8e-5 1.76545,0.14958 2.4375,0.4375 l 0.59375,1.3125 c -0.28805,0.86407 -0.88605,1.3416 -1.75,1.4375 -0.57604,-0.1919 -0.99329,-0.31243 -1.28125,-0.3125 -0.28804,7e-5 -0.73654,0.12057 -1.3125,0.3125 -0.86404,-0.0959 -1.43079,-0.57343 -1.71875,-1.4375 l 0.5625,-1.3125 c 0.67196,-0.28792 1.50871,-0.43742 2.46875,-0.4375 z m 20.15625,0 c 0.95994,8e-5 1.76543,0.14958 2.4375,0.4375 l 0.59375,1.3125 c -0.28807,0.86407 -0.88607,1.3416 -1.75,1.4375 -0.57606,-0.1919 -0.99331,-0.31243 -1.28125,-0.3125 -0.28806,7e-5 -0.73656,0.12057 -1.3125,0.3125 -0.86406,-0.0959 -1.43081,-0.57343 -1.71875,-1.4375 l 0.59375,-1.3125 c 0.67194,-0.28792 1.47744,-0.43742 2.4375,-0.4375 z m -43.9375,2.15625 c 0.57598,0.57607 0.87498,1.26332 0.875,2.03125 -0.57602,0.57607 -0.87502,1.29232 -0.875,2.15625 -0.48002,0.96007 -1.07577,1.49785 -1.84375,1.59375 l -1.03125,-1.03125 c -2e-5,-0.28793 -2e-5,-0.40618 0,-0.40625 -2e-5,-1.53593 0.53773,-2.93943 1.59375,-4.1875 l 1.28125,-0.15625 z m 7.21875,0 1.28125,0.15625 c 1.05597,1.24807 1.59372,2.65157 1.59375,4.1875 -3e-5,0.28807 -3e-5,0.40632 0,0.40625 l -1,1.03125 c -0.76803,-0.0959 -1.39503,-0.63368 -1.875,-1.59375 -3e-5,-0.86393 -0.29903,-1.58018 -0.875,-2.15625 -3e-5,-0.76793 0.29897,-1.45518 0.875,-2.03125 z m 12.96875,0 c 0.57596,0.57607 0.84371,1.26332 0.84375,2.03125 -0.57604,0.57607 -0.84379,1.29232 -0.84375,2.15625 -0.48004,0.96007 -1.10704,1.49785 -1.875,1.59375 l -1.03125,-1.03125 0,-0.40625 c -4e-5,-1.53593 0.53771,-2.93943 1.59375,-4.1875 l 1.3125,-0.15625 z m 7.1875,0 1.28125,0.15625 c 1.05595,1.24807 1.5937,2.65157 1.59375,4.1875 l 0,0.40625 -1,1.03125 c -0.76805,-0.0959 -1.39505,-0.63368 -1.875,-1.59375 -5e-5,-0.86393 -0.29905,-1.58018 -0.875,-2.15625 -5e-5,-0.76793 0.29895,-1.45518 0.875,-2.03125 z m 12.96875,0 c 0.57594,0.57607 0.84369,1.26332 0.84375,2.03125 -0.57606,0.57607 -0.84381,1.29232 -0.84375,2.15625 -0.48006,0.96007 -1.10706,1.49785 -1.875,1.59375 l -1,-1.03125 c -6e-5,-0.28793 -6e-5,-0.40618 0,-0.40625 -6e-5,-1.53593 0.50644,-2.93943 1.5625,-4.1875 l 1.3125,-0.15625 z m 7.1875,0 1.3125,0.15625 c 1.05593,1.24807 1.56243,2.65157 1.5625,4.1875 -7e-5,0.28807 -7e-5,0.40632 0,0.40625 l -1,1.03125 c -0.76807,-0.0959 -1.39507,-0.63368 -1.875,-1.59375 -7e-5,-0.86393 -0.29907,-1.58018 -0.875,-2.15625 -7e-5,-0.76793 0.29893,-1.45518 0.875,-2.03125 z m -43.90625,1.4375 c 0.76798,7e-5 1.42397,0.29907 2,0.875 0.57597,0.57607 0.87497,1.26332 0.875,2.03125 -3e-5,0.76807 -0.29903,1.42407 -0.875,2 -0.57603,0.57607 -1.23202,0.87507 -2,0.875 -0.76802,7e-5 -1.45527,-0.29893 -2.03125,-0.875 -0.57602,-0.57593 -0.87502,-1.23193 -0.875,-2 -2e-5,-0.76793 0.29898,-1.45518 0.875,-2.03125 0.57598,-0.57593 1.26323,-0.87493 2.03125,-0.875 z m 20.15625,0 c 0.76796,7e-5 1.42395,0.29907 2,0.875 0.57595,0.57607 0.87495,1.26332 0.875,2.03125 -5e-5,0.76807 -0.29905,1.42407 -0.875,2 -0.57605,0.57607 -1.23204,0.87507 -2,0.875 -0.76804,7e-5 -1.45529,-0.29893 -2.03125,-0.875 -0.57604,-0.57593 -0.84379,-1.23193 -0.84375,-2 -4e-5,-0.76793 0.26771,-1.45518 0.84375,-2.03125 0.57596,-0.57593 1.26321,-0.87493 2.03125,-0.875 z m 20.15625,0 c 0.76794,7e-5 1.42393,0.29907 2,0.875 0.57593,0.57607 0.87493,1.26332 0.875,2.03125 -7e-5,0.76807 -0.29907,1.42407 -0.875,2 -0.57607,0.57607 -1.23206,0.87507 -2,0.875 -0.76806,7e-5 -1.45531,-0.29893 -2.03125,-0.875 -0.57606,-0.57593 -0.84381,-1.23193 -0.84375,-2 -6e-5,-0.76793 0.26769,-1.45518 0.84375,-2.03125 0.57594,-0.57593 1.26319,-0.87493 2.03125,-0.875 z m -40.65625,1.46875 c -0.73501,0.10505 -1.09377,0.59756 -1.09375,1.4375 -2e-5,0.96007 0.47748,1.43757 1.4375,1.4375 0.95998,7e-5 1.43747,-0.47743 1.4375,-1.4375 -3e-5,-0.95993 -0.47752,-1.43743 -1.4375,-1.4375 -0.12,1e-5 -0.23875,-0.015 -0.34375,0 z m 20.15625,0 c -0.73503,0.10505 -1.09379,0.59756 -1.09375,1.4375 -4e-5,0.96007 0.47746,1.43757 1.4375,1.4375 0.95996,7e-5 1.43745,-0.47743 1.4375,-1.4375 -5e-5,-0.95993 -0.47754,-1.43743 -1.4375,-1.4375 -0.12,1e-5 -0.23875,-0.015 -0.34375,0 z m 20.15625,0 c -0.73504,0.10505 -1.0938,0.59756 -1.09375,1.4375 -6e-5,0.96007 0.47744,1.43757 1.4375,1.4375 0.95994,7e-5 1.43743,-0.47743 1.4375,-1.4375 -7e-5,-0.95993 -0.47756,-1.43743 -1.4375,-1.4375 -0.12001,1e-5 -0.23874,-0.015 -0.34375,0 z m -44.15625,3 1.15625,0.3125 c 0.47998,0.86407 1.19623,1.37057 2.15625,1.5625 l 0.5625,1.03125 0,1.125 -1.28125,0.59375 c -1.53602,-0.28793 -2.81902,-1.21393 -3.875,-2.75 l 0.28125,-1.4375 1,-0.4375 z m 8.34375,0 1.03125,0.4375 0.28125,1.4375 c -1.05603,1.53607 -2.37028,2.46207 -3.90625,2.75 l -1.28125,-0.59375 0,-1.125 0.5625,-1.03125 c 0.95997,-0.19193 1.67622,-0.69843 2.15625,-1.5625 l 1.15625,-0.3125 z m 11.8125,0 1.15625,0.3125 c 0.47996,0.86407 1.19621,1.37057 2.15625,1.5625 l 0.59375,1.03125 0,1.125 -1.3125,0.59375 c -1.53604,-0.28793 -2.81904,-1.21393 -3.875,-2.75 l 0.28125,-1.4375 1,-0.4375 z m 8.34375,0 1.03125,0.4375 0.28125,1.4375 c -1.05605,1.53607 -2.3703,2.46207 -3.90625,2.75 l -1.28125,-0.59375 0,-1.125 0.5625,-1.03125 c 0.95995,-0.19193 1.70745,-0.69843 2.1875,-1.5625 l 1.125,-0.3125 z m 11.8125,0 1.15625,0.3125 c 0.47994,0.86407 1.19619,1.37057 2.15625,1.5625 l 0.59375,1.03125 0,1.125 -1.3125,0.59375 c -1.53606,-0.28793 -2.81906,-1.21393 -3.875,-2.75 l 0.28125,-1.4375 1,-0.4375 z m 8.375,0 1,0.4375 0.28125,1.4375 c -1.05607,1.53607 -2.33907,2.46207 -3.875,2.75 l -1.3125,-0.59375 0,-1.125 0.59375,-1.03125 c 0.95993,-0.19193 1.67618,-0.69843 2.15625,-1.5625 l 1.15625,-0.3125 z"
         id="path4120-7-2" />
      <path
         inkscape:connector-curvature="0"
         style="font-size:144px;font-style:normal;font-variant:normal;font-weight:500;font-stretch:normal;text-align:start;line-height:125%;letter-spacing:0px;word-spacing:0px;text-anchor:start;fill:#ff0000;fill-opacity:1;stroke:none;font-family:GL-MahjongTile;-inkscape-font-specification:GL-MahjongTile Medium"
         d="m 834.25893,937.00893 c -2.97602,8e-5 -5.54427,1.04433 -7.65625,3.15625 -2.11201,2.11208 -3.15626,4.68032 -3.15625,7.65625 -10e-6,2.97607 1.04424,5.51307 3.15625,7.625 2.11198,2.11206 4.68023,3.15631 7.65625,3.15625 2.30397,6e-5 4.36347,-0.62694 6.1875,-1.875 1.82397,-1.34394 3.10697,-3.01518 3.875,-5.03125 0.76797,2.01607 2.08221,3.68731 3.90625,5.03125 1.82396,1.24806 3.88346,1.87506 6.1875,1.875 2.30395,6e-5 4.36345,-0.62694 6.1875,-1.875 1.82395,-1.34394 3.10695,-3.01518 3.875,-5.03125 0.76795,2.01607 2.08219,3.68731 3.90625,5.03125 1.82394,1.24806 3.88344,1.87506 6.1875,1.875 2.97593,6e-5 5.51293,-1.04419 7.625,-3.15625 2.11193,-2.11193 3.15618,-4.64893 3.15625,-7.625 -7e-5,-2.97593 -1.04432,-5.54417 -3.15625,-7.65625 -2.11207,-2.11192 -4.64907,-3.15617 -7.625,-3.15625 -2.30406,8e-5 -4.36356,0.68733 -6.1875,2.03125 -1.82406,1.24808 -3.1383,2.85908 -3.90625,4.875 -0.76805,-2.01592 -2.05105,-3.62692 -3.875,-4.875 -1.82405,-1.34392 -3.88355,-2.03117 -6.1875,-2.03125 -2.30404,8e-5 -4.36354,0.68733 -6.1875,2.03125 -1.82404,1.24808 -3.13828,2.85908 -3.90625,4.875 -0.76803,-2.01592 -2.05103,-3.62692 -3.875,-4.875 -1.82403,-1.34392 -3.88353,-2.03117 -6.1875,-2.03125 z m 0,2.15625 c 2.39997,8e-5 4.39922,0.86583 6.03125,2.59375 1.72797,1.63208 2.59372,3.66257 2.59375,6.0625 -3e-5,2.40007 -0.86578,4.45957 -2.59375,6.1875 -1.63203,1.63206 -3.63128,2.43756 -6.03125,2.4375 -2.40002,6e-5 -4.49077,-0.80544 -6.21875,-2.4375 -1.63202,-1.72793 -2.43752,-3.78743 -2.4375,-6.1875 -2e-5,-2.39993 0.80548,-4.43042 2.4375,-6.0625 1.72798,-1.72792 3.81873,-2.59367 6.21875,-2.59375 z m 20.15625,0 c 2.39995,8e-5 4.3992,0.86583 6.03125,2.59375 1.72795,1.63208 2.5937,3.66257 2.59375,6.0625 -5e-5,2.40007 -0.8658,4.45957 -2.59375,6.1875 -1.63205,1.63206 -3.6313,2.43756 -6.03125,2.4375 -2.40004,6e-5 -4.45954,-0.80544 -6.1875,-2.4375 -1.63204,-1.72793 -2.46879,-3.78743 -2.46875,-6.1875 -4e-5,-2.39993 0.83671,-4.43042 2.46875,-6.0625 1.72796,-1.72792 3.78746,-2.59367 6.1875,-2.59375 z m 20.15625,0 c 2.39993,8e-5 4.39918,0.86583 6.03125,2.59375 1.72793,1.63208 2.59368,3.66257 2.59375,6.0625 -7e-5,2.40007 -0.86582,4.45957 -2.59375,6.1875 -1.63207,1.63206 -3.63132,2.43756 -6.03125,2.4375 -2.40006,6e-5 -4.45956,-0.80544 -6.1875,-2.4375 -1.63206,-1.72793 -2.46881,-3.78743 -2.46875,-6.1875 -6e-5,-2.39993 0.83669,-4.43042 2.46875,-6.0625 1.72794,-1.72792 3.78744,-2.59367 6.1875,-2.59375 z m -40.3125,1.4375 c -2.01602,8e-5 -3.74752,0.71633 -5.1875,2.15625 -1.34402,1.34407 -2.03127,3.04657 -2.03125,5.0625 -2e-5,2.01607 0.68723,3.74757 2.03125,5.1875 1.43998,1.34406 3.17148,2.00006 5.1875,2 2.01597,6e-5 3.68722,-0.65594 5.03125,-2 1.43997,-1.43993 2.15622,-3.17143 2.15625,-5.1875 -3e-5,-2.01593 -0.71628,-3.71843 -2.15625,-5.0625 -1.34403,-1.43992 -3.01528,-2.15617 -5.03125,-2.15625 z m 20.15625,0 c -2.01604,8e-5 -3.74754,0.71633 -5.1875,2.15625 -1.34404,1.34407 -2.03129,3.04657 -2.03125,5.0625 -4e-5,2.01607 0.68721,3.74757 2.03125,5.1875 1.43996,1.34406 3.17146,2.00006 5.1875,2 2.01595,6e-5 3.6872,-0.65594 5.03125,-2 1.43995,-1.43993 2.1562,-3.17143 2.15625,-5.1875 -5e-5,-2.01593 -0.7163,-3.71843 -2.15625,-5.0625 -1.34405,-1.43992 -3.0153,-2.15617 -5.03125,-2.15625 z m 20.15625,0 c -2.01606,8e-5 -3.74756,0.71633 -5.1875,2.15625 -1.34406,1.34407 -2.03131,3.04657 -2.03125,5.0625 -6e-5,2.01607 0.68719,3.74757 2.03125,5.1875 1.43994,1.34406 3.17144,2.00006 5.1875,2 2.01593,6e-5 3.68718,-0.65594 5.03125,-2 1.43993,-1.43993 2.15618,-3.17143 2.15625,-5.1875 -7e-5,-2.01593 -0.71632,-3.71843 -2.15625,-5.0625 -1.34407,-1.43992 -3.01532,-2.15617 -5.03125,-2.15625 z m -40.3125,0.71875 c 0.95998,8e-5 1.76547,0.14958 2.4375,0.4375 l 0.5625,1.3125 c -0.28803,0.86407 -0.85478,1.3416 -1.71875,1.4375 -0.57602,-0.1919 -0.99327,-0.31243 -1.28125,-0.3125 -0.28802,7e-5 -0.73652,0.12057 -1.3125,0.3125 -0.86402,-0.0959 -1.43077,-0.57343 -1.71875,-1.4375 l 0.5625,-1.3125 c 0.67198,-0.28792 1.50873,-0.43742 2.46875,-0.4375 z m 20.15625,0 c 0.95996,8e-5 1.76545,0.14958 2.4375,0.4375 l 0.59375,1.3125 c -0.28805,0.86407 -0.88605,1.3416 -1.75,1.4375 -0.57604,-0.1919 -0.99329,-0.31243 -1.28125,-0.3125 -0.28804,7e-5 -0.73654,0.12057 -1.3125,0.3125 -0.86404,-0.0959 -1.43079,-0.57343 -1.71875,-1.4375 l 0.5625,-1.3125 c 0.67196,-0.28792 1.50871,-0.43742 2.46875,-0.4375 z m 20.15625,0 c 0.95994,8e-5 1.76543,0.14958 2.4375,0.4375 l 0.59375,1.3125 c -0.28807,0.86407 -0.88607,1.3416 -1.75,1.4375 -0.57606,-0.1919 -0.99331,-0.31243 -1.28125,-0.3125 -0.28806,7e-5 -0.73656,0.12057 -1.3125,0.3125 -0.86406,-0.0959 -1.43081,-0.57343 -1.71875,-1.4375 l 0.59375,-1.3125 c 0.67194,-0.28792 1.47744,-0.43742 2.4375,-0.4375 z m -43.9375,2.15625 c 0.57598,0.57607 0.87498,1.26332 0.875,2.03125 -0.57602,0.57607 -0.87502,1.29232 -0.875,2.15625 -0.48002,0.96007 -1.07577,1.49785 -1.84375,1.59375 l -1.03125,-1.03125 c -2e-5,-0.28793 -2e-5,-0.40618 0,-0.40625 -2e-5,-1.53593 0.53773,-2.93943 1.59375,-4.1875 l 1.28125,-0.15625 z m 7.21875,0 1.28125,0.15625 c 1.05597,1.24807 1.59372,2.65157 1.59375,4.1875 -3e-5,0.28807 -3e-5,0.40632 0,0.40625 l -1,1.03125 c -0.76803,-0.0959 -1.39503,-0.63368 -1.875,-1.59375 -3e-5,-0.86393 -0.29903,-1.58018 -0.875,-2.15625 -3e-5,-0.76793 0.29897,-1.45518 0.875,-2.03125 z m 12.96875,0 c 0.57596,0.57607 0.84371,1.26332 0.84375,2.03125 -0.57604,0.57607 -0.84379,1.29232 -0.84375,2.15625 -0.48004,0.96007 -1.10704,1.49785 -1.875,1.59375 l -1.03125,-1.03125 0,-0.40625 c -4e-5,-1.53593 0.53771,-2.93943 1.59375,-4.1875 l 1.3125,-0.15625 z m 7.1875,0 1.28125,0.15625 c 1.05595,1.24807 1.5937,2.65157 1.59375,4.1875 l 0,0.40625 -1,1.03125 c -0.76805,-0.0959 -1.39505,-0.63368 -1.875,-1.59375 -5e-5,-0.86393 -0.29905,-1.58018 -0.875,-2.15625 -5e-5,-0.76793 0.29895,-1.45518 0.875,-2.03125 z m 12.96875,0 c 0.57594,0.57607 0.84369,1.26332 0.84375,2.03125 -0.57606,0.57607 -0.84381,1.29232 -0.84375,2.15625 -0.48006,0.96007 -1.10706,1.49785 -1.875,1.59375 l -1,-1.03125 c -6e-5,-0.28793 -6e-5,-0.40618 0,-0.40625 -6e-5,-1.53593 0.50644,-2.93943 1.5625,-4.1875 l 1.3125,-0.15625 z m 7.1875,0 1.3125,0.15625 c 1.05593,1.24807 1.56243,2.65157 1.5625,4.1875 -7e-5,0.28807 -7e-5,0.40632 0,0.40625 l -1,1.03125 c -0.76807,-0.0959 -1.39507,-0.63368 -1.875,-1.59375 -7e-5,-0.86393 -0.29907,-1.58018 -0.875,-2.15625 -7e-5,-0.76793 0.29893,-1.45518 0.875,-2.03125 z m -43.90625,1.4375 c 0.76798,7e-5 1.42397,0.29907 2,0.875 0.57597,0.57607 0.87497,1.26332 0.875,2.03125 -3e-5,0.76807 -0.29903,1.42407 -0.875,2 -0.57603,0.57607 -1.23202,0.87507 -2,0.875 -0.76802,7e-5 -1.45527,-0.29893 -2.03125,-0.875 -0.57602,-0.57593 -0.87502,-1.23193 -0.875,-2 -2e-5,-0.76793 0.29898,-1.45518 0.875,-2.03125 0.57598,-0.57593 1.26323,-0.87493 2.03125,-0.875 z m 20.15625,0 c 0.76796,7e-5 1.42395,0.29907 2,0.875 0.57595,0.57607 0.87495,1.26332 0.875,2.03125 -5e-5,0.76807 -0.29905,1.42407 -0.875,2 -0.57605,0.57607 -1.23204,0.87507 -2,0.875 -0.76804,7e-5 -1.45529,-0.29893 -2.03125,-0.875 -0.57604,-0.57593 -0.84379,-1.23193 -0.84375,-2 -4e-5,-0.76793 0.26771,-1.45518 0.84375,-2.03125 0.57596,-0.57593 1.26321,-0.87493 2.03125,-0.875 z m 20.15625,0 c 0.76794,7e-5 1.42393,0.29907 2,0.875 0.57593,0.57607 0.87493,1.26332 0.875,2.03125 -7e-5,0.76807 -0.29907,1.42407 -0.875,2 -0.57607,0.57607 -1.23206,0.87507 -2,0.875 -0.76806,7e-5 -1.45531,-0.29893 -2.03125,-0.875 -0.57606,-0.57593 -0.84381,-1.23193 -0.84375,-2 -6e-5,-0.76793 0.26769,-1.45518 0.84375,-2.03125 0.57594,-0.57593 1.26319,-0.87493 2.03125,-0.875 z m -40.65625,1.46875 c -0.73501,0.10505 -1.09377,0.59756 -1.09375,1.4375 -2e-5,0.96007 0.47748,1.43757 1.4375,1.4375 0.95998,7e-5 1.43747,-0.47743 1.4375,-1.4375 -3e-5,-0.95993 -0.47752,-1.43743 -1.4375,-1.4375 -0.12,1e-5 -0.23875,-0.015 -0.34375,0 z m 20.15625,0 c -0.73503,0.10505 -1.09379,0.59756 -1.09375,1.4375 -4e-5,0.96007 0.47746,1.43757 1.4375,1.4375 0.95996,7e-5 1.43745,-0.47743 1.4375,-1.4375 -5e-5,-0.95993 -0.47754,-1.43743 -1.4375,-1.4375 -0.12,1e-5 -0.23875,-0.015 -0.34375,0 z m 20.15625,0 c -0.73504,0.10505 -1.0938,0.59756 -1.09375,1.4375 -6e-5,0.96007 0.47744,1.43757 1.4375,1.4375 0.95994,7e-5 1.43743,-0.47743 1.4375,-1.4375 -7e-5,-0.95993 -0.47756,-1.43743 -1.4375,-1.4375 -0.12001,1e-5 -0.23874,-0.015 -0.34375,0 z m -44.15625,3 1.15625,0.3125 c 0.47998,0.86407 1.19623,1.37057 2.15625,1.5625 l 0.5625,1.03125 0,1.125 -1.28125,0.59375 c -1.53602,-0.28793 -2.81902,-1.21393 -3.875,-2.75 l 0.28125,-1.4375 1,-0.4375 z m 8.34375,0 1.03125,0.4375 0.28125,1.4375 c -1.05603,1.53607 -2.37028,2.46207 -3.90625,2.75 l -1.28125,-0.59375 0,-1.125 0.5625,-1.03125 c 0.95997,-0.19193 1.67622,-0.69843 2.15625,-1.5625 l 1.15625,-0.3125 z m 11.8125,0 1.15625,0.3125 c 0.47996,0.86407 1.19621,1.37057 2.15625,1.5625 l 0.59375,1.03125 0,1.125 -1.3125,0.59375 c -1.53604,-0.28793 -2.81904,-1.21393 -3.875,-2.75 l 0.28125,-1.4375 1,-0.4375 z m 8.34375,0 1.03125,0.4375 0.28125,1.4375 c -1.05605,1.53607 -2.3703,2.46207 -3.90625,2.75 l -1.28125,-0.59375 0,-1.125 0.5625,-1.03125 c 0.95995,-0.19193 1.70745,-0.69843 2.1875,-1.5625 l 1.125,-0.3125 z m 11.8125,0 1.15625,0.3125 c 0.47994,0.86407 1.19619,1.37057 2.15625,1.5625 l 0.59375,1.03125 0,1.125 -1.3125,0.59375 c -1.53606,-0.28793 -2.81906,-1.21393 -3.875,-2.75 l 0.28125,-1.4375 1,-0.4375 z m 8.375,0 1,0.4375 0.28125,1.4375 c -1.05607,1.53607 -2.33907,2.46207 -3.875,2.75 l -1.3125,-0.59375 0,-1.125 0.59375,-1.03125 c 0.95993,-0.19193 1.67618,-0.69843 2.15625,-1.5625 l 1.15625,-0.3125 z"
         id="path4120-7" />
      <path
         style="font-size:144px;font-style:normal;font-variant:normal;font-weight:500;font-stretch:normal;text-align:start;line-height:125%;letter-spacing:0px;word-spacing:0px;text-anchor:start;fill:#0000ff;fill-opacity:1;stroke:none;font-family:GL-MahjongTile;-inkscape-font-specification:GL-MahjongTile Medium"
         d="m 834.25893,904.60268 c -2.97602,8e-5 -5.54427,1.04433 -7.65625,3.15625 -2.11201,2.11208 -3.15626,4.68032 -3.15625,7.65625 -10e-6,2.97607 1.04424,5.51307 3.15625,7.625 2.11198,2.11206 4.68023,3.15631 7.65625,3.15625 2.30397,6e-5 4.36347,-0.62694 6.1875,-1.875 1.82397,-1.34394 3.10697,-3.01518 3.875,-5.03125 0.76797,2.01607 2.08221,3.68731 3.90625,5.03125 1.82396,1.24806 3.88346,1.87506 6.1875,1.875 2.30395,6e-5 4.36345,-0.62694 6.1875,-1.875 1.82395,-1.34394 3.10695,-3.01518 3.875,-5.03125 0.76795,2.01607 2.08219,3.68731 3.90625,5.03125 1.82394,1.24806 3.88344,1.87506 6.1875,1.875 2.97593,6e-5 5.51293,-1.04419 7.625,-3.15625 2.11193,-2.11193 3.15618,-4.64893 3.15625,-7.625 -7e-5,-2.97593 -1.04432,-5.54417 -3.15625,-7.65625 -2.11207,-2.11192 -4.64907,-3.15617 -7.625,-3.15625 -2.30406,8e-5 -4.36356,0.68733 -6.1875,2.03125 -1.82406,1.24808 -3.1383,2.85908 -3.90625,4.875 -0.76805,-2.01592 -2.05105,-3.62692 -3.875,-4.875 -1.82405,-1.34392 -3.88355,-2.03117 -6.1875,-2.03125 -2.30404,8e-5 -4.36354,0.68733 -6.1875,2.03125 -1.82404,1.24808 -3.13828,2.85908 -3.90625,4.875 -0.76803,-2.01592 -2.05103,-3.62692 -3.875,-4.875 -1.82403,-1.34392 -3.88353,-2.03117 -6.1875,-2.03125 z m 0,2.15625 c 2.39997,8e-5 4.39922,0.86583 6.03125,2.59375 1.72797,1.63208 2.59372,3.66257 2.59375,6.0625 -3e-5,2.40007 -0.86578,4.45957 -2.59375,6.1875 -1.63203,1.63206 -3.63128,2.43756 -6.03125,2.4375 -2.40002,6e-5 -4.49077,-0.80544 -6.21875,-2.4375 -1.63202,-1.72793 -2.43752,-3.78743 -2.4375,-6.1875 -2e-5,-2.39993 0.80548,-4.43042 2.4375,-6.0625 1.72798,-1.72792 3.81873,-2.59367 6.21875,-2.59375 z m 20.15625,0 c 2.39995,8e-5 4.3992,0.86583 6.03125,2.59375 1.72795,1.63208 2.5937,3.66257 2.59375,6.0625 -5e-5,2.40007 -0.8658,4.45957 -2.59375,6.1875 -1.63205,1.63206 -3.6313,2.43756 -6.03125,2.4375 -2.40004,6e-5 -4.45954,-0.80544 -6.1875,-2.4375 -1.63204,-1.72793 -2.46879,-3.78743 -2.46875,-6.1875 -4e-5,-2.39993 0.83671,-4.43042 2.46875,-6.0625 1.72796,-1.72792 3.78746,-2.59367 6.1875,-2.59375 z m 20.15625,0 c 2.39993,8e-5 4.39918,0.86583 6.03125,2.59375 1.72793,1.63208 2.59368,3.66257 2.59375,6.0625 -7e-5,2.40007 -0.86582,4.45957 -2.59375,6.1875 -1.63207,1.63206 -3.63132,2.43756 -6.03125,2.4375 -2.40006,6e-5 -4.45956,-0.80544 -6.1875,-2.4375 -1.63206,-1.72793 -2.46881,-3.78743 -2.46875,-6.1875 -6e-5,-2.39993 0.83669,-4.43042 2.46875,-6.0625 1.72794,-1.72792 3.78744,-2.59367 6.1875,-2.59375 z m -40.3125,1.4375 c -2.01602,8e-5 -3.74752,0.71633 -5.1875,2.15625 -1.34402,1.34407 -2.03127,3.04657 -2.03125,5.0625 -2e-5,2.01607 0.68723,3.74757 2.03125,5.1875 1.43998,1.34406 3.17148,2.00006 5.1875,2 2.01597,6e-5 3.68722,-0.65594 5.03125,-2 1.43997,-1.43993 2.15622,-3.17143 2.15625,-5.1875 -3e-5,-2.01593 -0.71628,-3.71843 -2.15625,-5.0625 -1.34403,-1.43992 -3.01528,-2.15617 -5.03125,-2.15625 z m 20.15625,0 c -2.01604,8e-5 -3.74754,0.71633 -5.1875,2.15625 -1.34404,1.34407 -2.03129,3.04657 -2.03125,5.0625 -4e-5,2.01607 0.68721,3.74757 2.03125,5.1875 1.43996,1.34406 3.17146,2.00006 5.1875,2 2.01595,6e-5 3.6872,-0.65594 5.03125,-2 1.43995,-1.43993 2.1562,-3.17143 2.15625,-5.1875 -5e-5,-2.01593 -0.7163,-3.71843 -2.15625,-5.0625 -1.34405,-1.43992 -3.0153,-2.15617 -5.03125,-2.15625 z m 20.15625,0 c -2.01606,8e-5 -3.74756,0.71633 -5.1875,2.15625 -1.34406,1.34407 -2.03131,3.04657 -2.03125,5.0625 -6e-5,2.01607 0.68719,3.74757 2.03125,5.1875 1.43994,1.34406 3.17144,2.00006 5.1875,2 2.01593,6e-5 3.68718,-0.65594 5.03125,-2 1.43993,-1.43993 2.15618,-3.17143 2.15625,-5.1875 -7e-5,-2.01593 -0.71632,-3.71843 -2.15625,-5.0625 -1.34407,-1.43992 -3.01532,-2.15617 -5.03125,-2.15625 z m -40.3125,0.71875 c 0.95998,8e-5 1.76547,0.14958 2.4375,0.4375 l 0.5625,1.3125 c -0.28803,0.86407 -0.85478,1.3416 -1.71875,1.4375 -0.57602,-0.1919 -0.99327,-0.31243 -1.28125,-0.3125 -0.28802,7e-5 -0.73652,0.12057 -1.3125,0.3125 -0.86402,-0.0959 -1.43077,-0.57343 -1.71875,-1.4375 l 0.5625,-1.3125 c 0.67198,-0.28792 1.50873,-0.43742 2.46875,-0.4375 z m 20.15625,0 c 0.95996,8e-5 1.76545,0.14958 2.4375,0.4375 l 0.59375,1.3125 c -0.28805,0.86407 -0.88605,1.3416 -1.75,1.4375 -0.57604,-0.1919 -0.99329,-0.31243 -1.28125,-0.3125 -0.28804,7e-5 -0.73654,0.12057 -1.3125,0.3125 -0.86404,-0.0959 -1.43079,-0.57343 -1.71875,-1.4375 l 0.5625,-1.3125 c 0.67196,-0.28792 1.50871,-0.43742 2.46875,-0.4375 z m 20.15625,0 c 0.95994,8e-5 1.76543,0.14958 2.4375,0.4375 l 0.59375,1.3125 c -0.28807,0.86407 -0.88607,1.3416 -1.75,1.4375 -0.57606,-0.1919 -0.99331,-0.31243 -1.28125,-0.3125 -0.28806,7e-5 -0.73656,0.12057 -1.3125,0.3125 -0.86406,-0.0959 -1.43081,-0.57343 -1.71875,-1.4375 l 0.59375,-1.3125 c 0.67194,-0.28792 1.47744,-0.43742 2.4375,-0.4375 z m -43.9375,2.15625 c 0.57598,0.57607 0.87498,1.26332 0.875,2.03125 -0.57602,0.57607 -0.87502,1.29232 -0.875,2.15625 -0.48002,0.96007 -1.07577,1.49785 -1.84375,1.59375 l -1.03125,-1.03125 c -2e-5,-0.28793 -2e-5,-0.40618 0,-0.40625 -2e-5,-1.53593 0.53773,-2.93943 1.59375,-4.1875 l 1.28125,-0.15625 z m 7.21875,0 1.28125,0.15625 c 1.05597,1.24807 1.59372,2.65157 1.59375,4.1875 -3e-5,0.28807 -3e-5,0.40632 0,0.40625 l -1,1.03125 c -0.76803,-0.0959 -1.39503,-0.63368 -1.875,-1.59375 -3e-5,-0.86393 -0.29903,-1.58018 -0.875,-2.15625 -3e-5,-0.76793 0.29897,-1.45518 0.875,-2.03125 z m 12.96875,0 c 0.57596,0.57607 0.84371,1.26332 0.84375,2.03125 -0.57604,0.57607 -0.84379,1.29232 -0.84375,2.15625 -0.48004,0.96007 -1.10704,1.49785 -1.875,1.59375 l -1.03125,-1.03125 0,-0.40625 c -4e-5,-1.53593 0.53771,-2.93943 1.59375,-4.1875 l 1.3125,-0.15625 z m 7.1875,0 1.28125,0.15625 c 1.05595,1.24807 1.5937,2.65157 1.59375,4.1875 l 0,0.40625 -1,1.03125 c -0.76805,-0.0959 -1.39505,-0.63368 -1.875,-1.59375 -5e-5,-0.86393 -0.29905,-1.58018 -0.875,-2.15625 -5e-5,-0.76793 0.29895,-1.45518 0.875,-2.03125 z m 12.96875,0 c 0.57594,0.57607 0.84369,1.26332 0.84375,2.03125 -0.57606,0.57607 -0.84381,1.29232 -0.84375,2.15625 -0.48006,0.96007 -1.10706,1.49785 -1.875,1.59375 l -1,-1.03125 c -6e-5,-0.28793 -6e-5,-0.40618 0,-0.40625 -6e-5,-1.53593 0.50644,-2.93943 1.5625,-4.1875 l 1.3125,-0.15625 z m 7.1875,0 1.3125,0.15625 c 1.05593,1.24807 1.56243,2.65157 1.5625,4.1875 -7e-5,0.28807 -7e-5,0.40632 0,0.40625 l -1,1.03125 c -0.76807,-0.0959 -1.39507,-0.63368 -1.875,-1.59375 -7e-5,-0.86393 -0.29907,-1.58018 -0.875,-2.15625 -7e-5,-0.76793 0.29893,-1.45518 0.875,-2.03125 z m -43.90625,1.4375 c 0.76798,7e-5 1.42397,0.29907 2,0.875 0.57597,0.57607 0.87497,1.26332 0.875,2.03125 -3e-5,0.76807 -0.29903,1.42407 -0.875,2 -0.57603,0.57607 -1.23202,0.87507 -2,0.875 -0.76802,7e-5 -1.45527,-0.29893 -2.03125,-0.875 -0.57602,-0.57593 -0.87502,-1.23193 -0.875,-2 -2e-5,-0.76793 0.29898,-1.45518 0.875,-2.03125 0.57598,-0.57593 1.26323,-0.87493 2.03125,-0.875 z m 20.15625,0 c 0.76796,7e-5 1.42395,0.29907 2,0.875 0.57595,0.57607 0.87495,1.26332 0.875,2.03125 -5e-5,0.76807 -0.29905,1.42407 -0.875,2 -0.57605,0.57607 -1.23204,0.87507 -2,0.875 -0.76804,7e-5 -1.45529,-0.29893 -2.03125,-0.875 -0.57604,-0.57593 -0.84379,-1.23193 -0.84375,-2 -4e-5,-0.76793 0.26771,-1.45518 0.84375,-2.03125 0.57596,-0.57593 1.26321,-0.87493 2.03125,-0.875 z m 20.15625,0 c 0.76794,7e-5 1.42393,0.29907 2,0.875 0.57593,0.57607 0.87493,1.26332 0.875,2.03125 -7e-5,0.76807 -0.29907,1.42407 -0.875,2 -0.57607,0.57607 -1.23206,0.87507 -2,0.875 -0.76806,7e-5 -1.45531,-0.29893 -2.03125,-0.875 -0.57606,-0.57593 -0.84381,-1.23193 -0.84375,-2 -6e-5,-0.76793 0.26769,-1.45518 0.84375,-2.03125 0.57594,-0.57593 1.26319,-0.87493 2.03125,-0.875 z m -40.65625,1.46875 c -0.73501,0.10505 -1.09377,0.59756 -1.09375,1.4375 -2e-5,0.96007 0.47748,1.43757 1.4375,1.4375 0.95998,7e-5 1.43747,-0.47743 1.4375,-1.4375 -3e-5,-0.95993 -0.47752,-1.43743 -1.4375,-1.4375 -0.12,1e-5 -0.23875,-0.015 -0.34375,0 z m 20.15625,0 c -0.73503,0.10505 -1.09379,0.59756 -1.09375,1.4375 -4e-5,0.96007 0.47746,1.43757 1.4375,1.4375 0.95996,7e-5 1.43745,-0.47743 1.4375,-1.4375 -5e-5,-0.95993 -0.47754,-1.43743 -1.4375,-1.4375 -0.12,1e-5 -0.23875,-0.015 -0.34375,0 z m 20.15625,0 c -0.73504,0.10505 -1.0938,0.59756 -1.09375,1.4375 -6e-5,0.96007 0.47744,1.43757 1.4375,1.4375 0.95994,7e-5 1.43743,-0.47743 1.4375,-1.4375 -7e-5,-0.95993 -0.47756,-1.43743 -1.4375,-1.4375 -0.12001,1e-5 -0.23874,-0.015 -0.34375,0 z m -44.15625,3 1.15625,0.3125 c 0.47998,0.86407 1.19623,1.37057 2.15625,1.5625 l 0.5625,1.03125 0,1.125 -1.28125,0.59375 c -1.53602,-0.28793 -2.81902,-1.21393 -3.875,-2.75 l 0.28125,-1.4375 1,-0.4375 z m 8.34375,0 1.03125,0.4375 0.28125,1.4375 c -1.05603,1.53607 -2.37028,2.46207 -3.90625,2.75 l -1.28125,-0.59375 0,-1.125 0.5625,-1.03125 c 0.95997,-0.19193 1.67622,-0.69843 2.15625,-1.5625 l 1.15625,-0.3125 z m 11.8125,0 1.15625,0.3125 c 0.47996,0.86407 1.19621,1.37057 2.15625,1.5625 l 0.59375,1.03125 0,1.125 -1.3125,0.59375 c -1.53604,-0.28793 -2.81904,-1.21393 -3.875,-2.75 l 0.28125,-1.4375 1,-0.4375 z m 8.34375,0 1.03125,0.4375 0.28125,1.4375 c -1.05605,1.53607 -2.3703,2.46207 -3.90625,2.75 l -1.28125,-0.59375 0,-1.125 0.5625,-1.03125 c 0.95995,-0.19193 1.70745,-0.69843 2.1875,-1.5625 l 1.125,-0.3125 z m 11.8125,0 1.15625,0.3125 c 0.47994,0.86407 1.19619,1.37057 2.15625,1.5625 l 0.59375,1.03125 0,1.125 -1.3125,0.59375 c -1.53606,-0.28793 -2.81906,-1.21393 -3.875,-2.75 l 0.28125,-1.4375 1,-0.4375 z m 8.375,0 1,0.4375 0.28125,1.4375 c -1.05607,1.53607 -2.33907,2.46207 -3.875,2.75 l -1.3125,-0.59375 0,-1.125 0.59375,-1.03125 c 0.95993,-0.19193 1.67618,-0.69843 2.15625,-1.5625 l 1.15625,-0.3125 z"
         id="path4120"
         inkscape:connector-curvature="0" />
    </g>
  </g>
</svg>
