<?xml version="1.0" encoding="UTF-8" standalone="no"?>
<!-- Created with Inkscape (http://www.inkscape.org/) -->

<svg
   xmlns:dc="http://purl.org/dc/elements/1.1/"
   xmlns:cc="http://creativecommons.org/ns#"
   xmlns:rdf="http://www.w3.org/1999/02/22-rdf-syntax-ns#"
   xmlns:svg="http://www.w3.org/2000/svg"
   xmlns="http://www.w3.org/2000/svg"
   xmlns:sodipodi="http://sodipodi.sourceforge.net/DTD/sodipodi-0.dtd"
   xmlns:inkscape="http://www.inkscape.org/namespaces/inkscape"
   width="79.59375"
   height="115.96875"
   id="svg3237"
   version="1.1"
   inkscape:version="0.48.3.1 r9886"
   sodipodi:docname="S8.svg">
  <defs
     id="defs3239" />
  <sodipodi:namedview
     id="base"
     pagecolor="#ffffff"
     bordercolor="#666666"
     borderopacity="1.0"
     inkscape:pageopacity="0.0"
     inkscape:pageshadow="2"
     inkscape:zoom="0.7"
     inkscape:cx="217.27928"
     inkscape:cy="-43.476524"
     inkscape:document-units="px"
     inkscape:current-layer="layer1"
     showgrid="false"
     fit-margin-top="0"
     fit-margin-left="0"
     fit-margin-right="0"
     fit-margin-bottom="0"
     inkscape:window-width="748"
     inkscape:window-height="600"
     inkscape:window-x="399"
     inkscape:window-y="247"
     inkscape:window-maximized="0" />
  <metadata
     id="metadata3242">
    <rdf:RDF>
      <cc:Work
         rdf:about="">
        <dc:format>image/svg+xml</dc:format>
        <dc:type
           rdf:resource="http://purl.org/dc/dcmitype/StillImage" />
        <dc:title />
      </cc:Work>
    </rdf:RDF>
  </metadata>
  <g
     inkscape:label="Layer 1"
     inkscape:groupmode="layer"
     id="layer1"
     transform="translate(367.0625,-363.25)">
    <rect
       ry="5.4056678"
       y="363.75897"
       x="-366.548"
       height="114.96053"
       width="78.56237"
       id="rect6731-9-5"
       style="fill:#ffffff;stroke:#000000;stroke-width:1.00899994;stroke-miterlimit:4;stroke-opacity:1;stroke-dasharray:none;stroke-dashoffset:0" />
    <g
       transform="translate(-1089.4164,-346.5666)"
       id="g6914">
      <path
         style="font-size:144px;font-style:normal;font-variant:normal;font-weight:500;font-stretch:normal;text-align:start;line-height:125%;letter-spacing:0px;word-spacing:0px;text-anchor:start;fill:#008800;fill-opacity:1;stroke:none;font-family:GL-MahjongTile;-inkscape-font-specification:GL-MahjongTile Medium"
         d="m 739.85268,773.13393 c -5.76002,3e-5 -8.65626,1.01528 -8.65625,3.03125 -10e-6,1.63203 1.19374,3.06453 3.59375,4.3125 l 0,9.0625 c -2.40001,0.76802 -3.59376,1.93277 -3.59375,3.46875 -10e-6,1.53601 1.19374,2.66951 3.59375,3.4375 l 0,9.09375 c -2.40001,1.248 -3.59376,2.6805 -3.59375,4.3125 -10e-6,2.01599 2.89623,3.03124 8.65625,3.03125 5.75997,-10e-6 8.62497,-1.01526 8.625,-3.03125 -3e-5,-1.632 -1.19378,-3.0645 -3.59375,-4.3125 l 0,-9.09375 c 2.39997,-0.76799 3.59372,-1.90149 3.59375,-3.4375 -3e-5,-1.53598 -1.19378,-2.70073 -3.59375,-3.46875 l 0,-2.59375 5.3125,5.34375 c -0.76803,1.44001 -0.64753,2.63376 0.3125,3.59375 0.86397,0.86401 2.05772,0.95326 3.59375,0.28125 l 3.3125,3.1875 c -0.76804,1.05601 -1.15629,2.10026 -1.15625,3.15625 -4e-5,1.824 0.80546,2.75 2.4375,2.75 1.34396,0 2.50871,-0.4485 3.46875,-1.3125 0.95996,0.864 2.09345,1.3125 3.4375,1.3125 1.63195,0 2.4687,-0.926 2.46875,-2.75 -5e-5,-1.05599 -0.3883,-2.10024 -1.15625,-3.15625 l 3.3125,-3.1875 c 1.53595,0.67201 2.7297,0.58276 3.59375,-0.28125 0.95994,-0.95999 1.04919,-2.15374 0.28125,-3.59375 l 5.34375,-5.34375 0,2.59375 c -2.40006,0.76802 -3.59381,1.93277 -3.59375,3.46875 -6e-5,1.53601 1.19369,2.66951 3.59375,3.4375 l 0,9.09375 c -2.40006,1.248 -3.59381,2.6805 -3.59375,4.3125 -6e-5,2.01599 2.86494,3.03124 8.625,3.03125 5.75993,-10e-6 8.62493,-1.01526 8.625,-3.03125 -7e-5,-1.632 -1.19382,-3.0645 -3.59375,-4.3125 l 0,-9.09375 c 2.39993,-0.76799 3.59368,-1.90149 3.59375,-3.4375 -7e-5,-1.53598 -1.19382,-2.70073 -3.59375,-3.46875 l 0,-9.0625 c 2.39993,-1.24797 3.59368,-2.68047 3.59375,-4.3125 -7e-5,-2.01597 -2.86507,-3.03122 -8.625,-3.03125 -5.76006,3e-5 -8.62506,1.01528 -8.625,3.03125 -6e-5,0.86403 0.47744,1.75878 1.4375,2.71875 l -8.21875,8.21875 c -1.44005,-0.67198 -2.6338,-0.52248 -3.59375,0.4375 -0.86405,0.86402 -0.9533,1.99752 -0.28125,3.4375 l -3.03125,3.03125 -3.03125,-3.03125 c 0.76796,-1.43998 0.67871,-2.63373 -0.28125,-3.59375 -0.86404,-0.86398 -2.05779,-0.95323 -3.59375,-0.28125 l -8.21875,-8.21875 c 0.95997,-0.95997 1.43747,-1.85472 1.4375,-2.71875 -3e-5,-2.01597 -2.86503,-3.03122 -8.625,-3.03125 z m 0,2.875 c 0.95998,3e-5 1.67623,0.0602 2.15625,0.15625 l 0,12.65625 c -0.48002,-0.096 -1.19627,-0.12498 -2.15625,-0.125 -0.96002,2e-5 -1.70752,0.029 -2.1875,0.125 l 0,-12.65625 c 0.47998,-0.096 1.22748,-0.15622 2.1875,-0.15625 z m 44.625,0 c 0.95993,3e-5 1.67618,0.0602 2.15625,0.15625 l 0,12.65625 c -0.48007,-0.096 -1.19632,-0.12498 -2.15625,-0.125 -0.96007,2e-5 -1.67631,0.029 -2.15625,0.125 l 0,-12.65625 c 0.47994,-0.096 1.19618,-0.15622 2.15625,-0.15625 z m -39.15625,4.1875 8.1875,8.1875 c -0.76803,0.48002 -1.42403,1.16727 -2,2.03125 l -6.625,-6.46875 0,-3.46875 0.4375,-0.28125 z m 33.6875,0 0.4375,0.28125 0,3.46875 -6.625,6.46875 c -0.57605,-0.86398 -1.2633,-1.55123 -2.03125,-2.03125 l 8.21875,-8.1875 z m -24.46875,9.21875 2.4375,2.4375 c -0.19204,0.19201 -0.40179,0.37051 -0.59375,0.5625 -0.096,0.19201 -0.21429,0.40176 -0.40625,0.59375 -0.096,0.096 -0.24554,0.24551 -0.4375,0.4375 -0.19204,0.19201 -0.40179,0.3415 -0.59375,0.4375 l -2.4375,-2.46875 0.28125,-0.28125 c 0.096,-0.19198 0.15622,-0.3415 0.15625,-0.4375 0.096,-0.096 0.24547,-0.18525 0.4375,-0.28125 0.19196,-0.19198 0.37046,-0.3415 0.5625,-0.4375 0.19196,-0.19198 0.40171,-0.37048 0.59375,-0.5625 z m 15.25,0 c 0.19195,0.19202 0.37045,0.37052 0.5625,0.5625 0.19195,0.096 0.4017,0.24552 0.59375,0.4375 0.19195,0.19202 0.3415,0.37052 0.4375,0.5625 0.19195,0.19202 0.31025,0.3415 0.40625,0.4375 l -2.4375,2.46875 c -0.19205,-0.096 -0.37055,-0.24549 -0.5625,-0.4375 -0.19205,-0.19199 -0.3415,-0.3415 -0.4375,-0.4375 -0.19205,-0.19199 -0.4018,-0.40174 -0.59375,-0.59375 -0.096,-0.19199 -0.2143,-0.37049 -0.40625,-0.5625 l 2.4375,-2.4375 z m -29.9375,0.71875 c 0.28798,2e-5 0.64498,0.029 1.125,0.125 0.47998,2e-5 0.83923,2e-5 1.03125,0 l 0,5.46875 c -0.19202,1e-5 -0.55127,0.0602 -1.03125,0.15625 l -1.125,0 -1.15625,0 c -0.48002,-0.096 -0.83927,-0.15624 -1.03125,-0.15625 l 0,-5.46875 c 0.19198,2e-5 0.55123,2e-5 1.03125,0 0.47998,-0.096 0.86823,-0.12498 1.15625,-0.125 z m 44.625,0 c 0.28793,2e-5 0.67618,0.029 1.15625,0.125 0.47993,2e-5 0.80793,2e-5 1,0 l 0,5.46875 c -0.19207,1e-5 -0.52007,0.0602 -1,0.15625 l -1.15625,0 -1.15625,0 c -0.48006,-0.096 -0.80806,-0.15624 -1,-0.15625 l 0,-5.46875 c 0.19194,2e-5 0.51994,2e-5 1,0 0.47993,-0.096 0.86818,-0.12498 1.15625,-0.125 z m -26.5,2.71875 4.1875,4.1875 4.15625,-4.1875 c 0.76795,0.96001 1.4552,1.64726 2.03125,2.03125 l -4.75,4.875 0,3.1875 c -0.57604,0.192 -1.05354,0.28125 -1.4375,0.28125 -0.38404,0 -0.86154,-0.0892 -1.4375,-0.28125 l 0,-3.1875 -4.75,-4.875 c 0.57596,-0.38399 1.23196,-1.07124 2,-2.03125 z m -20.3125,4.3125 c 0.47998,0.096 1.22748,0.15626 2.1875,0.15625 0.95998,1e-5 1.67623,-0.0602 2.15625,-0.15625 l 0,12.6875 c -0.48002,0.096 -1.19627,0.15625 -2.15625,0.15625 -0.96002,0 -1.70752,-0.0602 -2.1875,-0.15625 l 0,-12.6875 z m 44.65625,0 c 0.47994,0.096 1.19618,0.15626 2.15625,0.15625 0.95993,1e-5 1.67618,-0.0602 2.15625,-0.15625 l 0,12.6875 c -0.48007,0.096 -1.19632,0.15625 -2.15625,0.15625 -0.96007,0 -1.67631,-0.0602 -2.15625,-0.15625 l 0,-12.6875 z"
         id="path5437"
         inkscape:connector-curvature="0" />
      <path
         style="font-size:144px;font-style:normal;font-variant:normal;font-weight:500;font-stretch:normal;text-align:start;line-height:125%;letter-spacing:0px;word-spacing:0px;text-anchor:start;fill:#008800;fill-opacity:1;stroke:none;font-family:GL-MahjongTile;-inkscape-font-specification:GL-MahjongTile Medium"
         d="m 739.85268,722.72768 c -5.76002,8e-5 -8.65626,1.01533 -8.65625,3.03125 -10e-6,1.63208 1.19374,3.06458 3.59375,4.3125 l 0,9.0625 c -2.40001,0.76807 -3.59376,1.93282 -3.59375,3.46875 -10e-6,1.53606 1.19374,2.70081 3.59375,3.46875 l 0,9.0625 c -2.40001,1.24805 -3.59376,2.68055 -3.59375,4.3125 -10e-6,2.01605 2.89623,3.03129 8.65625,3.03125 5.75997,4e-5 8.62497,-1.0152 8.625,-3.03125 -3e-5,-0.86395 -0.47753,-1.7587 -1.4375,-2.71875 l 8.21875,-8.21875 c 1.43996,0.67206 2.63371,0.52256 3.59375,-0.4375 0.86396,-0.86394 0.95321,-1.99744 0.28125,-3.4375 l 3.03125,-3.03125 3.03125,3.03125 c -0.76805,1.44006 -0.6788,2.63381 0.28125,3.59375 0.86395,0.86406 2.0577,0.95331 3.59375,0.28125 l 8.21875,8.21875 c -0.96006,0.96005 -1.43756,1.8548 -1.4375,2.71875 -6e-5,2.01605 2.86494,3.03129 8.625,3.03125 5.75993,4e-5 8.62493,-1.0152 8.625,-3.03125 -7e-5,-1.63195 -1.19382,-3.06445 -3.59375,-4.3125 l 0,-9.0625 c 2.39993,-0.76794 3.59368,-1.93269 3.59375,-3.46875 -7e-5,-1.53593 -1.19382,-2.70068 -3.59375,-3.46875 l 0,-9.0625 c 2.39993,-1.24792 3.59368,-2.68042 3.59375,-4.3125 -7e-5,-2.01592 -2.86507,-3.03117 -8.625,-3.03125 -5.76006,8e-5 -8.62506,1.01533 -8.625,3.03125 -6e-5,1.63208 1.19369,3.06458 3.59375,4.3125 l 0,9.0625 c -2.40006,0.76807 -3.59381,1.93282 -3.59375,3.46875 -6e-5,1.53606 1.19369,2.70081 3.59375,3.46875 l 0,2.59375 -5.34375,-5.34375 c 0.76794,-1.43994 0.67869,-2.63368 -0.28125,-3.59375 -0.86405,-0.86393 -2.0578,-0.95318 -3.59375,-0.28125 l -3.3125,-3.1875 c 0.76795,-1.05593 1.1562,-2.10018 1.15625,-3.15625 -5e-5,-1.82392 -0.8368,-2.74992 -2.46875,-2.75 -1.34405,8e-5 -2.47754,0.44858 -3.4375,1.3125 -0.96004,-0.86392 -2.12479,-1.31242 -3.46875,-1.3125 -1.63204,8e-5 -2.43754,0.92608 -2.4375,2.75 -4e-5,1.05607 0.38821,2.10032 1.15625,3.15625 l -3.3125,3.1875 c -1.53603,-0.67193 -2.72978,-0.58268 -3.59375,0.28125 -0.96003,0.96007 -1.08053,2.15381 -0.3125,3.59375 l -5.3125,5.34375 0,-2.59375 c 2.39997,-0.76794 3.59372,-1.93269 3.59375,-3.46875 -3e-5,-1.53593 -1.19378,-2.70068 -3.59375,-3.46875 l 0,-9.0625 c 2.39997,-1.24792 3.59372,-2.68042 3.59375,-4.3125 -3e-5,-2.01592 -2.86503,-3.03117 -8.625,-3.03125 z m 0,2.875 c 0.95998,8e-5 1.67623,0.0603 2.15625,0.15625 l 0,12.65625 c -0.48002,-0.0959 -1.19627,-0.12493 -2.15625,-0.125 -0.96002,7e-5 -1.70752,0.0291 -2.1875,0.125 l 0,-12.65625 c 0.47998,-0.0959 1.22748,-0.15617 2.1875,-0.15625 z m 44.625,0 c 0.95993,8e-5 1.67618,0.0603 2.15625,0.15625 l 0,12.65625 c -0.48007,-0.0959 -1.19632,-0.12493 -2.15625,-0.125 -0.96007,7e-5 -1.67631,0.0291 -2.15625,0.125 l 0,-12.65625 c 0.47994,-0.0959 1.19618,-0.15617 2.15625,-0.15625 z m -22.3125,6.78125 c 0.38396,7e-5 0.86146,0.0893 1.4375,0.28125 l 0,3.15625 4.75,4.90625 c -0.57605,0.38407 -1.2633,1.07131 -2.03125,2.03125 l -4.15625,-4.1875 -4.1875,4.1875 c -0.76804,-0.95994 -1.42404,-1.64718 -2,-2.03125 l 4.75,-4.90625 0,-3.15625 c 0.57596,-0.1919 1.05346,-0.28118 1.4375,-0.28125 z m -22.3125,7.34375 c 0.28798,7e-5 0.64498,0.0603 1.125,0.15625 0.47998,7e-5 0.83923,7e-5 1.03125,0 l 0,5.46875 c -0.19202,6e-5 -0.55127,0.0291 -1.03125,0.125 -0.48002,6e-5 -0.83702,6e-5 -1.125,0 -0.28802,6e-5 -0.67627,6e-5 -1.15625,0 -0.48002,-0.0959 -0.83927,-0.12494 -1.03125,-0.125 l 0,-5.46875 c 0.19198,7e-5 0.55123,7e-5 1.03125,0 0.47998,-0.0959 0.86823,-0.15618 1.15625,-0.15625 z m 44.625,0 c 0.28793,7e-5 0.67618,0.0603 1.15625,0.15625 0.47993,7e-5 0.80793,7e-5 1,0 l 0,5.46875 c -0.19207,6e-5 -0.52007,0.0291 -1,0.125 -0.48007,6e-5 -0.86832,6e-5 -1.15625,0 -0.28807,6e-5 -0.67632,6e-5 -1.15625,0 -0.48006,-0.0959 -0.80806,-0.12494 -1,-0.125 l 0,-5.46875 c 0.19194,7e-5 0.51994,7e-5 1,0 0.47993,-0.0959 0.86818,-0.15618 1.15625,-0.15625 z m -29.53125,2 c 0.19196,0.0961 0.40171,0.24556 0.59375,0.4375 0.19196,0.19206 0.3415,0.3416 0.4375,0.4375 0.19196,0.19206 0.31025,0.37056 0.40625,0.5625 0.19196,0.19206 0.40171,0.40181 0.59375,0.59375 l -2.4375,2.4375 c -0.19204,-0.19194 -0.40179,-0.3414 -0.59375,-0.4375 -0.19204,-0.19194 -0.37054,-0.37044 -0.5625,-0.5625 -0.19203,-0.19194 -0.40178,-0.37044 -0.59375,-0.5625 -0.096,-0.19194 -0.18525,-0.3414 -0.28125,-0.4375 l 2.4375,-2.46875 z m 14.40625,0 2.4375,2.46875 c -0.096,0.0961 -0.18525,0.24556 -0.28125,0.4375 -0.096,0.0961 -0.18525,0.18535 -0.28125,0.28125 -5e-5,0.0961 -0.0893,0.18535 -0.28125,0.28125 l -0.59375,0.5625 c -0.19205,0.0961 -0.37055,0.24556 -0.5625,0.4375 l -2.4375,-2.4375 c 0.19195,-0.19194 0.31025,-0.40169 0.40625,-0.59375 l 0.59375,-0.5625 0.4375,-0.4375 c 0.19195,-0.19194 0.37045,-0.3414 0.5625,-0.4375 z m -17.84375,3.46875 c 0.57597,0.86406 1.23197,1.55131 2,2.03125 l -8.1875,8.1875 -0.4375,-0.28125 0,-3.46875 6.625,-6.46875 z m 21.3125,0 6.625,6.46875 0,3.46875 -0.4375,0.28125 -8.21875,-8.1875 c 0.76795,-0.47994 1.4552,-1.16719 2.03125,-2.03125 z m -35.15625,1.59375 c 0.47998,0.0961 1.22748,0.12506 2.1875,0.125 0.95998,6e-5 1.67623,-0.0289 2.15625,-0.125 l 0,12.65625 c -0.48002,0.096 -1.19627,0.1563 -2.15625,0.15625 -0.96002,5e-5 -1.70752,-0.0602 -2.1875,-0.15625 l 0,-12.65625 z m 44.65625,0 c 0.47994,0.0961 1.19618,0.12506 2.15625,0.125 0.95993,6e-5 1.67618,-0.0289 2.15625,-0.125 l 0,12.65625 c -0.48007,0.096 -1.19632,0.1563 -2.15625,0.15625 -0.96007,5e-5 -1.67631,-0.0602 -2.15625,-0.15625 l 0,-12.65625 z"
         id="path5413"
         inkscape:connector-curvature="0" />
    </g>
  </g>
</svg>
