<?xml version="1.0" encoding="UTF-8" standalone="no"?>
<!-- Created with Inkscape (http://www.inkscape.org/) -->

<svg
   xmlns:dc="http://purl.org/dc/elements/1.1/"
   xmlns:cc="http://creativecommons.org/ns#"
   xmlns:rdf="http://www.w3.org/1999/02/22-rdf-syntax-ns#"
   xmlns:svg="http://www.w3.org/2000/svg"
   xmlns="http://www.w3.org/2000/svg"
   xmlns:sodipodi="http://sodipodi.sourceforge.net/DTD/sodipodi-0.dtd"
   xmlns:inkscape="http://www.inkscape.org/namespaces/inkscape"
   width="79.571373"
   height="115.96954"
   id="svg3237"
   version="1.1"
   inkscape:version="0.48.3.1 r9886"
   sodipodi:docname="S9.svg">
  <defs
     id="defs3239" />
  <sodipodi:namedview
     id="base"
     pagecolor="#ffffff"
     bordercolor="#666666"
     borderopacity="1.0"
     inkscape:pageopacity="0.0"
     inkscape:pageshadow="2"
     inkscape:zoom="0.7"
     inkscape:cx="36.241814"
     inkscape:cy="47.26042"
     inkscape:document-units="px"
     inkscape:current-layer="layer1"
     showgrid="false"
     fit-margin-top="0"
     fit-margin-left="0"
     fit-margin-right="0"
     fit-margin-bottom="0"
     inkscape:window-width="748"
     inkscape:window-height="600"
     inkscape:window-x="399"
     inkscape:window-y="247"
     inkscape:window-maximized="0" />
  <metadata
     id="metadata3242">
    <rdf:RDF>
      <cc:Work
         rdf:about="">
        <dc:format>image/svg+xml</dc:format>
        <dc:type
           rdf:resource="http://purl.org/dc/dcmitype/StillImage" />
        <dc:title />
      </cc:Work>
    </rdf:RDF>
  </metadata>
  <g
     inkscape:label="Layer 1"
     inkscape:groupmode="layer"
     id="layer1"
     transform="translate(186.02504,-453.98616)">
    <rect
       ry="5.4056678"
       y="454.49066"
       x="-185.52054"
       height="114.96053"
       width="78.56237"
       id="rect6731-9"
       style="fill:#ffffff;stroke:#000000;stroke-width:1.00899994;stroke-miterlimit:4;stroke-opacity:1;stroke-dasharray:none;stroke-dashoffset:0" />
    <g
       transform="translate(-1000.6394,-255.83871)"
       id="g6900">
      <path
         inkscape:connector-curvature="0"
         style="font-size:144px;font-style:normal;font-variant:normal;font-weight:500;font-stretch:normal;text-align:start;line-height:125%;letter-spacing:0px;word-spacing:0px;text-anchor:start;fill:#008800;fill-opacity:1;stroke:none;font-family:GL-MahjongTile;-inkscape-font-specification:GL-MahjongTile Medium"
         d="m 831.79123,787.1104 c -5.56806,9e-5 -8.34381,0.98409 -8.34375,3 -6e-5,1.63208 1.19369,3.09583 3.59375,4.34375 l 0,4.75 c -2.40006,0.76808 -3.59381,1.90158 -3.59375,3.4375 -6e-5,1.53607 1.19369,2.70082 3.59375,3.46875 l 0,4.75 c -2.40006,1.24806 -3.59381,2.68056 -3.59375,4.3125 -6e-5,2.01606 2.77569,3.03131 8.34375,3.03125 5.56793,6e-5 8.34368,-1.01519 8.34375,-3.03125 -7e-5,-1.63194 -1.19382,-3.06444 -3.59375,-4.3125 l 0,-4.75 c 2.39993,-0.76793 3.59368,-1.93268 3.59375,-3.46875 -7e-5,-1.53592 -1.19382,-2.66942 -3.59375,-3.4375 l 0,-4.75 c 2.39993,-1.24792 3.59368,-2.71167 3.59375,-4.34375 -7e-5,-2.01591 -2.77582,-2.99991 -8.34375,-3 z m 0,2.875 c 0.95993,9e-5 1.67618,0.0291 2.15625,0.125 l 0,8.375 c -0.48007,-0.0959 -1.19632,-0.15617 -2.15625,-0.15625 -0.96007,8e-5 -1.67631,0.0603 -2.15625,0.15625 l 0,-8.375 c 0.47994,-0.0959 1.19618,-0.12491 2.15625,-0.125 z m 0,9.78125 c 0.28793,8e-5 0.67618,0.0603 1.15625,0.15625 0.47993,8e-5 0.80793,8e-5 1,0 l 0,5.46875 c -0.19207,7e-5 -0.52007,0.0291 -1,0.125 -0.48007,7e-5 -0.86832,7e-5 -1.15625,0 -0.28807,7e-5 -0.67632,7e-5 -1.15625,0 -0.48006,-0.0959 -0.80806,-0.12493 -1,-0.125 l 0,-5.46875 c 0.19194,8e-5 0.51994,8e-5 1,0 0.47993,-0.0959 0.86818,-0.15617 1.15625,-0.15625 z m -2.15625,7.0625 c 0.47994,0.0961 1.19618,0.15632 2.15625,0.15625 0.95993,7e-5 1.67618,-0.0602 2.15625,-0.15625 l 0,8.34375 c -0.48007,0.0961 -1.19632,0.15631 -2.15625,0.15625 -0.96007,6e-5 -1.67631,-0.0602 -2.15625,-0.15625 l 0,-8.34375 z"
         id="path5363-9-1-5-8" />
      <path
         inkscape:connector-curvature="0"
         style="font-size:144px;font-style:normal;font-variant:normal;font-weight:500;font-stretch:normal;text-align:start;line-height:125%;letter-spacing:0px;word-spacing:0px;text-anchor:start;fill:#ff0000;fill-opacity:1;stroke:none;font-family:GL-MahjongTile;-inkscape-font-specification:GL-MahjongTile Medium"
         d="m 854.39923,787.1104 c -5.56806,9e-5 -8.34381,0.98409 -8.34375,3 -6e-5,1.63208 1.19369,3.09583 3.59375,4.34375 l 0,4.75 c -2.40006,0.76808 -3.59381,1.90158 -3.59375,3.4375 -6e-5,1.53607 1.19369,2.70082 3.59375,3.46875 l 0,4.75 c -2.40006,1.24806 -3.59381,2.68056 -3.59375,4.3125 -6e-5,2.01606 2.77569,3.03131 8.34375,3.03125 5.56793,6e-5 8.34368,-1.01519 8.34375,-3.03125 -7e-5,-1.63194 -1.19382,-3.06444 -3.59375,-4.3125 l 0,-4.75 c 2.39993,-0.76793 3.59368,-1.93268 3.59375,-3.46875 -7e-5,-1.53592 -1.19382,-2.66942 -3.59375,-3.4375 l 0,-4.75 c 2.39993,-1.24792 3.59368,-2.71167 3.59375,-4.34375 -7e-5,-2.01591 -2.77582,-2.99991 -8.34375,-3 z m 0,2.875 c 0.95993,9e-5 1.67618,0.0291 2.15625,0.125 l 0,8.375 c -0.48007,-0.0959 -1.19632,-0.15617 -2.15625,-0.15625 -0.96007,8e-5 -1.67631,0.0603 -2.15625,0.15625 l 0,-8.375 c 0.47994,-0.0959 1.19618,-0.12491 2.15625,-0.125 z m 0,9.78125 c 0.28793,8e-5 0.67618,0.0603 1.15625,0.15625 0.47993,8e-5 0.80793,8e-5 1,0 l 0,5.46875 c -0.19207,7e-5 -0.52007,0.0291 -1,0.125 -0.48007,7e-5 -0.86832,7e-5 -1.15625,0 -0.28807,7e-5 -0.67632,7e-5 -1.15625,0 -0.48006,-0.0959 -0.80806,-0.12493 -1,-0.125 l 0,-5.46875 c 0.19194,8e-5 0.51994,8e-5 1,0 0.47993,-0.0959 0.86818,-0.15617 1.15625,-0.15625 z m -2.15625,7.0625 c 0.47994,0.0961 1.19618,0.15632 2.15625,0.15625 0.95993,7e-5 1.67618,-0.0602 2.15625,-0.15625 l 0,8.34375 c -0.48007,0.0961 -1.19632,0.15631 -2.15625,0.15625 -0.96007,6e-5 -1.67631,-0.0602 -2.15625,-0.15625 l 0,-8.34375 z"
         id="path5363-9-9-1" />
      <path
         inkscape:connector-curvature="0"
         style="font-size:144px;font-style:normal;font-variant:normal;font-weight:500;font-stretch:normal;text-align:start;line-height:125%;letter-spacing:0px;word-spacing:0px;text-anchor:start;fill:#008800;fill-opacity:1;stroke:none;font-family:GL-MahjongTile;-inkscape-font-specification:GL-MahjongTile Medium"
         d="m 876.99243,787.11079 c -5.56806,9e-5 -8.34381,0.98409 -8.34375,3 -6e-5,1.63208 1.19369,3.09583 3.59375,4.34375 l 0,4.75 c -2.40006,0.76808 -3.59381,1.90158 -3.59375,3.4375 -6e-5,1.53607 1.19369,2.70082 3.59375,3.46875 l 0,4.75 c -2.40006,1.24806 -3.59381,2.68056 -3.59375,4.3125 -6e-5,2.01606 2.77569,3.03131 8.34375,3.03125 5.56793,6e-5 8.34368,-1.01519 8.34375,-3.03125 -7e-5,-1.63194 -1.19382,-3.06444 -3.59375,-4.3125 l 0,-4.75 c 2.39993,-0.76793 3.59368,-1.93268 3.59375,-3.46875 -7e-5,-1.53592 -1.19382,-2.66942 -3.59375,-3.4375 l 0,-4.75 c 2.39993,-1.24792 3.59368,-2.71167 3.59375,-4.34375 -7e-5,-2.01591 -2.77582,-2.99991 -8.34375,-3 z m 0,2.875 c 0.95993,9e-5 1.67618,0.0291 2.15625,0.125 l 0,8.375 c -0.48007,-0.0959 -1.19632,-0.15617 -2.15625,-0.15625 -0.96007,8e-5 -1.67631,0.0603 -2.15625,0.15625 l 0,-8.375 c 0.47994,-0.0959 1.19618,-0.12491 2.15625,-0.125 z m 0,9.78125 c 0.28793,8e-5 0.67618,0.0603 1.15625,0.15625 0.47993,8e-5 0.80793,8e-5 1,0 l 0,5.46875 c -0.19207,7e-5 -0.52007,0.0291 -1,0.125 -0.48007,7e-5 -0.86832,7e-5 -1.15625,0 -0.28807,7e-5 -0.67632,7e-5 -1.15625,0 -0.48006,-0.0959 -0.80806,-0.12493 -1,-0.125 l 0,-5.46875 c 0.19194,8e-5 0.51994,8e-5 1,0 0.47993,-0.0959 0.86818,-0.15617 1.15625,-0.15625 z m -2.15625,7.0625 c 0.47994,0.0961 1.19618,0.15632 2.15625,0.15625 0.95993,7e-5 1.67618,-0.0602 2.15625,-0.15625 l 0,8.34375 c -0.48007,0.0961 -1.19632,0.15631 -2.15625,0.15625 -0.96007,6e-5 -1.67631,-0.0602 -2.15625,-0.15625 l 0,-8.34375 z"
         id="path5363-1-6" />
      <path
         inkscape:connector-curvature="0"
         style="font-size:144px;font-style:normal;font-variant:normal;font-weight:500;font-stretch:normal;text-align:start;line-height:125%;letter-spacing:0px;word-spacing:0px;text-anchor:start;fill:#008800;fill-opacity:1;stroke:none;font-family:GL-MahjongTile;-inkscape-font-specification:GL-MahjongTile Medium"
         d="m 831.79123,752.2624 c -5.56806,9e-5 -8.34381,0.98409 -8.34375,3 -6e-5,1.63208 1.19369,3.09583 3.59375,4.34375 l 0,4.75 c -2.40006,0.76808 -3.59381,1.90158 -3.59375,3.4375 -6e-5,1.53607 1.19369,2.70082 3.59375,3.46875 l 0,4.75 c -2.40006,1.24806 -3.59381,2.68056 -3.59375,4.3125 -6e-5,2.01606 2.77569,3.03131 8.34375,3.03125 5.56793,6e-5 8.34368,-1.01519 8.34375,-3.03125 -7e-5,-1.63194 -1.19382,-3.06444 -3.59375,-4.3125 l 0,-4.75 c 2.39993,-0.76793 3.59368,-1.93268 3.59375,-3.46875 -7e-5,-1.53592 -1.19382,-2.66942 -3.59375,-3.4375 l 0,-4.75 c 2.39993,-1.24792 3.59368,-2.71167 3.59375,-4.34375 -7e-5,-2.01591 -2.77582,-2.99991 -8.34375,-3 z m 0,2.875 c 0.95993,9e-5 1.67618,0.0291 2.15625,0.125 l 0,8.375 c -0.48007,-0.0959 -1.19632,-0.15617 -2.15625,-0.15625 -0.96007,8e-5 -1.67631,0.0603 -2.15625,0.15625 l 0,-8.375 c 0.47994,-0.0959 1.19618,-0.12491 2.15625,-0.125 z m 0,9.78125 c 0.28793,8e-5 0.67618,0.0603 1.15625,0.15625 0.47993,8e-5 0.80793,8e-5 1,0 l 0,5.46875 c -0.19207,7e-5 -0.52007,0.0291 -1,0.125 -0.48007,7e-5 -0.86832,7e-5 -1.15625,0 -0.28807,7e-5 -0.67632,7e-5 -1.15625,0 -0.48006,-0.0959 -0.80806,-0.12493 -1,-0.125 l 0,-5.46875 c 0.19194,8e-5 0.51994,8e-5 1,0 0.47993,-0.0959 0.86818,-0.15617 1.15625,-0.15625 z m -2.15625,7.0625 c 0.47994,0.0961 1.19618,0.15632 2.15625,0.15625 0.95993,7e-5 1.67618,-0.0602 2.15625,-0.15625 l 0,8.34375 c -0.48007,0.0961 -1.19632,0.15631 -2.15625,0.15625 -0.96007,6e-5 -1.67631,-0.0602 -2.15625,-0.15625 l 0,-8.34375 z"
         id="path5363-9-1-5" />
      <path
         inkscape:connector-curvature="0"
         style="font-size:144px;font-style:normal;font-variant:normal;font-weight:500;font-stretch:normal;text-align:start;line-height:125%;letter-spacing:0px;word-spacing:0px;text-anchor:start;fill:#ff0000;fill-opacity:1;stroke:none;font-family:GL-MahjongTile;-inkscape-font-specification:GL-MahjongTile Medium"
         d="m 854.39923,752.2624 c -5.56806,9e-5 -8.34381,0.98409 -8.34375,3 -6e-5,1.63208 1.19369,3.09583 3.59375,4.34375 l 0,4.75 c -2.40006,0.76808 -3.59381,1.90158 -3.59375,3.4375 -6e-5,1.53607 1.19369,2.70082 3.59375,3.46875 l 0,4.75 c -2.40006,1.24806 -3.59381,2.68056 -3.59375,4.3125 -6e-5,2.01606 2.77569,3.03131 8.34375,3.03125 5.56793,6e-5 8.34368,-1.01519 8.34375,-3.03125 -7e-5,-1.63194 -1.19382,-3.06444 -3.59375,-4.3125 l 0,-4.75 c 2.39993,-0.76793 3.59368,-1.93268 3.59375,-3.46875 -7e-5,-1.53592 -1.19382,-2.66942 -3.59375,-3.4375 l 0,-4.75 c 2.39993,-1.24792 3.59368,-2.71167 3.59375,-4.34375 -7e-5,-2.01591 -2.77582,-2.99991 -8.34375,-3 z m 0,2.875 c 0.95993,9e-5 1.67618,0.0291 2.15625,0.125 l 0,8.375 c -0.48007,-0.0959 -1.19632,-0.15617 -2.15625,-0.15625 -0.96007,8e-5 -1.67631,0.0603 -2.15625,0.15625 l 0,-8.375 c 0.47994,-0.0959 1.19618,-0.12491 2.15625,-0.125 z m 0,9.78125 c 0.28793,8e-5 0.67618,0.0603 1.15625,0.15625 0.47993,8e-5 0.80793,8e-5 1,0 l 0,5.46875 c -0.19207,7e-5 -0.52007,0.0291 -1,0.125 -0.48007,7e-5 -0.86832,7e-5 -1.15625,0 -0.28807,7e-5 -0.67632,7e-5 -1.15625,0 -0.48006,-0.0959 -0.80806,-0.12493 -1,-0.125 l 0,-5.46875 c 0.19194,8e-5 0.51994,8e-5 1,0 0.47993,-0.0959 0.86818,-0.15617 1.15625,-0.15625 z m -2.15625,7.0625 c 0.47994,0.0961 1.19618,0.15632 2.15625,0.15625 0.95993,7e-5 1.67618,-0.0602 2.15625,-0.15625 l 0,8.34375 c -0.48007,0.0961 -1.19632,0.15631 -2.15625,0.15625 -0.96007,6e-5 -1.67631,-0.0602 -2.15625,-0.15625 l 0,-8.34375 z"
         id="path5363-9-9" />
      <path
         inkscape:connector-curvature="0"
         style="font-size:144px;font-style:normal;font-variant:normal;font-weight:500;font-stretch:normal;text-align:start;line-height:125%;letter-spacing:0px;word-spacing:0px;text-anchor:start;fill:#008800;fill-opacity:1;stroke:none;font-family:GL-MahjongTile;-inkscape-font-specification:GL-MahjongTile Medium"
         d="m 876.99243,752.26279 c -5.56806,9e-5 -8.34381,0.98409 -8.34375,3 -6e-5,1.63208 1.19369,3.09583 3.59375,4.34375 l 0,4.75 c -2.40006,0.76808 -3.59381,1.90158 -3.59375,3.4375 -6e-5,1.53607 1.19369,2.70082 3.59375,3.46875 l 0,4.75 c -2.40006,1.24806 -3.59381,2.68056 -3.59375,4.3125 -6e-5,2.01606 2.77569,3.03131 8.34375,3.03125 5.56793,6e-5 8.34368,-1.01519 8.34375,-3.03125 -7e-5,-1.63194 -1.19382,-3.06444 -3.59375,-4.3125 l 0,-4.75 c 2.39993,-0.76793 3.59368,-1.93268 3.59375,-3.46875 -7e-5,-1.53592 -1.19382,-2.66942 -3.59375,-3.4375 l 0,-4.75 c 2.39993,-1.24792 3.59368,-2.71167 3.59375,-4.34375 -7e-5,-2.01591 -2.77582,-2.99991 -8.34375,-3 z m 0,2.875 c 0.95993,9e-5 1.67618,0.0291 2.15625,0.125 l 0,8.375 c -0.48007,-0.0959 -1.19632,-0.15617 -2.15625,-0.15625 -0.96007,8e-5 -1.67631,0.0603 -2.15625,0.15625 l 0,-8.375 c 0.47994,-0.0959 1.19618,-0.12491 2.15625,-0.125 z m 0,9.78125 c 0.28793,8e-5 0.67618,0.0603 1.15625,0.15625 0.47993,8e-5 0.80793,8e-5 1,0 l 0,5.46875 c -0.19207,7e-5 -0.52007,0.0291 -1,0.125 -0.48007,7e-5 -0.86832,7e-5 -1.15625,0 -0.28807,7e-5 -0.67632,7e-5 -1.15625,0 -0.48006,-0.0959 -0.80806,-0.12493 -1,-0.125 l 0,-5.46875 c 0.19194,8e-5 0.51994,8e-5 1,0 0.47993,-0.0959 0.86818,-0.15617 1.15625,-0.15625 z m -2.15625,7.0625 c 0.47994,0.0961 1.19618,0.15632 2.15625,0.15625 0.95993,7e-5 1.67618,-0.0602 2.15625,-0.15625 l 0,8.34375 c -0.48007,0.0961 -1.19632,0.15631 -2.15625,0.15625 -0.96007,6e-5 -1.67631,-0.0602 -2.15625,-0.15625 l 0,-8.34375 z"
         id="path5363-1" />
      <path
         inkscape:connector-curvature="0"
         style="font-size:144px;font-style:normal;font-variant:normal;font-weight:500;font-stretch:normal;text-align:start;line-height:125%;letter-spacing:0px;word-spacing:0px;text-anchor:start;fill:#008800;fill-opacity:1;stroke:none;font-family:GL-MahjongTile;-inkscape-font-specification:GL-MahjongTile Medium"
         d="m 831.80773,717.41479 c -5.56806,9e-5 -8.34381,0.98409 -8.34375,3 -6e-5,1.63208 1.19369,3.09583 3.59375,4.34375 l 0,4.75 c -2.40006,0.76808 -3.59381,1.90158 -3.59375,3.4375 -6e-5,1.53607 1.19369,2.70082 3.59375,3.46875 l 0,4.75 c -2.40006,1.24806 -3.59381,2.68056 -3.59375,4.3125 -6e-5,2.01606 2.77569,3.03131 8.34375,3.03125 5.56793,6e-5 8.34368,-1.01519 8.34375,-3.03125 -7e-5,-1.63194 -1.19382,-3.06444 -3.59375,-4.3125 l 0,-4.75 c 2.39993,-0.76793 3.59368,-1.93268 3.59375,-3.46875 -7e-5,-1.53592 -1.19382,-2.66942 -3.59375,-3.4375 l 0,-4.75 c 2.39993,-1.24792 3.59368,-2.71167 3.59375,-4.34375 -7e-5,-2.01591 -2.77582,-2.99991 -8.34375,-3 z m 0,2.875 c 0.95993,9e-5 1.67618,0.0291 2.15625,0.125 l 0,8.375 c -0.48007,-0.0959 -1.19632,-0.15617 -2.15625,-0.15625 -0.96007,8e-5 -1.67631,0.0603 -2.15625,0.15625 l 0,-8.375 c 0.47994,-0.0959 1.19618,-0.12491 2.15625,-0.125 z m 0,9.78125 c 0.28793,8e-5 0.67618,0.0603 1.15625,0.15625 0.47993,8e-5 0.80793,8e-5 1,0 l 0,5.46875 c -0.19207,7e-5 -0.52007,0.0291 -1,0.125 -0.48007,7e-5 -0.86832,7e-5 -1.15625,0 -0.28807,7e-5 -0.67632,7e-5 -1.15625,0 -0.48006,-0.0959 -0.80806,-0.12493 -1,-0.125 l 0,-5.46875 c 0.19194,8e-5 0.51994,8e-5 1,0 0.47993,-0.0959 0.86818,-0.15617 1.15625,-0.15625 z m -2.15625,7.0625 c 0.47994,0.0961 1.19618,0.15632 2.15625,0.15625 0.95993,7e-5 1.67618,-0.0602 2.15625,-0.15625 l 0,8.34375 c -0.48007,0.0961 -1.19632,0.15631 -2.15625,0.15625 -0.96007,6e-5 -1.67631,-0.0602 -2.15625,-0.15625 l 0,-8.34375 z"
         id="path5363-9-1" />
      <path
         inkscape:connector-curvature="0"
         style="font-size:144px;font-style:normal;font-variant:normal;font-weight:500;font-stretch:normal;text-align:start;line-height:125%;letter-spacing:0px;word-spacing:0px;text-anchor:start;fill:#ff0000;fill-opacity:1;stroke:none;font-family:GL-MahjongTile;-inkscape-font-specification:GL-MahjongTile Medium"
         d="m 854.41573,717.41479 c -5.56806,9e-5 -8.34381,0.98409 -8.34375,3 -6e-5,1.63208 1.19369,3.09583 3.59375,4.34375 l 0,4.75 c -2.40006,0.76808 -3.59381,1.90158 -3.59375,3.4375 -6e-5,1.53607 1.19369,2.70082 3.59375,3.46875 l 0,4.75 c -2.40006,1.24806 -3.59381,2.68056 -3.59375,4.3125 -6e-5,2.01606 2.77569,3.03131 8.34375,3.03125 5.56793,6e-5 8.34368,-1.01519 8.34375,-3.03125 -7e-5,-1.63194 -1.19382,-3.06444 -3.59375,-4.3125 l 0,-4.75 c 2.39993,-0.76793 3.59368,-1.93268 3.59375,-3.46875 -7e-5,-1.53592 -1.19382,-2.66942 -3.59375,-3.4375 l 0,-4.75 c 2.39993,-1.24792 3.59368,-2.71167 3.59375,-4.34375 -7e-5,-2.01591 -2.77582,-2.99991 -8.34375,-3 z m 0,2.875 c 0.95993,9e-5 1.67618,0.0291 2.15625,0.125 l 0,8.375 c -0.48007,-0.0959 -1.19632,-0.15617 -2.15625,-0.15625 -0.96007,8e-5 -1.67631,0.0603 -2.15625,0.15625 l 0,-8.375 c 0.47994,-0.0959 1.19618,-0.12491 2.15625,-0.125 z m 0,9.78125 c 0.28793,8e-5 0.67618,0.0603 1.15625,0.15625 0.47993,8e-5 0.80793,8e-5 1,0 l 0,5.46875 c -0.19207,7e-5 -0.52007,0.0291 -1,0.125 -0.48007,7e-5 -0.86832,7e-5 -1.15625,0 -0.28807,7e-5 -0.67632,7e-5 -1.15625,0 -0.48006,-0.0959 -0.80806,-0.12493 -1,-0.125 l 0,-5.46875 c 0.19194,8e-5 0.51994,8e-5 1,0 0.47993,-0.0959 0.86818,-0.15617 1.15625,-0.15625 z m -2.15625,7.0625 c 0.47994,0.0961 1.19618,0.15632 2.15625,0.15625 0.95993,7e-5 1.67618,-0.0602 2.15625,-0.15625 l 0,8.34375 c -0.48007,0.0961 -1.19632,0.15631 -2.15625,0.15625 -0.96007,6e-5 -1.67631,-0.0602 -2.15625,-0.15625 l 0,-8.34375 z"
         id="path5363-9" />
      <path
         style="font-size:144px;font-style:normal;font-variant:normal;font-weight:500;font-stretch:normal;text-align:start;line-height:125%;letter-spacing:0px;word-spacing:0px;text-anchor:start;fill:#008800;fill-opacity:1;stroke:none;font-family:GL-MahjongTile;-inkscape-font-specification:GL-MahjongTile Medium"
         d="m 877.00893,717.41518 c -5.56806,9e-5 -8.34381,0.98409 -8.34375,3 -6e-5,1.63208 1.19369,3.09583 3.59375,4.34375 l 0,4.75 c -2.40006,0.76808 -3.59381,1.90158 -3.59375,3.4375 -6e-5,1.53607 1.19369,2.70082 3.59375,3.46875 l 0,4.75 c -2.40006,1.24806 -3.59381,2.68056 -3.59375,4.3125 -6e-5,2.01606 2.77569,3.03131 8.34375,3.03125 5.56793,6e-5 8.34368,-1.01519 8.34375,-3.03125 -7e-5,-1.63194 -1.19382,-3.06444 -3.59375,-4.3125 l 0,-4.75 c 2.39993,-0.76793 3.59368,-1.93268 3.59375,-3.46875 -7e-5,-1.53592 -1.19382,-2.66942 -3.59375,-3.4375 l 0,-4.75 c 2.39993,-1.24792 3.59368,-2.71167 3.59375,-4.34375 -7e-5,-2.01591 -2.77582,-2.99991 -8.34375,-3 z m 0,2.875 c 0.95993,9e-5 1.67618,0.0291 2.15625,0.125 l 0,8.375 c -0.48007,-0.0959 -1.19632,-0.15617 -2.15625,-0.15625 -0.96007,8e-5 -1.67631,0.0603 -2.15625,0.15625 l 0,-8.375 c 0.47994,-0.0959 1.19618,-0.12491 2.15625,-0.125 z m 0,9.78125 c 0.28793,8e-5 0.67618,0.0603 1.15625,0.15625 0.47993,8e-5 0.80793,8e-5 1,0 l 0,5.46875 c -0.19207,7e-5 -0.52007,0.0291 -1,0.125 -0.48007,7e-5 -0.86832,7e-5 -1.15625,0 -0.28807,7e-5 -0.67632,7e-5 -1.15625,0 -0.48006,-0.0959 -0.80806,-0.12493 -1,-0.125 l 0,-5.46875 c 0.19194,8e-5 0.51994,8e-5 1,0 0.47993,-0.0959 0.86818,-0.15617 1.15625,-0.15625 z m -2.15625,7.0625 c 0.47994,0.0961 1.19618,0.15632 2.15625,0.15625 0.95993,7e-5 1.67618,-0.0602 2.15625,-0.15625 l 0,8.34375 c -0.48007,0.0961 -1.19632,0.15631 -2.15625,0.15625 -0.96007,6e-5 -1.67631,-0.0602 -2.15625,-0.15625 l 0,-8.34375 z"
         id="path5363"
         inkscape:connector-curvature="0" />
    </g>
  </g>
</svg>
