<?xml version="1.0" encoding="UTF-8" standalone="no"?>
<!-- Created with Inkscape (http://www.inkscape.org/) -->

<svg
   xmlns:dc="http://purl.org/dc/elements/1.1/"
   xmlns:cc="http://creativecommons.org/ns#"
   xmlns:rdf="http://www.w3.org/1999/02/22-rdf-syntax-ns#"
   xmlns:svg="http://www.w3.org/2000/svg"
   xmlns="http://www.w3.org/2000/svg"
   xmlns:sodipodi="http://sodipodi.sourceforge.net/DTD/sodipodi-0.dtd"
   xmlns:inkscape="http://www.inkscape.org/namespaces/inkscape"
   version="1.1"
   width="79.5625"
   height="115.96875"
   id="svg3237"
   inkscape:version="0.48.3.1 r9886"
   sodipodi:docname="X1.svg">
  <sodipodi:namedview
     pagecolor="#ffffff"
     bordercolor="#666666"
     borderopacity="1"
     objecttolerance="10"
     gridtolerance="10"
     guidetolerance="10"
     inkscape:pageopacity="0"
     inkscape:pageshadow="2"
     inkscape:window-width="906"
     inkscape:window-height="708"
     id="namedview8"
     showgrid="false"
     inkscape:zoom="2.035031"
     inkscape:cx="29.495477"
     inkscape:cy="77.640095"
     inkscape:window-x="0"
     inkscape:window-y="24"
     inkscape:window-maximized="0"
     inkscape:current-layer="svg3237" />
  <defs
     id="defs3239" />
  <metadata
     id="metadata3242">
    <rdf:RDF>
      <cc:Work
         rdf:about="">
        <dc:format>image/svg+xml</dc:format>
        <dc:type
           rdf:resource="http://purl.org/dc/dcmitype/StillImage" />
        <dc:title />
      </cc:Work>
    </rdf:RDF>
  </metadata>
  <rect
     style="fill:#ffffff;stroke:#000000;stroke-width:1.00899994000000004;stroke-miterlimit:4;stroke-opacity:1;stroke-dasharray:none;stroke-dashoffset:0;fill-opacity:1"
     id="rect6731-9-200"
     y="0.48904419"
     x="0.50898743"
     ry="5.4056678"
     height="114.96053"
     width="78.56237" />
  <path
     inkscape:connector-curvature="0"
     style="font-size:144px;font-style:normal;font-variant:normal;font-weight:500;font-stretch:normal;text-align:start;line-height:125%;letter-spacing:0px;word-spacing:0px;text-anchor:start;fill:#000000;stroke:none;font-family:GL-MahjongTile;-inkscape-font-specification:GL-MahjongTile Medium;fill-opacity:1"
     id="path3011"
     d="m 30.27678,21.68302 c -4e-5,2.68807 0.86571,5.28532 2.59375,7.78125 1.72796,2.49606 2.59371,5.42131 2.59375,8.78125 l 0,0.4375 c -1.24804,0.48006 -2.89029,0.86831 -4.90625,1.15625 -1.92004,0.19206 -3.08479,0.3416 -3.46875,0.4375 0.57596,1.34405 1.76971,2.00005 3.59375,2 0.76796,5e-5 1.75421,-0.1182 2.90625,-0.40625 1.15196,-0.28795 1.86821,-0.43745 2.15625,-0.4375 -4e-5,1.53605 0.029,2.5803 0.125,3.15625 -3.84004,1.15205 -8.10854,2.22755 -12.8125,3.1875 -2.11203,-0.95995 -3.36603,-1.4687 -3.75,-1.46875 -0.57602,5e-5 -0.93302,0.2388 -1.125,0.71875 0.38398,0.76805 1.33897,2.17155 2.875,4.1875 1.63197,1.92004 3.12472,3.71179 4.46875,5.34375 1.43997,1.63204 2.15621,2.52679 2.15625,2.71875 -4e-5,0.096 -0.12054,0.30579 -0.3125,0.59375 -0.096,0.19204 -0.096,0.31025 0,0.40625 0.86396,1.05604 1.78996,1.654 2.75,1.75 -1.34404,2.68803 -2.86578,4.74753 -4.59375,6.1875 l -1.3125,-1 0.59375,1.84375 c -2.97603,2.49602 -7.69302,5.39227 -14.125,8.65625 0.67198,0.28802 1.83673,0.43752 3.46875,0.4375 2.97598,2e-5 7.03472,-2.11973 12.21875,-6.34375 4.70396,6.43202 7.06246,10.13376 7.0625,11.09375 -4e-5,2.11201 0.47746,4.49951 1.4375,7.1875 0.95996,2.688 1.97521,4.03125 3.03125,4.03125 1.82395,0 2.7187,-2.209 2.71875,-6.625 -5e-5,-0.47999 -0.35705,-2.80724 -1.125,-7.03125 -0.67205,-4.31998 -1.0313,-7.84323 -1.03125,-10.53125 -5e-5,-0.86397 0.0602,-2.11797 0.15625,-3.75 0.0959,-1.63197 0.12495,-2.97522 0.125,-4.03125 0.57595,3e-5 0.9642,-0.029 1.15625,-0.125 1.24795,1.63203 2.97945,4.22928 5.1875,7.78125 2.30395,3.45602 4.12469,5.90377 5.46875,7.34375 1.34394,1.34402 2.68719,2.00002 4.03125,2 1.05594,2e-5 2.37019,-0.41723 3.90625,-1.28125 1.53593,-0.95998 2.49093,-1.46873 2.875,-1.46875 0.57593,2e-5 1.59118,0.35927 3.03125,1.03125 1.53593,0.67202 3.02868,1.08927 4.46875,1.28125 -1.24808,-1.91998 -3.45707,-3.50198 -6.625,-4.75 -3.16807,-1.24798 -6.69131,-2.76972 -10.53125,-4.59375 -3.74406,-1.82397 -6.90805,-4.39222 -9.5,-7.65625 0.67195,-0.28797 1.62695,-0.4665 2.875,-0.5625 0.86395,0.67203 1.5802,1.00003 2.15625,1 0.86394,3e-5 1.31244,-0.74522 1.3125,-2.28125 -6e-5,-0.86396 0.71619,-2.20721 2.15625,-4.03125 1.43994,-1.82396 2.48419,-3.67596 3.15625,-5.5 2.11194,-0.28795 3.18744,-0.8837 3.1875,-1.84375 -6e-5,-1.15195 -0.77656,-2.55545 -2.3125,-4.1875 -1.53606,-1.72795 -2.72981,-2.5937 -3.59375,-2.59375 l -12.25,2.15625 c -5e-5,-0.28795 0.0602,-0.8257 0.15625,-1.59375 0.0959,-0.76795 0.12495,-1.33469 0.125,-1.71875 1.15195,-0.38394 2.6157,-0.71194 4.34375,-1 1.82395,-0.38394 3.10695,-0.71194 3.875,-1 0.86394,-0.28794 1.28119,-0.67619 1.28125,-1.15625 -6e-5,-0.47994 -0.50656,-1.01769 -1.5625,-1.59375 -0.96005,-0.67194 -1.88605,-0.99994 -2.75,-1 -0.38405,6e-5 -0.9508,0.38831 -1.71875,1.15625 -0.76805,0.67206 -1.87255,1.17856 -3.3125,1.5625 0.19195,-2.01594 0.5802,-3.59794 1.15625,-4.75 0.67195,-1.15194 1.29895,-1.80793 1.875,-2 0.67195,-0.28793 1.2387,-0.58693 1.71875,-0.875 0.57595,-0.28793 0.87495,-0.70518 0.875,-1.28125 -5e-5,-1.15193 -0.3883,-1.92843 -1.15625,-2.3125 -0.76805,-0.38393 -2.5598,-0.92168 -5.34375,-1.59375 -2.78404,-0.76793 -5.49954,-1.78318 -8.1875,-3.03125 z m 16.125,23.34375 c 2.30394,5e-5 3.43744,0.3883 3.4375,1.15625 -6e-5,0.96005 -0.62706,2.54205 -1.875,4.75 -0.28806,-0.19195 -0.64505,-0.49095 -1.125,-0.875 -0.38405,-0.38395 -0.7723,-0.6517 -1.15625,-0.84375 -0.28805,-0.192 -0.6473,-0.31245 -1.03125,-0.3125 -1.05605,5e-5 -2.01105,0.29905 -2.875,0.875 -0.76805,0.57605 -1.8123,0.9643 -3.15625,1.15625 -5e-5,-0.38395 -5e-5,-1.1002 0,-2.15625 0.0959,-1.15195 0.18521,-2.07795 0.28125,-2.75 2.68795,-0.67195 5.19595,-0.99995 7.5,-1 z m -10.53125,1.4375 c -4e-5,0.57605 -4e-5,1.38155 0,2.4375 0.096,1.05605 0.15621,1.83255 0.15625,2.3125 -0.76804,0.19204 -2.11129,0.43079 -4.03125,0.71875 -1.82404,0.19204 -3.16729,0.52004 -4.03125,1 -0.28804,-0.47996 -1.24303,-1.52421 -2.875,-3.15625 3.26396,-1.43995 6.84521,-2.54445 10.78125,-3.3125 z m 9.5,5.90625 c 0.28795,4e-5 0.8257,0.17854 1.59375,0.5625 -0.28805,0.48004 -0.76555,1.40604 -1.4375,2.75 -0.67205,1.24804 -1.14955,2.05354 -1.4375,2.4375 -2.11205,0.48004 -3.9038,0.71879 -5.34375,0.71875 -0.096,-0.67196 -0.12505,-1.56671 -0.125,-2.71875 -5e-5,-1.15196 0.029,-1.98871 0.125,-2.46875 0.67195,-0.096 1.8367,-0.33471 3.46875,-0.71875 1.63195,-0.38396 2.6762,-0.56246 3.15625,-0.5625 z m -9.34375,1.59375 c -4e-5,0.48004 -4e-5,1.28554 0,2.4375 0.096,1.15204 0.15621,2.07804 0.15625,2.75 -0.38404,4e-5 -1.07129,4e-5 -2.03125,0 -0.96004,-0.096 -1.67629,-0.2165 -2.15625,-0.3125 -0.96004,-0.95996 -1.76554,-2.18271 -2.4375,-3.71875 1.05596,-0.57596 3.20471,-0.96421 6.46875,-1.15625 z m -2.15625,8.1875 c 0.28796,3e-5 0.67621,0.0602 1.15625,0.15625 0.57596,3e-5 0.96421,3e-5 1.15625,0 -0.57604,9.60002 -1.32354,14.40627 -2.1875,14.40625 -0.48004,2e-5 -1.07579,-0.29898 -1.84375,-0.875 -0.67204,-0.67198 -1.50879,-1.56673 -2.46875,-2.71875 -0.86404,-1.15198 -1.52004,-1.98872 -2,-2.46875 2.97596,-3.64797 5.03546,-6.48397 6.1875,-8.5 z" />
</svg>
