<?xml version="1.0" encoding="UTF-8" standalone="no"?>
<!-- Created with Inkscape (http://www.inkscape.org/) -->

<svg
   xmlns:dc="http://purl.org/dc/elements/1.1/"
   xmlns:cc="http://creativecommons.org/ns#"
   xmlns:rdf="http://www.w3.org/1999/02/22-rdf-syntax-ns#"
   xmlns:svg="http://www.w3.org/2000/svg"
   xmlns="http://www.w3.org/2000/svg"
   xmlns:sodipodi="http://sodipodi.sourceforge.net/DTD/sodipodi-0.dtd"
   xmlns:inkscape="http://www.inkscape.org/namespaces/inkscape"
   width="79.571373"
   height="115.96954"
   id="svg3237"
   version="1.1"
   inkscape:version="0.48.3.1 r9886"
   sodipodi:docname="X4.svg">
  <defs
     id="defs3239" />
  <sodipodi:namedview
     id="base"
     pagecolor="#ffffff"
     bordercolor="#666666"
     borderopacity="1.0"
     inkscape:pageopacity="0.0"
     inkscape:pageshadow="2"
     inkscape:zoom="0.7"
     inkscape:cx="276.1486"
     inkscape:cy="-19.486388"
     inkscape:document-units="px"
     inkscape:current-layer="layer1"
     showgrid="false"
     fit-margin-top="0"
     fit-margin-left="0"
     fit-margin-right="0"
     fit-margin-bottom="0"
     inkscape:window-width="574"
     inkscape:window-height="436"
     inkscape:window-x="406"
     inkscape:window-y="370"
     inkscape:window-maximized="0" />
  <metadata
     id="metadata3242">
    <rdf:RDF>
      <cc:Work
         rdf:about="">
        <dc:format>image/svg+xml</dc:format>
        <dc:type
           rdf:resource="http://purl.org/dc/dcmitype/StillImage" />
        <dc:title />
      </cc:Work>
    </rdf:RDF>
  </metadata>
  <g
     inkscape:label="Layer 1"
     inkscape:groupmode="layer"
     id="layer1"
     transform="translate(-77.986673,-396.90627)">
    <rect
       style="fill:#ffffff;stroke:#000000;stroke-width:1.00899994;stroke-miterlimit:4;stroke-opacity:1;stroke-dasharray:none;stroke-dashoffset:0"
       id="rect6731-9-8"
       width="78.56237"
       height="114.96053"
       x="78.491173"
       y="397.41077"
       ry="5.4056678" />
    <path
       style="font-size:144px;font-style:normal;font-variant:normal;font-weight:500;font-stretch:normal;text-align:start;line-height:125%;letter-spacing:0px;word-spacing:0px;text-anchor:start;fill:#000000;fill-opacity:1;stroke:none;font-family:GL-MahjongTile;-inkscape-font-specification:GL-MahjongTile Medium"
       d="m 88.990399,479.09337 c -2e-5,-0.76798 0.57598,-1.82398 1.728,-3.168 1.24798,-1.43998 2.78398,-3.79198 4.608,-7.056 1.91998,-3.35997 3.50397,-7.43997 4.752001,-12.24 -3.360021,-2.20796 -5.184021,-4.51196 -5.472001,-6.912 1.91998,0.86404 4.07997,1.44004 6.480001,1.728 0.096,-0.95996 0.38397,-1.87196 0.864,-2.736 0.28797,0.67204 0.47997,1.77604 0.576,3.312 2.68797,0.86404 4.03197,1.92004 4.032,3.168 -3e-5,1.34404 -1.53603,2.01604 -4.608,2.016 -0.57603,3.07203 -1.15203,5.85603 -1.728,8.352 -0.576031,2.40003 -1.008031,4.08002 -1.296001,5.04 -0.19203,0.96002 -0.28803,1.63202 -0.288,2.016 -3e-5,0.76802 0.096,1.29602 0.288,1.584 0.95997,-0.096 2.687971,-0.91198 5.184001,-2.448 2.59197,-1.63198 4.60796,-3.02397 6.048,-4.176 0.57596,-0.95997 0.86396,-3.02397 0.864,-6.192 -4e-5,-0.67197 -0.048,-1.82397 -0.144,-3.456 -4e-5,-1.63196 -4e-5,-2.83196 0,-3.6 -4e-5,-2.68796 -0.24004,-4.84796 -0.72,-6.48 -0.48004,-1.72795 -1.05604,-2.87995 -1.728,-3.456 -0.57603,-0.57595 -1.10403,-1.19995 -1.584,-1.872 -0.48003,-0.67195 -0.72003,-1.43995 -0.72,-2.304 -3e-5,-1.05595 0.38397,-1.96794 1.152,-2.736 1.53596,0.57606 3.11996,1.10406 4.752,1.584 1.72796,0.38405 2.83196,0.72005 3.312,1.008 0.57596,0.19205 1.15196,0.62405 1.728,1.296 0.57596,0.67205 1.05596,1.68005 1.44,3.024 -1.63204,1.05605 -2.64004,2.68805 -3.024,4.896 -0.38404,2.20804 -0.67204,7.20004 -0.864,14.976 0.95996,-0.57597 2.06396,-1.39197 3.312,-2.448 1.34395,-1.05597 2.25595,-1.72797 2.736,-2.016 -5e-5,-2.30396 0.19195,-5.13596 0.576,-8.496 0.38395,-3.45595 0.57595,-5.80795 0.576,-7.056 -5e-5,-0.76795 -0.048,-1.43995 -0.144,-2.016 -0.096,-0.67195 -0.24005,-1.19995 -0.432,-1.584 -0.19205,-0.47995 -0.38405,-0.86395 -0.576,-1.152 -0.096,-0.38395 -0.33605,-0.71994 -0.72,-1.008 -0.28805,-0.28794 -0.52805,-0.47994 -0.72,-0.576 -0.096,-0.19194 -0.38405,-0.38394 -0.864,-0.576 -0.38404,-0.28794 -0.62404,-0.47994 -0.72,-0.576 0.38396,-1.15194 0.86396,-2.11194 1.44,-2.88 0.67195,-0.86394 1.53595,-1.72794 2.592,-2.592 1.05595,-0.95994 1.87195,-1.77594 2.448,-2.448 0.86395,0.67206 2.01595,2.01606 3.456,4.032 1.53594,1.92006 2.30394,3.45606 2.304,4.608 -6e-5,0.38406 -0.28806,0.81606 -0.864,1.296 -0.48006,0.38405 -1.00805,0.81605 -1.584,1.296 -0.57605,0.38405 -1.15205,1.34405 -1.728,2.88 -0.48005,1.44005 -0.72005,3.31205 -0.72,5.616 l 0,8.352 c 0.67195,-0.47996 1.58395,-1.05596 2.736,-1.728 1.15194,-0.67196 1.96794,-1.15196 2.448,-1.44 0.57594,-0.38396 1.05594,-0.91196 1.44,-1.584 0.47994,-0.76796 0.71994,-1.63196 0.72,-2.592 -6e-5,-0.19196 -0.0481,-0.38396 -0.144,-0.576 -6e-5,-0.19195 -6e-5,-0.38395 0,-0.576 0.57594,-0.57595 1.58394,-0.86395 3.024,-0.864 1.34394,5e-5 2.73594,0.48005 4.176,1.44 1.43993,0.86404 2.15993,1.92004 2.16,3.168 -7e-5,0.57604 -0.62407,1.00804 -1.872,1.296 -1.15206,0.28804 -3.16806,0.91204 -6.048,1.872 -2.78406,0.86404 -5.56805,2.16004 -8.352,3.888 l 0,1.152 c -5e-5,5.95203 0.52795,9.74402 1.584,11.376 1.05595,1.63202 3.45594,2.44802 7.2,2.448 1.91994,2e-5 3.83994,-0.19198 5.76,-0.576 2.01593,-0.47998 3.35993,-0.71998 4.032,-0.72 1.24793,2e-5 1.87193,0.48002 1.872,1.44 -7e-5,4.03202 -5.42407,6.04801 -16.272,6.048 -2.49605,1e-5 -4.56005,-0.52799 -6.192,-1.584 -1.53605,-1.05598 -2.30405,-2.49598 -2.304,-4.32 -5e-5,-0.67198 -5e-5,-1.48798 0,-2.448 0.0959,-1.05598 0.14395,-1.87198 0.144,-2.448 -5e-5,-1.05597 -0.0961,-2.39997 -0.288,-4.032 -0.096,-1.72797 -0.14405,-2.97597 -0.144,-3.744 -1.82405,1.34403 -3.84004,2.97603 -6.048,4.896 -4e-5,0.38403 0.048,0.86403 0.144,1.44 0.096,0.57603 0.14396,1.05602 0.144,1.44 -4e-5,1.24802 -0.43204,2.35202 -1.296,3.312 -0.76804,0.86402 -1.44004,1.34402 -2.016,1.44 -0.28804,2e-5 -0.62404,-0.14398 -1.008,-0.432 -0.38404,-0.38398 -0.57604,-0.76798 -0.576,-1.152 -4e-5,-0.47998 -0.33604,-1.15198 -1.008,-2.016 -1.82403,1.24802 -3.88803,2.92802 -6.192,5.04 -2.20803,2.11202 -4.176031,3.69601 -5.904001,4.752 -1.63202,1.05601 -3.40802,1.58401 -5.328,1.584 -1.72802,1e-5 -2.59202,-1.00799 -2.592,-3.024"
       id="path3017"
       inkscape:connector-curvature="0" />
  </g>
</svg>
