<?xml version="1.0" encoding="UTF-8" standalone="no"?>
<!-- Created with Inkscape (http://www.inkscape.org/) -->

<svg
   xmlns:dc="http://purl.org/dc/elements/1.1/"
   xmlns:cc="http://creativecommons.org/ns#"
   xmlns:rdf="http://www.w3.org/1999/02/22-rdf-syntax-ns#"
   xmlns:svg="http://www.w3.org/2000/svg"
   xmlns="http://www.w3.org/2000/svg"
   xmlns:sodipodi="http://sodipodi.sourceforge.net/DTD/sodipodi-0.dtd"
   xmlns:inkscape="http://www.inkscape.org/namespaces/inkscape"
   width="79.571373"
   height="115.96954"
   id="svg3237"
   version="1.1"
   inkscape:version="0.48.3.1 r9886"
   sodipodi:docname="S4.svg">
  <defs
     id="defs3239" />
  <sodipodi:namedview
     id="base"
     pagecolor="#ffffff"
     bordercolor="#666666"
     borderopacity="1.0"
     inkscape:pageopacity="0.0"
     inkscape:pageshadow="2"
     inkscape:zoom="0.7"
     inkscape:cx="-4.9085162"
     inkscape:cy="-61.722934"
     inkscape:document-units="px"
     inkscape:current-layer="layer1"
     showgrid="false"
     fit-margin-top="0"
     fit-margin-left="0"
     fit-margin-right="0"
     fit-margin-bottom="0"
     inkscape:window-width="748"
     inkscape:window-height="600"
     inkscape:window-x="377"
     inkscape:window-y="234"
     inkscape:window-maximized="0" />
  <metadata
     id="metadata3242">
    <rdf:RDF>
      <cc:Work
         rdf:about="">
        <dc:format>image/svg+xml</dc:format>
        <dc:type
           rdf:resource="http://purl.org/dc/dcmitype/StillImage" />
        <dc:title />
      </cc:Work>
    </rdf:RDF>
  </metadata>
  <g
     inkscape:label="Layer 1"
     inkscape:groupmode="layer"
     id="layer1"
     transform="translate(144.87471,-345.00279)">
    <rect
       ry="5.4056678"
       y="345.50729"
       x="-144.37021"
       height="114.96053"
       width="78.56237"
       id="rect6731-9-6"
       style="fill:#ffffff;stroke:#000000;stroke-width:1.00899994;stroke-miterlimit:4;stroke-opacity:1;stroke-dasharray:none;stroke-dashoffset:0" />
    <g
       transform="translate(-498.23856,-364.81829)"
       id="g7045">
      <path
         style="font-size:144px;font-style:normal;font-variant:normal;font-weight:500;font-stretch:normal;text-align:start;line-height:125%;letter-spacing:0px;word-spacing:0px;text-anchor:start;fill:#008800;fill-opacity:1;stroke:none;font-family:GL-MahjongTile;-inkscape-font-specification:GL-MahjongTile Medium"
         d="m 377.32143,773.13393 c -5.76002,3e-5 -8.65627,1.01528 -8.65625,3.03125 -2e-5,1.63203 1.22498,3.06453 3.625,4.3125 l 0,9.0625 c -2.40002,0.76802 -3.62502,1.93277 -3.625,3.46875 -2e-5,1.53601 1.22498,2.66951 3.625,3.4375 l 0,9.09375 c -2.40002,1.248 -3.62502,2.6805 -3.625,4.3125 -2e-5,2.01599 2.89623,3.03124 8.65625,3.03125 5.75997,-10e-6 8.62496,-1.01526 8.625,-3.03125 -4e-5,-1.632 -1.19379,-3.0645 -3.59375,-4.3125 l 0,-9.09375 c 2.39996,-0.76799 3.59371,-1.90149 3.59375,-3.4375 -4e-5,-1.53598 -1.19379,-2.70073 -3.59375,-3.46875 l 0,-9.0625 c 2.39996,-1.24797 3.59371,-2.68047 3.59375,-4.3125 -4e-5,-2.01597 -2.86503,-3.03122 -8.625,-3.03125 z m 0,2.875 c 0.95997,3e-5 1.67622,0.0602 2.15625,0.15625 l 0,12.65625 c -0.48003,-0.096 -1.19628,-0.12498 -2.15625,-0.125 -0.96003,2e-5 -1.67628,0.029 -2.15625,0.125 l 0,-12.65625 c 0.47997,-0.096 1.19622,-0.15622 2.15625,-0.15625 z m 0,14.125 c 0.19197,2e-5 0.51997,0.029 1,0.125 0.47997,2e-5 0.86822,2e-5 1.15625,0 l 0,5.46875 c -0.28803,1e-5 -0.67628,0.0602 -1.15625,0.15625 l -1,0 -1,0 c -0.48003,-0.096 -0.86828,-0.15624 -1.15625,-0.15625 l 0,-5.46875 c 0.28797,2e-5 0.67622,2e-5 1.15625,0 0.47997,-0.096 0.80797,-0.12498 1,-0.125 z m -2.15625,7.03125 c 0.47997,0.096 1.19622,0.15626 2.15625,0.15625 0.95997,1e-5 1.67622,-0.0602 2.15625,-0.15625 l 0,12.6875 c -0.48003,0.096 -1.19628,0.15625 -2.15625,0.15625 -0.96003,0 -1.67628,-0.0602 -2.15625,-0.15625 l 0,-12.6875 z"
         id="path5607"
         inkscape:connector-curvature="0" />
      <path
         style="font-size:144px;font-style:normal;font-variant:normal;font-weight:500;font-stretch:normal;text-align:start;line-height:125%;letter-spacing:0px;word-spacing:0px;text-anchor:start;fill:#008800;fill-opacity:1;stroke:none;font-family:GL-MahjongTile;-inkscape-font-specification:GL-MahjongTile Medium"
         d="m 409.00893,773.13393 c -5.76005,3e-5 -8.6563,1.01528 -8.65625,3.03125 -5e-5,1.63203 1.1937,3.06453 3.59375,4.3125 l 0,9.0625 c -2.40005,0.76802 -3.5938,1.93277 -3.59375,3.46875 -5e-5,1.53601 1.1937,2.66951 3.59375,3.4375 l 0,9.09375 c -2.40005,1.248 -3.5938,2.6805 -3.59375,4.3125 -5e-5,2.01599 2.8962,3.03124 8.65625,3.03125 5.75993,-10e-6 8.62493,-1.01526 8.625,-3.03125 -7e-5,-1.632 -1.19382,-3.0645 -3.59375,-4.3125 l 0,-9.09375 c 2.39993,-0.76799 3.59368,-1.90149 3.59375,-3.4375 -7e-5,-1.53598 -1.19382,-2.70073 -3.59375,-3.46875 l 0,-9.0625 c 2.39993,-1.24797 3.59368,-2.68047 3.59375,-4.3125 -7e-5,-2.01597 -2.86507,-3.03122 -8.625,-3.03125 z m 0,2.875 c 0.95994,3e-5 1.67619,0.0602 2.15625,0.15625 l 0,12.65625 c -0.48006,-0.096 -1.19631,-0.12498 -2.15625,-0.125 -0.96006,2e-5 -1.67631,0.029 -2.15625,0.125 l 0,-12.65625 c 0.47994,-0.096 1.19619,-0.15622 2.15625,-0.15625 z m 0,14.125 c 0.19194,2e-5 0.51994,0.029 1,0.125 0.47994,2e-5 0.86819,2e-5 1.15625,0 l 0,5.46875 c -0.28806,1e-5 -0.67631,0.0602 -1.15625,0.15625 l -1,0 -1.03125,0 c -0.48006,-0.096 -0.83706,-0.15624 -1.125,-0.15625 l 0,-5.46875 c 0.28794,2e-5 0.64494,2e-5 1.125,0 0.47994,-0.096 0.83919,-0.12498 1.03125,-0.125 z m -2.15625,7.03125 c 0.47994,0.096 1.19619,0.15626 2.15625,0.15625 0.95994,1e-5 1.67619,-0.0602 2.15625,-0.15625 l 0,12.6875 c -0.48006,0.096 -1.19631,0.15625 -2.15625,0.15625 -0.96006,0 -1.67631,-0.0602 -2.15625,-0.15625 l 0,-12.6875 z"
         id="path5623"
         inkscape:connector-curvature="0" />
      <path
         style="font-size:144px;font-style:normal;font-variant:normal;font-weight:500;font-stretch:normal;text-align:start;line-height:125%;letter-spacing:0px;word-spacing:0px;text-anchor:start;fill:#008800;fill-opacity:1;stroke:none;font-family:GL-MahjongTile;-inkscape-font-specification:GL-MahjongTile Medium"
         d="m 377.32143,722.72768 c -5.76002,8e-5 -8.65627,1.01533 -8.65625,3.03125 -2e-5,1.63208 1.22498,3.06458 3.625,4.3125 l 0,9.0625 c -2.40002,0.76807 -3.62502,1.93282 -3.625,3.46875 -2e-5,1.53606 1.22498,2.70081 3.625,3.46875 l 0,9.0625 c -2.40002,1.24805 -3.62502,2.68055 -3.625,4.3125 -2e-5,2.01605 2.89623,3.03129 8.65625,3.03125 5.75997,4e-5 8.62496,-1.0152 8.625,-3.03125 -4e-5,-1.63195 -1.19379,-3.06445 -3.59375,-4.3125 l 0,-9.0625 c 2.39996,-0.76794 3.59371,-1.93269 3.59375,-3.46875 -4e-5,-1.53593 -1.19379,-2.70068 -3.59375,-3.46875 l 0,-9.0625 c 2.39996,-1.24792 3.59371,-2.68042 3.59375,-4.3125 -4e-5,-2.01592 -2.86503,-3.03117 -8.625,-3.03125 z m 0,2.875 c 0.95997,8e-5 1.67622,0.0603 2.15625,0.15625 l 0,12.65625 c -0.48003,-0.0959 -1.19628,-0.12493 -2.15625,-0.125 -0.96003,7e-5 -1.67628,0.0291 -2.15625,0.125 l 0,-12.65625 c 0.47997,-0.0959 1.19622,-0.15617 2.15625,-0.15625 z m 0,14.125 c 0.19197,7e-5 0.51997,0.0603 1,0.15625 0.47997,7e-5 0.86822,7e-5 1.15625,0 l 0,5.46875 c -0.28803,6e-5 -0.67628,0.0291 -1.15625,0.125 -0.48003,6e-5 -0.80803,6e-5 -1,0 -0.19203,6e-5 -0.52003,6e-5 -1,0 -0.48003,-0.0959 -0.86828,-0.12494 -1.15625,-0.125 l 0,-5.46875 c 0.28797,7e-5 0.67622,7e-5 1.15625,0 0.47997,-0.0959 0.80797,-0.15618 1,-0.15625 z m -2.15625,7.0625 c 0.47997,0.0961 1.19622,0.12506 2.15625,0.125 0.95997,6e-5 1.67622,-0.0289 2.15625,-0.125 l 0,12.65625 c -0.48003,0.096 -1.19628,0.1563 -2.15625,0.15625 -0.96003,5e-5 -1.67628,-0.0602 -2.15625,-0.15625 l 0,-12.65625 z"
         id="path5599"
         inkscape:connector-curvature="0" />
      <path
         style="font-size:144px;font-style:normal;font-variant:normal;font-weight:500;font-stretch:normal;text-align:start;line-height:125%;letter-spacing:0px;word-spacing:0px;text-anchor:start;fill:#008800;fill-opacity:1;stroke:none;font-family:GL-MahjongTile;-inkscape-font-specification:GL-MahjongTile Medium"
         d="m 409.00893,722.72768 c -5.76005,8e-5 -8.6563,1.01533 -8.65625,3.03125 -5e-5,1.63208 1.1937,3.06458 3.59375,4.3125 l 0,9.0625 c -2.40005,0.76807 -3.5938,1.93282 -3.59375,3.46875 -5e-5,1.53606 1.1937,2.70081 3.59375,3.46875 l 0,9.0625 c -2.40005,1.24805 -3.5938,2.68055 -3.59375,4.3125 -5e-5,2.01605 2.8962,3.03129 8.65625,3.03125 5.75993,4e-5 8.62493,-1.0152 8.625,-3.03125 -7e-5,-1.63195 -1.19382,-3.06445 -3.59375,-4.3125 l 0,-9.0625 c 2.39993,-0.76794 3.59368,-1.93269 3.59375,-3.46875 -7e-5,-1.53593 -1.19382,-2.70068 -3.59375,-3.46875 l 0,-9.0625 c 2.39993,-1.24792 3.59368,-2.68042 3.59375,-4.3125 -7e-5,-2.01592 -2.86507,-3.03117 -8.625,-3.03125 z m 0,2.875 c 0.95994,8e-5 1.67619,0.0603 2.15625,0.15625 l 0,12.65625 c -0.48006,-0.0959 -1.19631,-0.12493 -2.15625,-0.125 -0.96006,7e-5 -1.67631,0.0291 -2.15625,0.125 l 0,-12.65625 c 0.47994,-0.0959 1.19619,-0.15617 2.15625,-0.15625 z m 0,14.125 c 0.19194,7e-5 0.51994,0.0603 1,0.15625 0.47994,7e-5 0.86819,7e-5 1.15625,0 l 0,5.46875 c -0.28806,6e-5 -0.67631,0.0291 -1.15625,0.125 -0.48006,6e-5 -0.80806,6e-5 -1,0 -0.19206,6e-5 -0.55131,6e-5 -1.03125,0 -0.48006,-0.0959 -0.83706,-0.12494 -1.125,-0.125 l 0,-5.46875 c 0.28794,7e-5 0.64494,7e-5 1.125,0 0.47994,-0.0959 0.83919,-0.15618 1.03125,-0.15625 z m -2.15625,7.0625 c 0.47994,0.0961 1.19619,0.12506 2.15625,0.125 0.95994,6e-5 1.67619,-0.0289 2.15625,-0.125 l 0,12.65625 c -0.48006,0.096 -1.19631,0.1563 -2.15625,0.15625 -0.96006,5e-5 -1.67631,-0.0602 -2.15625,-0.15625 l 0,-12.65625 z"
         id="path5615"
         inkscape:connector-curvature="0" />
    </g>
  </g>
</svg>
