<?xml version="1.0" encoding="UTF-8" standalone="no"?>
<!-- Created with Inkscape (http://www.inkscape.org/) -->

<svg
   xmlns:dc="http://purl.org/dc/elements/1.1/"
   xmlns:cc="http://creativecommons.org/ns#"
   xmlns:rdf="http://www.w3.org/1999/02/22-rdf-syntax-ns#"
   xmlns:svg="http://www.w3.org/2000/svg"
   xmlns="http://www.w3.org/2000/svg"
   xmlns:sodipodi="http://sodipodi.sourceforge.net/DTD/sodipodi-0.dtd"
   xmlns:inkscape="http://www.inkscape.org/namespaces/inkscape"
   width="79.571373"
   height="115.96954"
   id="svg3237"
   version="1.1"
   inkscape:version="0.48.3.1 r9886"
   sodipodi:docname="S5.svg">
  <defs
     id="defs3239" />
  <sodipodi:namedview
     id="base"
     pagecolor="#ffffff"
     bordercolor="#666666"
     borderopacity="1.0"
     inkscape:pageopacity="0.0"
     inkscape:pageshadow="2"
     inkscape:zoom="0.7"
     inkscape:cx="-12.176416"
     inkscape:cy="68.994017"
     inkscape:document-units="px"
     inkscape:current-layer="layer1"
     showgrid="false"
     fit-margin-top="0"
     fit-margin-left="0"
     fit-margin-right="0"
     fit-margin-bottom="0"
     inkscape:window-width="748"
     inkscape:window-height="600"
     inkscape:window-x="377"
     inkscape:window-y="234"
     inkscape:window-maximized="0" />
  <metadata
     id="metadata3242">
    <rdf:RDF>
      <cc:Work
         rdf:about="">
        <dc:format>image/svg+xml</dc:format>
        <dc:type
           rdf:resource="http://purl.org/dc/dcmitype/StillImage" />
        <dc:title />
      </cc:Work>
    </rdf:RDF>
  </metadata>
  <g
     inkscape:label="Layer 1"
     inkscape:groupmode="layer"
     id="layer1"
     transform="translate(137.60681,-475.71974)">
    <rect
       ry="5.4056678"
       y="476.22424"
       x="-137.10231"
       height="114.96053"
       width="78.56237"
       id="rect6731-9-72"
       style="fill:#ffffff;stroke:#000000;stroke-width:1.00899994;stroke-miterlimit:4;stroke-opacity:1;stroke-dasharray:none;stroke-dashoffset:0" />
    <g
       transform="translate(-583.22067,-234.10131)"
       id="g7051">
      <path
         style="font-size:144px;font-style:normal;font-variant:normal;font-weight:500;font-stretch:normal;text-align:start;line-height:125%;letter-spacing:0px;word-spacing:0px;text-anchor:start;fill:#008800;fill-opacity:1;stroke:none;font-family:GL-MahjongTile;-inkscape-font-specification:GL-MahjongTile Medium"
         d="m 464.54018,773.13393 c -5.76002,3e-5 -8.65626,1.01528 -8.65625,3.03125 -1e-5,1.63203 1.19373,3.06453 3.59375,4.3125 l 0,9.0625 c -2.40002,0.76802 -3.59376,1.93277 -3.59375,3.46875 -1e-5,1.53601 1.19373,2.66951 3.59375,3.4375 l 0,9.09375 c -2.40002,1.248 -3.59376,2.6805 -3.59375,4.3125 -1e-5,2.01599 2.89623,3.03124 8.65625,3.03125 5.75997,-10e-6 8.62497,-1.01526 8.625,-3.03125 -3e-5,-1.632 -1.19378,-3.0645 -3.59375,-4.3125 l 0,-9.09375 c 2.39997,-0.76799 3.59372,-1.90149 3.59375,-3.4375 -3e-5,-1.53598 -1.19378,-2.70073 -3.59375,-3.46875 l 0,-9.0625 c 2.39997,-1.24797 3.59372,-2.68047 3.59375,-4.3125 -3e-5,-2.01597 -2.86503,-3.03122 -8.625,-3.03125 z m 0,2.875 c 0.95998,3e-5 1.67623,0.0602 2.15625,0.15625 l 0,12.65625 c -0.48002,-0.096 -1.19627,-0.12498 -2.15625,-0.125 -0.96002,2e-5 -1.70752,0.029 -2.1875,0.125 l 0,-12.65625 c 0.47998,-0.096 1.22748,-0.15622 2.1875,-0.15625 z m 0,14.125 c 0.28798,2e-5 0.64498,0.029 1.125,0.125 0.47998,2e-5 0.83923,2e-5 1.03125,0 l 0,5.46875 c -0.19202,1e-5 -0.55127,0.0602 -1.03125,0.15625 l -1.125,0 -1.15625,0 c -0.48002,-0.096 -0.83927,-0.15624 -1.03125,-0.15625 l 0,-5.46875 c 0.19198,2e-5 0.55123,2e-5 1.03125,0 0.47998,-0.096 0.86823,-0.12498 1.15625,-0.125 z m -2.1875,7.03125 c 0.47998,0.096 1.22748,0.15626 2.1875,0.15625 0.95998,1e-5 1.67623,-0.0602 2.15625,-0.15625 l 0,12.6875 c -0.48002,0.096 -1.19627,0.15625 -2.15625,0.15625 -0.96002,0 -1.70752,-0.0602 -2.1875,-0.15625 l 0,-12.6875 z"
         id="path5571"
         inkscape:connector-curvature="0" />
      <path
         style="font-size:144px;font-style:normal;font-variant:normal;font-weight:500;font-stretch:normal;text-align:start;line-height:125%;letter-spacing:0px;word-spacing:0px;text-anchor:start;fill:#008800;fill-opacity:1;stroke:none;font-family:GL-MahjongTile;-inkscape-font-specification:GL-MahjongTile Medium"
         d="m 506.29018,773.13393 c -5.76006,3e-5 -8.65631,1.01528 -8.65625,3.03125 -6e-5,1.63203 1.22494,3.06453 3.625,4.3125 l 0,9.0625 c -2.40006,0.76802 -3.62506,1.93277 -3.625,3.46875 -6e-5,1.53601 1.22494,2.66951 3.625,3.4375 l 0,9.09375 c -2.40006,1.248 -3.62506,2.6805 -3.625,4.3125 -6e-5,2.01599 2.89619,3.03124 8.65625,3.03125 5.75993,-10e-6 8.62493,-1.01526 8.625,-3.03125 -7e-5,-1.632 -1.19382,-3.0645 -3.59375,-4.3125 l 0,-9.09375 c 2.39993,-0.76799 3.59368,-1.90149 3.59375,-3.4375 -7e-5,-1.53598 -1.19382,-2.70073 -3.59375,-3.46875 l 0,-9.0625 c 2.39993,-1.24797 3.59368,-2.68047 3.59375,-4.3125 -7e-5,-2.01597 -2.86507,-3.03122 -8.625,-3.03125 z m 0,2.875 c 0.95993,3e-5 1.67618,0.0602 2.15625,0.15625 l 0,12.65625 c -0.48007,-0.096 -1.19632,-0.12498 -2.15625,-0.125 -0.96006,2e-5 -1.67631,0.029 -2.15625,0.125 l 0,-12.65625 c 0.47994,-0.096 1.19619,-0.15622 2.15625,-0.15625 z m 0,14.125 c 0.28794,2e-5 0.67618,0.029 1.15625,0.125 0.47993,2e-5 0.80793,2e-5 1,0 l 0,5.46875 c -0.19207,1e-5 -0.52007,0.0602 -1,0.15625 l -1.15625,0 -1.15625,0 c -0.48006,-0.096 -0.80806,-0.15624 -1,-0.15625 l 0,-5.46875 c 0.19194,2e-5 0.51994,2e-5 1,0 0.47994,-0.096 0.86819,-0.12498 1.15625,-0.125 z m -2.15625,7.03125 c 0.47994,0.096 1.19619,0.15626 2.15625,0.15625 0.95993,1e-5 1.67618,-0.0602 2.15625,-0.15625 l 0,12.6875 c -0.48007,0.096 -1.19632,0.15625 -2.15625,0.15625 -0.96006,0 -1.67631,-0.0602 -2.15625,-0.15625 l 0,-12.6875 z"
         id="path5587"
         inkscape:connector-curvature="0" />
      <path
         style="font-size:144px;font-style:normal;font-variant:normal;font-weight:500;font-stretch:normal;text-align:start;line-height:125%;letter-spacing:0px;word-spacing:0px;text-anchor:start;fill:#ff0000;fill-opacity:1;stroke:none;font-family:GL-MahjongTile;-inkscape-font-specification:GL-MahjongTile Medium"
         d="m 485.41518,747.94643 c -5.76004,6e-5 -8.65629,0.98406 -8.65625,3 -4e-5,1.63205 1.19371,3.0958 3.59375,4.34375 l 0,9.0625 c -2.40004,0.76804 -3.59379,1.90154 -3.59375,3.4375 -4e-5,1.53604 1.19371,2.70079 3.59375,3.46875 l 0,9.0625 c -2.40004,1.24802 -3.59379,2.71177 -3.59375,4.34375 -4e-5,2.01602 2.89621,3.00002 8.65625,3 5.75995,2e-5 8.62495,-0.98398 8.625,-3 -5e-5,-1.63198 -1.1938,-3.09573 -3.59375,-4.34375 l 0,-9.0625 c 2.39995,-0.76796 3.5937,-1.93271 3.59375,-3.46875 -5e-5,-1.53596 -1.1938,-2.66946 -3.59375,-3.4375 l 0,-9.0625 c 2.39995,-1.24795 3.5937,-2.7117 3.59375,-4.34375 -5e-5,-2.01594 -2.86505,-2.99994 -8.625,-3 z m 0,2.875 c 0.95996,6e-5 1.6762,0.0291 2.15625,0.125 l 0,12.6875 c -0.48005,-0.096 -1.19629,-0.15621 -2.15625,-0.15625 -0.96004,4e-5 -1.67629,0.0602 -2.15625,0.15625 l 0,-12.6875 c 0.47996,-0.0959 1.19621,-0.12494 2.15625,-0.125 z m 0,14.09375 c 0.19196,4e-5 0.51996,0.0602 1,0.15625 0.47995,4e-5 0.8682,4e-5 1.15625,0 l 0,5.46875 c -0.28805,4e-5 -0.6763,0.0602 -1.15625,0.15625 -0.48004,4e-5 -0.80804,4e-5 -1,0 -0.19204,4e-5 -0.55129,4e-5 -1.03125,0 -0.48004,-0.096 -0.83704,-0.15621 -1.125,-0.15625 l 0,-5.46875 c 0.28796,4e-5 0.64496,4e-5 1.125,0 0.47996,-0.096 0.83921,-0.15621 1.03125,-0.15625 z m -2.15625,7.0625 c 0.47996,0.096 1.19621,0.15628 2.15625,0.15625 0.95996,3e-5 1.6762,-0.0602 2.15625,-0.15625 l 0,12.6875 c -0.48005,0.096 -1.19629,0.12502 -2.15625,0.125 -0.96004,2e-5 -1.67629,-0.029 -2.15625,-0.125 l 0,-12.6875 z"
         id="path5555"
         inkscape:connector-curvature="0" />
      <path
         style="font-size:144px;font-style:normal;font-variant:normal;font-weight:500;font-stretch:normal;text-align:start;line-height:125%;letter-spacing:0px;word-spacing:0px;text-anchor:start;fill:#008800;fill-opacity:1;stroke:none;font-family:GL-MahjongTile;-inkscape-font-specification:GL-MahjongTile Medium"
         d="m 464.54018,722.72768 c -5.76002,8e-5 -8.65626,1.01533 -8.65625,3.03125 -1e-5,1.63208 1.19373,3.06458 3.59375,4.3125 l 0,9.0625 c -2.40002,0.76807 -3.59376,1.93282 -3.59375,3.46875 -1e-5,1.53606 1.19373,2.70081 3.59375,3.46875 l 0,9.0625 c -2.40002,1.24805 -3.59376,2.68055 -3.59375,4.3125 -1e-5,2.01605 2.89623,3.03129 8.65625,3.03125 5.75997,4e-5 8.62497,-1.0152 8.625,-3.03125 -3e-5,-1.63195 -1.19378,-3.06445 -3.59375,-4.3125 l 0,-9.0625 c 2.39997,-0.76794 3.59372,-1.93269 3.59375,-3.46875 -3e-5,-1.53593 -1.19378,-2.70068 -3.59375,-3.46875 l 0,-9.0625 c 2.39997,-1.24792 3.59372,-2.68042 3.59375,-4.3125 -3e-5,-2.01592 -2.86503,-3.03117 -8.625,-3.03125 z m 0,2.875 c 0.95998,8e-5 1.67623,0.0603 2.15625,0.15625 l 0,12.65625 c -0.48002,-0.0959 -1.19627,-0.12493 -2.15625,-0.125 -0.96002,7e-5 -1.70752,0.0291 -2.1875,0.125 l 0,-12.65625 c 0.47998,-0.0959 1.22748,-0.15617 2.1875,-0.15625 z m 0,14.125 c 0.28798,7e-5 0.64498,0.0603 1.125,0.15625 0.47998,7e-5 0.83923,7e-5 1.03125,0 l 0,5.46875 c -0.19202,6e-5 -0.55127,0.0291 -1.03125,0.125 -0.48002,6e-5 -0.83702,6e-5 -1.125,0 -0.28802,6e-5 -0.67627,6e-5 -1.15625,0 -0.48002,-0.0959 -0.83927,-0.12494 -1.03125,-0.125 l 0,-5.46875 c 0.19198,7e-5 0.55123,7e-5 1.03125,0 0.47998,-0.0959 0.86823,-0.15618 1.15625,-0.15625 z m -2.1875,7.0625 c 0.47998,0.0961 1.22748,0.12506 2.1875,0.125 0.95998,6e-5 1.67623,-0.0289 2.15625,-0.125 l 0,12.65625 c -0.48002,0.096 -1.19627,0.1563 -2.15625,0.15625 -0.96002,5e-5 -1.70752,-0.0602 -2.1875,-0.15625 l 0,-12.65625 z"
         id="path5563"
         inkscape:connector-curvature="0" />
      <path
         style="font-size:144px;font-style:normal;font-variant:normal;font-weight:500;font-stretch:normal;text-align:start;line-height:125%;letter-spacing:0px;word-spacing:0px;text-anchor:start;fill:#008800;fill-opacity:1;stroke:none;font-family:GL-MahjongTile;-inkscape-font-specification:GL-MahjongTile Medium"
         d="m 506.29018,722.72768 c -5.76006,8e-5 -8.65631,1.01533 -8.65625,3.03125 -6e-5,1.63208 1.22494,3.06458 3.625,4.3125 l 0,9.0625 c -2.40006,0.76807 -3.62506,1.93282 -3.625,3.46875 -6e-5,1.53606 1.22494,2.70081 3.625,3.46875 l 0,9.0625 c -2.40006,1.24805 -3.62506,2.68055 -3.625,4.3125 -6e-5,2.01605 2.89619,3.03129 8.65625,3.03125 5.75993,4e-5 8.62493,-1.0152 8.625,-3.03125 -7e-5,-1.63195 -1.19382,-3.06445 -3.59375,-4.3125 l 0,-9.0625 c 2.39993,-0.76794 3.59368,-1.93269 3.59375,-3.46875 -7e-5,-1.53593 -1.19382,-2.70068 -3.59375,-3.46875 l 0,-9.0625 c 2.39993,-1.24792 3.59368,-2.68042 3.59375,-4.3125 -7e-5,-2.01592 -2.86507,-3.03117 -8.625,-3.03125 z m 0,2.875 c 0.95993,8e-5 1.67618,0.0603 2.15625,0.15625 l 0,12.65625 c -0.48007,-0.0959 -1.19632,-0.12493 -2.15625,-0.125 -0.96006,7e-5 -1.67631,0.0291 -2.15625,0.125 l 0,-12.65625 c 0.47994,-0.0959 1.19619,-0.15617 2.15625,-0.15625 z m 0,14.125 c 0.28794,7e-5 0.67618,0.0603 1.15625,0.15625 0.47993,7e-5 0.80793,7e-5 1,0 l 0,5.46875 c -0.19207,6e-5 -0.52007,0.0291 -1,0.125 -0.48007,6e-5 -0.86831,6e-5 -1.15625,0 -0.28806,6e-5 -0.67631,6e-5 -1.15625,0 -0.48006,-0.0959 -0.80806,-0.12494 -1,-0.125 l 0,-5.46875 c 0.19194,7e-5 0.51994,7e-5 1,0 0.47994,-0.0959 0.86819,-0.15618 1.15625,-0.15625 z m -2.15625,7.0625 c 0.47994,0.0961 1.19619,0.12506 2.15625,0.125 0.95993,6e-5 1.67618,-0.0289 2.15625,-0.125 l 0,12.65625 c -0.48007,0.096 -1.19632,0.1563 -2.15625,0.15625 -0.96006,5e-5 -1.67631,-0.0602 -2.15625,-0.15625 l 0,-12.65625 z"
         id="path5579"
         inkscape:connector-curvature="0" />
    </g>
  </g>
</svg>
