<?xml version="1.0" encoding="UTF-8" standalone="no"?>
<!-- Created with Inkscape (http://www.inkscape.org/) -->

<svg
   xmlns:dc="http://purl.org/dc/elements/1.1/"
   xmlns:cc="http://creativecommons.org/ns#"
   xmlns:rdf="http://www.w3.org/1999/02/22-rdf-syntax-ns#"
   xmlns:svg="http://www.w3.org/2000/svg"
   xmlns="http://www.w3.org/2000/svg"
   xmlns:sodipodi="http://sodipodi.sourceforge.net/DTD/sodipodi-0.dtd"
   xmlns:inkscape="http://www.inkscape.org/namespaces/inkscape"
   version="1.1"
   width="106.38706"
   height="54.027798"
   id="svg3237"
   inkscape:version="0.48.4 r9939"
   sodipodi:docname="W.svg">
  <sodipodi:namedview
     pagecolor="#ffffff"
     bordercolor="#666666"
     borderopacity="1"
     objecttolerance="10"
     gridtolerance="10"
     guidetolerance="10"
     inkscape:pageopacity="0"
     inkscape:pageshadow="2"
     inkscape:window-width="906"
     inkscape:window-height="708"
     id="namedview8"
     showgrid="false"
     inkscape:zoom="5.7559368"
     inkscape:cx="54.288616"
     inkscape:cy="18.314986"
     inkscape:window-x="134"
     inkscape:window-y="84"
     inkscape:window-maximized="0"
     inkscape:current-layer="svg3237"
     fit-margin-top="0"
     fit-margin-left="0"
     fit-margin-right="0"
     fit-margin-bottom="0" />
  <defs
     id="defs3239" />
  <metadata
     id="metadata3242">
    <rdf:RDF>
      <cc:Work
         rdf:about="">
        <dc:format>image/svg+xml</dc:format>
        <dc:type
           rdf:resource="http://purl.org/dc/dcmitype/StillImage" />
        <dc:title />
      </cc:Work>
    </rdf:RDF>
  </metadata>
  <rect
     style="fill:#e58a00;fill-opacity:1;stroke:none"
     id="rect6731-9-200"
     y="0"
     x="0"
     ry="9.2377272"
     height="54.027798"
     width="106.38706" />
  <path
     style="font-size:144px;font-style:normal;font-variant:normal;font-weight:500;font-stretch:normal;text-align:start;line-height:125%;letter-spacing:0px;word-spacing:0px;text-anchor:start;fill:#000000;fill-opacity:1;stroke:none;font-family:GL-MahjongTile;-inkscape-font-specification:GL-MahjongTile Medium"
     d="m 60.813652,13.125287 c -0.49736,3.1e-5 -2.012787,0.278614 -4.549142,0.825646 -2.486668,0.547093 -5.548744,1.242966 -9.179229,2.088396 -3.630517,0.795758 -5.934294,1.290497 -6.928942,1.489398 0.04973,0.596827 0.590697,0.906616 1.6351,0.906591 0.09946,2.5e-5 0.795329,-0.154873 2.088396,-0.453296 1.293042,-0.298367 2.885921,-0.591973 4.77579,-0.890402 1.939565,-0.298366 3.733578,-0.453264 5.374788,-0.453294 1.44223,3e-5 2.293,0.154928 2.54169,0.453294 -0.198957,0.547094 -0.724909,1.134301 -1.570344,1.780803 l -1.117049,0.372351 c -0.04973,0.149225 -0.158415,0.551491 -0.307593,1.197994 -0.696282,0.994685 -1.855681,2.340195 -3.49685,4.031091 -2e-5,-0.795708 -0.108682,-1.723922 -0.307593,-2.768341 -0.198953,-1.044365 -0.492557,-1.554129 -0.890401,-1.554154 -0.298414,2.5e-5 -0.453311,0.386103 -0.453295,1.181805 -1.6e-5,0.09949 0.154881,1.491239 0.453295,4.176793 -0.994675,0.547083 -2.340185,1.104248 -4.031091,1.65129 -0.397878,-0.745974 -1.341117,-1.627958 -2.833095,-2.622637 -0.09948,-0.04973 -0.176914,-0.04973 -0.226648,0 -1.1e-5,2e-5 -0.04626,0.06245 -0.145702,0.161891 -0.04973,0.04973 -0.09597,0.09597 -0.145702,0.145702 0.04973,0.298418 0.250856,0.885631 0.598997,1.780803 0.348121,0.845481 0.920309,2.345883 1.716047,4.484385 0.845445,2.088801 1.680026,4.268887 2.525503,6.556593 -0.746011,0.447607 -1.117066,0.803639 -1.117049,1.052293 -1.7e-5,0.994664 0.943227,1.489404 2.833096,1.489398 0.397847,6e-6 0.970029,-0.04621 1.716045,-0.145702 0.745974,-0.09947 1.380588,-0.145697 1.877938,-0.145703 0.447575,6e-6 1.034788,0.04627 1.780803,0.145703 0.745969,0.09947 1.318157,0.145708 1.716047,0.145702 1.491962,6e-6 2.420181,-0.448497 2.768338,-1.343697 0.944901,-2.138507 1.888139,-3.93252 2.833095,-5.374786 0.99463,-1.491974 1.767951,-2.45024 2.315044,-2.897851 0.596765,-0.497315 1.060292,-0.945819 1.408453,-1.343698 0.348095,-0.397849 0.518017,-0.80011 0.518053,-1.197995 -3.6e-5,-0.895172 -0.865825,-2.008337 -2.606449,-3.351147 -1.740685,-1.392497 -3.008745,-2.088371 -3.804442,-2.088396 -0.447623,2.5e-5 -0.942362,0.138733 -1.489398,0.437106 -0.547089,0.298424 -1.21175,0.530764 -2.007451,0.679943 0.09944,-0.745968 0.26936,-1.364394 0.518051,-1.861748 0.248639,-0.09944 0.588482,-0.176916 1.036103,-0.226649 0.497305,-0.09944 0.853336,-0.208101 1.052294,-0.307593 0.248639,-0.149172 0.372323,-0.396543 0.372349,-0.744699 -2.6e-5,-0.497304 -0.448528,-0.992043 -1.343696,-1.489399 0.04968,-0.298371 0.265863,-0.576954 0.663753,-0.825645 0.59677,-0.09947 0.999037,-0.145671 1.197995,-0.145702 0.696235,3.1e-5 1.886843,0.123711 3.577795,0.37235 1.690891,0.198957 2.912709,0.307619 3.65874,0.307593 0.696226,2.6e-5 1.052257,-0.324793 1.052293,-0.971348 -3.6e-5,-0.994627 -1.083153,-2.092768 -3.221634,-3.28639 -0.248696,-0.149168 -0.557325,-0.350301 -0.955159,-0.598996 -0.348161,-0.298368 -0.657956,-0.499502 -0.90659,-0.598998 -0.248696,-0.149168 -0.573514,-0.226617 -0.971347,-0.226648 z m -7.625074,9.438255 c 0.08703,0.0031 0.168232,0.02373 0.242837,0.04855 l 0,0.210458 c -2e-5,0.149225 -0.01503,0.38157 -0.06476,0.679942 -2.1e-5,0.298419 -2.1e-5,0.499553 0,0.598998 -0.14922,0.04973 -0.412778,0.127203 -0.760889,0.226647 -0.348151,0.09949 -0.656781,0.160726 -0.955158,0.210459 0.09945,-0.646508 0.28439,-1.218691 0.582808,-1.716046 0.372982,-0.186499 0.69405,-0.268346 0.955158,-0.259026 z m 3.529228,2.282666 c 0.497303,2.1e-5 1.084515,0.278603 1.780802,0.825645 0.745969,0.547083 1.133208,1.134295 1.133239,1.780803 -3.1e-5,0.547083 -0.680875,2.171171 -2.02364,4.856735 -1.342816,2.635857 -2.363507,4.413682 -3.059743,5.358598 -0.348157,0.09947 -0.73423,0.130678 -1.181805,0.08095 0.149177,-2.039043 0.612705,-6.260511 1.408453,-12.67608 0.745968,-0.149177 1.395605,-0.226626 1.942694,-0.226647 z m -3.577795,0.598998 c -0.04973,0.596816 -0.158415,1.617506 -0.307593,3.059742 -0.09949,1.442272 -0.223173,2.926491 -0.37235,4.468197 -0.09949,1.541732 -0.19196,3.088376 -0.291405,4.630087 -0.09949,1.1e-5 -0.30062,1.1e-5 -0.598997,0 -0.298419,-0.04973 -0.499551,-0.08094 -0.598997,-0.08095 -0.09949,-1.989308 -0.223172,-4.246844 -0.37235,-6.78324 -0.149219,-2.586094 -0.241671,-4.101525 -0.291404,-4.549141 0.298378,-0.09945 0.761903,-0.223131 1.408454,-0.372351 0.696239,-0.198911 1.175956,-0.322616 1.424642,-0.372349 z m -4.257738,1.26275 c -1.6e-5,0.447618 0.03119,1.051019 0.08095,1.796992 0.04973,0.696277 0.06474,1.283489 0.06476,1.780804 0.04973,0.447611 0.08093,0.757407 0.08095,0.90659 -2.1e-5,0.994674 0.09246,2.154074 0.291403,3.49685 0.198913,1.342801 0.322618,2.271019 0.372351,2.768338 l -1.262752,0 c -0.646544,-2.735302 -1.713471,-5.828585 -3.205445,-9.260174 1.491974,-0.745975 2.682586,-1.240715 3.577795,-1.4894 z"
     id="path3015"
     inkscape:connector-curvature="0" />
</svg>
