<?xml version="1.0" encoding="UTF-8" standalone="no"?>
<!-- Created with Inkscape (http://www.inkscape.org/) -->

<svg
   xmlns:dc="http://purl.org/dc/elements/1.1/"
   xmlns:cc="http://creativecommons.org/ns#"
   xmlns:rdf="http://www.w3.org/1999/02/22-rdf-syntax-ns#"
   xmlns:svg="http://www.w3.org/2000/svg"
   xmlns="http://www.w3.org/2000/svg"
   xmlns:sodipodi="http://sodipodi.sourceforge.net/DTD/sodipodi-0.dtd"
   xmlns:inkscape="http://www.inkscape.org/namespaces/inkscape"
   width="79.5625"
   height="115.96875"
   id="svg3237"
   version="1.1"
   inkscape:version="0.48.3.1 r9886"
   sodipodi:docname="M5.svg">
  <defs
     id="defs3239" />
  <sodipodi:namedview
     id="base"
     pagecolor="#ffffff"
     bordercolor="#666666"
     borderopacity="1.0"
     inkscape:pageopacity="0.0"
     inkscape:pageshadow="2"
     inkscape:zoom="0.7"
     inkscape:cx="193.5928"
     inkscape:cy="72.523526"
     inkscape:document-units="px"
     inkscape:current-layer="layer1"
     showgrid="false"
     fit-margin-top="0"
     fit-margin-left="0"
     fit-margin-right="0"
     fit-margin-bottom="0"
     inkscape:window-width="748"
     inkscape:window-height="600"
     inkscape:window-x="336"
     inkscape:window-y="147"
     inkscape:window-maximized="0" />
  <metadata
     id="metadata3242">
    <rdf:RDF>
      <cc:Work
         rdf:about="">
        <dc:format>image/svg+xml</dc:format>
        <dc:type
           rdf:resource="http://purl.org/dc/dcmitype/StillImage" />
        <dc:title />
      </cc:Work>
    </rdf:RDF>
  </metadata>
  <g
     inkscape:label="Layer 1"
     inkscape:groupmode="layer"
     id="layer1"
     transform="translate(-189.53125,-479.25)">
    <rect
       ry="5.4056678"
       y="479.75201"
       x="190.03709"
       height="114.96053"
       width="78.56237"
       id="rect6731-9-02"
       style="fill:#ffffff;stroke:#000000;stroke-width:1.00899994;stroke-miterlimit:4;stroke-opacity:1;stroke-dasharray:none;stroke-dashoffset:0" />
    <g
       transform="translate(-256.09691,-51.009438)"
       id="g7184">
      <path
         inkscape:connector-curvature="0"
         style="font-size:144px;font-style:normal;font-variant:normal;font-weight:500;font-stretch:normal;text-align:start;line-height:125%;letter-spacing:0px;word-spacing:0px;text-anchor:start;fill:#ff0000;fill-opacity:1;stroke:none;font-family:GL-MahjongTile;-inkscape-font-specification:GL-MahjongTile Medium"
         d="m 493.91448,597.59954 c -1.05605,3e-5 -3.74255,0.56678 -8.0625,1.71875 -4.22404,1.15203 -8.13554,2.01778 -11.6875,2.59375 -0.38403,1.63202 -0.56253,4.25827 -0.5625,7.90625 -3e-5,4.70401 0.71622,7.51101 2.15625,8.375 0.38397,-0.38399 0.80122,-0.98199 1.28125,-1.75 l 0.59375,-1.125 c 1.15196,-0.47999 1.92846,-0.71874 2.3125,-0.71875 -4e-5,0.38401 -0.0602,1.10026 -0.15625,2.15625 -4e-5,1.05601 -4e-5,1.71201 0,2 -2.30404,0.76801 -4.12478,1.15626 -5.46875,1.15625 -0.57603,-1.05599 -1.05353,-2.39924 -1.4375,-4.03125 -0.38403,-1.63199 -0.86153,-2.88599 -1.4375,-3.75 -0.48003,-0.95998 -1.31678,-1.52673 -2.46875,-1.71875 -0.38403,0.38402 -0.56253,0.68302 -0.5625,0.875 -3e-5,0.48001 0.0892,1.19626 0.28125,2.15625 0.19197,0.86401 0.43072,1.99751 0.71875,3.4375 0.28797,1.34401 0.49775,2.41951 0.59375,3.1875 l -0.59375,0 c -0.86403,10e-6 -2.05778,-0.12049 -3.59375,-0.3125 -1.53602,-0.192 -2.72977,-0.28124 -3.59375,-0.28125 -2e-5,0.19201 -0.0602,0.40176 -0.15625,0.59375 -2e-5,0.19201 -2e-5,0.31025 0,0.40625 -2e-5,1.056 0.77648,1.89275 2.3125,2.46875 1.53598,0.576 3.20722,0.84375 5.03125,0.84375 l 1.75,0 c 0.096,0.192 0.21422,0.6405 0.40625,1.3125 0.19197,0.672 0.40172,1.299 0.59375,1.875 0.28797,0.576 0.52672,1.203 0.71875,1.875 0.28797,0.576 0.58697,1.0535 0.875,1.4375 0.38397,0.384 0.71197,0.5625 1,0.5625 0.28797,0 0.52672,-0.0892 0.71875,-0.28125 0.192,-0.192 0.28122,-0.43075 0.28125,-0.71875 0.096,-0.384 0.15622,-0.683 0.15625,-0.875 0.096,-0.288 0.12497,-0.67625 0.125,-1.15625 0.096,-0.48 0.15622,-0.74775 0.15625,-0.84375 2.59196,0.768 4.11371,1.15625 4.59375,1.15625 0.28796,0 0.73646,-0.23875 1.3125,-0.71875 0.57596,-0.48 1.05346,-0.779 1.4375,-0.875 1.34396,0.864 3.6422,1.9685 6.90625,3.3125 3.35995,1.248 5.6582,1.87499 6.90625,1.875 0.86394,-1e-5 2.11794,-0.299 3.75,-0.875 1.72794,-0.672 2.83244,-1 3.3125,-1 1.91994,0 3.50193,-0.41725 4.75,-1.28125 1.24793,-0.864 1.87493,-2.118 1.875,-3.75 -7e-5,-1.92 -1.16482,-3.62249 -3.46875,-5.0625 -2.20806,-1.43999 -4.35681,-2.39499 -6.46875,-2.875 -2.11206,-0.47999 -4.08231,-0.74775 -5.90625,-0.84375 -0.192,-1.72799 -0.2813,-3.37024 -0.28125,-4.90625 -5e-5,-2.68798 0.32795,-5.28523 1,-7.78125 l 1,-3.75 c -6e-5,-1.34397 -0.98405,-1.99997 -3,-2 z m -4.625,3.59375 c -5e-5,0.38402 -0.029,0.92177 -0.125,1.59375 -5e-5,0.67202 -5e-5,1.23877 0,1.71875 -0.57605,0.096 -1.50205,0.27452 -2.75,0.5625 -1.24804,0.19202 -2.35254,0.40177 -3.3125,0.59375 -4e-5,-0.38398 0.0602,-0.86148 0.15625,-1.4375 0.192,-0.57598 0.28121,-1.11373 0.28125,-1.59375 0.67196,-0.096 1.56671,-0.27448 2.71875,-0.5625 1.15195,-0.38398 2.1672,-0.68297 3.03125,-0.875 z m -8.78125,2.15625 c -0.192,1.15202 -0.28129,2.10702 -0.28125,2.875 l -2.59375,0.4375 -0.28125,-0.15625 -0.3125,0 0,-2.5625 3.46875,-0.59375 z m 8.5,3.3125 c -0.096,0.76802 -0.1563,1.87252 -0.15625,3.3125 -2.49604,0.76802 -4.40604,1.2165 -5.75,1.3125 l 0,-3.1875 c 1.82396,-0.28798 3.7942,-0.76548 5.90625,-1.4375 z m -9.0625,2.03125 0,3.3125 c -1.34404,0.192 -2.27004,0.28126 -2.75,0.28125 -4e-5,-0.19199 -0.0602,-0.51999 -0.15625,-1 -4e-5,-0.47998 -4e-5,-0.83923 0,-1.03125 -4e-5,-0.19198 -4e-5,-0.37048 0,-0.5625 -4e-5,-0.28798 -4e-5,-0.49775 0,-0.59375 0.096,-0.096 0.45521,-0.12498 1.03125,-0.125 0.67196,-0.096 1.29896,-0.18525 1.875,-0.28125 z m 8.90625,3.71875 c 0.096,0.86401 0.1562,2.11801 0.15625,3.75 -1.63205,0.67201 -3.51304,1.20976 -5.625,1.59375 l 0,-3.875 2.875,-0.75 c 1.24795,-0.28799 2.1137,-0.52674 2.59375,-0.71875 z m 6.78125,6.21875 c 1.63194,0.096 3.45269,0.51326 5.46875,1.28125 2.01594,0.67201 3.03119,1.38826 3.03125,2.15625 -6e-5,1.056 -0.38831,1.8325 -1.15625,2.3125 -0.76806,0.384 -1.81231,0.62275 -3.15625,0.71875 -1.34406,0.096 -2.27006,0.2455 -2.75,0.4375 -0.38406,0.192 -1.1003,0.6695 -2.15625,1.4375 -1.05605,0.672 -1.98205,1 -2.75,1 -0.86405,0 -2.0578,-0.299 -3.59375,-0.875 -1.53605,-0.672 -2.49104,-1.26775 -2.875,-1.84375 0.47996,-0.192 1.0467,-0.55125 1.71875,-1.03125 0.76795,-0.48 1.4552,-0.808 2.03125,-1 0.096,0.192 0.24545,0.52 0.4375,1 0.19195,0.48 0.31025,0.779 0.40625,0.875 1.72795,0 3.5197,-0.627 5.34375,-1.875 0.28795,-0.576 0.43745,-1.11375 0.4375,-1.59375 -5e-5,-0.47999 -0.0893,-1.04674 -0.28125,-1.71875 -0.0961,-0.67199 -0.1563,-1.08924 -0.15625,-1.28125 z m -6.46875,0.125 c -0.096,0.48001 -0.067,1.25651 0.125,2.3125 -0.67205,0.19201 -1.3883,0.43075 -2.15625,0.71875 -0.67204,0.288 -1.23879,0.52675 -1.71875,0.71875 -0.38404,0.096 -0.77229,0.15625 -1.15625,0.15625 -0.48004,0 -0.71879,-0.7765 -0.71875,-2.3125 3.16795,-0.95999 5.04895,-1.49775 5.625,-1.59375 z m -9.375,2.59375 c -4e-5,0.96 0.23871,1.7365 0.71875,2.3125 -1.72804,0.768 -3.24979,1.30575 -4.59375,1.59375 -0.28803,-0.576 -0.64728,-1.3525 -1.03125,-2.3125 l 4.90625,-1.59375 z"
         id="path5054-7-1" />
      <path
         style="font-size:144px;font-style:normal;font-variant:normal;font-weight:500;font-stretch:normal;text-align:start;line-height:125%;letter-spacing:0px;word-spacing:0px;text-anchor:start;fill:#000000;fill-opacity:1;stroke:none;font-family:GL-MahjongTile;-inkscape-font-specification:GL-MahjongTile Medium"
         d="m 501.25893,544.75893 c -0.0961,8e-5 -2.78256,1.13358 -8.0625,3.4375 -5.18405,2.30408 -8.88579,3.46882 -11.09375,3.46875 -0.48004,-0.76792 -1.25654,-1.48417 -2.3125,-2.15625 -0.96004,-0.67192 -1.52679,-1.12042 -1.71875,-1.3125 -0.28804,0.19208 -0.82579,0.55133 -1.59375,1.03125 -0.67203,0.38408 -1.20978,0.80133 -1.59375,1.28125 -0.38403,0.38408 -0.74103,1.01107 -1.125,1.875 -0.28803,0.76807 -0.67628,1.42407 -1.15625,2 0.096,0.19207 0.33472,0.58032 0.71875,1.15625 0.38397,0.48007 0.62275,0.92857 0.71875,1.3125 0.192,0.38407 0.28122,0.80132 0.28125,1.28125 -3e-5,2.88007 -2.05953,6.25381 -6.1875,10.09375 -4.12802,3.84005 -8.24702,6.7653 -12.375,8.78125 0.28799,0.38405 0.79449,0.56255 1.5625,0.5625 1.53598,5e-5 3.98373,-0.98395 7.34375,-3 3.35997,-2.01595 6.25622,-4.22494 8.65625,-6.625 0.67197,0.28806 0.99997,0.85481 1,1.71875 -3e-5,0.67206 -0.23878,1.53781 -0.71875,2.59375 -0.48003,1.05605 -0.71878,1.9218 -0.71875,2.59375 -3e-5,1.53605 0.47747,2.81905 1.4375,3.875 0.95997,1.05605 2.24297,1.5938 3.875,1.59375 0.57596,5e-5 0.93525,-0.0892 1.03125,-0.28125 -4e-5,-0.57595 0.17846,-1.05345 0.5625,-1.4375 0.38396,-0.47995 1.01096,-0.92845 1.875,-1.3125 0.95996,-0.47995 1.91496,-0.8682 2.875,-1.15625 0.95996,-0.38395 2.36345,-0.86145 4.1875,-1.4375 1.91995,-0.67195 3.68045,-1.32795 5.3125,-2 -5e-5,0.67205 -0.029,1.2388 -0.125,1.71875 -0.096,0.48005 -0.1563,0.779 -0.15625,0.875 -5e-5,0.38405 0.32795,0.56255 1,0.5625 0.19195,5e-5 0.64045,-0.0602 1.3125,-0.15625 0.67194,-0.192 1.29894,-0.2812 1.875,-0.28125 2.78394,5e-5 5.64894,0.95505 8.625,2.875 2.97593,1.82405 4.76768,2.75005 5.34375,2.75 0.86393,5e-5 1.58018,-0.32795 2.15625,-1 0.67193,-0.76795 0.99993,-1.6337 1,-2.59375 -7e-5,-1.43995 -0.71632,-2.66495 -2.15625,-3.625 -1.44007,-0.95995 -3.79857,-2.06445 -7.0625,-3.3125 -3.26406,-1.24794 -5.56231,-2.20294 -6.90625,-2.875 -0.38406,-2.97594 -0.59381,-4.94619 -0.59375,-5.90625 -6e-5,-0.28793 0.14944,-1.00418 0.4375,-2.15625 0.28794,-1.15193 0.25894,-1.86818 -0.125,-2.15625 -0.57606,-1.34393 -1.83006,-2.12043 -3.75,-2.3125 -0.19205,1.24807 -0.64055,2.17407 -1.3125,2.75 -0.67205,0.57607 -2.5218,1.35257 -5.59375,2.3125 0.47995,-3.35993 2.24045,-5.80768 5.3125,-7.34375 4.03194,-1.91992 6.77869,-2.87492 8.21875,-2.875 0.86394,8e-5 2.11794,0.23883 3.75,0.71875 1.63193,0.48008 2.82568,0.71883 3.59375,0.71875 1.82393,8e-5 2.71868,-1.25392 2.71875,-3.75 -7e-5,-1.91992 -3.43182,-2.87492 -10.34375,-2.875 z m -19.15625,8.1875 c 0.95996,7e-5 1.85471,0.23882 2.71875,0.71875 0.95996,0.38407 1.43746,0.98207 1.4375,1.75 -4e-5,0.67207 -0.71629,2.73157 -2.15625,6.1875 -1.15204,0.67206 -2.13604,1.00006 -3,1 -0.38404,6e-5 -0.68304,-0.41719 -0.875,-1.28125 0.57596,-0.28793 0.99321,-1.03543 1.28125,-2.1875 0.28796,-1.15193 0.43746,-2.37468 0.4375,-3.71875 0.096,-1.43993 0.15621,-2.27668 0.15625,-2.46875 z m 10.5,8.5 c 0.95995,7e-5 1.43745,0.92606 1.4375,2.75 -5e-5,0.19206 -0.029,0.66956 -0.125,1.4375 -5e-5,0.67206 -5e-5,1.20981 0,1.59375 -5e-5,0.86406 0.029,1.45981 0.125,1.84375 -4.41605,2.30406 -7.72954,3.4688 -9.9375,3.46875 -4e-5,-2.20794 0.83671,-4.80519 2.46875,-7.78125 0.67195,-0.28794 1.4172,-0.70519 2.28125,-1.28125 0.95995,-0.57594 1.73645,-1.05344 2.3125,-1.4375 0.67195,-0.38394 1.14945,-0.59368 1.4375,-0.59375 z m -15.40625,3.46875 c 0.47996,0.67206 1.73396,1.00006 3.75,1 0.19196,6e-5 0.43071,6e-5 0.71875,0 0.28796,-0.0959 0.4665,-0.15619 0.5625,-0.15625 -0.76804,3.45606 -1.66279,5.7253 -2.71875,6.78125 -0.57604,0.19205 -1.11379,0.1028 -1.59375,-0.28125 -4e-5,-0.096 -4e-5,-0.18525 0,-0.28125 0.096,-0.19195 0.15621,-0.3415 0.15625,-0.4375 -4e-5,-0.38394 -0.20979,-1.16044 -0.59375,-2.3125 -0.28804,-1.24794 -0.43754,-2.26319 -0.4375,-3.03125 -4e-5,-0.57594 0.0602,-0.99319 0.15625,-1.28125 z"
         id="path3033"
         inkscape:connector-curvature="0" />
      <path
         style="font-size:144px;font-style:normal;font-variant:normal;font-weight:500;font-stretch:normal;text-align:start;line-height:125%;letter-spacing:0px;word-spacing:0px;text-anchor:start;fill:#ff0000;fill-opacity:1;stroke:none;font-family:GL-MahjongTile;-inkscape-font-specification:GL-MahjongTile Medium"
         d="m 497.93548,594.86054 c -2.88005,3e-5 -7.15205,0.86403 -12.816,2.592 -5.66404,1.63203 -9.40803,2.44803 -11.232,2.448 -5.76003,3e-5 -9.50402,-1.05597 -11.232,-3.168 1.72798,-1.05597 3.02398,-1.58397 3.888,-1.584 0.95997,3e-5 2.39997,0.24003 4.32,0.72 2.01597,0.48003 3.69597,0.72003 5.04,0.72 1.91996,3e-5 3.21596,-0.19197 3.888,-0.576 0.67196,-0.38397 1.00796,-1.24797 1.008,-2.592 -4e-5,-0.28797 -0.28804,-0.47997 -0.864,-0.576 -0.48004,-0.19197 -0.81604,-0.43197 -1.008,-0.72 -4e-5,-0.38397 0.048,-0.67196 0.144,-0.864 0.19196,-0.19196 0.43196,-0.43196 0.72,-0.72 0.38396,-0.38396 0.67196,-0.76796 0.864,-1.152 0.19196,-0.28796 0.52796,-0.86396 1.008,-1.728 0.57596,-0.95996 1.00796,-1.58396 1.296,-1.872 0.38396,-0.38396 0.81596,-0.57596 1.296,-0.576 0.67196,4e-5 1.00796,0.48004 1.008,1.44 -4e-5,0.76804 -0.096,1.58404 -0.288,2.448 -0.096,0.76804 -0.33604,1.68004 -0.72,2.736 -0.28804,0.96003 -0.48004,1.72803 -0.576,2.304 0.19196,0.48003 0.52796,0.72003 1.008,0.72 0.57596,3e-5 1.39196,-1.10397 2.448,-3.312 1.15195,-2.20796 1.72795,-3.79196 1.728,-4.752 -5e-5,-0.57596 -0.33605,-1.10396 -1.008,-1.584 -0.57605,-0.57596 -0.96005,-1.00796 -1.152,-1.296 0.76795,-1.72796 2.44795,-3.07195 5.04,-4.032 1.91995,0.67205 2.87995,2.44804 2.88,5.328 -5e-5,0.96004 -0.43205,2.11204 -1.296,3.456 -0.76805,1.34404 -1.20005,2.59204 -1.296,3.744 0.76795,-0.096 1.82395,-0.28797 3.168,-0.576 1.34395,-0.28797 2.68794,-0.47996 4.032,-0.576 1.34394,-0.19196 2.78394,-0.28796 4.32,-0.288 3.07193,4e-5 4.84793,0.33604 5.328,1.008 -0.67207,1.34403 -1.72807,2.35203 -3.168,3.024 -1.24806,-0.096 -3.84006,-0.14397 -7.776,-0.144"
         id="path5154"
         inkscape:connector-curvature="0" />
    </g>
  </g>
</svg>
