<?xml version="1.0" encoding="UTF-8" standalone="no"?>
<!-- Created with Inkscape (http://www.inkscape.org/) -->

<svg
   xmlns:dc="http://purl.org/dc/elements/1.1/"
   xmlns:cc="http://creativecommons.org/ns#"
   xmlns:rdf="http://www.w3.org/1999/02/22-rdf-syntax-ns#"
   xmlns:svg="http://www.w3.org/2000/svg"
   xmlns="http://www.w3.org/2000/svg"
   xmlns:sodipodi="http://sodipodi.sourceforge.net/DTD/sodipodi-0.dtd"
   xmlns:inkscape="http://www.inkscape.org/namespaces/inkscape"
   width="79.571373"
   height="115.96954"
   id="svg3237"
   version="1.1"
   inkscape:version="0.48.3.1 r9886"
   sodipodi:docname="P1.svg">
  <defs
     id="defs3239" />
  <sodipodi:namedview
     id="base"
     pagecolor="#ffffff"
     bordercolor="#666666"
     borderopacity="1.0"
     inkscape:pageopacity="0.0"
     inkscape:pageshadow="2"
     inkscape:zoom="0.7"
     inkscape:cx="248.64693"
     inkscape:cy="48.162603"
     inkscape:document-units="px"
     inkscape:current-layer="layer1"
     showgrid="false"
     fit-margin-top="0"
     fit-margin-left="0"
     fit-margin-right="0"
     fit-margin-bottom="0"
     inkscape:window-width="748"
     inkscape:window-height="600"
     inkscape:window-x="399"
     inkscape:window-y="247"
     inkscape:window-maximized="0" />
  <metadata
     id="metadata3242">
    <rdf:RDF>
      <cc:Work
         rdf:about="">
        <dc:format>image/svg+xml</dc:format>
        <dc:type
           rdf:resource="http://purl.org/dc/dcmitype/StillImage" />
        <dc:title />
      </cc:Work>
    </rdf:RDF>
  </metadata>
  <g
     inkscape:label="Layer 1"
     inkscape:groupmode="layer"
     id="layer1"
     transform="translate(398.43016,-454.88835)">
    <rect
       ry="5.4056678"
       y="455.39285"
       x="-397.92566"
       height="114.96053"
       width="78.56237"
       id="rect6731-9-60"
       style="fill:#ffffff;stroke:#000000;stroke-width:1.00899994;stroke-miterlimit:4;stroke-opacity:1;stroke-dasharray:none;stroke-dashoffset:0" />
    <g
       transform="translate(-475.05965,-434.93269)"
       id="g7359">
      <path
         style="font-size:144px;font-style:normal;font-variant:normal;font-weight:500;font-stretch:normal;text-align:start;line-height:125%;letter-spacing:0px;word-spacing:0px;text-anchor:start;fill:#000000;fill-opacity:1;stroke:none;font-family:GL-MahjongTile;-inkscape-font-specification:GL-MahjongTile Medium"
         d="m 116.41518,918.41518 c -8.16004,7e-5 -15.11503,2.89632 -20.875001,8.65625 -5.664019,5.66405 -8.500016,12.5588 -8.5,20.71875 -1.6e-5,8.16003 2.835981,15.14627 8.5,20.90625 5.759971,5.66401 12.714961,8.46876 20.875001,8.46875 8.15994,1e-5 15.05469,-2.80474 20.71875,-8.46875 5.75993,-5.75998 8.65617,-12.74622 8.65625,-20.90625 -8e-5,-8.15995 -2.89632,-15.0547 -8.65625,-20.71875 -5.66406,-5.75993 -12.55881,-8.65618 -20.71875,-8.65625 z m -3.90625,0.875 -1.28125,3.875 4.46875,-2.15625 0,3.3125 -1.03125,1.03125 c -2.30404,0.19206 -4.39254,0.66956 -6.3125,1.4375 l -1.15625,-2.875 1.4375,-3.75 3.875,-0.875 z m 7.78125,0 3.90625,0.875 1.4375,3.75 -1.15625,2.875 c -1.92005,-0.76794 -4.0398,-1.24544 -6.34375,-1.4375 l -1,-1.03125 0,-3.3125 4.46875,2.15625 -1.3125,-3.875 z m -17.71875,3.3125 3.03125,1.15625 1.3125,3.03125 c -0.19204,0.28806 -0.34154,0.4666 -0.4375,0.5625 -4e-5,0.0961 -0.0893,0.18535 -0.28125,0.28125 -0.19204,0.0961 -0.40179,0.2166 -0.59375,0.3125 -0.096,6e-5 -0.36379,0.11831 -0.84375,0.40625 -0.48004,0.28806 -1.01778,0.64731 -1.59375,1.03125 l -1,-3.625 -2.593751,4.34375 -2.46875,-2.46875 0.28125,-1.28125 c 1.727971,-1.53594 3.459471,-2.78994 5.187501,-3.75 z m 27.65625,0 c 1.91994,1.15206 3.59119,2.31681 5.03125,3.46875 l 0.4375,1.5625 -2.4375,2.46875 -2.59375,-4.34375 -1,3.625 c -1.15206,-0.76794 -2.25656,-1.39494 -3.3125,-1.875 l -0.4375,-0.71875 1.28125,-3.03125 3.03125,-1.15625 z m -13.8125,3.3125 c 6.04795,6e-5 11.18219,2.14881 15.40625,6.46875 4.31993,4.22405 6.46868,9.35829 6.46875,15.40625 -7e-5,6.04803 -2.14882,11.24253 -6.46875,15.5625 -4.22406,4.22402 -9.3583,6.34377 -15.40625,6.34375 -6.04804,2e-5 -11.24254,-2.11973 -15.5625,-6.34375 -4.224027,-4.31997 -6.343775,-9.51447 -6.343751,-15.5625 -2.4e-5,-6.04796 2.119724,-11.1822 6.343751,-15.40625 4.31996,-4.31994 9.51446,-6.46869 15.5625,-6.46875 z m -20.156251,2.59375 2.4375,2.4375 -4.3125,2.59375 3.59375,1.03125 c -0.768027,1.15205 -1.395026,2.25655 -1.875,3.3125 l -0.71875,0.40625 -3.03125,-1.28125 -1.15625,-3.03125 c 1.151978,-1.91995 2.316727,-3.59119 3.46875,-5.03125 l 1.59375,-0.4375 z m 40.312501,0 1.28125,0.28125 c 1.53593,1.72806 2.78993,3.45955 3.75,5.1875 l -1.15625,3.03125 -3,1.28125 c -0.28807,-0.192 -0.49782,-0.2812 -0.59375,-0.28125 -0.0961,-0.096 -0.18532,-0.24545 -0.28125,-0.4375 -0.0961,-0.19195 -0.18532,-0.3414 -0.28125,-0.4375 -7e-5,-0.19195 -0.14957,-0.51995 -0.4375,-1 -0.28807,-0.47995 -0.61607,-0.98645 -1,-1.5625 l 3.59375,-1.03125 -4.3125,-2.59375 2.4375,-2.4375 z m -44.062501,10.09375 2.875,1.125 c -0.768024,1.92004 -1.245524,4.03979 -1.4375,6.34375 l -1,1 -3.3125,0 2.15625,-4.4375 -3.90625,1.28125 0.875,-3.875 3.75,-1.4375 z m 47.812501,0 3.71875,1.4375 0.875,3.875 -3.875,-1.28125 2.15625,4.4375 -3.3125,0 -1,-1 c -0.19207,-2.30396 -0.66957,-4.42371 -1.4375,-6.34375 l 2.875,-1.125 z m -50.687501,9.90625 3.3125,0 1,1.03125 c 0.191976,2.30403 0.669476,4.42378 1.4375,6.34375 l -2.875,1.125 -3.75,-1.4375 -0.875,-3.875 3.90625,1.28125 -2.15625,-4.46875 z m 50.250001,0 3.3125,0 -2.15625,4.46875 3.875,-1.28125 -0.875,3.875 -3.71875,1.4375 -2.875,-1.125 c 0.76793,-1.91997 1.24543,-4.03972 1.4375,-6.34375 l 1,-1.03125 z m -44.500001,8.8125 c 0.287975,0.19203 0.46648,0.31025 0.5625,0.40625 0.09597,3e-5 0.21647,0.12053 0.3125,0.3125 0.09597,0.19203 0.124974,0.37053 0.125,0.5625 0.09597,0.096 0.305724,0.39503 0.59375,0.875 0.287973,0.48003 0.615973,0.98653 1,1.5625 l -3.59375,1.03125 4.3125,2.59375 -2.4375,2.4375 -1.3125,-0.28125 c -1.536023,-1.72798 -2.790022,-3.45948 -3.75,-5.1875 l 1.15625,-3.03125 3.03125,-1.28125 z m 42.062501,0 3,1.28125 1.15625,3.03125 c -1.15207,1.92002 -2.28557,3.59127 -3.4375,5.03125 l -1.59375,0.4375 -2.4375,-2.4375 4.3125,-2.59375 -3.59375,-1.03125 c 0.76793,-1.15197 1.36368,-2.25647 1.84375,-3.3125 l 0.75,-0.40625 z m -37.875001,8.1875 2.593751,4.3125 1,-3.59375 c 1.15196,0.76802 2.25646,1.39502 3.3125,1.875 l 0.4375,0.71875 -1.3125,3.03125 -3.03125,1.15625 c -1.92003,-1.15199 -3.591279,-2.31673 -5.031251,-3.46875 l -0.4375,-1.5625 2.46875,-2.46875 z m 33.687501,0 2.4375,2.46875 -0.28125,1.28125 c -1.72806,1.53602 -3.45956,2.79001 -5.1875,3.75 l -3.03125,-1.15625 -1.28125,-3.03125 c 0.19194,-0.28798 0.28119,-0.4665 0.28125,-0.5625 0.0959,-0.096 0.24544,-0.18525 0.4375,-0.28125 0.19194,-0.096 0.34144,-0.15623 0.4375,-0.15625 0.19194,-0.096 0.51994,-0.27448 1,-0.5625 0.47994,-0.28798 1.01769,-0.64723 1.59375,-1.03125 l 1,3.59375 2.59375,-4.3125 z m -24.90625,3.3125 c 1.91996,0.76802 4.00846,1.24552 6.3125,1.4375 l 1.03125,1.03125 0,3.3125 -4.46875,-2.1875 1.28125,3.90625 -3.875,-0.875 -1.4375,-3.75 1.15625,-2.875 z m 16.125,0 1.15625,2.875 -1.4375,3.75 -3.90625,0.875 1.3125,-3.90625 -4.46875,2.1875 0,-3.3125 1,-1.03125 c 2.30395,-0.19198 4.4237,-0.66948 6.34375,-1.4375 z"
         id="path4940"
         inkscape:connector-curvature="0" />
      <path
         style="font-size:144px;font-style:normal;font-variant:normal;font-weight:500;font-stretch:normal;text-align:start;line-height:125%;letter-spacing:0px;word-spacing:0px;text-anchor:start;fill:#000000;fill-opacity:1;stroke:none;font-family:GL-MahjongTile;-inkscape-font-specification:GL-MahjongTile Medium"
         d="m 116.41518,914.82143 c -9.02404,7e-5 -16.81578,3.28457 -23.343751,9.8125 -6.432016,6.43206 -9.625013,14.1323 -9.625,23.15625 -1.3e-5,9.02403 3.192984,16.81577 9.625,23.34375 6.527971,6.43201 14.319711,9.65626 23.343751,9.65625 9.02394,1e-5 16.75544,-3.22424 23.1875,-9.65625 6.52792,-6.52798 9.78117,-14.31972 9.78125,-23.34375 -8e-5,-9.02395 -3.25333,-16.72419 -9.78125,-23.15625 -6.43206,-6.52793 -14.16356,-9.81243 -23.1875,-9.8125 z m 0,2.15625 c 8.44794,7e-5 15.70194,3.04582 21.75,9.09375 6.04792,6.04805 9.06242,13.2708 9.0625,21.71875 -8e-5,8.44803 -3.01458,15.70202 -9.0625,21.75 -6.04806,6.04801 -13.30206,9.09376 -21.75,9.09375 -8.44804,1e-5 -15.70203,-3.04574 -21.750001,-9.09375 -6.048018,-6.04798 -9.062515,-13.30197 -9.0625,-21.75 -1.5e-5,-8.44795 3.014482,-15.6707 9.0625,-21.71875 6.047971,-6.04793 13.301961,-9.09368 21.750001,-9.09375 z"
         id="path4998"
         inkscape:connector-curvature="0" />
      <path
         style="font-size:144px;font-style:normal;font-variant:normal;font-weight:500;font-stretch:normal;text-align:start;line-height:125%;letter-spacing:0px;word-spacing:0px;text-anchor:start;fill:#ff0000;fill-opacity:1;stroke:none;font-family:GL-MahjongTile;-inkscape-font-specification:GL-MahjongTile Medium"
         d="m 116.41518,927.35268 c -5.66404,6e-5 -10.53054,2.03056 -14.5625,6.0625 -3.936028,3.93605 -5.906276,8.71104 -5.906251,14.375 -2.5e-5,5.66403 1.970223,10.53053 5.906251,14.5625 4.03196,3.93602 8.89846,5.90627 14.5625,5.90625 5.66395,2e-5 10.47019,-1.97023 14.40625,-5.90625 4.03193,-4.03197 6.03118,-8.89847 6.03125,-14.5625 -5e-5,-4.28765 -1.15821,-8.07755 -3.46875,-11.375 l -0.84375,4.46875 -8.0625,3.1875 c -0.19206,-0.38396 -0.40181,-0.68296 -0.59375,-0.875 l 4.75,-3.03125 -0.40625,-0.5625 -4.625,3.03125 c -0.19205,-0.19196 -0.37055,-0.49096 -0.5625,-0.875 l 6.03125,-6.1875 4.3125,0.84375 c -0.74167,-1.05847 -1.58276,-2.04356 -2.5625,-3 -0.95644,-0.97974 -1.97278,-1.85208 -3.03125,-2.59375 l 0.84375,4.3125 -6.1875,6.03125 c -0.38405,-0.19195 -0.6518,-0.37045 -0.84375,-0.5625 l 3,-4.59375 -0.5625,-0.4375 -3.03125,4.75 c -0.19205,-0.19195 -0.4598,-0.4017 -0.84375,-0.59375 l 3.15625,-8.0625 4.46875,-0.84375 c -3.29746,-2.31054 -7.08736,-3.4687 -11.375,-3.46875 z m -4.03125,0.4375 3.75,2.4375 0,8.65625 c -0.57605,5e-5 -0.9643,0.029 -1.15625,0.125 l -1.03125,-5.3125 -0.71875,0.125 1.15625,5.34375 c -0.19205,5e-5 -0.58029,0.0893 -1.15625,0.28125 l -3.3125,-8.0625 2.46875,-3.59375 z m 8.0625,0 2.4375,3.59375 -3.3125,8.0625 c -0.57605,-0.192 -0.9643,-0.2812 -1.15625,-0.28125 l 1.15625,-5.34375 -0.71875,-0.125 -1,5.3125 c -0.19205,-0.096 -0.5803,-0.12495 -1.15625,-0.125 l 0,-8.65625 3.75,-2.4375 z m -15.40625,3.03125 4.46875,0.84375 3.15625,8.0625 c -0.38404,0.19205 -0.68304,0.4018 -0.875,0.59375 l -3,-4.75 -0.59375,0.4375 3.03125,4.59375 c -0.19204,0.19205 -0.49104,0.37055 -0.875,0.5625 l -6.1875,-6.03125 0.875,-4.3125 z m -1.3125,4.75 6.0625,6.1875 c -0.19204,0.38404 -0.40179,0.68304 -0.59375,0.875 l -4.59375,-3.03125 -0.4375,0.5625 4.75,3.03125 c -0.19204,0.19204 -0.37054,0.49104 -0.5625,0.875 l -8.0625,-3.1875 -0.875001,-4.46875 4.312501,-0.84375 z m 12.6875,4.03125 c 2.20795,5e-5 4.11795,0.80555 5.75,2.4375 1.63195,1.63204 2.43744,3.54204 2.4375,5.75 -6e-5,2.20804 -0.80555,4.14928 -2.4375,5.78125 -1.63205,1.63203 -3.54205,2.43753 -5.75,2.4375 -2.20805,3e-5 -4.14929,-0.80547 -5.78125,-2.4375 -1.63204,-1.63197 -2.43754,-3.57321 -2.4375,-5.78125 -4e-5,-2.20796 0.80546,-4.11796 2.4375,-5.75 1.63196,-1.63195 3.5732,-2.43745 5.78125,-2.4375 z m -16.437501,1.71875 8.062501,3.3125 c -0.19204,0.57604 -0.28129,0.96429 -0.28125,1.15625 l -5.3125,-1.15625 -0.15625,0.71875 5.34375,1 c -0.096,0.19204 -0.15629,0.58029 -0.15625,1.15625 l -8.625001,0 -2.46875,-3.75 3.59375,-2.4375 z m 32.843751,0 3.59375,2.4375 -2.4375,3.75 -8.65625,0 c -6e-5,-0.57596 -0.0291,-0.96421 -0.125,-1.15625 l 5.3125,-1 -0.125,-0.71875 -5.34375,1.15625 c -6e-5,-0.19196 -0.0893,-0.58021 -0.28125,-1.15625 l 8.0625,-3.3125 z m -33.968751,6.78125 8.625001,0 c -4e-5,0.57604 0.0602,0.96429 0.15625,1.15625 l -5.34375,1 0.15625,0.71875 5.3125,-1.15625 c -4e-5,0.19204 0.0892,0.58029 0.28125,1.15625 l -8.062501,3.3125 -3.59375,-2.46875 2.46875,-3.71875 z m 26.468751,0 8.65625,0 2.4375,3.71875 -3.59375,2.46875 -8.0625,-3.3125 c 0.19195,-0.57596 0.28119,-0.96421 0.28125,-1.15625 l 5.34375,1.15625 0.125,-0.71875 -5.3125,-1 c 0.0959,-0.19196 0.12494,-0.58021 0.125,-1.15625 z m -16.96875,3.4375 c 0.19196,0.38403 0.37046,0.68303 0.5625,0.875 l -4.75,3.03125 0.4375,0.5625 4.59375,-3.03125 c 0.19196,0.19203 0.40171,0.49103 0.59375,0.875 l -6.0625,6.1875 -4.312501,-0.875 0.875001,-4.4375 8.0625,-3.1875 z m 16.125,0 8.0625,3.1875 0.84375,4.4375 -4.3125,0.875 -6.03125,-6.1875 c 0.19195,-0.38397 0.37045,-0.68297 0.5625,-0.875 l 4.625,3.03125 0.40625,-0.5625 -4.75,-3.03125 c 0.19194,-0.19197 0.40169,-0.49097 0.59375,-0.875 z m -14.125,2.875 c 0.38396,0.19203 0.68296,0.40178 0.875,0.59375 l -3.03125,4.59375 0.59375,0.4375 3,-4.75 c 0.19196,0.19203 0.49096,0.40178 0.875,0.59375 l -3.15625,8.0625 -4.46875,0.84375 -0.875,-4.3125 6.1875,-6.0625 z m 12.09375,0 6.1875,6.0625 -0.84375,4.3125 -4.46875,-0.84375 -3.15625,-8.0625 c 0.38395,-0.19197 0.6517,-0.40172 0.84375,-0.59375 l 3.03125,4.75 0.5625,-0.4375 -3,-4.59375 c 0.19195,-0.19197 0.4597,-0.40172 0.84375,-0.59375 z m -9.21875,1.75 c 0.57596,0.192 0.9642,0.28128 1.15625,0.28125 l -1.15625,5.3125 0.71875,0.15625 1.03125,-5.3125 c 0.19195,0.096 0.5802,0.12503 1.15625,0.125 l 0,8.65625 -3.75,2.4375 -2.46875,-3.59375 3.3125,-8.0625 z m 6.34375,0 3.3125,8.0625 -2.4375,3.59375 -3.75,-2.4375 0,-8.65625 c 0.57595,3e-5 0.9642,-0.029 1.15625,-0.125 l 1,5.3125 0.71875,-0.15625 -1.15625,-5.3125 c 0.19195,3e-5 0.5802,-0.0892 1.15625,-0.28125 z"
         id="path4994"
         inkscape:connector-curvature="0" />
      <path
         style="font-size:144px;font-style:normal;font-variant:normal;font-weight:500;font-stretch:normal;text-align:start;line-height:125%;letter-spacing:0px;word-spacing:0px;text-anchor:start;fill:#ff0000;fill-opacity:1;stroke:none;font-family:GL-MahjongTile;-inkscape-font-specification:GL-MahjongTile Medium"
         d="m 113.67148,941.46854 c 0.76796,-0.38395 1.67996,-0.57595 2.736,-0.576 1.05595,5e-5 1.96795,0.19205 2.736,0.576 l 0.144,1.152 -2.304,3.312 c -0.0961,-0.096 -0.28805,-0.14396 -0.576,-0.144 -0.28805,4e-5 -0.48004,0.048 -0.576,0.144 l -2.304,-3.312 0.144,-1.152"
         id="path4990"
         inkscape:connector-curvature="0" />
      <path
         style="font-size:144px;font-style:normal;font-variant:normal;font-weight:500;font-stretch:normal;text-align:start;line-height:125%;letter-spacing:0px;word-spacing:0px;text-anchor:start;fill:#ff0000;fill-opacity:1;stroke:none;font-family:GL-MahjongTile;-inkscape-font-specification:GL-MahjongTile Medium"
         d="m 110.64748,949.10054 -1.152,-0.576 0,-0.72 c -4e-5,-1.72796 0.62396,-3.21596 1.872,-4.464 l 1.008,0.144 2.448,3.024 c -0.28804,0.48004 -0.43204,0.91204 -0.432,1.296 l -3.744,1.296"
         id="path4988"
         inkscape:connector-curvature="0" />
      <path
         style="font-size:144px;font-style:normal;font-variant:normal;font-weight:500;font-stretch:normal;text-align:start;line-height:125%;letter-spacing:0px;word-spacing:0px;text-anchor:start;fill:#ff0000;fill-opacity:1;stroke:none;font-family:GL-MahjongTile;-inkscape-font-specification:GL-MahjongTile Medium"
         d="m 123.31948,948.52454 -1.152,0.576 -3.744,-1.296 c -5e-5,-0.38396 -0.14405,-0.81596 -0.432,-1.296 l 2.448,-3.024 1.008,-0.144 c 1.24795,1.24804 1.87195,2.73604 1.872,4.464 l 0,0.72"
         id="path4986"
         inkscape:connector-curvature="0" />
      <path
         style="font-size:144px;font-style:normal;font-variant:normal;font-weight:500;font-stretch:normal;text-align:start;line-height:125%;letter-spacing:0px;word-spacing:0px;text-anchor:start;fill:#ff0000;fill-opacity:1;stroke:none;font-family:GL-MahjongTile;-inkscape-font-specification:GL-MahjongTile Medium"
         d="m 115.68748,953.70854 -0.72,0.864 c -1.82404,-0.38397 -3.31204,-1.48797 -4.464,-3.312 l 0.576,-1.008 3.744,-1.152 c 0.28796,0.28804 0.57596,0.48004 0.864,0.576 l 0,4.032"
         id="path4984"
         inkscape:connector-curvature="0" />
      <path
         style="font-size:144px;font-style:normal;font-variant:normal;font-weight:500;font-stretch:normal;text-align:start;line-height:125%;letter-spacing:0px;word-spacing:0px;text-anchor:start;fill:#ff0000;fill-opacity:1;stroke:none;font-family:GL-MahjongTile;-inkscape-font-specification:GL-MahjongTile Medium"
         d="m 117.12748,953.70854 0,-4.032 c 0.28795,-0.096 0.57595,-0.28796 0.864,-0.576 l 3.744,1.152 0.576,1.008 c -1.15205,1.82403 -2.64005,2.92803 -4.464,3.312 l -0.72,-0.864"
         id="path4982"
         inkscape:connector-curvature="0" />
      <path
         style="font-size:144px;font-style:normal;font-variant:normal;font-weight:500;font-stretch:normal;text-align:start;line-height:125%;letter-spacing:0px;word-spacing:0px;text-anchor:start;fill:#ff0000;fill-opacity:1;stroke:none;font-family:GL-MahjongTile;-inkscape-font-specification:GL-MahjongTile Medium"
         d="m 116.40748,948.52454 c -0.48004,4e-5 -0.72004,-0.23996 -0.72,-0.72 -4e-5,-0.47996 0.23996,-0.71996 0.72,-0.72 0.47995,4e-5 0.71995,0.24004 0.72,0.72 -5e-5,0.48004 -0.24005,0.72004 -0.72,0.72"
         id="path4942"
         inkscape:connector-curvature="0" />
    </g>
  </g>
</svg>
