<?xml version="1.0" encoding="UTF-8" standalone="no"?>
<!-- Created with Inkscape (http://www.inkscape.org/) -->

<svg
   xmlns:dc="http://purl.org/dc/elements/1.1/"
   xmlns:cc="http://creativecommons.org/ns#"
   xmlns:rdf="http://www.w3.org/1999/02/22-rdf-syntax-ns#"
   xmlns:svg="http://www.w3.org/2000/svg"
   xmlns="http://www.w3.org/2000/svg"
   xmlns:sodipodi="http://sodipodi.sourceforge.net/DTD/sodipodi-0.dtd"
   xmlns:inkscape="http://www.inkscape.org/namespaces/inkscape"
   width="79.5625"
   height="115.96875"
   id="svg3237"
   version="1.1"
   inkscape:version="0.48.3.1 r9886"
   sodipodi:docname="P3.svg">
  <defs
     id="defs3239" />
  <sodipodi:namedview
     id="base"
     pagecolor="#ffffff"
     bordercolor="#666666"
     borderopacity="1.0"
     inkscape:pageopacity="0.0"
     inkscape:pageshadow="2"
     inkscape:zoom="0.7"
     inkscape:cx="47.654273"
     inkscape:cy="58.273453"
     inkscape:document-units="px"
     inkscape:current-layer="layer1"
     showgrid="false"
     fit-margin-top="0"
     fit-margin-left="0"
     fit-margin-right="0"
     fit-margin-bottom="0"
     inkscape:window-width="748"
     inkscape:window-height="600"
     inkscape:window-x="399"
     inkscape:window-y="247"
     inkscape:window-maximized="0" />
  <metadata
     id="metadata3242">
    <rdf:RDF>
      <cc:Work
         rdf:about="">
        <dc:format>image/svg+xml</dc:format>
        <dc:type
           rdf:resource="http://purl.org/dc/dcmitype/StillImage" />
        <dc:title />
      </cc:Work>
    </rdf:RDF>
  </metadata>
  <g
     inkscape:label="Layer 1"
     inkscape:groupmode="layer"
     id="layer1"
     transform="translate(197.4375,-465)">
    <rect
       ry="5.4056678"
       y="465.51566"
       x="-196.93512"
       height="114.96053"
       width="78.56237"
       id="rect6731-9-94"
       style="fill:#ffffff;stroke:#000000;stroke-width:1.00899994;stroke-miterlimit:4;stroke-opacity:1;stroke-dasharray:none;stroke-dashoffset:0" />
    <g
       transform="translate(-458.55349,-424.80988)"
       id="g7409">
      <path
         style="font-size:144px;font-style:normal;font-variant:normal;font-weight:500;font-stretch:normal;text-align:start;line-height:125%;letter-spacing:0px;word-spacing:0px;text-anchor:start;fill:#000000;fill-opacity:1;stroke:none;font-family:GL-MahjongTile;-inkscape-font-specification:GL-MahjongTile Medium"
         d="m 318.16518,966.54018 c -3.74402,8e-5 -6.96827,1.34333 -9.65625,4.03125 -2.68801,2.68808 -4.03126,5.91232 -4.03125,9.65625 -1e-5,3.74407 1.34324,6.93706 4.03125,9.62495 2.68798,2.6881 5.91223,4.0314 9.65625,4.0313 3.74397,1e-4 6.96822,-1.3432 9.65625,-4.0313 2.68796,-2.68789 4.03121,-5.88088 4.03125,-9.62495 -4e-5,-3.74393 -1.34329,-6.96817 -4.03125,-9.65625 -2.68803,-2.68792 -5.91228,-4.03117 -9.65625,-4.03125 z m 0,2.15625 c 3.16797,8e-5 5.85447,1.16483 8.0625,3.46875 2.30396,2.20808 3.43746,4.89457 3.4375,8.0625 -4e-5,3.16807 -1.13354,5.88357 -3.4375,8.1875 -2.20803,2.20805 -4.89453,3.31255 -8.0625,3.31245 -3.16802,10e-5 -5.91477,-1.1044 -8.21875,-3.31245 -2.20802,-2.30393 -3.31252,-5.01943 -3.3125,-8.1875 -2e-5,-3.16793 1.10448,-5.85442 3.3125,-8.0625 2.30398,-2.30392 5.05073,-3.46867 8.21875,-3.46875 z"
         id="path4836-0"
         inkscape:connector-curvature="0" />
      <path
         style="font-size:144px;font-style:normal;font-variant:normal;font-weight:500;font-stretch:normal;text-align:start;line-height:125%;letter-spacing:0px;word-spacing:0px;text-anchor:start;fill:#000000;fill-opacity:1;stroke:none;font-family:GL-MahjongTile;-inkscape-font-specification:GL-MahjongTile Medium"
         d="m 318.16518,970.13393 c -2.78402,8e-5 -5.20277,1.01533 -7.21875,3.03125 -1.92002,1.92008 -2.87502,4.27857 -2.875,7.0625 -2e-5,2.78407 0.95498,5.17157 2.875,7.1875 2.01598,1.92005 4.43473,2.87505 7.21875,2.87495 2.78397,10e-5 5.14247,-0.9549 7.0625,-2.87495 2.01596,-2.01593 2.99996,-4.40343 3,-7.1875 -4e-5,-2.78393 -0.98404,-5.14242 -3,-7.0625 -1.92003,-2.01592 -4.27853,-3.03117 -7.0625,-3.03125 z m 0,1.4375 c 0.95997,8e-5 2.00422,0.20983 3.15625,0.59375 l 0.59375,1.5625 -1.59375,2.3125 -0.59375,0 c -0.38403,-0.0959 -0.89053,-0.15617 -1.5625,-0.15625 -0.67203,8e-5 -1.20978,0.0603 -1.59375,0.15625 l -0.5625,0 -1.59375,-2.3125 0.5625,-1.5625 c 1.15198,-0.38392 2.22747,-0.59367 3.1875,-0.59375 z m -6.625,3.03125 1.71875,0 1.59375,2.3125 c -0.096,0.19207 -0.24552,0.45982 -0.4375,0.84375 -0.19202,0.38407 -0.3415,0.77232 -0.4375,1.15625 -0.096,0.38407 -0.12502,0.86157 -0.125,1.4375 l -0.3125,0.59375 -2.71875,0.84375 -1.3125,-1 0,-0.5625 c -2e-5,-2.11193 0.68723,-3.99292 2.03125,-5.625 z m 11.5,0 1.75,0 c 1.34397,1.63208 1.99996,3.51307 2,5.625 l 0,0.5625 -1.28125,1 -2.75,-0.84375 -0.28125,-0.59375 c -3e-5,-0.57593 -0.0602,-1.05343 -0.15625,-1.4375 -0.096,-0.38393 -0.21428,-0.77218 -0.40625,-1.15625 -0.19203,-0.38393 -0.3415,-0.65168 -0.4375,-0.84375 l 1.5625,-2.3125 z m -4.875,2.71875 c 0.76797,7e-5 1.42397,0.29907 2,0.875 0.57597,0.57607 0.87497,1.26332 0.875,2.03125 -3e-5,0.76807 -0.29903,1.42407 -0.875,2 -0.57603,0.57607 -1.23203,0.87507 -2,0.875 -0.76803,7e-5 -1.45528,-0.29893 -2.03125,-0.875 -0.57602,-0.57593 -0.84377,-1.23193 -0.84375,-2 -2e-5,-0.76793 0.26773,-1.45518 0.84375,-2.03125 0.57597,-0.57593 1.26322,-0.87493 2.03125,-0.875 z m -4.1875,5.0625 0.59375,0.28125 c 0.57598,0.86407 1.38148,1.43082 2.4375,1.71875 l 0.4375,0.4375 0,2.875 -1.3125,0.875 c -2.40002,-0.57594 -4.16052,-1.82994 -5.3125,-3.75 l 0.5625,-1.59375 2.59375,-0.84375 z m 8.34375,0 2.59375,0.84375 0.59375,1.59375 c -1.15203,1.92006 -2.94378,3.17406 -5.34375,3.75 l -1.28125,-0.875 0,-2.875 c 0.86397,-0.38393 1.99747,-1.18943 3.4375,-2.4375 z"
         id="path4834-2"
         inkscape:connector-curvature="0" />
      <path
         style="font-size:144px;font-style:normal;font-variant:normal;font-weight:500;font-stretch:normal;text-align:start;line-height:125%;letter-spacing:0px;word-spacing:0px;text-anchor:start;fill:#000000;fill-opacity:1;stroke:none;font-family:GL-MahjongTile;-inkscape-font-specification:GL-MahjongTile Medium"
         d="m 318.15873,978.77704 c 0.95997,7e-5 1.43997,0.48007 1.44,1.44 -3e-5,0.96007 -0.48003,1.44007 -1.44,1.44 -0.96003,7e-5 -1.44003,-0.47993 -1.44,-1.44 -3e-5,-0.95993 0.47997,-1.43993 1.44,-1.44"
         id="path4830-5"
         inkscape:connector-curvature="0" />
      <path
         style="font-size:144px;font-style:normal;font-variant:normal;font-weight:500;font-stretch:normal;text-align:start;line-height:125%;letter-spacing:0px;word-spacing:0px;text-anchor:start;fill:#ff0000;fill-opacity:1;stroke:none;font-family:GL-MahjongTile;-inkscape-font-specification:GL-MahjongTile Medium"
         d="m 300.91518,934.13393 c -3.74402,8e-5 -6.96827,1.34333 -9.65625,4.03125 -2.68801,2.68808 -4.03126,5.91232 -4.03125,9.65625 -1e-5,3.74407 1.34324,6.93706 4.03125,9.625 2.68798,2.68806 5.91223,4.03131 9.65625,4.03125 3.74397,6e-5 6.96822,-1.34319 9.65625,-4.03125 2.68796,-2.68794 4.03121,-5.88093 4.03125,-9.625 -4e-5,-3.74393 -1.34329,-6.96817 -4.03125,-9.65625 -2.68803,-2.68792 -5.91228,-4.03117 -9.65625,-4.03125 z m 0,2.15625 c 3.16797,8e-5 5.85447,1.16483 8.0625,3.46875 2.30396,2.20808 3.43746,4.89457 3.4375,8.0625 -4e-5,3.16807 -1.13354,5.88357 -3.4375,8.1875 -2.20803,2.20806 -4.89453,3.31256 -8.0625,3.3125 -3.16802,6e-5 -5.91477,-1.10444 -8.21875,-3.3125 -2.20802,-2.30393 -3.31252,-5.01943 -3.3125,-8.1875 -2e-5,-3.16793 1.10448,-5.85442 3.3125,-8.0625 2.30398,-2.30392 5.05073,-3.46867 8.21875,-3.46875 z"
         id="path4836-8"
         inkscape:connector-curvature="0" />
      <path
         style="font-size:144px;font-style:normal;font-variant:normal;font-weight:500;font-stretch:normal;text-align:start;line-height:125%;letter-spacing:0px;word-spacing:0px;text-anchor:start;fill:#ff0000;fill-opacity:1;stroke:none;font-family:GL-MahjongTile;-inkscape-font-specification:GL-MahjongTile Medium"
         d="m 300.91518,937.72768 c -2.78402,8e-5 -5.20277,1.01533 -7.21875,3.03125 -1.92002,1.92008 -2.87502,4.27857 -2.875,7.0625 -2e-5,2.78407 0.95498,5.17157 2.875,7.1875 2.01598,1.92006 4.43473,2.87506 7.21875,2.875 2.78397,6e-5 5.14247,-0.95494 7.0625,-2.875 2.01596,-2.01593 2.99996,-4.40343 3,-7.1875 -4e-5,-2.78393 -0.98404,-5.14242 -3,-7.0625 -1.92003,-2.01592 -4.27853,-3.03117 -7.0625,-3.03125 z m 0,1.4375 c 0.95997,8e-5 2.00422,0.20983 3.15625,0.59375 l 0.59375,1.5625 -1.59375,2.3125 -0.59375,0 c -0.38403,-0.0959 -0.89053,-0.15617 -1.5625,-0.15625 -0.67203,8e-5 -1.20978,0.0603 -1.59375,0.15625 l -0.5625,0 -1.59375,-2.3125 0.5625,-1.5625 c 1.15198,-0.38392 2.22747,-0.59367 3.1875,-0.59375 z m -6.625,3.03125 1.71875,0 1.59375,2.3125 c -0.096,0.19207 -0.24552,0.45982 -0.4375,0.84375 -0.19202,0.38407 -0.3415,0.77232 -0.4375,1.15625 -0.096,0.38407 -0.12502,0.86157 -0.125,1.4375 l -0.3125,0.59375 -2.71875,0.84375 -1.3125,-1 0,-0.5625 c -2e-5,-2.11193 0.68723,-3.99292 2.03125,-5.625 z m 11.5,0 1.75,0 c 1.34397,1.63208 1.99996,3.51307 2,5.625 l 0,0.5625 -1.28125,1 -2.75,-0.84375 -0.28125,-0.59375 c -3e-5,-0.57593 -0.0602,-1.05343 -0.15625,-1.4375 -0.096,-0.38393 -0.21428,-0.77218 -0.40625,-1.15625 -0.19203,-0.38393 -0.3415,-0.65168 -0.4375,-0.84375 l 1.5625,-2.3125 z m -4.875,2.71875 c 0.76797,7e-5 1.42397,0.29907 2,0.875 0.57597,0.57607 0.87497,1.26332 0.875,2.03125 -3e-5,0.76807 -0.29903,1.42407 -0.875,2 -0.57603,0.57607 -1.23203,0.87507 -2,0.875 -0.76803,7e-5 -1.45528,-0.29893 -2.03125,-0.875 -0.57602,-0.57593 -0.84377,-1.23193 -0.84375,-2 -2e-5,-0.76793 0.26773,-1.45518 0.84375,-2.03125 0.57597,-0.57593 1.26322,-0.87493 2.03125,-0.875 z m -4.1875,5.0625 0.59375,0.28125 c 0.57598,0.86407 1.38148,1.43082 2.4375,1.71875 l 0.4375,0.4375 0,2.875 -1.3125,0.875 c -2.40002,-0.57594 -4.16052,-1.82994 -5.3125,-3.75 l 0.5625,-1.59375 2.59375,-0.84375 z m 8.34375,0 2.59375,0.84375 0.59375,1.59375 c -1.15203,1.92006 -2.94378,3.17406 -5.34375,3.75 l -1.28125,-0.875 0,-2.875 c 0.86397,-0.38393 1.99747,-1.18943 3.4375,-2.4375 z"
         id="path4834-6"
         inkscape:connector-curvature="0" />
      <path
         style="font-size:144px;font-style:normal;font-variant:normal;font-weight:500;font-stretch:normal;text-align:start;line-height:125%;letter-spacing:0px;word-spacing:0px;text-anchor:start;fill:#ff0000;fill-opacity:1;stroke:none;font-family:GL-MahjongTile;-inkscape-font-specification:GL-MahjongTile Medium"
         d="m 300.90873,946.37079 c 0.95997,7e-5 1.43997,0.48007 1.44,1.44 -3e-5,0.96007 -0.48003,1.44007 -1.44,1.44 -0.96003,7e-5 -1.44003,-0.47993 -1.44,-1.44 -3e-5,-0.95993 0.47997,-1.43993 1.44,-1.44"
         id="path4830-0"
         inkscape:connector-curvature="0" />
      <path
         inkscape:connector-curvature="0"
         style="font-size:144px;font-style:normal;font-variant:normal;font-weight:500;font-stretch:normal;text-align:start;line-height:125%;letter-spacing:0px;word-spacing:0px;text-anchor:start;fill:#0000ff;fill-opacity:1;stroke:none;font-family:GL-MahjongTile;-inkscape-font-specification:GL-MahjongTile Medium"
         d="m 283.63393,901.72768 c -3.74402,8e-5 -6.96827,1.34333 -9.65625,4.03125 -2.68801,2.68808 -4.03126,5.91232 -4.03125,9.65625 -1e-5,3.74407 1.34324,6.93706 4.03125,9.625 2.68798,2.68806 5.91223,4.03131 9.65625,4.03125 3.74397,6e-5 6.96822,-1.34319 9.65625,-4.03125 2.68796,-2.68794 4.03121,-5.88093 4.03125,-9.625 -4e-5,-3.74393 -1.34329,-6.96817 -4.03125,-9.65625 -2.68803,-2.68792 -5.91228,-4.03117 -9.65625,-4.03125 z m 0,2.15625 c 3.16797,8e-5 5.85447,1.16483 8.0625,3.46875 2.30396,2.20808 3.43746,4.89457 3.4375,8.0625 -4e-5,3.16807 -1.13354,5.88357 -3.4375,8.1875 -2.20803,2.20806 -4.89453,3.31256 -8.0625,3.3125 -3.16802,6e-5 -5.91477,-1.10444 -8.21875,-3.3125 -2.20802,-2.30393 -3.31252,-5.01943 -3.3125,-8.1875 -2e-5,-3.16793 1.10448,-5.85442 3.3125,-8.0625 2.30398,-2.30392 5.05073,-3.46867 8.21875,-3.46875 z"
         id="path4836" />
      <path
         inkscape:connector-curvature="0"
         style="font-size:144px;font-style:normal;font-variant:normal;font-weight:500;font-stretch:normal;text-align:start;line-height:125%;letter-spacing:0px;word-spacing:0px;text-anchor:start;fill:#0000ff;fill-opacity:1;stroke:none;font-family:GL-MahjongTile;-inkscape-font-specification:GL-MahjongTile Medium"
         d="m 283.63393,905.32143 c -2.78402,8e-5 -5.20277,1.01533 -7.21875,3.03125 -1.92002,1.92008 -2.87502,4.27857 -2.875,7.0625 -2e-5,2.78407 0.95498,5.17157 2.875,7.1875 2.01598,1.92006 4.43473,2.87506 7.21875,2.875 2.78397,6e-5 5.14247,-0.95494 7.0625,-2.875 2.01596,-2.01593 2.99996,-4.40343 3,-7.1875 -4e-5,-2.78393 -0.98404,-5.14242 -3,-7.0625 -1.92003,-2.01592 -4.27853,-3.03117 -7.0625,-3.03125 z m 0,1.4375 c 0.95997,8e-5 2.00422,0.20983 3.15625,0.59375 l 0.59375,1.5625 -1.59375,2.3125 -0.59375,0 c -0.38403,-0.0959 -0.89053,-0.15617 -1.5625,-0.15625 -0.67203,8e-5 -1.20978,0.0603 -1.59375,0.15625 l -0.5625,0 -1.59375,-2.3125 0.5625,-1.5625 c 1.15198,-0.38392 2.22747,-0.59367 3.1875,-0.59375 z m -6.625,3.03125 1.71875,0 1.59375,2.3125 c -0.096,0.19207 -0.24552,0.45982 -0.4375,0.84375 -0.19202,0.38407 -0.3415,0.77232 -0.4375,1.15625 -0.096,0.38407 -0.12502,0.86157 -0.125,1.4375 l -0.3125,0.59375 -2.71875,0.84375 -1.3125,-1 0,-0.5625 c -2e-5,-2.11193 0.68723,-3.99292 2.03125,-5.625 z m 11.5,0 1.75,0 c 1.34397,1.63208 1.99996,3.51307 2,5.625 l 0,0.5625 -1.28125,1 -2.75,-0.84375 -0.28125,-0.59375 c -3e-5,-0.57593 -0.0602,-1.05343 -0.15625,-1.4375 -0.096,-0.38393 -0.21428,-0.77218 -0.40625,-1.15625 -0.19203,-0.38393 -0.3415,-0.65168 -0.4375,-0.84375 l 1.5625,-2.3125 z m -4.875,2.71875 c 0.76797,7e-5 1.42397,0.29907 2,0.875 0.57597,0.57607 0.87497,1.26332 0.875,2.03125 -3e-5,0.76807 -0.29903,1.42407 -0.875,2 -0.57603,0.57607 -1.23203,0.87507 -2,0.875 -0.76803,7e-5 -1.45528,-0.29893 -2.03125,-0.875 -0.57602,-0.57593 -0.84377,-1.23193 -0.84375,-2 -2e-5,-0.76793 0.26773,-1.45518 0.84375,-2.03125 0.57597,-0.57593 1.26322,-0.87493 2.03125,-0.875 z m -4.1875,5.0625 0.59375,0.28125 c 0.57598,0.86407 1.38148,1.43082 2.4375,1.71875 l 0.4375,0.4375 0,2.875 -1.3125,0.875 c -2.40002,-0.57594 -4.16052,-1.82994 -5.3125,-3.75 l 0.5625,-1.59375 2.59375,-0.84375 z m 8.34375,0 2.59375,0.84375 0.59375,1.59375 c -1.15203,1.92006 -2.94378,3.17406 -5.34375,3.75 l -1.28125,-0.875 0,-2.875 c 0.86397,-0.38393 1.99747,-1.18943 3.4375,-2.4375 z"
         id="path4834" />
      <path
         inkscape:connector-curvature="0"
         style="font-size:144px;font-style:normal;font-variant:normal;font-weight:500;font-stretch:normal;text-align:start;line-height:125%;letter-spacing:0px;word-spacing:0px;text-anchor:start;fill:#0000ff;fill-opacity:1;stroke:none;font-family:GL-MahjongTile;-inkscape-font-specification:GL-MahjongTile Medium"
         d="m 283.62748,913.96454 c 0.95997,7e-5 1.43997,0.48007 1.44,1.44 -3e-5,0.96007 -0.48003,1.44007 -1.44,1.44 -0.96003,7e-5 -1.44003,-0.47993 -1.44,-1.44 -3e-5,-0.95993 0.47997,-1.43993 1.44,-1.44"
         id="path4830" />
    </g>
  </g>
</svg>
