<?xml version="1.0" encoding="UTF-8" standalone="no"?>
<!-- Created with Inkscape (http://www.inkscape.org/) -->

<svg
   xmlns:dc="http://purl.org/dc/elements/1.1/"
   xmlns:cc="http://creativecommons.org/ns#"
   xmlns:rdf="http://www.w3.org/1999/02/22-rdf-syntax-ns#"
   xmlns:svg="http://www.w3.org/2000/svg"
   xmlns="http://www.w3.org/2000/svg"
   xmlns:sodipodi="http://sodipodi.sourceforge.net/DTD/sodipodi-0.dtd"
   xmlns:inkscape="http://www.inkscape.org/namespaces/inkscape"
   width="79.5625"
   height="115.96875"
   id="svg3237"
   version="1.1"
   inkscape:version="0.48.3.1 r9886"
   sodipodi:docname="P7.svg">
  <defs
     id="defs3239" />
  <sodipodi:namedview
     id="base"
     pagecolor="#ffffff"
     bordercolor="#666666"
     borderopacity="1.0"
     inkscape:pageopacity="0.0"
     inkscape:pageshadow="2"
     inkscape:zoom="0.7"
     inkscape:cx="130.65428"
     inkscape:cy="-52.82109"
     inkscape:document-units="px"
     inkscape:current-layer="layer1"
     showgrid="false"
     fit-margin-top="0"
     fit-margin-left="0"
     fit-margin-right="0"
     fit-margin-bottom="0"
     inkscape:window-width="748"
     inkscape:window-height="600"
     inkscape:window-x="399"
     inkscape:window-y="247"
     inkscape:window-maximized="0" />
  <metadata
     id="metadata3242">
    <rdf:RDF>
      <cc:Work
         rdf:about="">
        <dc:format>image/svg+xml</dc:format>
        <dc:type
           rdf:resource="http://purl.org/dc/dcmitype/StillImage" />
        <dc:title />
      </cc:Work>
    </rdf:RDF>
  </metadata>
  <g
     inkscape:label="Layer 1"
     inkscape:groupmode="layer"
     id="layer1"
     transform="translate(280.4375,-259.09375)">
    <rect
       ry="5.4056678"
       y="259.59677"
       x="-279.94394"
       height="114.96053"
       width="78.56237"
       id="rect6731-9-51"
       style="fill:#ffffff;stroke:#000000;stroke-width:1.00899994;stroke-miterlimit:4;stroke-opacity:1;stroke-dasharray:none;stroke-dashoffset:0" />
    <path
       id="path4436-8-1-9"
       d="m -260.18736,269.47081 c -6.76574,0 -12.28125,5.48426 -12.28125,12.25 0,6.76574 5.51551,12.28125 12.28125,12.28125 2.93545,0 5.60901,-1.0531 7.71875,-2.78125 -0.34094,1.12304 -0.53125,2.2975 -0.53125,3.53125 0,6.76574 5.51551,12.28125 12.28125,12.28125 2.8884,0 5.53073,-1.00889 7.625,-2.6875 -0.29013,1.04274 -0.4375,2.1466 -0.4375,3.28125 0,6.76574 5.51551,12.28125 12.28125,12.28125 6.76574,0 12.25,-5.51551 12.25,-12.28125 0,-6.76574 -5.48426,-12.25 -12.25,-12.25 -2.90408,0 -5.58141,0.99901 -7.6875,2.6875 0.29421,-1.05344 0.46875,-2.16662 0.46875,-3.3125 0,-6.76574 -5.48426,-12.25 -12.25,-12.25 -2.93545,0 -5.6336,1.05976 -7.75,2.78125 0.3397,-1.12544 0.53125,-2.32788 0.53125,-3.5625 0,-6.76574 -5.48426,-12.25 -12.25,-12.25 z m 0,2.375 c 5.48249,0 9.875,4.39251 9.875,9.875 0,5.48249 -4.39251,9.90625 -9.875,9.90625 -5.48249,0 -9.90625,-4.42376 -9.90625,-9.90625 0,-5.48249 4.42376,-9.875 9.90625,-9.875 z m -0.0312,1.96875 c -2.11203,0 -3.99303,0.8055 -5.625,2.4375 -1.53603,1.536 -2.28127,3.35675 -2.28125,5.46875 -2e-5,2.112 0.74522,3.993 2.28125,5.625 1.63197,1.5359 3.51297,2.3125 5.625,2.3125 2.11197,0 3.93271,-0.7766 5.46875,-2.3125 1.63196,-1.632 2.46871,-3.513 2.46875,-5.625 -4e-5,-2.112 -0.83679,-3.93275 -2.46875,-5.46875 -1.53604,-1.632 -3.35678,-2.4375 -5.46875,-2.4375 z m 0,1.4375 c 0.95997,0 1.82572,0.1785 2.59375,0.5625 l 0.4375,1.15625 -0.875,1.15625 -1,0.15625 c -0.19203,-0.096 -0.58028,-0.15625 -1.15625,-0.15625 -0.57603,0 -0.96428,0.0599 -1.15625,0.15625 l -1,-0.15625 -0.875,-1.15625 0.4375,-1.15625 c 0.76797,-0.384 1.63372,-0.5625 2.59375,-0.5625 z m -4.90625,2.15625 1.3125,0 0.875,1.15625 c -0.096,0.576 -0.30578,1.11375 -0.59375,1.59375 -0.192,0.48 -0.28128,0.9865 -0.28125,1.5625 -0.28803,0.768 -0.91503,1.2455 -1.875,1.4375 l -1,-0.84375 0,-0.59375 c -3e-5,-1.632 0.50647,-3.0645 1.5625,-4.3125 z m 8.5,0 1.3125,0 c 1.05596,1.248 1.56246,2.6805 1.5625,4.3125 l 0,0.59375 -1,0.84375 -1.28125,-0.40625 -0.59375,-1.03125 c -4e-5,-0.576 -0.14954,-1.0825 -0.4375,-1.5625 -0.19204,-0.48 -0.31025,-1.01775 -0.40625,-1.59375 l 0.84375,-1.15625 z m -3.59375,2.15625 c 0.57597,0 1.05347,0.23875 1.4375,0.71875 0.47997,0.384 0.71872,0.8615 0.71875,1.4375 -3e-5,0.576 -0.23878,1.11375 -0.71875,1.59375 -0.38403,0.384 -0.86153,0.5625 -1.4375,0.5625 -0.57603,0 -1.11378,-0.1785 -1.59375,-0.5625 -0.38403,-0.48 -0.56253,-1.01775 -0.5625,-1.59375 -3e-5,-0.576 0.17847,-1.0535 0.5625,-1.4375 0.47997,-0.48 1.01772,-0.71875 1.59375,-0.71875 z m 0,1.4375 c -0.48003,0 -0.71878,0.23875 -0.71875,0.71875 -3e-5,0.48 0.23872,0.71875 0.71875,0.71875 0.47997,0 0.71872,-0.23875 0.71875,-0.71875 -3e-5,-0.48 -0.23878,-0.71875 -0.71875,-0.71875 z m -3.875,2.3125 0.84375,0.4375 c 0.57597,0.672 1.26322,1.1495 2.03125,1.4375 l 0.71875,0.71875 0,1.4375 -1.15625,0.71875 c -1.63203,-0.384 -3.03553,-1.39925 -4.1875,-3.03125 l 0.4375,-1.28125 1.3125,-0.4375 z m 7.78125,0 1.28125,0.4375 0.4375,1.28125 c -1.15204,1.632 -2.55554,2.64725 -4.1875,3.03125 l -1.15625,-0.71875 0,-1.4375 c 1.24797,-1.248 2.47296,-2.11375 3.625,-2.59375 z m 15.59375,1.5625 c 5.48249,0 9.875,4.39251 9.875,9.875 0,5.48249 -4.39251,9.90625 -9.875,9.90625 -5.48249,0 -9.90625,-4.42376 -9.90625,-9.90625 0,-5.48249 4.42376,-9.875 9.90625,-9.875 z m -0.0312,1.96875 c -2.11203,0 -3.99303,0.8055 -5.625,2.4375 -1.53603,1.536 -2.28127,3.35675 -2.28125,5.46875 -2e-5,2.112 0.74522,3.993 2.28125,5.625 1.63197,1.5359 3.51297,2.3125 5.625,2.3125 2.11197,0 3.93271,-0.7766 5.46875,-2.3125 1.63196,-1.632 2.46871,-3.513 2.46875,-5.625 -4e-5,-2.112 -0.83679,-3.93275 -2.46875,-5.46875 -1.53604,-1.632 -3.35678,-2.4375 -5.46875,-2.4375 z m 0,1.4375 c 0.95997,0 1.82572,0.1785 2.59375,0.5625 l 0.4375,1.15625 -0.875,1.15625 -1,0.15625 c -0.19203,-0.096 -0.58028,-0.15625 -1.15625,-0.15625 -0.57603,0 -0.96428,0.0599 -1.15625,0.15625 l -1,-0.15625 -0.875,-1.15625 0.4375,-1.15625 c 0.76797,-0.384 1.63372,-0.5625 2.59375,-0.5625 z m -4.90625,2.15625 1.3125,0 0.875,1.15625 c -0.096,0.576 -0.30578,1.11375 -0.59375,1.59375 -0.192,0.48 -0.28128,0.9865 -0.28125,1.5625 -0.28803,0.768 -0.91503,1.2455 -1.875,1.4375 l -1,-0.84375 0,-0.59375 c -3e-5,-1.632 0.50647,-3.0645 1.5625,-4.3125 z m 8.5,0 1.3125,0 c 1.05596,1.248 1.56246,2.6805 1.5625,4.3125 l 0,0.59375 -1,0.84375 -1.28135,-0.40625 -0.59375,-1.03125 c -4e-5,-0.576 -0.14954,-1.0825 -0.4375,-1.5625 -0.19204,-0.48 -0.31025,-1.01775 -0.40625,-1.59375 l 0.84375,-1.15625 z m -3.59375,2.15625 c 0.57597,0 1.05347,0.23875 1.4375,0.71875 0.47997,0.384 0.71872,0.8615 0.71875,1.4375 -3e-5,0.576 -0.23878,1.11375 -0.71875,1.59375 -0.38403,0.384 -0.86153,0.5625 -1.4375,0.5625 -0.57603,0 -1.11378,-0.1785 -1.59375,-0.5625 -0.38403,-0.48 -0.56253,-1.01775 -0.5625,-1.59375 -3e-5,-0.576 0.17847,-1.0535 0.5625,-1.4375 0.47997,-0.48 1.01772,-0.71875 1.59375,-0.71875 z m 0,1.4375 c -0.48003,0 -0.71878,0.23875 -0.71875,0.71875 -3e-5,0.48 0.23872,0.71875 0.71875,0.71875 0.47997,0 0.71872,-0.23875 0.71875,-0.71875 -3e-5,-0.48 -0.23878,-0.71875 -0.71875,-0.71875 z m -3.875,2.3125 0.84375,0.4375 c 0.57597,0.672 1.26322,1.1495 2.03125,1.4375 l 0.71875,0.71875 0,1.4375 -1.15625,0.71875 c -1.63203,-0.384 -3.03553,-1.39925 -4.1875,-3.03125 l 0.4374,-1.28125 1.3125,-0.4375 z m 7.78125,0 1.28125,0.4375 0.4375,1.28125 c -1.15204,1.632 -2.55554,2.64725 -4.1875,3.03125 l -1.15625,-0.71875 0,-1.4375 c 1.24797,-1.248 2.47296,-2.11375 3.625,-2.59375 z m 15.59375,1.40625 c 5.48249,0 9.875,4.39251 9.875,9.875 0,5.48249 -4.39251,9.90625 -9.875,9.90625 -5.48249,0 -9.90625,-4.42376 -9.90625,-9.90625 0,-5.48249 4.42376,-9.875 9.90625,-9.875 z m -0.0312,1.96875 c -2.11203,0 -3.99303,0.8055 -5.625,2.4375 -1.53603,1.536 -2.28127,3.35675 -2.28125,5.46875 -2e-5,2.112 0.74522,3.993 2.28125,5.625 1.63197,1.5359 3.51297,2.3125 5.625,2.3125 2.11197,0 3.93271,-0.7766 5.46875,-2.3125 1.63196,-1.632 2.46871,-3.513 2.46875,-5.625 -4e-5,-2.112 -0.83679,-3.93275 -2.46875,-5.46875 -1.53604,-1.632 -3.35678,-2.4375 -5.46875,-2.4375 z m 0,1.4375 c 0.95997,0 1.82572,0.1785 2.59375,0.5625 l 0.4375,1.15625 -0.875,1.15625 -1,0.15625 c -0.19203,-0.096 -0.58028,-0.15625 -1.15625,-0.15625 -0.57603,0 -0.96428,0.0599 -1.15625,0.15625 l -1,-0.15625 -0.875,-1.15625 0.4375,-1.15625 c 0.76797,-0.384 1.63372,-0.5625 2.59375,-0.5625 z m -4.90625,2.15625 1.3125,0 0.875,1.15625 c -0.096,0.576 -0.30578,1.11375 -0.59375,1.59375 -0.192,0.48 -0.28128,0.9865 -0.28125,1.5625 -0.28803,0.768 -0.91503,1.2455 -1.875,1.4375 l -1,-0.84375 0,-0.59375 c -3e-5,-1.632 0.50647,-3.0645 1.5625,-4.3125 z m 8.5,0 1.3125,0 c 1.05596,1.248 1.56246,2.6805 1.5625,4.3125 l 0,0.59375 -1,0.84375 -1.28125,-0.40625 -0.59375,-1.03125 c -4e-5,-0.576 -0.14954,-1.0825 -0.4375,-1.5625 -0.19204,-0.48 -0.31025,-1.01775 -0.40625,-1.59375 l 0.84375,-1.15625 z m -3.59375,2.15625 c 0.57597,0 1.05347,0.23875 1.4375,0.71875 0.47997,0.384 0.71872,0.8615 0.71875,1.4375 -3e-5,0.576 -0.23878,1.11375 -0.71875,1.59375 -0.38403,0.384 -0.86153,0.5625 -1.4375,0.5625 -0.57603,0 -1.11378,-0.1785 -1.59375,-0.5625 -0.38403,-0.48 -0.56253,-1.01775 -0.5625,-1.59375 -3e-5,-0.576 0.17847,-1.0535 0.5625,-1.4375 0.47997,-0.48 1.01772,-0.71875 1.59375,-0.71875 z m 0,1.4375 c -0.48003,0 -0.71878,0.23875 -0.71875,0.71875 -3e-5,0.48 0.23872,0.71875 0.71875,0.71875 0.47997,0 0.71872,-0.23875 0.71875,-0.71875 -3e-5,-0.48 -0.23878,-0.71875 -0.71875,-0.71875 z m -3.875,2.3125 0.8436,0.4375 c 0.57597,0.672 1.26322,1.1495 2.03125,1.4375 l 0.71875,0.71875 0,1.4375 -1.15625,0.71875 c -1.63203,-0.384 -3.03553,-1.39925 -4.1875,-3.03125 l 0.4375,-1.28125 1.3125,-0.4375 z m 7.78125,0 1.28125,0.4375 0.4375,1.28125 c -1.15204,1.632 -2.55554,2.64725 -4.1875,3.03125 l -1.15625,-0.71875 0,-1.4375 c 1.24797,-1.248 2.47296,-2.11375 3.625,-2.59375 z"
       style="font-size:144px;font-style:normal;font-variant:normal;font-weight:500;font-stretch:normal;text-align:start;line-height:125%;letter-spacing:0px;word-spacing:0px;text-anchor:start;fill:#008800;fill-opacity:1;stroke:none;font-family:GL-MahjongTile;-inkscape-font-specification:GL-MahjongTile Medium"
       inkscape:connector-curvature="0" />
    <path
       inkscape:connector-curvature="0"
       id="path4436-8"
       d="m -252.15611,316.97081 c -6.76574,0 -12.28125,5.48426 -12.28125,12.25 0,5.40278 3.51269,9.98868 8.375,11.625 -4.86231,1.62829 -8.375,6.19097 -8.375,11.59375 0,6.76574 5.51551,12.28125 12.28125,12.28125 5.33293,0 9.84889,-3.42275 11.53125,-8.1875 1.74217,4.6674 6.23692,8 11.5,8 6.76574,0 12.25,-5.51551 12.25,-12.28125 0,-5.20362 -3.23633,-9.63079 -7.8125,-11.40625 4.57617,-1.78399 7.8125,-6.23388 7.8125,-11.4375 0,-3.84597 -1.79019,-7.25419 -4.5625,-9.5 -2.84726,-0.0434 -5.46545,-1.07468 -7.53125,-2.75 -0.0526,-6.6e-4 -0.10352,0 -0.15625,0 -5.26308,0 -9.75783,3.30975 -11.5,7.96875 -1.68236,-4.75653 -6.19832,-8.15625 -11.53125,-8.15625 z m 0,2.375 c 5.48249,0 9.875,4.39251 9.875,9.875 0,5.48249 -4.39251,9.90625 -9.875,9.90625 -5.48249,0 -9.90625,-4.42376 -9.90625,-9.90625 0,-5.48249 4.42376,-9.875 9.90625,-9.875 z m 23.03125,0.1875 c 5.48249,0 9.875,4.39251 9.875,9.875 0,5.48249 -4.39251,9.90625 -9.875,9.90625 -5.48249,0 -9.90625,-4.42376 -9.90625,-9.90625 0,-5.48249 4.42376,-9.875 9.90625,-9.875 z m -23.0625,1.78125 c -2.11203,0 -3.99303,0.8055 -5.625,2.4375 -1.53603,1.536 -2.28127,3.35675 -2.28125,5.46875 -2e-5,2.112 0.74522,3.993 2.28125,5.625 1.63197,1.5359 3.51297,2.3125 5.625,2.3125 2.11197,0 3.93271,-0.7766 5.46875,-2.3125 1.63196,-1.632 2.46871,-3.513 2.46875,-5.625 -4e-5,-2.112 -0.83679,-3.93275 -2.46875,-5.46875 -1.53604,-1.632 -3.35678,-2.4375 -5.46875,-2.4375 z m 23.03125,0.1875 c -2.11203,0 -3.99303,0.8055 -5.625,2.4375 -1.53603,1.536 -2.28127,3.35675 -2.28125,5.46875 -2e-5,2.112 0.74522,3.993 2.28125,5.625 1.63197,1.5359 3.51297,2.3125 5.625,2.3125 2.11197,0 3.93271,-0.7766 5.46875,-2.3125 1.63196,-1.632 2.46871,-3.513 2.46875,-5.625 -4e-5,-2.112 -0.83679,-3.93275 -2.46875,-5.46875 -1.53604,-1.632 -3.35678,-2.4375 -5.46875,-2.4375 z m -23.03125,1.25 c 0.95997,0 1.82572,0.1785 2.59375,0.5625 l 0.4375,1.15625 -0.875,1.15625 -1,0.15625 c -0.19203,-0.096 -0.58028,-0.15625 -1.15625,-0.15625 -0.57603,0 -0.96428,0.0599 -1.15625,0.15625 l -1,-0.15625 -0.875,-1.15625 0.4375,-1.15625 c 0.76797,-0.384 1.63372,-0.5625 2.59375,-0.5625 z m 23.03125,0.1875 c 0.95997,0 1.82572,0.1785 2.59375,0.5625 l 0.4375,1.15625 -0.875,1.15625 -1,0.15625 c -0.19203,-0.096 -0.58028,-0.15625 -1.15625,-0.15625 -0.57603,0 -0.96428,0.0599 -1.15625,0.15625 l -1,-0.15625 -0.875,-1.15625 0.4375,-1.15625 c 0.76797,-0.384 1.63372,-0.5625 2.59375,-0.5625 z m -27.9375,1.96875 1.3125,0 0.875,1.15625 c -0.096,0.576 -0.30578,1.11375 -0.59375,1.59375 -0.192,0.48 -0.28128,0.9865 -0.28125,1.5625 -0.28803,0.768 -0.91503,1.2455 -1.875,1.4375 l -1,-0.84375 0,-0.59375 c -3e-5,-1.632 0.50647,-3.0645 1.5625,-4.3125 z m 8.5,0 1.3125,0 c 1.05596,1.248 1.56246,2.6805 1.5625,4.3125 l 0,0.59375 -1,0.84375 -1.28125,-0.40625 -0.59375,-1.03125 c -4e-5,-0.576 -0.14954,-1.0825 -0.4375,-1.5625 -0.19204,-0.48 -0.31025,-1.01775 -0.40625,-1.59375 l 0.84375,-1.15625 z m 14.53125,0.1875 1.3125,0 0.875,1.15625 c -0.096,0.576 -0.30578,1.11375 -0.59375,1.59375 -0.192,0.48 -0.28128,0.9865 -0.28125,1.5625 -0.28803,0.768 -0.91503,1.2455 -1.875,1.4375 l -1,-0.84375 0,-0.59375 c -3e-5,-1.632 0.50647,-3.0645 1.5625,-4.3125 z m 8.5,0 1.3125,0 c 1.05596,1.248 1.56246,2.6805 1.5625,4.3125 l 0,0.59375 -1,0.84375 -1.28125,-0.40625 -0.59375,-1.03125 c -4e-5,-0.576 -0.14954,-1.0825 -0.4375,-1.5625 -0.19204,-0.48 -0.31025,-1.01775 -0.40625,-1.59375 l 0.84375,-1.15625 z m -26.625,1.96875 c 0.57597,0 1.05347,0.23875 1.4375,0.71875 0.47997,0.384 0.71872,0.8615 0.71875,1.4375 -3e-5,0.576 -0.23878,1.11375 -0.71875,1.59375 -0.38403,0.384 -0.86153,0.5625 -1.4375,0.5625 -0.57603,0 -1.11378,-0.1785 -1.59375,-0.5625 -0.38403,-0.48 -0.56253,-1.01775 -0.5625,-1.59375 -3e-5,-0.576 0.17847,-1.0535 0.5625,-1.4375 0.47997,-0.48 1.01772,-0.71875 1.59375,-0.71875 z m 23.03125,0.1875 c 0.57597,0 1.05347,0.23875 1.4375,0.71875 0.47997,0.384 0.71872,0.8615 0.71875,1.4375 -3e-5,0.576 -0.23878,1.11375 -0.71875,1.59375 -0.38403,0.384 -0.86153,0.5625 -1.4375,0.5625 -0.57603,0 -1.11378,-0.1785 -1.59375,-0.5625 -0.38403,-0.48 -0.56253,-1.01775 -0.5625,-1.59375 -3e-5,-0.576 0.17847,-1.0535 0.5625,-1.4375 0.47997,-0.48 1.01772,-0.71875 1.59375,-0.71875 z m -23.03125,1.25 c -0.48003,0 -0.71878,0.23875 -0.71875,0.71875 -3e-5,0.48 0.23872,0.71875 0.71875,0.71875 0.47997,0 0.71872,-0.23875 0.71875,-0.71875 -3e-5,-0.48 -0.23878,-0.71875 -0.71875,-0.71875 z m 23.03125,0.1875 c -0.48003,0 -0.71878,0.23875 -0.71875,0.71875 -3e-5,0.48 0.23872,0.71875 0.71875,0.71875 0.47997,0 0.71872,-0.23875 0.71875,-0.71875 -3e-5,-0.48 -0.23878,-0.71875 -0.71875,-0.71875 z m -26.90625,2.125 0.84375,0.4375 c 0.57597,0.672 1.26322,1.1495 2.03125,1.4375 l 0.71875,0.71875 0,1.4375 -1.15625,0.71875 c -1.63203,-0.384 -3.03553,-1.39925 -4.1875,-3.03125 l 0.4375,-1.28125 1.3125,-0.4375 z m 7.78125,0 1.28125,0.4375 0.4375,1.28125 c -1.15204,1.632 -2.55554,2.64725 -4.1875,3.03125 l -1.15625,-0.71875 0,-1.4375 c 1.24797,-1.248 2.47296,-2.11375 3.625,-2.59375 z m 15.25,0.1875 0.84375,0.4375 c 0.57597,0.672 1.26322,1.1495 2.03125,1.4375 l 0.71875,0.71875 0,1.4375 -1.15625,0.71875 c -1.63203,-0.384 -3.03553,-1.39925 -4.1875,-3.03125 l 0.4375,-1.28125 1.3125,-0.4375 z m 7.78125,0 1.28125,0.4375 0.4375,1.28125 c -1.15204,1.632 -2.55554,2.64725 -4.1875,3.03125 l -1.15625,-0.71875 0,-1.4375 c 1.24797,-1.248 2.47296,-2.11375 3.625,-2.59375 z m -15.4375,2.46875 c 1.19439,3.36628 3.80658,6.08098 7.125,7.375 -3.31842,1.28784 -5.93061,3.98328 -7.125,7.34375 -1.28012,-3.4656 -4.049,-6.1652 -7.5625,-7.34375 3.5135,-1.18436 6.28238,-3.90319 7.5625,-7.375 z m 11.5625,8.90625 c 5.48249,0 9.875,4.39251 9.875,9.875 0,5.48249 -4.39251,9.90625 -9.875,9.90625 -5.48249,0 -9.90625,-4.42376 -9.90625,-9.90625 0,-5.48249 4.42376,-9.875 9.90625,-9.875 z m -23.03125,0.1875 c 5.48249,0 9.875,4.39251 9.875,9.875 0,5.48249 -4.39251,9.90625 -9.875,9.90625 -5.48249,0 -9.90625,-4.42376 -9.90625,-9.90625 0,-5.48249 4.42376,-9.875 9.90625,-9.875 z m 23,1.78125 c -2.11203,0 -3.99303,0.8055 -5.625,2.4375 -1.53603,1.536 -2.28127,3.35675 -2.28125,5.46875 -2e-5,2.112 0.74522,3.993 2.28125,5.625 1.63197,1.5359 3.51297,2.3125 5.625,2.3125 2.11197,0 3.93271,-0.7766 5.46875,-2.3125 1.63196,-1.632 2.46871,-3.513 2.46875,-5.625 -4e-5,-2.112 -0.83679,-3.93275 -2.46875,-5.46875 -1.53604,-1.632 -3.35678,-2.4375 -5.46875,-2.4375 z m -23.03125,0.1875 c -2.11203,0 -3.99303,0.8055 -5.625,2.4375 -1.53603,1.536 -2.28127,3.35675 -2.28125,5.46875 -2e-5,2.112 0.74522,3.993 2.28125,5.625 1.63197,1.5359 3.51297,2.3125 5.625,2.3125 2.11197,0 3.93271,-0.7766 5.46875,-2.3125 1.63196,-1.632 2.46871,-3.513 2.46875,-5.625 -4e-5,-2.112 -0.83679,-3.93275 -2.46875,-5.46875 -1.53604,-1.632 -3.35678,-2.4375 -5.46875,-2.4375 z m 23.03125,1.25 c 0.95997,0 1.82572,0.1785 2.59375,0.5625 l 0.4375,1.15625 -0.875,1.15625 -1,0.15625 c -0.19203,-0.096 -0.58028,-0.15625 -1.15625,-0.15625 -0.57603,0 -0.96428,0.0599 -1.15625,0.15625 l -1,-0.15625 -0.875,-1.15625 0.4375,-1.15625 c 0.76797,-0.384 1.63372,-0.5625 2.59375,-0.5625 z m -23.03125,0.1875 c 0.95997,0 1.82572,0.1785 2.59375,0.5625 l 0.4375,1.15625 -0.875,1.15625 -1,0.15625 c -0.19203,-0.096 -0.58028,-0.15625 -1.15625,-0.15625 -0.57603,0 -0.96428,0.0599 -1.15625,0.15625 l -1,-0.15625 -0.875,-1.15625 0.4375,-1.15625 c 0.76797,-0.384 1.63372,-0.5625 2.59375,-0.5625 z m 18.125,1.96875 1.3125,0 0.875,1.15625 c -0.096,0.576 -0.30578,1.11375 -0.59375,1.59375 -0.192,0.48 -0.28128,0.9865 -0.28125,1.5625 -0.28803,0.768 -0.91503,1.2455 -1.875,1.4375 l -1,-0.84375 0,-0.59375 c -3e-5,-1.632 0.50647,-3.0645 1.5625,-4.3125 z m 8.5,0 1.3125,0 c 1.05596,1.248 1.56246,2.6805 1.5625,4.3125 l 0,0.59375 -1,0.84375 -1.28125,-0.40625 -0.59375,-1.03125 c -4e-5,-0.576 -0.14954,-1.0825 -0.4375,-1.5625 -0.19204,-0.48 -0.31025,-1.01775 -0.40625,-1.59375 l 0.84375,-1.15625 z m -31.53125,0.1875 1.3125,0 0.875,1.15625 c -0.096,0.576 -0.30578,1.11375 -0.59375,1.59375 -0.192,0.48 -0.28128,0.9865 -0.28125,1.5625 -0.28803,0.768 -0.91503,1.2455 -1.875,1.4375 l -1,-0.84375 0,-0.59375 c -3e-5,-1.632 0.50647,-3.0645 1.5625,-4.3125 z m 8.5,0 1.3125,0 c 1.05596,1.248 1.56246,2.6805 1.5625,4.3125 l 0,0.59375 -1,0.84375 -1.28125,-0.40625 -0.59375,-1.03125 c -4e-5,-0.576 -0.14954,-1.0825 -0.4375,-1.5625 -0.19204,-0.48 -0.31025,-1.01775 -0.40625,-1.59375 l 0.84375,-1.15625 z m 19.4375,1.96875 c 0.57597,0 1.05347,0.23875 1.4375,0.71875 0.47997,0.384 0.71872,0.8615 0.71875,1.4375 -3e-5,0.576 -0.23878,1.11375 -0.71875,1.59375 -0.38403,0.384 -0.86153,0.5625 -1.4375,0.5625 -0.57603,0 -1.11378,-0.1785 -1.59375,-0.5625 -0.38403,-0.48 -0.56253,-1.01775 -0.5625,-1.59375 -3e-5,-0.576 0.17847,-1.0535 0.5625,-1.4375 0.47997,-0.48 1.01772,-0.71875 1.59375,-0.71875 z m -23.03125,0.1875 c 0.57597,0 1.05347,0.23875 1.4375,0.71875 0.47997,0.384 0.71872,0.8615 0.71875,1.4375 -3e-5,0.576 -0.23878,1.11375 -0.71875,1.59375 -0.38403,0.384 -0.86153,0.5625 -1.4375,0.5625 -0.57603,0 -1.11378,-0.1785 -1.59375,-0.5625 -0.38403,-0.48 -0.56253,-1.01775 -0.5625,-1.59375 -3e-5,-0.576 0.17847,-1.0535 0.5625,-1.4375 0.47997,-0.48 1.01772,-0.71875 1.59375,-0.71875 z m 23.03125,1.25 c -0.48003,0 -0.71878,0.23875 -0.71875,0.71875 -3e-5,0.48 0.23872,0.71875 0.71875,0.71875 0.47997,0 0.71872,-0.23875 0.71875,-0.71875 -3e-5,-0.48 -0.23878,-0.71875 -0.71875,-0.71875 z m -23.03125,0.1875 c -0.48003,0 -0.71878,0.23875 -0.71875,0.71875 -3e-5,0.48 0.23872,0.71875 0.71875,0.71875 0.47997,0 0.71872,-0.23875 0.71875,-0.71875 -3e-5,-0.48 -0.23878,-0.71875 -0.71875,-0.71875 z m 19.15625,2.125 0.84375,0.4375 c 0.57597,0.672 1.26322,1.1495 2.03125,1.4375 l 0.71875,0.71875 0,1.4375 -1.15625,0.71875 c -1.63203,-0.384 -3.03553,-1.39925 -4.1875,-3.03125 l 0.4375,-1.28125 1.3125,-0.4375 z m 7.78125,0 1.28125,0.4375 0.4375,1.28125 c -1.15204,1.632 -2.55554,2.64725 -4.1875,3.03125 l -1.15625,-0.71875 0,-1.4375 c 1.24797,-1.248 2.47296,-2.11375 3.625,-2.59375 z m -30.8125,0.1875 0.84375,0.4375 c 0.57597,0.672 1.26322,1.1495 2.03125,1.4375 l 0.71875,0.71875 0,1.4375 -1.15625,0.71875 c -1.63203,-0.384 -3.03553,-1.39925 -4.1875,-3.03125 l 0.4375,-1.28125 1.3125,-0.4375 z m 7.78125,0 1.28125,0.4375 0.4375,1.28125 c -1.15204,1.632 -2.55554,2.64725 -4.1875,3.03125 l -1.15625,-0.71875 0,-1.4375 c 1.24797,-1.248 2.47296,-2.11375 3.625,-2.59375 z"
       style="font-size:144px;font-style:normal;font-variant:normal;font-weight:500;font-stretch:normal;text-align:start;line-height:125%;letter-spacing:0px;word-spacing:0px;text-anchor:start;fill:#ff0000;fill-opacity:1;stroke:none;font-family:GL-MahjongTile;-inkscape-font-specification:GL-MahjongTile Medium" />
  </g>
</svg>
