<?xml version="1.0" encoding="UTF-8" standalone="no"?>
<!-- Created with Inkscape (http://www.inkscape.org/) -->

<svg
   xmlns:dc="http://purl.org/dc/elements/1.1/"
   xmlns:cc="http://creativecommons.org/ns#"
   xmlns:rdf="http://www.w3.org/1999/02/22-rdf-syntax-ns#"
   xmlns:svg="http://www.w3.org/2000/svg"
   xmlns="http://www.w3.org/2000/svg"
   xmlns:sodipodi="http://sodipodi.sourceforge.net/DTD/sodipodi-0.dtd"
   xmlns:inkscape="http://www.inkscape.org/namespaces/inkscape"
   width="79.571373"
   height="115.96954"
   id="svg3237"
   version="1.1"
   inkscape:version="0.48.3.1 r9886"
   sodipodi:docname="S1.svg">
  <defs
     id="defs3239" />
  <sodipodi:namedview
     id="base"
     pagecolor="#ffffff"
     bordercolor="#666666"
     borderopacity="1.0"
     inkscape:pageopacity="0.0"
     inkscape:pageshadow="2"
     inkscape:zoom="0.7"
     inkscape:cx="357.54397"
     inkscape:cy="15.634538"
     inkscape:document-units="px"
     inkscape:current-layer="layer1"
     showgrid="false"
     fit-margin-top="0"
     fit-margin-left="0"
     fit-margin-right="0"
     fit-margin-bottom="0"
     inkscape:window-width="748"
     inkscape:window-height="600"
     inkscape:window-x="377"
     inkscape:window-y="234"
     inkscape:window-maximized="0" />
  <metadata
     id="metadata3242">
    <rdf:RDF>
      <cc:Work
         rdf:about="">
        <dc:format>image/svg+xml</dc:format>
        <dc:type
           rdf:resource="http://purl.org/dc/dcmitype/StillImage" />
        <dc:title />
      </cc:Work>
    </rdf:RDF>
  </metadata>
  <g
     inkscape:label="Layer 1"
     inkscape:groupmode="layer"
     id="layer1"
     transform="translate(507.32719,-422.36025)">
    <rect
       ry="5.4056678"
       y="422.86475"
       x="-506.82269"
       height="114.96053"
       width="78.56237"
       id="rect6731-9-4"
       style="fill:#ffffff;stroke:#000000;stroke-width:1.00899994;stroke-miterlimit:4;stroke-opacity:1;stroke-dasharray:none;stroke-dashoffset:0" />
    <g
       transform="translate(-583.87855,-288.32809)"
       id="g7010">
      <path
         style="font-size:144px;font-style:normal;font-variant:normal;font-weight:500;font-stretch:normal;text-align:start;line-height:125%;letter-spacing:0px;word-spacing:0px;text-anchor:start;fill:#008800;fill-opacity:1;stroke:none;font-family:GL-MahjongTile;-inkscape-font-specification:GL-MahjongTile Medium"
         d="m 117.97768,776.00893 c -1.63205,3e-5 -3.0043,0.44853 -4.15625,1.3125 -1.15204,0.76803 -2.01779,1.57353 -2.59375,2.4375 -0.57604,0.86403 -0.96429,1.28128 -1.15625,1.28125 -0.19204,3e-5 -0.66954,-0.47747 -1.4375,-1.4375 -0.76804,-1.05597 -1.63379,-1.56247 -2.59375,-1.5625 -0.57604,3e-5 -0.87504,0.0893 -0.875,0.28125 -4e-5,0.096 0.29896,0.18525 0.875,0.28125 0.57596,0.096 1.11371,0.42403 1.59375,1 0.57596,0.48003 0.84371,1.31678 0.84375,2.46875 -4e-5,0.86402 -0.26779,2.14702 -0.84375,3.875 -0.48004,1.72802 -0.71879,3.07127 -0.71875,4.03125 -4e-5,2.30401 0.74521,3.46876 2.28125,3.46875 0.86396,1e-5 1.93946,-0.83674 3.1875,-2.46875 1.34396,-1.63198 2.47745,-2.43748 3.4375,-2.4375 0.76795,2e-5 1.54445,0.32802 2.3125,1 0.86395,0.57602 1.31245,1.20302 1.3125,1.875 -5e-5,2.11201 -0.77655,3.18751 -2.3125,3.1875 l -0.875,0 c -0.38405,-0.096 -0.71205,-0.15624 -1,-0.15625 -1.05605,1e-5 -2.39929,0.32801 -4.03125,1 -1.63204,0.57601 -2.79679,0.87501 -3.46875,0.875 -2.01604,1e-5 -3.00004,-1.64224 -3,-4.90625 -4e-5,-0.28798 -4e-5,-1.06448 0,-2.3125 0.096,-1.24798 0.12496,-2.11373 0.125,-2.59375 -4e-5,-1.05598 -0.14954,-2.01098 -0.4375,-2.875 -0.19204,-0.95998 -0.43078,-1.61598 -0.71875,-2 -0.28803,-0.38397 -0.52678,-0.59372 -0.71875,-0.59375 -0.19203,3e-5 -0.28128,0.23878 -0.28125,0.71875 -3e-5,0.096 0.0892,0.33477 0.28125,0.71875 0.28797,0.28802 0.43747,0.49775 0.4375,0.59375 -3e-5,0.28802 -0.17853,0.43752 -0.5625,0.4375 -0.096,2e-5 -0.63378,-0.14948 -1.59375,-0.4375 -0.96003,-0.28798 -1.82578,-0.43748 -2.593751,-0.4375 -2.688025,2e-5 -5.374523,1.49277 -8.0625,4.46875 -2.688017,2.88002 -4.031266,6.34301 -4.03125,10.375 -1.6e-5,0.76801 0.08923,1.33476 0.28125,1.71875 4.319979,-1.63199 9.304724,-2.43749 14.968751,-2.4375 0.67197,1e-5 1.77647,0.11826 3.3125,0.40625 1.53596,0.192 2.55121,0.31251 3.03125,0.3125 0.86396,1e-5 2.02871,-0.29899 3.46875,-0.875 1.43996,-0.57599 2.39496,-0.87499 2.875,-0.875 0.67195,1e-5 1.77645,0.14951 3.3125,0.4375 1.53595,0.28801 2.66945,0.43751 3.4375,0.4375 0.57595,1e-5 1.68045,-0.0602 3.3125,-0.15625 1.63194,-0.096 4.13994,-0.12499 7.5,-0.125 2.11193,1e-5 4.85868,0.26776 8.21875,0.84375 3.35993,0.57601 5.12042,0.87501 5.3125,0.875 l 0.4375,-2.4375 c -8e-5,-4.41598 -1.58208,-8.11773 -4.75,-11.09375 -3.16807,-2.97598 -6.18257,-4.46872 -9.0625,-4.46875 -2.11206,3e-5 -3.90381,0.23878 -5.34375,0.71875 l -2.15625,0.59375 c -0.0961,3e-5 -0.75205,-0.86572 -2,-2.59375 -1.24805,-1.82397 -2.8613,-2.74997 -4.78125,-2.75 z m -0.71875,0.59375 c 0.57595,3e-5 0.87495,0.23878 0.875,0.71875 -5e-5,0.48003 -0.29905,0.71878 -0.875,0.71875 -0.67205,3e-5 -1.00005,-0.23872 -1,-0.71875 -5e-5,-0.47997 0.32795,-0.71872 1,-0.71875 z m 2.46875,0.40625 c 0.76795,3e-5 1.1562,0.29903 1.15625,0.875 -5e-5,0.67203 -0.44855,1.00003 -1.3125,1 -0.57605,3e-5 -0.87505,-0.23872 -0.875,-0.71875 -5e-5,-0.76797 0.3592,-1.15622 1.03125,-1.15625 z m -4.625,0.3125 c 0.57595,3e-5 0.87495,0.32803 0.875,1 -5e-5,0.28803 -0.0893,0.52678 -0.28125,0.71875 -0.19205,0.096 -0.4018,0.096 -0.59375,0 -0.76805,3e-5 -1.15629,-0.29897 -1.15625,-0.875 -4e-5,-0.57597 0.3882,-0.84372 1.15625,-0.84375 z m 2.15625,1.4375 c 0.67195,3e-5 1.0312,0.26778 1.03125,0.84375 -5e-5,0.76803 -0.44855,1.15628 -1.3125,1.15625 -0.57605,3e-5 -0.8438,-0.26772 -0.84375,-0.84375 -5e-5,-0.76797 0.35695,-1.15622 1.125,-1.15625 z m 4.34375,0.125 c 0.47995,3e-5 0.7187,0.23878 0.71875,0.71875 -5e-5,0.57603 -0.29905,0.87503 -0.875,0.875 -0.48005,3e-5 -0.7188,-0.29897 -0.71875,-0.875 -5e-5,-0.47997 0.29895,-0.71872 0.875,-0.71875 z m -8.375,0.28125 c 0.57596,3e-5 0.87495,0.20978 0.875,0.59375 -5e-5,0.96003 -0.47754,1.43753 -1.4375,1.4375 -0.57604,3e-5 -0.87504,-0.23872 -0.875,-0.71875 -4e-5,-0.86397 0.47746,-1.31247 1.4375,-1.3125 z m 6.0625,1.15625 c 0.86395,3e-5 1.2812,0.29903 1.28125,0.875 -5e-5,0.28802 -0.1183,0.58702 -0.40625,0.875 -0.28805,0.28802 -0.58705,0.40627 -0.875,0.40625 -0.76805,2e-5 -1.1563,-0.26773 -1.15625,-0.84375 -5e-5,-0.28797 0.14945,-0.58697 0.4375,-0.875 0.28795,-0.28797 0.5267,-0.43747 0.71875,-0.4375 z m -4.1875,0.3125 c 0.67195,3e-5 1.0312,0.32803 1.03125,1 -5e-5,0.67202 -0.3593,1.00002 -1.03125,1 -0.67205,2e-5 -1.00005,-0.32798 -1,-1 -5e-5,-0.67197 0.32795,-0.99997 1,-1 z m 7.21875,0.71875 c 0.57595,3e-5 0.8437,0.17852 0.84375,0.5625 -5e-5,0.19202 -0.17855,0.58027 -0.5625,1.15625 -0.28805,0.48002 -0.43755,0.779 -0.4375,0.875 -5e-5,0.38402 0.2097,0.56252 0.59375,0.5625 l 1.125,-0.71875 c 0.67194,-0.47998 1.50869,-0.95748 2.46875,-1.4375 1.05594,-0.57598 1.92169,-0.87498 2.59375,-0.875 0.38394,2e-5 0.56244,0.0893 0.5625,0.28125 -6e-5,0.28802 -0.80556,0.88602 -2.4375,1.75 -1.53606,0.76802 -2.31256,1.33477 -2.3125,1.71875 -6e-5,0.192 0.0892,0.28127 0.28125,0.28125 0.38394,2e-5 1.24969,-0.32798 2.59375,-1 1.34394,-0.76798 2.18069,-1.15623 2.46875,-1.15625 0.38394,2e-5 0.56244,0.14952 0.5625,0.4375 -6e-5,0.19202 -0.92606,0.72977 -2.75,1.59375 -1.72806,0.76802 -2.59381,1.27452 -2.59375,1.5625 -6e-5,0.096 0.14944,0.15627 0.4375,0.15625 0.19194,2e-5 0.96844,-0.23873 2.3125,-0.71875 1.43994,-0.57598 2.45519,-0.87498 3.03125,-0.875 0.47994,2e-5 0.71869,0.14952 0.71875,0.4375 -6e-5,0.096 -0.0603,0.24552 -0.15625,0.4375 -0.0961,0.096 -0.33481,0.18525 -0.71875,0.28125 -0.28806,0.096 -0.61606,0.18525 -1,0.28125 -0.28806,0.096 -0.76556,0.30577 -1.4375,0.59375 -0.67206,0.19202 -1.29906,0.37052 -1.875,0.5625 -0.19206,0.096 -0.40181,0.24552 -0.59375,0.4375 -0.67206,0.48002 -0.70106,0.71877 -0.125,0.71875 0.28794,2e-5 1.30319,-0.23873 3.03125,-0.71875 1.82394,-0.57598 3.04669,-0.87498 3.71875,-0.875 0.57594,2e-5 0.87494,0.14952 0.875,0.4375 -6e-5,0.48002 -0.53781,0.779 -1.59375,0.875 -4.41606,0.67202 -6.62506,1.32802 -6.625,2 -6e-5,0.192 0.14944,0.31252 0.4375,0.3125 0.47994,2e-5 1.67369,-0.23873 3.59375,-0.71875 2.01594,-0.47998 3.50869,-0.74998 4.46875,-0.75 0.95993,2e-5 1.43743,0.27002 1.4375,0.75 -7e-5,0.48002 -0.50657,0.71877 -1.5625,0.71875 -1.05606,2e-5 -2.84781,0.26776 -5.34375,0.84375 -2.49606,0.48001 -3.75006,0.95751 -3.75,1.4375 -6e-5,0.096 0.20969,0.15626 0.59375,0.15625 0.47994,1e-5 1.82319,-0.20974 4.03125,-0.59375 2.20794,-0.38399 3.85019,-0.56249 4.90625,-0.5625 1.82393,1e-5 2.71868,0.38826 2.71875,1.15625 -7e-5,0.38401 -0.65607,0.56251 -2,0.5625 -2.49606,1e-5 -5.24281,0.23876 -8.21875,0.71875 -2.88005,0.38401 -4.61155,0.59376 -5.1875,0.59375 -0.57605,1e-5 -1.23205,-0.0892 -2,-0.28125 0.86395,-0.86399 1.2812,-2.02874 1.28125,-3.46875 -5e-5,-1.53598 -0.6873,-2.70073 -2.03125,-3.46875 -1.24805,-0.86398 -1.8438,-1.3415 -1.84375,-1.4375 -5e-5,-0.28798 0.7452,-1.27198 2.28125,-3 1.53595,-1.72798 2.61145,-2.59372 3.1875,-2.59375 z m 12.65625,0.5625 c 0.76793,2e-5 1.15618,0.17852 1.15625,0.5625 -7e-5,0.67202 -1.25407,1.03127 -3.75,1.03125 -0.38406,2e-5 -0.56256,-0.20973 -0.5625,-0.59375 -6e-5,-0.19198 0.38819,-0.37048 1.15625,-0.5625 0.86394,-0.28798 1.51993,-0.43748 2,-0.4375 z m -17.84375,0.28125 c 0.76795,2e-5 1.1562,0.44852 1.15625,1.3125 -5e-5,0.67202 -0.3883,1.00002 -1.15625,1 -0.19205,2e-5 -0.49105,-0.0892 -0.875,-0.28125 -0.28805,-0.28798 -0.37729,-0.58698 -0.28125,-0.875 -5e-5,-0.76798 0.3882,-1.15623 1.15625,-1.15625 z m -4.1875,0.28125 c 0.67196,2e-5 0.99996,0.35927 1,1.03125 -4e-5,0.76802 -0.32804,1.15627 -1,1.15625 -0.76804,2e-5 -1.15629,-0.35923 -1.15625,-1.03125 -4e-5,-0.76798 0.38821,-1.15623 1.15625,-1.15625 z m -11.21875,1.46875 c 1.34397,2e-5 1.99997,0.32802 2,1 -3e-5,0.192 -0.14953,0.28127 -0.4375,0.28125 -0.28803,2e-5 -0.76553,-0.0892 -1.4375,-0.28125 -0.67203,-0.19198 -1.00003,-0.43073 -1,-0.71875 -3e-5,-0.192 0.29897,-0.28123 0.875,-0.28125 z m -4.906251,0.125 c 1.439972,2e-5 2.156222,0.29902 2.15625,0.875 -2.8e-5,0.28802 -0.267778,0.43752 -0.84375,0.4375 -1.824026,2e-5 -2.750025,-0.23873 -2.75,-0.71875 -2.5e-5,-0.38398 0.477475,-0.59373 1.4375,-0.59375 z m 40.625001,0.15625 c 0.95993,2e-5 1.43743,0.26777 1.4375,0.84375 -7e-5,0.38402 -0.29907,0.59377 -0.875,0.59375 -0.19207,2e-5 -0.66957,0.029 -1.4375,0.125 -0.76807,2e-5 -1.30582,2e-5 -1.59375,0 -0.57607,2e-5 -0.84382,-0.11823 -0.84375,-0.40625 -7e-5,-0.76798 1.10443,-1.15623 3.3125,-1.15625 z m -22.0625,0.125 c 0.67195,2e-5 1.0312,0.38827 1.03125,1.15625 -5e-5,0.67202 -0.3883,1.00002 -1.15625,1 -0.76805,2e-5 -1.1563,-0.35698 -1.15625,-1.125 -5e-5,-0.67198 0.4172,-1.03123 1.28125,-1.03125 z m -4.3125,0.4375 c 0.67196,2e-5 1.03121,0.38827 1.03125,1.15625 -4e-5,0.19202 -0.14954,0.49102 -0.4375,0.875 -0.19204,0.38402 -0.40179,0.56252 -0.59375,0.5625 -1.15204,2e-5 -1.71879,-0.38823 -1.71875,-1.15625 -4e-5,-0.95998 0.56671,-1.43748 1.71875,-1.4375 z m -10.75,0.59375 c 0.108,-0.018 0.23099,0 0.375,0 0.67197,2e-5 1.35922,0.17852 2.03125,0.5625 0.76797,0.38402 1.15622,0.68302 1.15625,0.875 -3e-5,0.192 -0.0893,0.28127 -0.28125,0.28125 -0.48003,2e-5 -1.25653,-0.14948 -2.3125,-0.4375 -0.96003,-0.28798 -1.43753,-0.58698 -1.437501,-0.875 -2.2e-5,-0.21599 0.144739,-0.35224 0.468751,-0.40625 z m -5.375001,0.71875 c 1.631974,2e-5 2.437473,0.38827 2.4375,1.15625 -2.7e-5,0.28802 -0.328026,0.40627 -1,0.40625 -2.112024,2e-5 -3.156273,-0.26773 -3.15625,-0.84375 -2.3e-5,-0.47998 0.566727,-0.71873 1.71875,-0.71875 z m 18.281251,0.40625 c 0.67196,2e-5 1.0312,0.29902 1.03125,0.875 -5e-5,0.86402 -0.35929,1.31252 -1.03125,1.3125 -0.67204,2e-5 -1.00004,-0.35923 -1,-1.03125 -4e-5,-0.19198 0.0892,-0.43073 0.28125,-0.71875 0.28796,-0.28798 0.52671,-0.43748 0.71875,-0.4375 z m -13.250001,0.75 c 0.575971,2e-5 1.173971,0.0893 1.750001,0.28125 0.57597,0.19202 0.99322,0.37052 1.28125,0.5625 0.28797,0.19202 0.43747,0.40177 0.4375,0.59375 -3e-5,0.096 -0.17853,0.12502 -0.5625,0.125 -0.19203,2e-5 -0.93953,-0.0892 -2.1875,-0.28125 -1.24803,-0.28798 -1.843779,-0.4665 -1.843751,-0.5625 -2.8e-5,-0.47998 0.356971,-0.71873 1.125,-0.71875 z m 38.750001,0 c 1.53593,2e-5 2.31243,0.26777 2.3125,0.84375 -7e-5,0.28802 -0.44857,0.43752 -1.3125,0.4375 -2.49607,2e-5 -3.75007,-0.17848 -3.75,-0.5625 -7e-5,-0.47998 0.92593,-0.71873 2.75,-0.71875 z m -29.65625,0.40625 c 0.67196,2e-5 0.99996,0.29902 1,0.875 -4e-5,0.38402 -0.23879,0.86152 -0.71875,1.4375 -0.38404,0.48002 -0.68304,0.71877 -0.875,0.71875 -0.38404,2e-5 -0.56254,-0.29898 -0.5625,-0.875 -4e-5,-1.43998 0.38821,-2.15623 1.15625,-2.15625 z m -15.406251,1.03125 c 1.535975,2e-5 2.281225,0.26777 2.28125,0.84375 -2.5e-5,0.48002 -0.745275,0.71877 -2.28125,0.71875 -1.728021,2e-5 -2.59377,-0.23873 -2.59375,-0.71875 -2e-5,-0.57598 0.865729,-0.84373 2.59375,-0.84375 z m 17.687501,0.5625 c 0.28796,2e-5 0.43746,0.23877 0.4375,0.71875 -4e-5,0.38402 -0.26779,0.86152 -0.84375,1.4375 -0.48004,0.57601 -0.86829,0.87501 -1.15625,0.875 -0.38404,1e-5 -0.59379,-0.20974 -0.59375,-0.59375 -4e-5,-0.38398 0.23871,-0.86148 0.71875,-1.4375 0.57596,-0.67198 1.05346,-0.99998 1.4375,-1 z m -11.781251,0.15625 c 2.591971,2e-5 3.874971,0.38827 3.875001,1.15625 -3e-5,0.192 -0.41728,0.28127 -1.28125,0.28125 -2.97603,2e-5 -4.468778,-0.23873 -4.468751,-0.71875 -2.7e-5,-0.47998 0.626972,-0.71873 1.875,-0.71875 z m 39.875001,0.5625 c 2.49593,2e-5 3.74993,0.44852 3.75,1.3125 -7e-5,0.38401 -0.29907,0.56251 -0.875,0.5625 -0.38407,1e-5 -1.27882,-0.0892 -2.71875,-0.28125 -1.34407,-0.28798 -2.03132,-0.58698 -2.03125,-0.875 -0.0961,-0.28798 -0.007,-0.4665 0.28125,-0.5625 0.28793,-0.096 0.82568,-0.15623 1.59375,-0.15625 z m -46.500001,1.71875 c 1.151976,1e-5 1.718726,0.23876 1.71875,0.71875 -2.4e-5,0.19201 -0.477524,0.43076 -1.4375,0.71875 -0.864022,0.28801 -1.640521,0.43751 -2.3125,0.4375 -0.960019,1e-5 -1.437519,-0.17849 -1.4375,-0.5625 -1.9e-5,-0.86399 1.16473,-1.31249 3.46875,-1.3125 z m 5.03125,0 c 3.743971,1e-5 5.624971,0.38826 5.625001,1.15625 -3e-5,0.28801 -0.59803,0.37725 -1.75,0.28125 -0.67203,-0.096 -1.38828,-0.12499 -2.156251,-0.125 l -1.71875,0 -1,0 c -0.288026,-0.096 -0.49778,-0.15624 -0.59375,-0.15625 -0.09603,-0.096 -0.125026,-0.24549 -0.125,-0.4375 -2.6e-5,-0.47999 0.566724,-0.71874 1.71875,-0.71875 z m 41.906251,1.59375 c 0.86393,1e-5 1.66943,0.0893 2.4375,0.28125 0.95993,0.19201 1.43743,0.66951 1.4375,1.4375 -7e-5,0.384 -0.23882,0.5335 -0.71875,0.4375 -2.97607,-0.28799 -4.46882,-0.85474 -4.46875,-1.71875 -7e-5,-0.28799 0.44843,-0.43749 1.3125,-0.4375 z m -36.71875,1.15625 c 0.67197,1e-5 0.99996,0.17851 1,0.5625 -4e-5,0.38401 -0.62703,0.59376 -1.875,0.59375 -0.57603,1e-5 -1.38153,0.029 -2.437501,0.125 l -2.15625,0 c -1.248026,1e-5 -1.875025,-0.17849 -1.875,-0.5625 -2.5e-5,-0.47999 2.447722,-0.71874 7.343751,-0.71875 z m -10.656251,0.4375 c 1.151977,1e-5 1.718726,0.17851 1.71875,0.5625 -2.4e-5,0.28801 -0.716273,0.67626 -2.15625,1.15625 -1.44002,0.38401 -2.395019,0.56251 -2.875,0.5625 -0.384018,1e-5 -0.593768,-0.17849 -0.59375,-0.5625 -1.8e-5,-0.19199 0.120482,-0.43074 0.3125,-0.71875 0.287981,-0.28799 0.705231,-0.52674 1.28125,-0.71875 0.67198,-0.192 1.448479,-0.28124 2.3125,-0.28125 z"
         id="path5681"
         inkscape:connector-curvature="0" />
      <path
         style="font-size:144px;font-style:normal;font-variant:normal;font-weight:500;font-stretch:normal;text-align:start;line-height:125%;letter-spacing:0px;word-spacing:0px;text-anchor:start;fill:#000000;fill-opacity:1;stroke:none;font-family:GL-MahjongTile;-inkscape-font-specification:GL-MahjongTile Medium"
         d="m 120.87148,767.51654 c 0.86395,4e-5 1.29595,0.38404 1.296,1.152 -5e-5,1.15204 -0.48005,1.72804 -1.44,1.728 -0.86405,4e-5 -1.29605,-0.52796 -1.296,-1.584 -5e-5,-0.86396 0.47995,-1.29596 1.44,-1.296"
         id="path5811"
         inkscape:connector-curvature="0" />
      <path
         style="font-size:144px;font-style:normal;font-variant:normal;font-weight:500;font-stretch:normal;text-align:start;line-height:125%;letter-spacing:0px;word-spacing:0px;text-anchor:start;fill:#000000;fill-opacity:1;stroke:none;font-family:GL-MahjongTile;-inkscape-font-specification:GL-MahjongTile Medium"
         d="m 110.21548,768.23654 c -4e-5,-0.95996 0.47996,-1.43996 1.44,-1.44 0.95996,4e-5 1.43996,0.52804 1.44,1.584 -4e-5,0.76804 -0.43204,1.15204 -1.296,1.152 -1.05604,4e-5 -1.58404,-0.43196 -1.584,-1.296"
         id="path5809"
         inkscape:connector-curvature="0" />
      <path
         style="font-size:144px;font-style:normal;font-variant:normal;font-weight:500;font-stretch:normal;text-align:start;line-height:125%;letter-spacing:0px;word-spacing:0px;text-anchor:start;fill:#000000;fill-opacity:1;stroke:none;font-family:GL-MahjongTile;-inkscape-font-specification:GL-MahjongTile Medium"
         d="m 130.23148,764.63654 c -6e-5,0.28804 -0.14406,0.57604 -0.432,0.864 -0.28806,0.28804 -0.52806,0.43204 -0.72,0.432 -0.96006,4e-5 -1.44006,-0.33596 -1.44,-1.008 -6e-5,-1.05596 0.43194,-1.58396 1.296,-1.584 0.86394,4e-5 1.29594,0.43204 1.296,1.296"
         id="path5807"
         inkscape:connector-curvature="0" />
      <path
         style="font-size:144px;font-style:normal;font-variant:normal;font-weight:500;font-stretch:normal;text-align:start;line-height:125%;letter-spacing:0px;word-spacing:0px;text-anchor:start;fill:#000000;fill-opacity:1;stroke:none;font-family:GL-MahjongTile;-inkscape-font-specification:GL-MahjongTile Medium"
         d="m 104.45548,758.30054 c 0.95997,5e-5 1.43997,0.57605 1.44,1.728 -3e-5,0.76805 -0.52803,1.15205 -1.584,1.152 -0.96003,5e-5 -1.44003,-0.38395 -1.44,-1.152 -3e-5,-1.15195 0.52797,-1.72795 1.584,-1.728"
         id="path5805"
         inkscape:connector-curvature="0" />
      <path
         style="font-size:144px;font-style:normal;font-variant:normal;font-weight:500;font-stretch:normal;text-align:start;line-height:125%;letter-spacing:0px;word-spacing:0px;text-anchor:start;fill:#000000;fill-opacity:1;stroke:none;font-family:GL-MahjongTile;-inkscape-font-specification:GL-MahjongTile Medium"
         d="m 115.39948,759.59654 c -4e-5,0.76805 -0.43204,1.15205 -1.296,1.152 -1.05604,5e-5 -1.58404,-0.38395 -1.584,-1.152 -4e-5,-1.05595 0.47996,-1.58395 1.44,-1.584 0.95996,5e-5 1.43996,0.52805 1.44,1.584"
         id="path5803"
         inkscape:connector-curvature="0" />
      <path
         style="font-size:144px;font-style:normal;font-variant:normal;font-weight:500;font-stretch:normal;text-align:start;line-height:125%;letter-spacing:0px;word-spacing:0px;text-anchor:start;fill:#000000;fill-opacity:1;stroke:none;font-family:GL-MahjongTile;-inkscape-font-specification:GL-MahjongTile Medium"
         d="m 122.02348,758.58854 c -5e-5,-1.05595 0.47995,-1.58395 1.44,-1.584 0.95995,5e-5 1.43995,0.57605 1.44,1.728 -5e-5,0.86405 -0.52805,1.29605 -1.584,1.296 -0.86405,5e-5 -1.29605,-0.47995 -1.296,-1.44"
         id="path5801"
         inkscape:connector-curvature="0" />
      <path
         style="font-size:144px;font-style:normal;font-variant:normal;font-weight:500;font-stretch:normal;text-align:start;line-height:125%;letter-spacing:0px;word-spacing:0px;text-anchor:start;fill:#000000;fill-opacity:1;stroke:none;font-family:GL-MahjongTile;-inkscape-font-specification:GL-MahjongTile Medium"
         d="m 132.82348,758.87654 c -1.15206,5e-5 -1.72806,-0.43195 -1.728,-1.296 -6e-5,-0.47995 0.19194,-0.86395 0.576,-1.152 0.38394,-0.38395 0.76794,-0.57595 1.152,-0.576 0.76794,5e-5 1.15194,0.52805 1.152,1.584 -6e-5,0.96005 -0.38406,1.44005 -1.152,1.44"
         id="path5799"
         inkscape:connector-curvature="0" />
      <path
         style="font-size:144px;font-style:normal;font-variant:normal;font-weight:500;font-stretch:normal;text-align:start;line-height:125%;letter-spacing:0px;word-spacing:0px;text-anchor:start;fill:#000000;fill-opacity:1;stroke:none;font-family:GL-MahjongTile;-inkscape-font-specification:GL-MahjongTile Medium"
         d="m 118.56748,749.66054 c 1.05595,6e-5 1.58395,0.48006 1.584,1.44 -5e-5,0.96005 -0.52805,1.44005 -1.584,1.44 -1.05605,5e-5 -1.58405,-0.47995 -1.584,-1.44 -5e-5,-0.95994 0.52795,-1.43994 1.584,-1.44"
         id="path5797"
         inkscape:connector-curvature="0" />
      <path
         style="font-size:144px;font-style:normal;font-variant:normal;font-weight:500;font-stretch:normal;text-align:start;line-height:125%;letter-spacing:0px;word-spacing:0px;text-anchor:start;fill:#000000;fill-opacity:1;stroke:none;font-family:GL-MahjongTile;-inkscape-font-specification:GL-MahjongTile Medium"
         d="m 105.89548,750.66854 c -3e-5,-0.38394 0.19196,-0.76794 0.576,-1.152 0.38396,-0.38394 0.76796,-0.57594 1.152,-0.576 0.38396,6e-5 0.71996,0.19206 1.008,0.576 0.38396,0.38406 0.57596,0.76806 0.576,1.152 -4e-5,0.86405 -0.57604,1.29605 -1.728,1.296 -1.05604,5e-5 -1.58403,-0.43195 -1.584,-1.296"
         id="path5795"
         inkscape:connector-curvature="0" />
      <path
         style="font-size:144px;font-style:normal;font-variant:normal;font-weight:500;font-stretch:normal;text-align:start;line-height:125%;letter-spacing:0px;word-spacing:0px;text-anchor:start;fill:#000000;fill-opacity:1;stroke:none;font-family:GL-MahjongTile;-inkscape-font-specification:GL-MahjongTile Medium"
         d="m 128.79148,749.37254 c -6e-5,-1.05594 0.47994,-1.58394 1.44,-1.584 0.86394,6e-5 1.29594,0.48006 1.296,1.44 -6e-5,0.96006 -0.52806,1.44006 -1.584,1.44 -0.76806,6e-5 -1.15206,-0.43194 -1.152,-1.296"
         id="path5793"
         inkscape:connector-curvature="0" />
      <path
         style="font-size:144px;font-style:normal;font-variant:normal;font-weight:500;font-stretch:normal;text-align:start;line-height:125%;letter-spacing:0px;word-spacing:0px;text-anchor:start;fill:#000000;fill-opacity:1;stroke:none;font-family:GL-MahjongTile;-inkscape-font-specification:GL-MahjongTile Medium"
         d="m 114.82348,744.33254 c -1.05604,6e-5 -1.58404,-0.47994 -1.584,-1.44 -4e-5,-0.95994 0.62396,-1.43993 1.872,-1.44 0.86396,7e-5 1.29595,0.43206 1.296,1.296 -5e-5,1.05606 -0.52804,1.58406 -1.584,1.584"
         id="path5791"
         inkscape:connector-curvature="0" />
      <path
         style="font-size:144px;font-style:normal;font-variant:normal;font-weight:500;font-stretch:normal;text-align:start;line-height:125%;letter-spacing:0px;word-spacing:0px;text-anchor:start;fill:#000000;fill-opacity:1;stroke:none;font-family:GL-MahjongTile;-inkscape-font-specification:GL-MahjongTile Medium"
         d="m 124.47148,744.33254 c -0.86405,6e-5 -1.29605,-0.43194 -1.296,-1.296 -5e-5,-1.05594 0.47995,-1.58393 1.44,-1.584 0.95995,7e-5 1.43995,0.43206 1.44,1.296 -5e-5,1.05606 -0.52805,1.58406 -1.584,1.584"
         id="path5789"
         inkscape:connector-curvature="0" />
      <path
         style="font-size:144px;font-style:normal;font-variant:normal;font-weight:500;font-stretch:normal;text-align:start;line-height:125%;letter-spacing:0px;word-spacing:0px;text-anchor:start;fill:#ff0000;fill-opacity:1;stroke:none;font-family:GL-MahjongTile;-inkscape-font-specification:GL-MahjongTile Medium"
         d="m 112.95148,808.70054 c -4e-5,0.288 -0.19204,0.432 -0.576,0.432 -0.19204,0 -0.48004,-0.096 -0.864,-0.288 -0.28804,-0.288 -0.52804,-0.384 -0.72,-0.288 -0.096,0 -0.96004,0.576 -2.592,1.728 -1.63204,1.056 -2.68803,1.58399 -3.168,1.584 -0.28803,-1e-5 -0.43203,-0.14401 -0.432,-0.432 -3e-5,-0.096 0.43197,-0.576 1.296,-1.44 0.95996,-0.864 1.43996,-1.344 1.44,-1.44 -4e-5,-0.096 -0.096,-0.144 -0.288,-0.144 -0.57604,0 -1.29603,0.096 -2.16,0.288 -0.76803,0.096 -1.20003,0.144 -1.296,0.144 -0.28803,0 -0.43203,-0.096 -0.432,-0.288 -3e-5,-0.672 1.77597,-1.2 5.328,-1.584 0.67196,-0.096 1.10396,-0.336 1.296,-0.72 0.19196,-0.384 0.28796,-1.392 0.288,-3.024 -4e-5,-0.672 -0.096,-1.344 -0.288,-2.016 -0.096,-0.76799 -0.14404,-1.19999 -0.144,-1.296 -4e-5,-0.19199 0.14396,-0.28799 0.432,-0.288 1.05596,10e-6 1.82396,0.38401 2.304,1.152 0.096,0.19201 0.14396,0.57601 0.144,1.152 -4e-5,2.016 -0.24004,3.744 -0.72,5.184 0.76796,0.576 1.15196,1.104 1.152,1.584"
         id="path5787"
         inkscape:connector-curvature="0" />
      <path
         style="font-size:144px;font-style:normal;font-variant:normal;font-weight:500;font-stretch:normal;text-align:start;line-height:125%;letter-spacing:0px;word-spacing:0px;text-anchor:start;fill:#ff0000;fill-opacity:1;stroke:none;font-family:GL-MahjongTile;-inkscape-font-specification:GL-MahjongTile Medium"
         d="m 120.29548,805.10054 c -5e-5,1.344 0.096,2.256 0.288,2.736 0.28795,0.384 0.86395,0.672 1.728,0.864 0.95995,0.096 1.77595,0.336 2.448,0.72 -5e-5,0.096 0.048,0.192 0.144,0.288 0.19195,0.096 0.28795,0.192 0.288,0.288 -5e-5,0.192 -0.24005,0.288 -0.72,0.288 -0.19205,0 -0.91205,-0.096 -2.16,-0.288 -1.15205,-0.192 -1.92005,-0.288 -2.304,-0.288 -0.0961,0 -0.62405,0.384 -1.584,1.152 -0.86405,0.67199 -1.53605,1.00799 -2.016,1.008 -0.19205,-1e-5 -0.28805,-0.14401 -0.288,-0.432 -5e-5,-0.096 0.19195,-0.336 0.576,-0.72 0.76795,-0.96 1.00795,-1.44 0.72,-1.44 -0.0961,0 -0.72005,0.24 -1.872,0.72 -1.05604,0.48 -1.77604,0.72 -2.16,0.72 -0.28804,0 -0.43204,-0.096 -0.432,-0.288 -4e-5,-0.288 0.86396,-0.96 2.592,-2.016 1.72795,-1.152 2.59195,-2.448 2.592,-3.888 -5e-5,-0.384 -0.0481,-0.816 -0.144,-1.296 -5e-5,-0.576 -0.048,-1.152 -0.144,-1.728 -0.0961,-0.67199 -0.14405,-1.19999 -0.144,-1.584 -0.0961,-0.28799 -5e-5,-0.43199 0.288,-0.432 l 0.144,0 c 1.63195,10e-6 2.44795,0.48001 2.448,1.44 -5e-5,0.38401 -0.048,1.104 -0.144,2.16 -0.0961,0.96 -0.14405,1.632 -0.144,2.016"
         id="path5785"
         inkscape:connector-curvature="0" />
      <path
         style="font-size:144px;font-style:normal;font-variant:normal;font-weight:500;font-stretch:normal;text-align:start;line-height:125%;letter-spacing:0px;word-spacing:0px;text-anchor:start;fill:#008800;fill-opacity:1;stroke:none;font-family:GL-MahjongTile;-inkscape-font-specification:GL-MahjongTile Medium"
         d="m 106.75948,782.20454 c -4e-5,0.28802 -0.14404,0.43202 -0.432,0.432 -0.28803,2e-5 -0.62403,-0.28798 -1.008,-0.864 -0.38403,-0.57597 -0.57603,-1.05597 -0.576,-1.44 -3e-5,-0.19197 0.096,-0.28797 0.288,-0.288 0.38397,3e-5 0.76797,0.28803 1.152,0.864 0.38396,0.48003 0.57596,0.91202 0.576,1.296"
         id="path5783"
         inkscape:connector-curvature="0" />
      <path
         style="font-size:144px;font-style:normal;font-variant:normal;font-weight:500;font-stretch:normal;text-align:start;line-height:125%;letter-spacing:0px;word-spacing:0px;text-anchor:start;fill:#000000;fill-opacity:1;stroke:none;font-family:GL-MahjongTile;-inkscape-font-specification:GL-MahjongTile Medium"
         d="m 134.98348,778.31654 c -0.28806,3e-5 -0.43206,-0.048 -0.432,-0.144 -6e-5,-0.096 0.28794,-0.28797 0.864,-0.576 0.67193,-0.38397 1.48793,-0.71997 2.448,-1.008 0.95993,-0.28797 1.77593,-0.43197 2.448,-0.432 0.86393,3e-5 1.43993,0.28803 1.728,0.864 0.0959,0.19203 0.0479,0.33603 -0.144,0.432 -0.19207,3e-5 -0.62407,3e-5 -1.296,0 -1.05607,0.096 -2.06407,0.24003 -3.024,0.432 -0.86407,0.096 -1.48807,0.19203 -1.872,0.288 -0.38406,0.096 -0.62406,0.14403 -0.72,0.144"
         id="path5721"
         inkscape:connector-curvature="0" />
      <path
         style="font-size:144px;font-style:normal;font-variant:normal;font-weight:500;font-stretch:normal;text-align:start;line-height:125%;letter-spacing:0px;word-spacing:0px;text-anchor:start;fill:#000000;fill-opacity:1;stroke:none;font-family:GL-MahjongTile;-inkscape-font-specification:GL-MahjongTile Medium"
         d="m 95.959481,777.88454 c -0.768025,3e-5 -2.112023,-0.19197 -4.032,-0.576 -1.82402,-0.47997 -2.736019,-0.95997 -2.736,-1.44 -1.9e-5,-0.19197 0.527981,-0.28797 1.584,-0.288 0.479979,3e-5 1.151979,0.19203 2.016,0.576 0.959977,0.28803 1.775976,0.62403 2.448,1.008 0.671975,0.28803 1.007974,0.48003 1.008,0.576 -2.6e-5,0.096 -0.09603,0.14403 -0.288,0.144"
         id="path5719"
         inkscape:connector-curvature="0" />
      <path
         style="font-size:144px;font-style:normal;font-variant:normal;font-weight:500;font-stretch:normal;text-align:start;line-height:125%;letter-spacing:0px;word-spacing:0px;text-anchor:start;fill:#ff0000;fill-opacity:1;stroke:none;font-family:GL-MahjongTile;-inkscape-font-specification:GL-MahjongTile Medium"
         d="m 99.703481,774.28454 c -2.9e-5,-0.096 0.09597,-0.14397 0.288,-0.144 0.287969,3e-5 1.055969,0.62403 2.303999,1.872 1.24797,1.24803 1.87197,2.20803 1.872,2.88 -3e-5,0.67203 -0.28803,1.00803 -0.864,1.008 -0.76803,3e-5 -1.72803,-0.23997 -2.88,-0.72 -1.152028,-0.47997 -1.728027,-0.86397 -1.727999,-1.152 -2.8e-5,-0.096 0.143972,-0.14397 0.432,-0.144 0.287971,3e-5 0.767971,0.096 1.439999,0.288 0.76797,0.19203 1.19997,0.28803 1.296,0.288 0.19197,3e-5 0.28797,-0.096 0.288,-0.288 -3e-5,-0.38397 -0.43203,-1.05597 -1.296,-2.016 -0.76803,-1.05597 -1.152028,-1.67997 -1.151999,-1.872"
         id="path5717"
         inkscape:connector-curvature="0" />
      <path
         style="font-size:144px;font-style:normal;font-variant:normal;font-weight:500;font-stretch:normal;text-align:start;line-height:125%;letter-spacing:0px;word-spacing:0px;text-anchor:start;fill:#000000;fill-opacity:1;stroke:none;font-family:GL-MahjongTile;-inkscape-font-specification:GL-MahjongTile Medium"
         d="m 131.95948,776.73254 c -6e-5,-0.096 0.52794,-0.52797 1.584,-1.296 1.15194,-0.86397 2.49594,-1.67997 4.032,-2.448 1.63193,-0.86397 2.87993,-1.29597 3.744,-1.296 0.86393,3e-5 1.29593,0.14403 1.296,0.432 -7e-5,0.28803 -3.21607,1.77603 -9.648,4.464 -0.76806,0.38403 -1.10406,0.43203 -1.008,0.144"
         id="path5715"
         inkscape:connector-curvature="0" />
      <path
         style="font-size:144px;font-style:normal;font-variant:normal;font-weight:500;font-stretch:normal;text-align:start;line-height:125%;letter-spacing:0px;word-spacing:0px;text-anchor:start;fill:#000000;fill-opacity:1;stroke:none;font-family:GL-MahjongTile;-inkscape-font-specification:GL-MahjongTile Medium"
         d="m 98.407481,775.58054 c -2.8e-5,0.19203 -0.09603,0.28803 -0.288,0.288 -0.384027,3e-5 -1.728026,-0.95997 -4.032,-2.88 -0.768023,-0.57597 -1.728022,-1.10397 -2.88,-1.584 -1.05602,-0.57596 -1.920019,-1.00796 -2.592,-1.296 -0.672017,-0.28796 -1.008017,-0.47996 -1.008,-0.576 -1.7e-5,-0.19196 0.383983,-0.28796 1.152,-0.288 1.53598,0.096 3.071979,0.62404 4.608,1.584 1.631976,0.96003 2.879974,1.92003 3.744,2.88 0.863973,0.86403 1.295972,1.48803 1.296,1.872"
         id="path5713"
         inkscape:connector-curvature="0" />
      <path
         style="font-size:144px;font-style:normal;font-variant:normal;font-weight:500;font-stretch:normal;text-align:start;line-height:125%;letter-spacing:0px;word-spacing:0px;text-anchor:start;fill:#000000;fill-opacity:1;stroke:none;font-family:GL-MahjongTile;-inkscape-font-specification:GL-MahjongTile Medium"
         d="m 126.91948,776.87654 c 2.68794,-2.97597 5.47194,-5.37597 8.352,-7.2 2.87993,-1.82396 5.08793,-2.73596 6.624,-2.736 0.57593,4e-5 0.86393,0.19204 0.864,0.576 -7e-5,0.19204 -0.0961,0.33604 -0.288,0.432 -0.48007,0.38404 -1.48807,0.96004 -3.024,1.728 -1.53607,0.67204 -2.54407,1.15204 -3.024,1.44 -1.92006,1.24803 -3.69606,2.44803 -5.328,3.6 -1.53606,1.15203 -2.64006,1.96803 -3.312,2.448 -0.57606,0.38403 -0.96006,0.57603 -1.152,0.576 -0.38406,3e-5 -0.28806,-0.28797 0.288,-0.864"
         id="path5711"
         inkscape:connector-curvature="0" />
      <path
         style="font-size:144px;font-style:normal;font-variant:normal;font-weight:500;font-stretch:normal;text-align:start;line-height:125%;letter-spacing:0px;word-spacing:0px;text-anchor:start;fill:#000000;fill-opacity:1;stroke:none;font-family:GL-MahjongTile;-inkscape-font-specification:GL-MahjongTile Medium"
         d="m 89.623481,763.34054 c 0.57598,4e-5 1.535979,0.24004 2.88,0.72 1.343977,0.48004 3.023975,1.48804 5.04,3.024 2.111971,1.53604 3.791969,3.45604 5.039999,5.76 0.38397,0.96003 0.57597,1.48803 0.576,1.584 -3e-5,0.28803 -0.096,0.43203 -0.288,0.432 l -1.584,-1.584 c -5.376024,-5.27996 -9.31202,-8.39996 -11.807999,-9.36 -0.288019,-0.096 -0.432018,-0.23996 -0.432,-0.432 -1.8e-5,-0.096 0.191981,-0.14396 0.576,-0.144"
         id="path5709"
         inkscape:connector-curvature="0" />
      <path
         style="font-size:144px;font-style:normal;font-variant:normal;font-weight:500;font-stretch:normal;text-align:start;line-height:125%;letter-spacing:0px;word-spacing:0px;text-anchor:start;fill:#000000;fill-opacity:1;stroke:none;font-family:GL-MahjongTile;-inkscape-font-specification:GL-MahjongTile Medium"
         d="m 111.50893,725.47768 c -0.28804,8e-5 -0.43754,0.74533 -0.4375,2.28125 -4e-5,0.86408 0.14946,2.56658 0.4375,5.0625 0.38396,2.49607 0.59371,3.92857 0.59375,4.3125 -4e-5,0.96007 -0.14954,1.43757 -0.4375,1.4375 -0.19204,7e-5 -0.66954,-2.03043 -1.4375,-6.0625 -0.76804,-4.12792 -1.51554,-6.18742 -2.1875,-6.1875 -0.19204,8e-5 -0.28129,0.47758 -0.28125,1.4375 -4e-5,1.92008 0.44846,4.36782 1.3125,7.34375 0.86396,2.88007 1.28121,4.52232 1.28125,4.90625 -4e-5,0.48007 -0.17854,0.71882 -0.5625,0.71875 -0.28804,7e-5 -1.00429,-2.20893 -2.15625,-6.625 -1.05604,-4.51192 -1.77229,-6.74992 -2.15625,-6.75 -0.28804,8e-5 -0.43754,0.26783 -0.4375,0.84375 -4e-5,1.34408 0.56671,4.09082 1.71875,8.21875 1.24796,4.03207 1.87496,6.0916 1.875,6.1875 -0.19204,0.28806 -0.58029,0.0493 -1.15625,-0.71875 l -2,-4.1875 c -1.24804,-2.78393 -1.99553,-4.15618 -2.1875,-4.15625 -0.28803,7e-5 -0.40628,0.14957 -0.40625,0.4375 -3e-5,0.38407 0.56672,1.84557 1.71875,4.4375 1.15196,2.59207 1.71871,4.08481 1.71875,4.46875 -4e-5,0.38406 -0.0893,0.59381 -0.28125,0.59375 -0.096,6e-5 -0.81229,-1.40344 -2.15625,-4.1875 -1.34403,-2.87993 -2.14953,-4.31243 -2.4375,-4.3125 -0.19203,7e-5 -0.31253,0.17857 -0.3125,0.5625 -3e-5,0.57607 0.53772,1.83007 1.59375,3.75 1.05597,1.92007 1.59371,2.96431 1.59375,3.15625 -4e-5,0.1921 -0.12054,0.31256 -0.3125,0.3125 -0.28803,6e-5 -1.33228,-1.55293 -3.15625,-4.625 -1.824029,-3.07193 -2.928528,-4.59368 -3.312501,-4.59375 -0.288027,7e-5 -0.437527,0.14957 -0.4375,0.4375 -2.7e-5,0.48007 1.104472,2.32982 3.312501,5.59375 2.30397,3.16806 3.46872,4.95981 3.46875,5.34375 -3e-5,0.0961 -0.0893,0.12506 -0.28125,0.125 -0.38403,6e-5 -1.84778,-1.82069 -4.343751,-5.46875 -2.496026,-3.64793 -3.839275,-5.46868 -4.03125,-5.46875 -0.288024,7e-5 -0.406274,0.14957 -0.40625,0.4375 -2.4e-5,1.05607 1.222725,3.26507 3.71875,6.625 2.591971,3.36006 3.906221,5.18081 3.906251,5.46875 -3e-5,0.1921 -0.0893,0.28131 -0.28125,0.28125 -0.67203,6e-5 -2.46378,-2.14869 -5.343751,-6.46875 -2.784023,-4.31993 -4.305772,-6.46868 -4.59375,-6.46875 -0.288021,7e-5 -0.437521,0.11832 -0.4375,0.40625 -2.1e-5,1.34407 1.970227,4.71782 5.90625,10.09375 0.287973,0.28806 0.705222,0.76556 1.28125,1.4375 0.575971,0.67206 1.053471,1.23881 1.437501,1.71875 0.47997,0.48006 0.71872,0.83931 0.71875,1.03125 -3e-5,0.0961 -0.0893,0.12506 -0.28125,0.125 -0.57603,6e-5 -1.919279,-1.34319 -4.031251,-4.03125 -2.112024,-2.68794 -3.276773,-4.03118 -3.46875,-4.03125 -0.672022,7e-5 -0.701022,0.47757 -0.125,1.4375 0.383977,0.57606 1.189476,1.68056 2.4375,3.3125 1.343974,1.53606 2.537722,3.02881 3.59375,4.46875 1.151971,1.34406 1.749971,2.14955 1.750001,2.4375 -3e-5,0.192 -0.14953,0.31255 -0.4375,0.3125 -0.48003,5e-5 -1.794279,-1.34319 -3.906251,-4.03125 -2.112024,-2.78394 -3.305773,-4.18744 -3.59375,-4.1875 -0.09602,6e-5 -0.125022,0.0893 -0.125,0.28125 -2.2e-5,1.05606 1.133476,2.87681 3.4375,5.46875 2.303972,2.59205 3.468721,3.93535 3.46875,4.03125 l -0.15625,0.3125 c -0.672028,5e-5 -2.015277,-1.10445 -4.03125,-3.3125 -1.920023,-2.30394 -2.964272,-3.46869 -3.15625,-3.46875 -0.19202,6e-5 -0.281272,0.14956 -0.28125,0.4375 -2.2e-5,0.67206 1.044227,2.19381 3.15625,4.59375 2.111973,2.40005 3.156222,3.7143 3.15625,3.90625 -2.8e-5,0.192 -0.08928,0.2813 -0.28125,0.28125 -0.576027,5e-5 -1.769776,-0.95495 -3.59375,-2.875 -1.728022,-2.01595 -2.683021,-3.03119 -2.875,-3.03125 -0.09602,6e-5 -0.18527,0.0893 -0.28125,0.28125 -2.1e-5,0.19205 -2.1e-5,0.4308 0,0.71875 0.09598,0.28805 0.274479,0.61605 0.5625,1 0.671978,0.96005 1.477477,1.88605 2.4375,2.75 0.959975,0.86405 1.736474,1.5513 2.3125,2.03125 0.671973,0.48005 0.999973,0.80805 1,1 -2.7e-5,0.28805 -0.08928,0.43755 -0.28125,0.4375 -0.576026,5e-5 -1.769775,-0.8367 -3.59375,-2.46875 -1.824022,-1.72795 -2.839271,-2.5937 -3.03125,-2.59375 -0.28802,5e-5 -0.43752,0.2098 -0.4375,0.59375 -2e-5,0.48005 0.925979,1.61355 2.75,3.4375 1.823976,1.82405 3.644724,3.31679 5.46875,4.46875 0.671971,0.38404 1.537721,0.77229 2.593751,1.15625 1.15197,0.38404 2.04672,0.71204 2.71875,1 0.76796,0.28804 1.15621,0.58704 1.15625,0.875 -4e-5,0.192 -0.11829,0.28129 -0.40625,0.28125 -0.38404,4e-5 -1.37028,-0.26771 -2.90625,-0.84375 -1.44003,-0.57596 -2.30578,-0.87496 -2.593751,-0.875 -0.288028,4e-5 -0.406278,0.14954 -0.40625,0.4375 -2.8e-5,0.76804 1.970221,1.48429 5.906251,2.15625 0.67196,4e-5 0.99996,0.26779 1,0.84375 -4e-5,0.096 -0.23879,0.15629 -0.71875,0.15625 l -1.3125,-0.4375 c -0.86403,-0.192 -1.49103,-0.28121 -1.875,-0.28125 -0.28803,4e-5 -0.40628,0.0893 -0.40625,0.28125 -3e-5,0.38404 0.80547,0.77229 2.4375,1.15625 1.63196,0.38404 2.43746,0.71204 2.4375,1 -4e-5,0.192 -0.0893,0.31254 -0.28125,0.3125 -0.19204,4e-5 -0.58029,-0.12046 -1.15625,-0.3125 -0.57604,-0.28796 -0.99328,-0.40621 -1.28125,-0.40625 -0.19203,4e-5 -0.31253,0.0893 -0.3125,0.28125 -3e-5,0.28804 0.23872,0.55579 0.71875,0.84375 0.57596,0.19204 1.26321,0.43079 2.03125,0.71875 0.86396,0.192 1.34146,0.31254 1.4375,0.3125 0.096,0.096 0.57346,0.57353 1.4375,1.4375 0.86396,0.76803 1.81896,1.15628 2.875,1.15625 0.57596,3e-5 1.29221,-0.14947 2.15625,-0.4375 0.86395,-0.28797 1.46195,-0.43747 1.75,-0.4375 0.47995,3e-5 1.1962,0.17853 2.15625,0.5625 0.95995,0.28803 1.61595,0.43753 2,0.4375 1.53595,3e-5 3.08895,-0.65597 4.625,-2 1.63194,-1.43996 2.49769,-2.15621 2.59375,-2.15625 0.38394,-0.096 1.10019,-0.2165 2.15625,-0.3125 1.15194,-0.19196 2.19619,-0.69846 3.15625,-1.5625 0.47994,-0.38396 1.07794,-0.68296 1.75,-0.875 0.76793,-0.19196 1.33468,-0.3415 1.71875,-0.4375 0.47993,-0.19196 0.71868,-0.43071 0.71875,-0.71875 -0.0961,-0.096 -0.30582,-0.096 -0.59375,0 -0.19207,4e-5 -0.52007,0.0602 -1,0.15625 -0.48007,4e-5 -0.80807,4e-5 -1,0 -6e-5,-0.57596 0.14943,-0.904 0.4375,-1 2.68793,4e-5 4.03118,-0.35921 4.03125,-1.03125 -7e-5,-0.28796 -0.20982,-0.43746 -0.59375,-0.4375 -0.0961,4e-5 -0.48432,0.0602 -1.15625,0.15625 -0.67207,0.096 -1.17857,0.15629 -1.5625,0.15625 -0.28807,4e-5 -0.43757,-0.12046 -0.4375,-0.3125 -7e-5,-0.28796 0.23868,-0.40621 0.71875,-0.40625 0.38393,4e-5 1.24968,-0.12046 2.59375,-0.3125 1.34393,-0.19196 1.99993,-0.43071 2,-0.71875 -7e-5,-0.38396 -0.26782,-0.56246 -0.84375,-0.5625 -0.38407,4e-5 -1.01107,0.0893 -1.875,0.28125 -0.76807,0.192 -1.24557,0.28129 -1.4375,0.28125 -0.19207,4e-5 -0.34157,-0.029 -0.4375,-0.125 -7e-5,-0.67196 1.34318,-1.2097 4.03125,-1.59375 2.78393,-0.38395 4.18743,-0.8012 4.1875,-1.28125 -7e-5,-0.28795 -0.23882,-0.43745 -0.71875,-0.4375 l -1.59375,0.28125 c -1.05607,0.28805 -1.83257,0.43755 -2.3125,0.4375 -0.67207,5e-5 -1.00007,-0.14945 -1,-0.4375 -7e-5,-0.28795 1.04418,-0.61595 3.15625,-1 2.11193,-0.47995 3.18742,-0.95745 3.1875,-1.4375 -8e-5,-0.096 -0.14958,-0.1562 -0.4375,-0.15625 -0.48007,5e-5 -1.40607,0.14955 -2.75,0.4375 -1.24807,0.28805 -1.99332,0.43755 -2.28125,0.4375 -0.38407,5e-5 -0.68307,-0.12045 -0.875,-0.3125 -0.0961,-0.19195 -0.0961,-0.37045 0,-0.5625 0.19193,-0.192 0.37043,-0.2812 0.5625,-0.28125 4.31993,-0.67195 6.49992,-1.29895 6.5,-1.875 -8e-5,-0.28795 -0.23883,-0.43745 -0.71875,-0.4375 -0.28807,5e-5 -1.24307,0.2098 -2.875,0.59375 -1.63207,0.38405 -2.70757,0.56255 -3.1875,0.5625 -0.28807,5e-5 -0.52682,-0.0602 -0.71875,-0.15625 -0.0961,-0.19195 -0.0961,-0.37045 0,-0.5625 0.19193,-0.19195 0.43068,-0.3415 0.71875,-0.4375 1.24793,-0.38395 2.56218,-0.68295 3.90625,-0.875 1.34393,-0.28795 2.20967,-0.4665 2.59375,-0.5625 0.47992,-0.19195 0.71867,-0.4307 0.71875,-0.71875 -8e-5,-0.28795 -0.23883,-0.43744 -0.71875,-0.4375 -0.48008,6e-5 -1.79432,0.29905 -3.90625,0.875 -2.11207,0.48005 -3.39507,0.7188 -3.875,0.71875 -0.28807,5e-5 -0.43757,-0.2097 -0.4375,-0.59375 -7e-5,-0.28795 1.49268,-0.76545 4.46875,-1.4375 2.97593,-0.67194 4.46867,-1.17844 4.46875,-1.5625 -8e-5,-0.38394 -0.38833,-0.59369 -1.15625,-0.59375 -0.28807,6e-5 -1.48182,0.29906 -3.59375,0.875 -2.01607,0.48006 -3.09157,0.71881 -3.1875,0.71875 -0.38407,6e-5 -0.56257,-0.14944 -0.5625,-0.4375 -7e-5,-0.38394 1.13343,-1.10019 3.4375,-2.15625 2.39993,-1.05594 3.59368,-1.68294 3.59375,-1.875 -7e-5,-0.38394 -0.23882,-0.56244 -0.71875,-0.5625 -0.67207,6e-5 -1.95507,0.50656 -3.875,1.5625 -1.92007,1.05606 -2.96432,1.59381 -3.15625,1.59375 -0.76807,6e-5 -0.91757,-0.23869 -0.4375,-0.71875 0.38393,-0.28794 1.24968,-0.76544 2.59375,-1.4375 1.34393,-0.76794 2.59793,-1.45519 3.75,-2.03125 1.15193,-0.67194 1.74768,-1.14944 1.84375,-1.4375 0.28792,-0.47994 0.19867,-0.71869 -0.28125,-0.71875 -0.76807,6e-5 -2.37907,0.77656 -4.875,2.3125 -2.40007,1.53606 -3.65406,2.31256 -3.75,2.3125 -0.19206,6e-5 -0.28132,-0.14944 -0.28125,-0.4375 -7e-5,-0.28794 0.41718,-0.73644 1.28125,-1.3125 2.30393,-1.43994 4.90118,-3.20044 7.78125,-5.3125 0.57592,-0.47993 0.87492,-0.92843 0.875,-1.3125 -8e-5,-0.1919 -0.12058,-0.28118 -0.3125,-0.28125 -0.48007,7e-5 -2.24057,1.16482 -5.3125,3.46875 -3.07207,2.20806 -4.74332,3.31256 -5.03125,3.3125 -0.19206,6e-5 -0.34156,6e-5 -0.4375,0 -6e-5,6e-5 -6e-5,-0.14944 0,-0.4375 -6e-5,-0.19194 1.82068,-1.77394 5.46875,-4.75 3.64793,-3.07193 5.46867,-4.95293 5.46875,-5.625 -8e-5,-0.28793 -0.0893,-0.43743 -0.28125,-0.4375 -0.38407,7e-5 -2.32532,1.55307 -5.78125,4.625 -3.36007,3.07207 -5.41956,4.59381 -6.1875,4.59375 -0.19206,6e-5 -0.28131,-0.0892 -0.28125,-0.28125 -6e-5,-0.0959 1.52169,-1.52843 4.59375,-4.3125 3.16793,-2.78393 4.78118,-4.72518 4.78125,-5.78125 -7e-5,-0.38393 -0.12057,-0.56243 -0.3125,-0.5625 -0.28807,7e-5 -1.87007,1.58207 -4.75,4.75 -3.16806,3.16807 -5.07806,4.75007 -5.75,4.75 l -0.28125,-0.28125 c -6e-5,-0.19193 0.86569,-1.23618 2.59375,-3.15625 1.82393,-2.01593 2.71868,-3.33018 2.71875,-3.90625 -7e-5,-0.38393 -0.0893,-0.56243 -0.28125,-0.5625 -0.38407,7e-5 -1.31007,0.95507 -2.75,2.875 -1.34406,1.92007 -2.08931,2.87507 -2.28125,2.875 -0.19206,7e-5 -0.28131,-0.14943 -0.28125,-0.4375 l 2.15625,-3.03125 c 1.34394,-2.01593 1.99993,-3.38818 2,-4.15625 -7e-5,-0.38392 -0.14957,-0.59367 -0.4375,-0.59375 -0.19206,8e-5 -0.99756,1.25407 -2.4375,3.75 -1.44006,2.40007 -2.36606,3.59382 -2.75,3.59375 -0.28806,7e-5 -0.40631,-0.0892 -0.40625,-0.28125 -6e-5,-0.0959 0.11819,-0.36368 0.40625,-0.84375 0.28794,-0.47993 0.73644,-1.22743 1.3125,-2.1875 0.67194,-1.05593 1.29894,-2.10018 1.875,-3.15625 0.86394,-1.82392 1.28119,-2.98867 1.28125,-3.46875 -6e-5,-0.38392 -0.14956,-0.56242 -0.4375,-0.5625 -0.19206,8e-5 -1.17606,1.64233 -3,4.90625 -1.72806,3.16807 -2.74331,4.75007 -3.03125,4.75 -0.0961,7e-5 -0.18531,-0.0602 -0.28125,-0.15625 -6e-5,-0.38393 0.62694,-2.02618 1.875,-4.90625 1.34394,-2.87992 1.99994,-4.81892 2,-5.875 -6e-5,-0.38392 -0.0893,-0.59367 -0.28125,-0.59375 -0.48006,8e-5 -1.52431,1.97033 -3.15625,5.90625 -1.53606,3.84007 -2.46206,5.75007 -2.75,5.75 -0.28805,7e-5 -0.43755,-0.11818 -0.4375,-0.40625 -5e-5,-0.0959 0.2097,-0.72293 0.59375,-1.875 0.47994,-1.24793 0.95744,-2.65143 1.4375,-4.1875 0.57594,-1.53592 0.90394,-2.70067 1,-3.46875 -6e-5,-1.43992 -0.14956,-2.15617 -0.4375,-2.15625 -0.38406,8e-5 -1.24981,2.03058 -2.59375,6.0625 -1.34405,4.03207 -2.14955,6.03132 -2.4375,6.03125 -0.28805,7e-5 -0.43755,-0.0892 -0.4375,-0.28125 -5e-5,-0.57593 0.2387,-1.62018 0.71875,-3.15625 0.47995,-1.63193 0.7187,-2.70743 0.71875,-3.1875 -5e-5,-0.67192 -0.14955,-0.99992 -0.4375,-1 -0.38405,8e-5 -0.7723,0.47758 -1.15625,1.4375 -0.28805,0.96007 -0.5558,2.12482 -0.84375,3.46875 -0.28805,1.34407 -0.4978,2.12057 -0.59375,2.3125 -5e-5,0.19207 -0.0893,0.31035 -0.28125,0.40625 -0.48005,0.38407 -0.7188,0.14532 -0.71875,-0.71875 -5e-5,-0.38393 -5e-5,-1.01093 0,-1.875 0.0959,-0.86393 0.1562,-1.45968 0.15625,-1.84375 -5e-5,-3.07192 -0.3593,-4.62492 -1.03125,-4.625 -0.19205,8e-5 -0.2813,1.49283 -0.28125,4.46875 -5e-5,2.88007 -0.2388,4.31257 -0.71875,4.3125 -0.28805,7e-5 -0.58705,-1.90993 -0.875,-5.75 -0.19205,-3.83992 -0.52005,-5.74992 -1,-5.75 -0.28805,8e-5 -0.43754,0.56683 -0.4375,1.71875 -4e-5,0.67208 0.0602,1.95508 0.15625,3.875 0.19196,1.92007 0.2812,3.32357 0.28125,4.1875 -5e-5,1.53607 -0.14955,2.31257 -0.4375,2.3125 -0.48004,7e-5 -0.71879,-0.74743 -0.71875,-2.1875 -4e-5,-2.20793 -0.17854,-4.44592 -0.5625,-6.75 -0.38404,-2.39992 -0.77229,-3.59367 -1.15625,-3.59375 z m 13.40625,14.09375 c 2.11194,7e-5 3.15619,1.01532 3.15625,3.03125 -6e-5,1.24806 -0.47756,2.17406 -1.4375,2.75 -0.86406,0.57606 -1.64056,0.84381 -2.3125,0.84375 -0.96005,6e-5 -1.76555,-0.26769 -2.4375,-0.84375 -0.57605,-0.57594 -0.87505,-1.41269 -0.875,-2.46875 -5e-5,-2.20793 1.3142,-3.31243 3.90625,-3.3125 z m -9.65625,0.15625 c 0.95995,7e-5 1.73645,0.32807 2.3125,1 0.67195,0.67207 0.99995,1.35931 1,2.03125 -5e-5,0.76806 -0.47755,1.51331 -1.4375,2.28125 -0.86405,0.76806 -1.81905,1.15631 -2.875,1.15625 -0.67204,6e-5 -1.38829,-0.17844 -2.15625,-0.5625 -0.67204,-0.47994 -1.03129,-1.10694 -1.03125,-1.875 -4e-5,-2.68793 1.40346,-4.03118 4.1875,-4.03125 z m 14.96875,6.03125 c 2.20794,6e-5 3.31244,1.16481 3.3125,3.46875 -6e-5,0.96006 -0.41731,1.76556 -1.28125,2.4375 -0.76806,0.57605 -1.63381,0.87505 -2.59375,0.875 -2.30406,5e-5 -3.46881,-1.10444 -3.46875,-3.3125 -6e-5,-0.86394 0.38819,-1.64044 1.15625,-2.3125 0.76794,-0.76794 1.72294,-1.15619 2.875,-1.15625 z m -22.46875,0.875 c 0.95996,6e-5 1.82571,0.44856 2.59375,1.3125 0.76796,0.76806 1.15621,1.66281 1.15625,2.71875 -4e-5,0.96005 -0.41729,1.8258 -1.28125,2.59375 -0.76804,0.76805 -1.69404,1.1563 -2.75,1.15625 -2.78404,5e-5 -4.18753,-1.25395 -4.1875,-3.75 -3e-5,-1.24794 0.44847,-2.20294 1.3125,-2.875 0.86396,-0.76794 1.90821,-1.15619 3.15625,-1.15625 z m 11.375,0.4375 c 0.67195,6e-5 1.3592,0.29906 2.03125,0.875 0.76795,0.48006 1.1562,1.31456 1.15625,2.5625 -5e-5,1.15205 -0.3593,2.1383 -1.03125,2.90625 -0.67205,0.67205 -1.2678,1.0893 -1.84375,1.28125 -0.48005,0.096 -0.8683,0.1563 -1.15625,0.15625 -1.05605,5e-5 -1.98205,-0.3882 -2.75,-1.15625 -0.76805,-0.86395 -1.1563,-1.81895 -1.15625,-2.875 -5e-5,-1.34394 0.59795,-2.29894 1.75,-2.875 1.15195,-0.57594 2.13595,-0.87494 3,-0.875 z m 13.6875,6.75 c 1.05594,5e-5 1.86143,0.3883 2.4375,1.15625 0.57593,0.76805 0.87493,1.6048 0.875,2.46875 -7e-5,2.11205 -1.28307,3.1563 -3.875,3.15625 -0.96006,5e-5 -1.73656,-0.32795 -2.3125,-1 -0.57606,-0.67195 -0.87506,-1.44845 -0.875,-2.3125 -6e-5,-1.15195 0.44844,-2.0177 1.3125,-2.59375 0.86394,-0.57595 1.66944,-0.87495 2.4375,-0.875 z m -9.21875,1.15625 c 0.95994,5e-5 1.73644,0.3883 2.3125,1.15625 0.67194,0.67205 0.99994,1.44855 1,2.3125 -6e-5,2.20805 -1.19381,3.31254 -3.59375,3.3125 -0.96005,4e-5 -1.8258,-0.29895 -2.59375,-0.875 -0.76805,-0.57595 -1.1563,-1.38145 -1.15625,-2.4375 -5e-5,-0.95995 0.32795,-1.76545 1,-2.4375 0.76795,-0.67195 1.7832,-1.0312 3.03125,-1.03125 z m -10.0625,0.59375 c 3.07195,5e-5 4.5937,1.28305 4.59375,3.875 -5e-5,0.76805 -0.32805,1.6048 -1,2.46875 -0.57605,0.86404 -1.4418,1.28129 -2.59375,1.28125 -3.07204,4e-5 -4.62504,-1.19371 -4.625,-3.59375 -4e-5,-1.05595 0.35921,-1.98195 1.03125,-2.75 0.67196,-0.86395 1.53771,-1.2812 2.59375,-1.28125 z m -9.21875,0.5625 c 1.05596,5e-5 1.95071,0.3883 2.71875,1.15625 0.86396,0.76805 1.31246,1.69405 1.3125,2.75 -4e-5,2.20804 -1.34329,3.31254 -4.03125,3.3125 -0.96003,4e-5 -1.79678,-0.20971 -2.46875,-0.59375 -0.57603,-0.47996 -0.96428,-0.89721 -1.15625,-1.28125 -0.096,-0.38395 -0.12503,-0.7722 -0.125,-1.15625 -3e-5,-1.53595 0.41722,-2.61145 1.28125,-3.1875 0.86397,-0.67195 1.70072,-0.99995 2.46875,-1 z m 24.46875,5.34375 c 0.95994,5e-5 1.76544,0.38829 2.4375,1.15625 0.76794,0.67204 1.15619,1.41729 1.15625,2.28125 -6e-5,0.67204 -0.38831,1.35929 -1.15625,2.03125 -0.67206,0.57604 -1.41731,0.84379 -2.28125,0.84375 -0.57606,4e-5 -1.29231,-0.26771 -2.15625,-0.84375 -0.86406,-0.57596 -1.31256,-1.20296 -1.3125,-1.875 -6e-5,-0.86396 0.32794,-1.66946 1,-2.4375 0.67194,-0.76796 1.44844,-1.1562 2.3125,-1.15625 z m -17.28125,3.3125 c 2.39996,4e-5 3.5937,1.22279 3.59375,3.71875 -5e-5,2.01604 -0.98405,3.03128 -3,3.03125 -1.24804,3e-5 -2.26329,-0.38821 -3.03125,-1.15625 -0.67204,-0.76796 -1.03129,-1.63371 -1.03125,-2.59375 -4e-5,-2.01596 1.16471,-2.99996 3.46875,-3 z m 8.78125,0.28125 c 0.86395,4e-5 1.7297,0.23879 2.59375,0.71875 0.95995,0.48004 1.43744,1.25654 1.4375,2.3125 -6e-5,1.15204 -0.32805,2.04679 -1,2.71875 -0.57605,0.67203 -1.1138,1.12053 -1.59375,1.3125 -0.48005,0.096 -0.95755,0.12503 -1.4375,0.125 -2.11205,3e-5 -3.1563,-1.04421 -3.15625,-3.15625 -5e-5,-2.68796 1.0442,-4.03121 3.15625,-4.03125 z"
         id="path5707"
         inkscape:connector-curvature="0" />
    </g>
  </g>
</svg>
