<?xml version="1.0" encoding="UTF-8" standalone="no"?>
<!-- Created with Inkscape (http://www.inkscape.org/) -->

<svg
   xmlns:dc="http://purl.org/dc/elements/1.1/"
   xmlns:cc="http://creativecommons.org/ns#"
   xmlns:rdf="http://www.w3.org/1999/02/22-rdf-syntax-ns#"
   xmlns:svg="http://www.w3.org/2000/svg"
   xmlns="http://www.w3.org/2000/svg"
   xmlns:sodipodi="http://sodipodi.sourceforge.net/DTD/sodipodi-0.dtd"
   xmlns:inkscape="http://www.inkscape.org/namespaces/inkscape"
   width="79.571373"
   height="115.96954"
   id="svg3237"
   version="1.1"
   inkscape:version="0.48.3.1 r9886"
   sodipodi:docname="X3.svg">
  <defs
     id="defs3239" />
  <sodipodi:namedview
     id="base"
     pagecolor="#ffffff"
     bordercolor="#666666"
     borderopacity="1.0"
     inkscape:pageopacity="0.0"
     inkscape:pageshadow="2"
     inkscape:zoom="0.7"
     inkscape:cx="128.79142"
     inkscape:cy="-38.644467"
     inkscape:document-units="px"
     inkscape:current-layer="layer1"
     showgrid="false"
     fit-margin-top="0"
     fit-margin-left="0"
     fit-margin-right="0"
     fit-margin-bottom="0"
     inkscape:window-width="574"
     inkscape:window-height="436"
     inkscape:window-x="406"
     inkscape:window-y="370"
     inkscape:window-maximized="0" />
  <metadata
     id="metadata3242">
    <rdf:RDF>
      <cc:Work
         rdf:about="">
        <dc:format>image/svg+xml</dc:format>
        <dc:type
           rdf:resource="http://purl.org/dc/dcmitype/StillImage" />
        <dc:title />
      </cc:Work>
    </rdf:RDF>
  </metadata>
  <g
     inkscape:label="Layer 1"
     inkscape:groupmode="layer"
     id="layer1"
     transform="translate(-330.6295,-488.92149)">
    <rect
       style="fill:#ffffff;stroke:#000000;stroke-width:1.00899994;stroke-miterlimit:4;stroke-opacity:1;stroke-dasharray:none;stroke-dashoffset:0"
       id="rect6731-9-77"
       width="78.56237"
       height="114.96053"
       x="331.134"
       y="489.42599"
       ry="5.4056678" />
    <path
       style="font-size:144px;font-style:normal;font-variant:normal;font-weight:500;font-stretch:normal;text-align:start;line-height:125%;letter-spacing:0px;word-spacing:0px;text-anchor:start;fill:#000000;fill-opacity:1;stroke:none;font-family:GL-MahjongTile;-inkscape-font-specification:GL-MahjongTile Medium"
       d="m 384.70984,521.6289 c -0.96006,6e-5 -3.8853,0.53781 -8.78125,1.59375 -4.80004,1.05606 -10.71079,2.39931 -17.71875,4.03125 -7.00802,1.53606 -11.45501,2.49106 -13.375,2.875 0.096,1.15206 1.14024,1.75005 3.15625,1.75 0.19198,5e-5 1.53523,-0.29895 4.03125,-0.875 2.49597,-0.57594 5.57072,-1.14269 9.21875,-1.71875 3.74397,-0.57594 7.20696,-0.87494 10.375,-0.875 2.78395,6e-5 4.4262,0.29906 4.90625,0.875 -0.38405,1.05606 -1.39929,2.18955 -3.03125,3.4375 l -2.15625,0.71875 c -0.096,0.28805 -0.30579,1.06455 -0.59375,2.3125 -1.34404,1.92005 -3.58204,4.5173 -6.75,7.78125 -4e-5,-1.53596 -0.20979,-3.3277 -0.59375,-5.34375 -0.38404,-2.01595 -0.95079,-2.99995 -1.71875,-3 -0.57603,5e-5 -0.87503,0.7453 -0.875,2.28125 -3e-5,0.19205 0.29897,2.87855 0.875,8.0625 -1.92003,1.05604 -4.51728,2.13154 -7.78125,3.1875 -0.76803,-1.43996 -2.58877,-3.14246 -5.46875,-5.0625 -0.19202,-0.096 -0.3415,-0.096 -0.4375,0 -2e-5,4e-5 -0.0893,0.12054 -0.28125,0.3125 -0.096,0.096 -0.18525,0.18525 -0.28125,0.28125 0.096,0.57604 0.48423,1.70954 1.15625,3.4375 0.67198,1.63204 1.77648,4.52828 3.3125,8.65625 1.63197,4.03203 3.24297,8.24027 4.875,12.65625 -1.44003,0.86402 -2.15628,1.55127 -2.15625,2.03125 -3e-5,1.92001 1.82072,2.87501 5.46875,2.875 0.76797,10e-6 1.87246,-0.0892 3.3125,-0.28125 1.43996,-0.192 2.66496,-0.28124 3.625,-0.28125 0.86396,10e-6 1.99746,0.0893 3.4375,0.28125 1.43995,0.192 2.54445,0.28126 3.3125,0.28125 2.87995,10e-6 4.6717,-0.86574 5.34375,-2.59375 1.82395,-4.12798 3.64469,-7.59098 5.46875,-10.375 1.91994,-2.87997 3.41269,-4.72972 4.46875,-5.59375 1.15194,-0.95997 2.04669,-1.82572 2.71875,-2.59375 0.67193,-0.76797 0.99993,-1.54446 1,-2.3125 -7e-5,-1.72796 -1.67131,-3.87671 -5.03125,-6.46875 -3.36006,-2.68795 -5.80781,-4.0312 -7.34375,-4.03125 -0.86405,5e-5 -1.81905,0.2678 -2.875,0.84375 -1.05605,0.57605 -2.33905,1.02454 -3.875,1.3125 0.19195,-1.43995 0.51995,-2.6337 1,-3.59375 0.47995,-0.19195 1.13595,-0.3415 2,-0.4375 0.95995,-0.19195 1.6472,-0.4017 2.03125,-0.59375 0.47995,-0.28795 0.7187,-0.76545 0.71875,-1.4375 -5e-5,-0.95995 -0.8658,-1.91495 -2.59375,-2.875 0.0959,-0.57595 0.5132,-1.1137 1.28125,-1.59375 1.15195,-0.192 1.92845,-0.28119 2.3125,-0.28125 1.34395,6e-5 3.64219,0.2388 6.90625,0.71875 3.26394,0.38405 5.62243,0.5938 7.0625,0.59375 1.34393,5e-5 2.03118,-0.62695 2.03125,-1.875 -7e-5,-1.91994 -2.09082,-4.03969 -6.21875,-6.34375 -0.48006,-0.28794 -1.07581,-0.67619 -1.84375,-1.15625 -0.67206,-0.57594 -1.27006,-0.96419 -1.75,-1.15625 -0.48006,-0.28794 -1.10706,-0.43744 -1.875,-0.4375 z m -14.71875,18.21875 c 0.168,0.006 0.32474,0.0458 0.46875,0.0937 l 0,0.40625 c -4e-5,0.28805 -0.029,0.73655 -0.125,1.3125 -4e-5,0.57604 -4e-5,0.96429 0,1.15625 -0.28804,0.096 -0.79679,0.24554 -1.46875,0.4375 -0.67204,0.19204 -1.26779,0.31025 -1.84375,0.40625 0.19196,-1.24796 0.54896,-2.35245 1.125,-3.3125 0.71997,-0.36 1.33973,-0.51799 1.84375,-0.5 z m 6.8125,4.40625 c 0.95995,4e-5 2.09345,0.53779 3.4375,1.59375 1.43995,1.05604 2.18744,2.18954 2.1875,3.4375 -6e-5,1.05604 -1.3143,4.19103 -3.90625,9.375 -2.59205,5.08802 -4.5623,8.51977 -5.90625,10.34375 -0.67205,0.192 -1.41729,0.25225 -2.28125,0.15625 0.28796,-3.93598 1.18271,-12.08472 2.71875,-24.46875 1.43995,-0.28796 2.69395,-0.43746 3.75,-0.4375 z m -6.90625,1.15625 c -0.096,1.15204 -0.30579,3.12229 -0.59375,5.90625 -0.19204,2.78403 -0.43079,5.64903 -0.71875,8.625 -0.19204,2.97602 -0.37054,5.96152 -0.5625,8.9375 -0.19204,2e-5 -0.58029,2e-5 -1.15625,0 -0.57604,-0.096 -0.96429,-0.15623 -1.15625,-0.15625 -0.19204,-3.83998 -0.43079,-8.19772 -0.71875,-13.09375 -0.28804,-4.99196 -0.4665,-7.91721 -0.5625,-8.78125 0.57596,-0.19196 1.47071,-0.43071 2.71875,-0.71875 1.34396,-0.38396 2.26996,-0.62275 2.75,-0.71875 z m -8.21875,2.4375 c -3e-5,0.86404 0.0602,2.02879 0.15625,3.46875 0.096,1.34403 0.12496,2.47753 0.125,3.4375 0.096,0.86403 0.15621,1.46203 0.15625,1.75 -4e-5,1.92003 0.17846,4.15803 0.5625,6.75 0.38396,2.59202 0.62275,4.38377 0.71875,5.34375 l -2.4375,0 c -1.24803,-5.27998 -3.30753,-11.25097 -6.1875,-17.875 2.87997,-1.43996 5.17822,-2.39496 6.90625,-2.875 z"
       id="path3015"
       inkscape:connector-curvature="0" />
  </g>
</svg>
