<?xml version="1.0" encoding="UTF-8" standalone="no"?>
<!-- Created with Inkscape (http://www.inkscape.org/) -->

<svg
   xmlns:dc="http://purl.org/dc/elements/1.1/"
   xmlns:cc="http://creativecommons.org/ns#"
   xmlns:rdf="http://www.w3.org/1999/02/22-rdf-syntax-ns#"
   xmlns:svg="http://www.w3.org/2000/svg"
   xmlns="http://www.w3.org/2000/svg"
   xmlns:sodipodi="http://sodipodi.sourceforge.net/DTD/sodipodi-0.dtd"
   xmlns:inkscape="http://www.inkscape.org/namespaces/inkscape"
   width="79.5625"
   height="115.96875"
   id="svg3237"
   version="1.1"
   inkscape:version="0.48.3.1 r9886"
   sodipodi:docname="X7.svg">
  <defs
     id="defs3239" />
  <sodipodi:namedview
     id="base"
     pagecolor="#ffffff"
     bordercolor="#666666"
     borderopacity="1.0"
     inkscape:pageopacity="0.0"
     inkscape:pageshadow="2"
     inkscape:zoom="0.7"
     inkscape:cx="139.14874"
     inkscape:cy="48.425341"
     inkscape:document-units="px"
     inkscape:current-layer="layer1"
     showgrid="false"
     fit-margin-top="0"
     fit-margin-left="0"
     fit-margin-right="0"
     fit-margin-bottom="0"
     inkscape:window-width="574"
     inkscape:window-height="436"
     inkscape:window-x="652"
     inkscape:window-y="357"
     inkscape:window-maximized="0" />
  <metadata
     id="metadata3242">
    <rdf:RDF>
      <cc:Work
         rdf:about="">
        <dc:format>image/svg+xml</dc:format>
        <dc:type
           rdf:resource="http://purl.org/dc/dcmitype/StillImage" />
        <dc:title />
      </cc:Work>
    </rdf:RDF>
  </metadata>
  <g
     inkscape:label="Layer 1"
     inkscape:groupmode="layer"
     id="layer1"
     transform="translate(-524.34375,-569.4375)">
    <rect
       ry="5.4056678"
       y="569.93494"
       x="524.85272"
       height="114.96053"
       width="78.56237"
       id="rect6731-9-18"
       style="fill:#ffffff;stroke:#000000;stroke-width:1.00899994;stroke-miterlimit:4;stroke-opacity:1;stroke-dasharray:none;stroke-dashoffset:0" />
    <path
       inkscape:connector-curvature="0"
       id="path3023"
       d="m 561.83702,589.83706 c -3.64804,2.59207 -5.46879,4.97957 -5.46875,7.1875 -4e-5,0.28807 0.0892,0.70532 0.28125,1.28125 0.192,0.48006 0.28121,0.83931 0.28125,1.03125 0.57596,6e-5 1.11371,0.17856 1.59375,0.5625 0.47996,0.28806 0.80796,0.76556 1,1.4375 0.28796,0.57606 0.52671,1.14281 0.71875,1.71875 0.19196,0.48006 0.3415,1.25656 0.4375,2.3125 0.096,0.96006 0.15621,1.73656 0.15625,2.3125 0.096,0.48005 0.12496,1.28555 0.125,2.4375 -4e-5,1.15205 -4e-5,1.8683 0,2.15625 -0.38404,0.38405 -2.23379,1.2208 -5.59375,2.46875 -3.36003,1.24805 -5.33028,1.87505 -5.90625,1.875 -0.57603,5e-5 -1.29228,-0.29895 -2.15625,-0.875 -0.76803,-0.57595 -1.75428,-1.35245 -2.90625,-2.3125 -1.05602,-0.95995 -1.95077,-1.6762 -2.71875,-2.15625 -0.76802,0.86405 -1.15627,2.5063 -1.15625,4.90625 -2e-5,1.63205 1.82073,4.01954 5.46875,7.1875 3.64797,3.16804 5.46872,5.19853 5.46875,6.0625 -3e-5,1.44003 0.38822,2.15628 1.15625,2.15625 1.15197,3e-5 2.64472,-0.29897 4.46875,-0.875 1.82396,-0.67197 3.10696,-0.99997 3.875,-1 -4e-5,1.53603 0.0602,3.98378 0.15625,7.34375 0.096,3.26402 0.15621,5.41277 0.15625,6.46875 -4e-5,1.82402 -0.0602,3.85452 -0.15625,6.0625 -0.096,2.20801 -0.15629,3.64051 -0.15625,4.3125 -4e-5,6.432 0.59796,10.13375 1.75,11.09375 0.76796,-0.768 1.48421,-2.41025 2.15625,-4.90625 0.67195,-2.49599 0.99995,-4.97274 1,-7.46875 -5e-5,-1.05599 -0.0893,-3.08649 -0.28125,-6.0625 -0.1921,-2.97598 -0.28129,-4.79673 -0.28125,-5.46875 -4e-5,-0.38398 0.0289,-2.17573 0.125,-5.34375 0.0959,-3.26397 0.1562,-5.32347 0.15625,-6.1875 2.30395,0.096 4.18495,0.30578 5.625,0.59375 1.53595,0.28803 2.51995,0.43753 3,0.4375 1.34394,3e-5 2.03119,-0.86572 2.03125,-2.59375 -6e-5,-0.38396 0.32794,-1.01096 1,-1.875 0.67194,-0.86396 1.53769,-2.02871 2.59375,-3.46875 1.15194,-1.43996 2.07794,-2.69396 2.75,-3.75 0.86394,-0.67196 2.20719,-0.99995 4.03125,-1 0.76793,5e-5 1.12493,-0.4172 1.125,-1.28125 -7e-5,-0.57595 -0.17857,-1.20295 -0.5625,-1.875 -0.38407,-0.76795 -0.77232,-1.36595 -1.15625,-1.75 -0.28807,-0.47995 -0.91506,-1.1962 -1.875,-2.15625 -0.96006,-0.95995 -1.58706,-1.61595 -1.875,-2 -1.34406,-1.72794 -2.38831,-2.59369 -3.15625,-2.59375 -0.67206,6e-5 -1.68731,0.23881 -3.03125,0.71875 -1.34405,0.48006 -3.0153,1.13605 -5.03125,2 -2.01605,0.76805 -3.6583,1.36605 -4.90625,1.75 0.19195,-2.11195 0.5512,-3.84344 1.03125,-5.1875 0.47995,-1.34394 0.8972,-2.20969 1.28125,-2.59375 0.47995,-0.38394 0.8682,-0.77219 1.15625,-1.15625 0.38395,-0.47994 0.56245,-1.01769 0.5625,-1.59375 -5e-5,-1.34394 -0.8948,-3.19368 -2.71875,-5.59375 -1.82405,-2.39993 -3.70504,-3.98193 -5.625,-4.75 z m 13.25,22.03125 c 1.53594,5e-5 2.31244,0.5668 2.3125,1.71875 -6e-5,0.57605 -0.14956,1.2923 -0.4375,2.15625 -0.28806,0.76805 -0.76556,1.69405 -1.4375,2.75 -0.57605,0.96004 -1.1138,1.79454 -1.59375,2.5625 -0.48005,0.67204 -1.13605,1.65829 -2,2.90625 -0.86405,1.15204 -1.46205,1.89729 -1.75,2.28125 -0.76805,4e-5 -1.6338,4e-5 -2.59375,0 -0.96005,-0.096 -1.61605,-0.12496 -2,-0.125 -5e-5,-3.45596 0.17845,-7.48571 0.5625,-12.09375 3.83995,-1.43995 6.82545,-2.1562 8.9375,-2.15625 z m -14.125,3.875 0,10.8125 c -1.53604,0.38404 -3.05779,0.65179 -4.59375,0.84375 -1.34403,-2.78396 -3.07553,-5.64896 -5.1875,-8.625 0.38397,0.192 0.77222,0.28129 1.15625,0.28125 0.47997,4e-5 1.13597,-0.14946 2,-0.4375 0.95997,-0.38396 2.06446,-0.86145 3.3125,-1.4375 1.34396,-0.67195 2.44846,-1.14945 3.3125,-1.4375 z"
       style="font-size:144px;font-style:normal;font-variant:normal;font-weight:500;font-stretch:normal;text-align:start;line-height:125%;letter-spacing:0px;word-spacing:0px;text-anchor:start;fill:#ff0000;fill-opacity:1;stroke:none;font-family:GL-MahjongTile;-inkscape-font-specification:GL-MahjongTile Medium" />
  </g>
</svg>
