<?xml version="1.0" encoding="UTF-8" standalone="no"?>
<!-- Created with Inkscape (http://www.inkscape.org/) -->

<svg
   xmlns:dc="http://purl.org/dc/elements/1.1/"
   xmlns:cc="http://creativecommons.org/ns#"
   xmlns:rdf="http://www.w3.org/1999/02/22-rdf-syntax-ns#"
   xmlns:svg="http://www.w3.org/2000/svg"
   xmlns="http://www.w3.org/2000/svg"
   xmlns:sodipodi="http://sodipodi.sourceforge.net/DTD/sodipodi-0.dtd"
   xmlns:inkscape="http://www.inkscape.org/namespaces/inkscape"
   version="1.1"
   width="106.38706"
   height="54.027798"
   id="svg3237"
   inkscape:version="0.48.3.1 r9886"
   sodipodi:docname="X1.svg">
  <sodipodi:namedview
     pagecolor="#ffffff"
     bordercolor="#666666"
     borderopacity="1"
     objecttolerance="10"
     gridtolerance="10"
     guidetolerance="10"
     inkscape:pageopacity="0"
     inkscape:pageshadow="2"
     inkscape:window-width="906"
     inkscape:window-height="708"
     id="namedview8"
     showgrid="false"
     inkscape:zoom="2.035031"
     inkscape:cx="182.49241"
     inkscape:cy="16.188187"
     inkscape:window-x="310"
     inkscape:window-y="149"
     inkscape:window-maximized="0"
     inkscape:current-layer="svg3237"
     fit-margin-top="0"
     fit-margin-left="0"
     fit-margin-right="0"
     fit-margin-bottom="0" />
  <defs
     id="defs3239" />
  <metadata
     id="metadata3242">
    <rdf:RDF>
      <cc:Work
         rdf:about="">
        <dc:format>image/svg+xml</dc:format>
        <dc:type
           rdf:resource="http://purl.org/dc/dcmitype/StillImage" />
        <dc:title></dc:title>
      </cc:Work>
    </rdf:RDF>
  </metadata>
  <rect
     style="fill:#e58a00;fill-opacity:1;stroke:none"
     id="rect6731-9-200"
     y="0"
     x="0"
     ry="9.2377272"
     height="54.027798"
     width="106.38706" />
  <path
     inkscape:connector-curvature="0"
     style="font-size:144px;font-style:normal;font-variant:normal;font-weight:500;font-stretch:normal;text-align:start;line-height:125%;letter-spacing:0px;word-spacing:0px;text-anchor:start;fill:#000000;fill-opacity:1;stroke:none;font-family:GL-MahjongTile;-inkscape-font-specification:GL-MahjongTile Medium"
     id="path3011"
     d="m 48.91125,7.3882397 c -2.2e-5,1.435658 0.4821,2.8228113 1.444417,4.1558503 0.962272,1.333108 1.444394,2.89544 1.444417,4.689933 l 0,0.233663 c -0.695014,0.256392 -1.609555,0.46375 -2.73221,0.617535 -1.069239,0.102576 -1.717869,0.182443 -1.93169,0.233662 0.320743,0.717837 0.985522,1.068197 2.0013,1.06817 0.427665,2.7e-5 0.976891,-0.06312 1.618444,-0.216972 0.641507,-0.153789 1.040374,-0.233635 1.200779,-0.233662 -2.2e-5,0.820381 0.01615,1.3781 0.06962,1.685706 -2.138456,0.615292 -4.515513,1.189701 -7.13507,1.702396 -1.176156,-0.512695 -1.874487,-0.784411 -2.088314,-0.784438 -0.320776,2.7e-5 -0.519583,0.12754 -0.626495,0.383874 0.213833,0.410204 0.745652,1.159793 1.601041,2.236481 0.908817,1.025464 1.740105,1.982412 2.488574,2.854017 0.801895,0.871648 1.200758,1.34952 1.20078,1.452043 -2.2e-5,0.05127 -0.06712,0.163318 -0.174026,0.317113 -0.05346,0.102566 -0.05346,0.1657 0,0.216972 0.481125,0.564015 0.996799,0.883376 1.531429,0.934649 -0.748473,1.435636 -1.595905,2.535584 -2.558183,3.304651 l -0.73091,-0.534086 0.33065,0.98472 c -1.657303,1.333087 -4.284117,2.87993 -7.86598,4.623173 0.374213,0.153828 1.022844,0.233673 1.931689,0.233663 1.657275,10e-6 3.91752,-1.132117 6.804421,-3.388102 2.619558,3.435245 3.932968,5.412288 3.93299,5.925005 -2.2e-5,1.127993 0.26589,2.403121 0.800521,3.838736 0.534585,1.435621 1.099962,2.15303 1.688053,2.15303 1.015728,0 1.513999,-1.179794 1.514027,-3.538313 -2.8e-5,-0.256355 -0.198835,-1.499304 -0.626494,-3.755285 -0.374254,-2.307237 -0.574314,-4.188952 -0.574286,-5.624583 -2.8e-5,-0.461433 0.03352,-1.131176 0.08701,-2.002819 0.0534,-0.87161 0.06958,-1.58902 0.06961,-2.153029 0.320737,1.6e-5 0.536947,-0.01549 0.643896,-0.06677 0.694963,0.871643 1.659207,2.258795 2.888834,4.155849 1.283032,1.845808 2.296972,3.153114 3.045457,3.922186 0.748418,0.717821 1.496452,1.068181 2.244937,1.06817 0.588036,1.1e-5 1.31992,-0.222836 2.175327,-0.684296 0.855334,-0.512711 1.387157,-0.784426 1.60104,-0.784437 0.320726,1.1e-5 0.886102,0.19188 1.688053,0.550775 0.855334,0.358915 1.686622,0.581763 2.488573,0.684296 -0.695035,-1.025428 -1.925185,-1.870351 -3.689353,-2.536899 -1.764247,-0.666528 -3.726281,-1.479266 -5.86468,-2.453453 -2.085006,-0.974156 -3.84698,-2.345819 -5.290395,-4.089089 0.374198,-0.1538 0.906022,-0.24915 1.601041,-0.300423 0.48112,0.358922 0.879987,0.534102 1.20078,0.534086 0.481114,1.6e-5 0.730876,-0.398012 0.73091,-1.218382 -3.4e-5,-0.461428 0.398834,-1.178837 1.20078,-2.15303 0.801879,-0.974149 1.383405,-1.963275 1.757664,-2.937467 1.176104,-0.15379 1.775033,-0.471971 1.775066,-0.984719 -3.3e-5,-0.61524 -0.432453,-1.364828 -1.287793,-2.236482 -0.855407,-0.922872 -1.520186,-1.385255 -2.001301,-1.385282 l -6.821823,1.15162 c -2.8e-5,-0.153789 0.03352,-0.440993 0.08701,-0.851197 0.0534,-0.410151 0.06958,-0.712838 0.06961,-0.917959 0.641502,-0.205057 1.45664,-0.380237 2.418962,-0.534085 1.015729,-0.205057 1.73021,-0.380236 2.157925,-0.534085 0.481114,-0.153785 0.713473,-0.361144 0.713507,-0.617536 -3.4e-5,-0.256329 -0.282095,-0.543532 -0.870131,-0.851198 -0.534636,-0.358873 -1.05031,-0.534053 -1.53143,-0.534085 -0.213871,3.2e-5 -0.529485,0.20739 -0.957144,0.617536 -0.427714,0.358937 -1.042792,0.629451 -1.844676,0.834508 0.106893,-1.076684 0.323103,-1.921606 0.643896,-2.536904 0.374198,-0.615234 0.723364,-0.965588 1.044157,-1.06817 0.374198,-0.15378 0.689812,-0.313471 0.957144,-0.467324 0.320737,-0.153779 0.487245,-0.376627 0.487273,-0.684297 -2.8e-5,-0.615229 -0.216238,-1.029946 -0.643897,-1.2350712 -0.427714,-0.205052 -1.425511,-0.4922561 -2.975847,-0.8511981 -1.550385,-0.41014 -3.062603,-0.95237 -4.559484,-1.618946 z m 8.979748,12.4675473 c 1.283026,2.7e-5 1.914254,0.207385 1.914287,0.617535 -3.3e-5,0.512749 -0.349199,1.357672 -1.044156,2.536905 -0.160416,-0.102518 -0.359218,-0.26221 -0.626494,-0.467325 -0.213872,-0.205062 -0.430082,-0.348063 -0.643897,-0.450635 -0.16041,-0.102544 -0.360471,-0.166874 -0.574286,-0.166901 -0.588097,2.7e-5 -1.119921,0.159719 -1.601041,0.467325 -0.427714,0.30766 -1.00924,0.515018 -1.757664,0.617536 -2.7e-5,-0.205062 -2.7e-5,-0.5876 0,-1.151621 0.05341,-0.61524 0.10314,-1.109802 0.156624,-1.468734 1.496875,-0.358879 2.893539,-0.534058 4.176627,-0.534085 z m -5.86468,0.767747 c -2.3e-5,0.30766 -2.3e-5,0.737865 0,1.301832 0.05346,0.564021 0.08699,0.978738 0.08701,1.235072 -0.42771,0.102566 -1.175743,0.230078 -2.244937,0.383873 -1.015778,0.102566 -1.763812,0.277746 -2.244937,0.534086 -0.160404,-0.25634 -0.692223,-0.814058 -1.60104,-1.685706 1.817646,-0.769056 3.811985,-1.358953 6.0039,-1.769157 z m 5.290394,3.154439 c 0.160354,2.2e-5 0.459819,0.09536 0.887533,0.300424 -0.16041,0.256382 -0.426322,0.750945 -0.80052,1.468733 -0.374254,0.666559 -0.640166,1.096765 -0.80052,1.301832 -1.176167,0.256382 -2.173963,0.383896 -2.975847,0.383874 -0.05346,-0.358884 -0.06964,-0.836756 -0.06961,-1.452044 -2.8e-5,-0.615244 0.01615,-1.062139 0.06961,-1.318522 0.374198,-0.05127 1.022828,-0.178764 1.93169,-0.383873 0.908806,-0.205068 1.490332,-0.300402 1.757664,-0.300424 z m -5.203381,0.851199 c -2.3e-5,0.256382 -2.3e-5,0.686587 0,1.301832 0.05346,0.615288 0.08699,1.109849 0.08701,1.468733 -0.213865,2.2e-5 -0.596584,2.2e-5 -1.131169,0 -0.53463,-0.05127 -0.933498,-0.115628 -1.20078,-0.166901 -0.53463,-0.5127 -0.9832,-1.165752 -1.357404,-1.986128 0.588047,-0.307613 1.784651,-0.514971 3.602341,-0.617536 z m -1.200781,4.372821 c 0.160361,1.6e-5 0.376571,0.03215 0.643897,0.08345 0.320743,1.7e-5 0.536953,1.7e-5 0.643896,0 -0.320786,5.127227 -0.737057,7.694173 -1.218182,7.694162 -0.267326,1.1e-5 -0.59909,-0.159681 -1.026754,-0.467324 -0.374248,-0.358894 -0.84022,-0.836767 -1.374806,-1.452044 -0.48117,-0.615255 -0.846486,-1.062145 -1.113768,-1.318522 1.657263,-1.948326 2.804166,-3.462992 3.445717,-4.539722 z" />
</svg>
