<?xml version="1.0" encoding="UTF-8" standalone="no"?>
<!-- Created with Inkscape (http://www.inkscape.org/) -->

<svg
   xmlns:dc="http://purl.org/dc/elements/1.1/"
   xmlns:cc="http://creativecommons.org/ns#"
   xmlns:rdf="http://www.w3.org/1999/02/22-rdf-syntax-ns#"
   xmlns:svg="http://www.w3.org/2000/svg"
   xmlns="http://www.w3.org/2000/svg"
   xmlns:sodipodi="http://sodipodi.sourceforge.net/DTD/sodipodi-0.dtd"
   xmlns:inkscape="http://www.inkscape.org/namespaces/inkscape"
   width="79.571373"
   height="115.96954"
   id="svg3237"
   version="1.1"
   inkscape:version="0.48.3.1 r9886"
   sodipodi:docname="P2.svg">
  <defs
     id="defs3239" />
  <sodipodi:namedview
     id="base"
     pagecolor="#ffffff"
     bordercolor="#666666"
     borderopacity="1.0"
     inkscape:pageopacity="0.0"
     inkscape:pageshadow="2"
     inkscape:zoom="0.7"
     inkscape:cx="95.063803"
     inkscape:cy="91.193487"
     inkscape:document-units="px"
     inkscape:current-layer="layer1"
     showgrid="false"
     fit-margin-top="0"
     fit-margin-left="0"
     fit-margin-right="0"
     fit-margin-bottom="0"
     inkscape:window-width="748"
     inkscape:window-height="600"
     inkscape:window-x="399"
     inkscape:window-y="247"
     inkscape:window-maximized="0" />
  <metadata
     id="metadata3242">
    <rdf:RDF>
      <cc:Work
         rdf:about="">
        <dc:format>image/svg+xml</dc:format>
        <dc:type
           rdf:resource="http://purl.org/dc/dcmitype/StillImage" />
        <dc:title />
      </cc:Work>
    </rdf:RDF>
  </metadata>
  <g
     inkscape:label="Layer 1"
     inkscape:groupmode="layer"
     id="layer1"
     transform="translate(244.84703,-497.91924)">
    <rect
       ry="5.4056678"
       y="498.42374"
       x="-244.34253"
       height="114.96053"
       width="78.56237"
       id="rect6731-9-67"
       style="fill:#ffffff;stroke:#000000;stroke-width:1.00899994;stroke-miterlimit:4;stroke-opacity:1;stroke-dasharray:none;stroke-dashoffset:0" />
    <g
       transform="translate(-413.71092,-391.90177)"
       id="g7384">
      <path
         style="font-size:144px;font-style:normal;font-variant:normal;font-weight:500;font-stretch:normal;text-align:start;line-height:125%;letter-spacing:0px;word-spacing:0px;text-anchor:start;fill:#0000ff;fill-opacity:1;stroke:none;font-family:GL-MahjongTile;-inkscape-font-specification:GL-MahjongTile Medium"
         d="m 208.66518,957.00888 c -3.84004,8e-5 -7.12454,1.34332 -9.8125,4.03125 -2.68803,2.68807 -4.03128,5.94132 -4.03125,9.78125 -3e-5,3.84006 1.34322,7.12455 4.03125,9.8125 2.68796,2.68805 5.97246,4.0313 9.8125,4.03125 3.83995,5e-5 7.0932,-1.3432 9.78125,-4.03125 2.68794,-2.68795 4.03119,-5.97244 4.03125,-9.8125 -6e-5,-3.83993 -1.34331,-7.09318 -4.03125,-9.78125 -2.68805,-2.68793 -5.9413,-4.03117 -9.78125,-4.03125 z m -3.3125,1.28125 2.71875,1.875 0,5.46875 c -0.19204,7e-5 -0.45979,0.0603 -0.84375,0.15625 -0.28804,0.0961 -0.52679,0.18535 -0.71875,0.28125 l -2.3125,-4.03125 -0.875,0.59375 2.3125,4.03125 c -0.48004,0.28807 -0.86829,0.64507 -1.15625,1.125 l -4.90625,-2.71875 -0.125,-3.3125 c 1.53596,-1.72793 3.50621,-2.89268 5.90625,-3.46875 z m 6.625,0 c 2.39995,0.57607 4.3702,1.74082 5.90625,3.46875 l -0.15625,3.3125 -4.90625,2.71875 c -0.28805,-0.47993 -0.64505,-0.83693 -1.125,-1.125 l 2.28125,-4.03125 -0.84375,-0.59375 -2.3125,4.03125 c -0.19205,-0.0959 -0.49105,-0.18515 -0.875,-0.28125 -0.28804,-0.0959 -0.52679,-0.15618 -0.71875,-0.15625 l 0,-5.46875 2.75,-1.875 z m -12.8125,7.65625 4.75,2.71875 c -0.096,0.19206 -0.2165,0.49106 -0.3125,0.875 -0.096,0.28806 -0.12504,0.52681 -0.125,0.71875 l -4.625,0 0,1.15625 4.625,0 c -4e-5,0.19206 0.029,0.45981 0.125,0.84375 0.096,0.28806 0.2165,0.52681 0.3125,0.71875 l -4.75,2.75 -3.03125,-1.4375 c -0.28803,-1.15194 -0.43753,-2.31669 -0.4375,-3.46875 -3e-5,-1.15194 0.14947,-2.28544 0.4375,-3.4375 l 3.03125,-1.4375 z m 19,0 3.03125,1.4375 c 0.28794,1.15206 0.40619,2.28556 0.40625,3.4375 -6e-5,1.15206 -0.11831,2.31681 -0.40625,3.46875 l -3.03125,1.4375 -4.75,-2.75 c 0.0959,-0.19194 0.18525,-0.43069 0.28125,-0.71875 0.096,-0.38394 0.1562,-0.65169 0.15625,-0.84375 l 4.59375,0 0,-1.15625 -4.59375,0 c -5e-5,-0.19194 -0.0602,-0.43069 -0.15625,-0.71875 -0.096,-0.38394 -0.18535,-0.68294 -0.28125,-0.875 l 4.75,-2.71875 z m -9.5,0.5625 c 1.24795,7e-5 2.2632,0.41732 3.03125,1.28125 0.86395,0.76806 1.2812,1.78331 1.28125,3.03125 -5e-5,1.24806 -0.4173,2.32356 -1.28125,3.1875 -0.76805,0.76806 -1.7833,1.12506 -3.03125,1.125 -1.24804,6e-5 -2.32354,-0.35694 -3.1875,-1.125 -0.76804,-0.86394 -1.12504,-1.93944 -1.125,-3.1875 -4e-5,-1.24794 0.35696,-2.26319 1.125,-3.03125 0.86396,-0.86393 1.93946,-1.28118 3.1875,-1.28125 z m -4.1875,7.34375 c 0.28796,0.48006 0.67621,0.86831 1.15625,1.15625 l -2.3125,4.03125 0.875,0.5625 2.3125,-4.03125 c 0.19196,0.0961 0.43071,0.18535 0.71875,0.28125 0.38396,0.0961 0.65171,0.15631 0.84375,0.15625 l 0,5.46875 -2.71875,1.875 c -2.40004,-0.57595 -4.37029,-1.7407 -5.90625,-3.46875 l 0.125,-3.3125 4.90625,-2.71875 z m 8.34375,0 4.90625,2.71875 0.15625,3.3125 c -1.53605,1.72805 -3.5063,2.8928 -5.90625,3.46875 l -2.75,-1.875 0,-5.46875 c 0.19196,6e-5 0.43071,-0.0602 0.71875,-0.15625 0.38395,-0.0959 0.68295,-0.18515 0.875,-0.28125 l 2.3125,4.03125 0.84375,-0.5625 -2.28125,-4.03125 c 0.47995,-0.28794 0.83695,-0.67619 1.125,-1.15625 z"
         id="path4876-3"
         inkscape:connector-curvature="0" />
      <path
         style="font-size:144px;font-style:normal;font-variant:normal;font-weight:500;font-stretch:normal;text-align:start;line-height:125%;letter-spacing:0px;word-spacing:0px;text-anchor:start;fill:#0000ff;fill-opacity:1;stroke:none;font-family:GL-MahjongTile;-inkscape-font-specification:GL-MahjongTile Medium"
         d="m 208.66518,952.69638 c -4.99204,8e-5 -9.26053,1.76058 -12.8125,5.3125 -3.55203,3.55207 -5.34378,7.82057 -5.34375,12.8125 -3e-5,4.99206 1.79172,9.26055 5.34375,12.8125 3.55197,3.55205 7.82046,5.34375 12.8125,5.34375 4.99195,0 9.26045,-1.7917 12.8125,-5.34375 3.55194,-3.55195 5.31244,-7.82044 5.3125,-12.8125 -6e-5,-4.99193 -1.76056,-9.26043 -5.3125,-12.8125 -3.55205,-3.55192 -7.82055,-5.31242 -12.8125,-5.3125 z m 0,2.59375 c 4.31995,8e-5 7.96145,1.52183 10.9375,4.59375 3.07194,2.97607 4.59369,6.61757 4.59375,10.9375 -6e-5,4.32006 -1.52181,8.0218 -4.59375,11.09375 -2.97605,2.97605 -6.61755,4.4688 -10.9375,4.46875 -4.32004,5e-5 -8.02179,-1.4927 -11.09375,-4.46875 -2.97603,-3.07195 -4.46878,-6.77369 -4.46875,-11.09375 -3e-5,-4.31993 1.49272,-7.96143 4.46875,-10.9375 3.07196,-3.07192 6.77371,-4.59367 11.09375,-4.59375 z"
         id="path4872-9"
         inkscape:connector-curvature="0" />
      <path
         style="font-size:144px;font-style:normal;font-variant:normal;font-weight:500;font-stretch:normal;text-align:start;line-height:125%;letter-spacing:0px;word-spacing:0px;text-anchor:start;fill:#0000ff;fill-opacity:1;stroke:none;font-family:GL-MahjongTile;-inkscape-font-specification:GL-MahjongTile Medium"
         d="m 208.65748,972.84299 c -1.34404,6e-5 -2.01604,-0.67194 -2.016,-2.016 -4e-5,-1.34394 0.67196,-2.01594 2.016,-2.016 1.34395,6e-5 2.01595,0.67206 2.016,2.016 -5e-5,1.34406 -0.67205,2.01606 -2.016,2.016"
         id="path4880-3"
         inkscape:connector-curvature="0" />
      <path
         inkscape:connector-curvature="0"
         style="font-size:144px;font-style:normal;font-variant:normal;font-weight:500;font-stretch:normal;text-align:start;line-height:125%;letter-spacing:0px;word-spacing:0px;text-anchor:start;fill:#000000;fill-opacity:1;stroke:none;font-family:GL-MahjongTile;-inkscape-font-specification:GL-MahjongTile Medium"
         d="m 208.66518,910.94643 c -3.84004,8e-5 -7.12454,1.34332 -9.8125,4.03125 -2.68803,2.68807 -4.03128,5.94132 -4.03125,9.78125 -3e-5,3.84006 1.34322,7.12455 4.03125,9.8125 2.68796,2.68805 5.97246,4.0313 9.8125,4.03125 3.83995,5e-5 7.0932,-1.3432 9.78125,-4.03125 2.68794,-2.68795 4.03119,-5.97244 4.03125,-9.8125 -6e-5,-3.83993 -1.34331,-7.09318 -4.03125,-9.78125 -2.68805,-2.68793 -5.9413,-4.03117 -9.78125,-4.03125 z m -3.3125,1.28125 2.71875,1.875 0,5.46875 c -0.19204,7e-5 -0.45979,0.0603 -0.84375,0.15625 -0.28804,0.0961 -0.52679,0.18535 -0.71875,0.28125 l -2.3125,-4.03125 -0.875,0.59375 2.3125,4.03125 c -0.48004,0.28807 -0.86829,0.64507 -1.15625,1.125 l -4.90625,-2.71875 -0.125,-3.3125 c 1.53596,-1.72793 3.50621,-2.89268 5.90625,-3.46875 z m 6.625,0 c 2.39995,0.57607 4.3702,1.74082 5.90625,3.46875 l -0.15625,3.3125 -4.90625,2.71875 c -0.28805,-0.47993 -0.64505,-0.83693 -1.125,-1.125 l 2.28125,-4.03125 -0.84375,-0.59375 -2.3125,4.03125 c -0.19205,-0.0959 -0.49105,-0.18515 -0.875,-0.28125 -0.28804,-0.0959 -0.52679,-0.15618 -0.71875,-0.15625 l 0,-5.46875 2.75,-1.875 z m -12.8125,7.65625 4.75,2.71875 c -0.096,0.19206 -0.2165,0.49106 -0.3125,0.875 -0.096,0.28806 -0.12504,0.52681 -0.125,0.71875 l -4.625,0 0,1.15625 4.625,0 c -4e-5,0.19206 0.029,0.45981 0.125,0.84375 0.096,0.28806 0.2165,0.52681 0.3125,0.71875 l -4.75,2.75 -3.03125,-1.4375 c -0.28803,-1.15194 -0.43753,-2.31669 -0.4375,-3.46875 -3e-5,-1.15194 0.14947,-2.28544 0.4375,-3.4375 l 3.03125,-1.4375 z m 19,0 3.03125,1.4375 c 0.28794,1.15206 0.40619,2.28556 0.40625,3.4375 -6e-5,1.15206 -0.11831,2.31681 -0.40625,3.46875 l -3.03125,1.4375 -4.75,-2.75 c 0.0959,-0.19194 0.18525,-0.43069 0.28125,-0.71875 0.096,-0.38394 0.1562,-0.65169 0.15625,-0.84375 l 4.59375,0 0,-1.15625 -4.59375,0 c -5e-5,-0.19194 -0.0602,-0.43069 -0.15625,-0.71875 -0.096,-0.38394 -0.18535,-0.68294 -0.28125,-0.875 l 4.75,-2.71875 z m -9.5,0.5625 c 1.24795,7e-5 2.2632,0.41732 3.03125,1.28125 0.86395,0.76806 1.2812,1.78331 1.28125,3.03125 -5e-5,1.24806 -0.4173,2.32356 -1.28125,3.1875 -0.76805,0.76806 -1.7833,1.12506 -3.03125,1.125 -1.24804,6e-5 -2.32354,-0.35694 -3.1875,-1.125 -0.76804,-0.86394 -1.12504,-1.93944 -1.125,-3.1875 -4e-5,-1.24794 0.35696,-2.26319 1.125,-3.03125 0.86396,-0.86393 1.93946,-1.28118 3.1875,-1.28125 z m -4.1875,7.34375 c 0.28796,0.48006 0.67621,0.86831 1.15625,1.15625 l -2.3125,4.03125 0.875,0.5625 2.3125,-4.03125 c 0.19196,0.0961 0.43071,0.18535 0.71875,0.28125 0.38396,0.0961 0.65171,0.15631 0.84375,0.15625 l 0,5.46875 -2.71875,1.875 c -2.40004,-0.57595 -4.37029,-1.7407 -5.90625,-3.46875 l 0.125,-3.3125 4.90625,-2.71875 z m 8.34375,0 4.90625,2.71875 0.15625,3.3125 c -1.53605,1.72805 -3.5063,2.8928 -5.90625,3.46875 l -2.75,-1.875 0,-5.46875 c 0.19196,6e-5 0.43071,-0.0602 0.71875,-0.15625 0.38395,-0.0959 0.68295,-0.18515 0.875,-0.28125 l 2.3125,4.03125 0.84375,-0.5625 -2.28125,-4.03125 c 0.47995,-0.28794 0.83695,-0.67619 1.125,-1.15625 z"
         id="path4876" />
      <path
         inkscape:connector-curvature="0"
         style="font-size:144px;font-style:normal;font-variant:normal;font-weight:500;font-stretch:normal;text-align:start;line-height:125%;letter-spacing:0px;word-spacing:0px;text-anchor:start;fill:#000000;fill-opacity:1;stroke:none;font-family:GL-MahjongTile;-inkscape-font-specification:GL-MahjongTile Medium"
         d="m 208.66518,906.63393 c -4.99204,8e-5 -9.26053,1.76058 -12.8125,5.3125 -3.55203,3.55207 -5.34378,7.82057 -5.34375,12.8125 -3e-5,4.99206 1.79172,9.26055 5.34375,12.8125 3.55197,3.55205 7.82046,5.34379 12.8125,5.34375 4.99195,4e-5 9.26045,-1.7917 12.8125,-5.34375 3.55194,-3.55195 5.31244,-7.82044 5.3125,-12.8125 -6e-5,-4.99193 -1.76056,-9.26043 -5.3125,-12.8125 -3.55205,-3.55192 -7.82055,-5.31242 -12.8125,-5.3125 z m 0,2.59375 c 4.31995,8e-5 7.96145,1.52183 10.9375,4.59375 3.07194,2.97607 4.59369,6.61757 4.59375,10.9375 -6e-5,4.32006 -1.52181,8.0218 -4.59375,11.09375 -2.97605,2.97605 -6.61755,4.4688 -10.9375,4.46875 -4.32004,5e-5 -8.02179,-1.4927 -11.09375,-4.46875 -2.97603,-3.07195 -4.46878,-6.77369 -4.46875,-11.09375 -3e-5,-4.31993 1.49272,-7.96143 4.46875,-10.9375 3.07196,-3.07192 6.77371,-4.59367 11.09375,-4.59375 z"
         id="path4872" />
      <path
         inkscape:connector-curvature="0"
         style="font-size:144px;font-style:normal;font-variant:normal;font-weight:500;font-stretch:normal;text-align:start;line-height:125%;letter-spacing:0px;word-spacing:0px;text-anchor:start;fill:#000000;fill-opacity:1;stroke:none;font-family:GL-MahjongTile;-inkscape-font-specification:GL-MahjongTile Medium"
         d="m 208.65748,926.78054 c -1.34404,6e-5 -2.01604,-0.67194 -2.016,-2.016 -4e-5,-1.34394 0.67196,-2.01594 2.016,-2.016 1.34395,6e-5 2.01595,0.67206 2.016,2.016 -5e-5,1.34406 -0.67205,2.01606 -2.016,2.016"
         id="path4880" />
    </g>
  </g>
</svg>
