<?xml version="1.0" encoding="UTF-8" standalone="no"?>
<!-- Created with Inkscape (http://www.inkscape.org/) -->

<svg
   xmlns:dc="http://purl.org/dc/elements/1.1/"
   xmlns:cc="http://creativecommons.org/ns#"
   xmlns:rdf="http://www.w3.org/1999/02/22-rdf-syntax-ns#"
   xmlns:svg="http://www.w3.org/2000/svg"
   xmlns="http://www.w3.org/2000/svg"
   xmlns:sodipodi="http://sodipodi.sourceforge.net/DTD/sodipodi-0.dtd"
   xmlns:inkscape="http://www.inkscape.org/namespaces/inkscape"
   width="79.571373"
   height="115.96954"
   id="svg3237"
   version="1.1"
   inkscape:version="0.48.3.1 r9886"
   sodipodi:docname="P5.svg">
  <defs
     id="defs3239" />
  <sodipodi:namedview
     id="base"
     pagecolor="#ffffff"
     bordercolor="#666666"
     borderopacity="1.0"
     inkscape:pageopacity="0.0"
     inkscape:pageshadow="2"
     inkscape:zoom="0.7"
     inkscape:cx="-114.01544"
     inkscape:cy="-74.873891"
     inkscape:document-units="px"
     inkscape:current-layer="layer1"
     showgrid="false"
     fit-margin-top="0"
     fit-margin-left="0"
     fit-margin-right="0"
     fit-margin-bottom="0"
     inkscape:window-width="748"
     inkscape:window-height="600"
     inkscape:window-x="399"
     inkscape:window-y="247"
     inkscape:window-maximized="0" />
  <metadata
     id="metadata3242">
    <rdf:RDF>
      <cc:Work
         rdf:about="">
        <dc:format>image/svg+xml</dc:format>
        <dc:type
           rdf:resource="http://purl.org/dc/dcmitype/StillImage" />
        <dc:title />
      </cc:Work>
    </rdf:RDF>
  </metadata>
  <g
     inkscape:label="Layer 1"
     inkscape:groupmode="layer"
     id="layer1"
     transform="translate(35.767783,-237.04016)">
    <rect
       ry="5.4056678"
       y="237.54466"
       x="-35.263283"
       height="114.96053"
       width="78.56237"
       id="rect6731-9-38"
       style="fill:#ffffff;stroke:#000000;stroke-width:1.00899994;stroke-miterlimit:4;stroke-opacity:1;stroke-dasharray:none;stroke-dashoffset:0" />
    <g
       transform="translate(-481.38164,-652.78086)"
       id="g7521">
      <path
         style="font-size:144px;font-style:normal;font-variant:normal;font-weight:500;font-stretch:normal;text-align:start;line-height:125%;letter-spacing:0px;word-spacing:0px;text-anchor:start;fill:#000000;fill-opacity:1;stroke:none;font-family:GL-MahjongTile;-inkscape-font-specification:GL-MahjongTile Medium"
         d="m 502.69643,966.50893 c -3.74406,2e-5 -6.9683,1.37452 -9.65625,4.0625 -2.68805,2.68801 -4.0313,5.88101 -4.03125,9.625 -5e-5,3.744 1.3432,6.96826 4.03125,9.6562 2.68795,2.688 5.91219,4.0313 9.65625,4.0313 3.74394,0 6.93693,-1.3433 9.625,-4.0313 2.68793,-2.68794 4.03118,-5.9122 4.03125,-9.6562 -7e-5,-3.74399 -1.34332,-6.93699 -4.03125,-9.625 -2.68807,-2.68798 -5.88106,-4.06248 -9.625,-4.0625 z m 0,2.1875 c 3.16794,2e-5 5.85443,1.13352 8.0625,3.4375 2.30393,2.20801 3.43743,4.89451 3.4375,8.0625 -7e-5,3.168 -1.13357,5.91475 -3.4375,8.21875 -2.20807,2.20795 -4.89456,3.31245 -8.0625,3.31245 -3.16806,0 -5.91481,-1.1045 -8.21875,-3.31245 -2.20805,-2.304 -3.31255,-5.05075 -3.3125,-8.21875 -5e-5,-3.16799 1.10445,-5.85449 3.3125,-8.0625 2.30394,-2.30398 5.05069,-3.43748 8.21875,-3.4375 z"
         id="path4668"
         inkscape:connector-curvature="0" />
      <path
         style="font-size:144px;font-style:normal;font-variant:normal;font-weight:500;font-stretch:normal;text-align:start;line-height:125%;letter-spacing:0px;word-spacing:0px;text-anchor:start;fill:#0000ff;fill-opacity:1;stroke:none;font-family:GL-MahjongTile;-inkscape-font-specification:GL-MahjongTile Medium"
         d="m 468.13393,966.50893 c -3.74402,2e-5 -6.96827,1.37452 -9.65625,4.0625 -2.68801,2.68801 -4.03126,5.88101 -4.03125,9.625 -1e-5,3.744 1.34324,6.96826 4.03125,9.6562 2.68798,2.688 5.91223,4.0313 9.65625,4.0313 3.74397,0 6.96822,-1.3433 9.65625,-4.0313 2.68796,-2.68794 4.03121,-5.9122 4.03125,-9.6562 -4e-5,-3.74399 -1.34329,-6.93699 -4.03125,-9.625 -2.68803,-2.68798 -5.91228,-4.06248 -9.65625,-4.0625 z m 0,2.1875 c 3.16797,2e-5 5.85447,1.13352 8.0625,3.4375 2.30396,2.20801 3.43746,4.89451 3.4375,8.0625 -4e-5,3.168 -1.13354,5.91475 -3.4375,8.21875 -2.20803,2.20795 -4.89453,3.31245 -8.0625,3.31245 -3.16802,0 -5.91477,-1.1045 -8.21875,-3.31245 -2.20802,-2.304 -3.31252,-5.05075 -3.3125,-8.21875 -2e-5,-3.16799 1.10448,-5.85449 3.3125,-8.0625 2.30398,-2.30398 5.05073,-3.43748 8.21875,-3.4375 z"
         id="path4708"
         inkscape:connector-curvature="0" />
      <path
         style="font-size:144px;font-style:normal;font-variant:normal;font-weight:500;font-stretch:normal;text-align:start;line-height:125%;letter-spacing:0px;word-spacing:0px;text-anchor:start;fill:#ff0000;fill-opacity:1;stroke:none;font-family:GL-MahjongTile;-inkscape-font-specification:GL-MahjongTile Medium"
         d="m 485.41518,934.13393 c -3.74404,5e-5 -6.96829,1.3433 -9.65625,4.03125 -2.68803,2.68805 -4.03128,5.88104 -4.03125,9.625 -3e-5,3.74403 1.34322,6.96828 4.03125,9.65625 2.68796,2.68803 5.91221,4.03127 9.65625,4.03125 3.74395,2e-5 6.93695,-1.34322 9.625,-4.03125 2.68794,-2.68797 4.06244,-5.91222 4.0625,-9.65625 -6e-5,-3.74396 -1.37456,-6.93695 -4.0625,-9.625 -2.68805,-2.68795 -5.88105,-4.0312 -9.625,-4.03125 z m 0,2.15625 c 3.16795,5e-5 5.85445,1.13355 8.0625,3.4375 2.30395,2.20804 3.43744,4.89454 3.4375,8.0625 -6e-5,3.16804 -1.13355,5.91478 -3.4375,8.21875 -2.20805,2.20803 -4.89455,3.31253 -8.0625,3.3125 -3.16804,3e-5 -5.91479,-1.10447 -8.21875,-3.3125 -2.20803,-2.30397 -3.31253,-5.05071 -3.3125,-8.21875 -3e-5,-3.16796 1.10447,-5.85446 3.3125,-8.0625 2.30396,-2.30395 5.05071,-3.43745 8.21875,-3.4375 z"
         id="path4628"
         inkscape:connector-curvature="0" />
      <path
         style="font-size:144px;font-style:normal;font-variant:normal;font-weight:500;font-stretch:normal;text-align:start;line-height:125%;letter-spacing:0px;word-spacing:0px;text-anchor:start;fill:#000000;fill-opacity:1;stroke:none;font-family:GL-MahjongTile;-inkscape-font-specification:GL-MahjongTile Medium"
         d="m 468.13393,901.72768 c -3.74402,8e-5 -6.96827,1.34333 -9.65625,4.03125 -2.68801,2.68808 -4.03126,5.91232 -4.03125,9.65625 -1e-5,3.74407 1.34324,6.93706 4.03125,9.625 2.68798,2.68806 5.91223,4.03131 9.65625,4.03125 3.74397,6e-5 6.96822,-1.34319 9.65625,-4.03125 2.68796,-2.68794 4.03121,-5.88093 4.03125,-9.625 -4e-5,-3.74393 -1.34329,-6.96817 -4.03125,-9.65625 -2.68803,-2.68792 -5.91228,-4.03117 -9.65625,-4.03125 z m 0,2.15625 c 3.16797,8e-5 5.85447,1.16483 8.0625,3.46875 2.30396,2.20808 3.43746,4.89457 3.4375,8.0625 -4e-5,3.16807 -1.13354,5.88357 -3.4375,8.1875 -2.20803,2.20806 -4.89453,3.31256 -8.0625,3.3125 -3.16802,6e-5 -5.91477,-1.10444 -8.21875,-3.3125 -2.20802,-2.30393 -3.31252,-5.01943 -3.3125,-8.1875 -2e-5,-3.16793 1.10448,-5.85442 3.3125,-8.0625 2.30398,-2.30392 5.05073,-3.46867 8.21875,-3.46875 z"
         id="path4648"
         inkscape:connector-curvature="0" />
      <path
         style="font-size:144px;font-style:normal;font-variant:normal;font-weight:500;font-stretch:normal;text-align:start;line-height:125%;letter-spacing:0px;word-spacing:0px;text-anchor:start;fill:#0000ff;fill-opacity:1;stroke:none;font-family:GL-MahjongTile;-inkscape-font-specification:GL-MahjongTile Medium"
         d="m 502.69643,901.72768 c -3.74406,8e-5 -6.9683,1.34333 -9.65625,4.03125 -2.68805,2.68808 -4.0313,5.91232 -4.03125,9.65625 -5e-5,3.74407 1.3432,6.93706 4.03125,9.625 2.68795,2.68806 5.91219,4.03131 9.65625,4.03125 3.74394,6e-5 6.93693,-1.34319 9.625,-4.03125 2.68793,-2.68794 4.03118,-5.88093 4.03125,-9.625 -7e-5,-3.74393 -1.34332,-6.96817 -4.03125,-9.65625 -2.68807,-2.68792 -5.88106,-4.03117 -9.625,-4.03125 z m 0,2.15625 c 3.16794,8e-5 5.85443,1.16483 8.0625,3.46875 2.30393,2.20808 3.43743,4.89457 3.4375,8.0625 -7e-5,3.16807 -1.13357,5.88357 -3.4375,8.1875 -2.20807,2.20806 -4.89456,3.31256 -8.0625,3.3125 -3.16806,6e-5 -5.91481,-1.10444 -8.21875,-3.3125 -2.20805,-2.30393 -3.31255,-5.01943 -3.3125,-8.1875 -5e-5,-3.16793 1.10445,-5.85442 3.3125,-8.0625 2.30394,-2.30392 5.05069,-3.46867 8.21875,-3.46875 z"
         id="path4688"
         inkscape:connector-curvature="0" />
      <path
         style="font-size:144px;font-style:normal;font-variant:normal;font-weight:500;font-stretch:normal;text-align:start;line-height:125%;letter-spacing:0px;word-spacing:0px;text-anchor:start;fill:#0000ff;fill-opacity:1;stroke:none;font-family:GL-MahjongTile;-inkscape-font-specification:GL-MahjongTile Medium"
         d="m 468.13393,970.13393 c -2.78402,2e-5 -5.20277,0.98402 -7.21875,3 -1.92002,1.92001 -2.87502,4.27851 -2.875,7.0625 -2e-5,2.784 0.95498,5.20275 2.875,7.21875 2.01598,1.91995 4.43473,2.87505 7.21875,2.87505 2.78397,0 5.14247,-0.9551 7.0625,-2.87505 2.01596,-2.016 2.99996,-4.43475 3,-7.21875 -4e-5,-2.78399 -0.98404,-5.14249 -3,-7.0625 -1.92003,-2.01598 -4.27853,-2.99998 -7.0625,-3 z m 0,1.4375 c 0.95997,1e-5 2.00422,0.17851 3.15625,0.5625 l 0.59375,1.59375 -1.59375,2.3125 -0.59375,0 c -0.38403,-0.096 -0.89053,-0.15624 -1.5625,-0.15625 -0.67203,1e-5 -1.20978,0.0602 -1.59375,0.15625 l -0.5625,0 -1.59375,-2.3125 0.5625,-1.59375 c 1.15198,-0.38399 2.22747,-0.56249 3.1875,-0.5625 z m -6.625,3.03125 1.71875,0 1.59375,2.28125 c -0.096,0.19201 -0.24552,0.49101 -0.4375,0.875 -0.19202,0.38401 -0.3415,0.77226 -0.4375,1.15625 -0.096,0.38401 -0.12502,0.86151 -0.125,1.4375 l -0.3125,0.5625 -2.71875,0.875 -1.3125,-1 0,-0.59375 c -2e-5,-2.11199 0.68723,-3.96174 2.03125,-5.59375 z m 11.5,0 1.75,0 c 1.34397,1.63201 1.99996,3.48176 2,5.59375 l 0,0.59375 -1.28125,1 -2.75,-0.875 -0.28125,-0.5625 c -3e-5,-0.57599 -0.0602,-1.05349 -0.15625,-1.4375 -0.096,-0.38399 -0.21428,-0.77224 -0.40625,-1.15625 -0.19203,-0.38399 -0.3415,-0.68299 -0.4375,-0.875 l 1.5625,-2.28125 z m -4.875,2.71875 c 0.76797,1e-5 1.42397,0.29901 2,0.875 0.57597,0.57601 0.87497,1.23201 0.875,2 -3e-5,0.76801 -0.29903,1.45525 -0.875,2.03125 -0.57603,0.576 -1.23203,0.84375 -2,0.84375 -0.76803,0 -1.45528,-0.26775 -2.03125,-0.84375 -0.57602,-0.576 -0.84377,-1.26324 -0.84375,-2.03125 -2e-5,-0.76799 0.26773,-1.42399 0.84375,-2 0.57597,-0.57599 1.26322,-0.87499 2.03125,-0.875 z m -4.1875,5.03125 0.59375,0.3125 c 0.57598,0.864 1.38148,1.43075 2.4375,1.71875 l 0.4375,0.4375 0,2.875 -1.3125,0.875 c -2.40002,-0.576 -4.16052,-1.83 -5.3125,-3.75 l 0.5625,-1.59375 2.59375,-0.875 z m 8.34375,0 2.59375,0.875 0.59375,1.59375 c -1.15203,1.92 -2.94378,3.174 -5.34375,3.75 l -1.28125,-0.875 0,-2.875 c 0.86397,-0.384 1.99747,-1.22075 3.4375,-2.46875 z"
         id="path4706"
         inkscape:connector-curvature="0" />
      <path
         style="font-size:144px;font-style:normal;font-variant:normal;font-weight:500;font-stretch:normal;text-align:start;line-height:125%;letter-spacing:0px;word-spacing:0px;text-anchor:start;fill:#0000ff;fill-opacity:1;stroke:none;font-family:GL-MahjongTile;-inkscape-font-specification:GL-MahjongTile Medium"
         d="m 468.12748,978.76454 c 0.95997,10e-6 1.43997,0.48001 1.44,1.44 -3e-5,0.96001 -0.48003,1.44 -1.44,1.44 -0.96003,0 -1.44003,-0.47999 -1.44,-1.44 -3e-5,-0.95999 0.47997,-1.43999 1.44,-1.44"
         id="path4702"
         inkscape:connector-curvature="0" />
      <path
         style="font-size:144px;font-style:normal;font-variant:normal;font-weight:500;font-stretch:normal;text-align:start;line-height:125%;letter-spacing:0px;word-spacing:0px;text-anchor:start;fill:#0000ff;fill-opacity:1;stroke:none;font-family:GL-MahjongTile;-inkscape-font-specification:GL-MahjongTile Medium"
         d="m 502.69643,905.32143 c -2.78406,8e-5 -5.20281,1.01533 -7.21875,3.03125 -1.92005,1.92008 -2.87505,4.27857 -2.875,7.0625 -5e-5,2.78407 0.95495,5.17157 2.875,7.1875 2.01594,1.92006 4.43469,2.87506 7.21875,2.875 2.78394,6e-5 5.14243,-0.95494 7.0625,-2.875 2.01593,-2.01593 2.99993,-4.40343 3,-7.1875 -7e-5,-2.78393 -0.98407,-5.14242 -3,-7.0625 -1.92007,-2.01592 -4.27856,-3.03117 -7.0625,-3.03125 z m 0,1.4375 c 0.95994,8e-5 2.00419,0.20983 3.15625,0.59375 l 0.59375,1.5625 -1.59375,2.3125 -0.59375,0 c -0.38406,-0.0959 -0.89056,-0.15617 -1.5625,-0.15625 -0.67206,8e-5 -1.20981,0.0603 -1.59375,0.15625 l -0.5625,0 -1.59375,-2.3125 0.5625,-1.5625 c 1.15194,-0.38392 2.22744,-0.59367 3.1875,-0.59375 z m -6.625,3.03125 1.71875,0 1.59375,2.3125 c -0.0961,0.19207 -0.24556,0.45982 -0.4375,0.84375 -0.19206,0.38407 -0.3416,0.77232 -0.4375,1.15625 -0.0961,0.38407 -0.15631,0.86157 -0.15625,1.4375 l -0.28125,0.59375 -2.71875,0.84375 -1.3125,-1 0,-0.5625 c -5e-5,-2.11193 0.6872,-3.99292 2.03125,-5.625 z m 11.5,0 1.75,0 c 1.34393,1.63208 1.99993,3.51307 2,5.625 l 0,0.5625 -1.28125,1 -2.75,-0.84375 -0.28125,-0.59375 c -7e-5,-0.57593 -0.0604,-1.05343 -0.15625,-1.4375 -0.0961,-0.38393 -0.21432,-0.77218 -0.40625,-1.15625 -0.19206,-0.38393 -0.3416,-0.65168 -0.4375,-0.84375 l 1.5625,-2.3125 z m -4.875,2.71875 c 0.76794,7e-5 1.42394,0.29907 2,0.875 0.57594,0.57607 0.87494,1.26332 0.875,2.03125 -6e-5,0.76807 -0.29906,1.42407 -0.875,2 -0.57606,0.57607 -1.23206,0.87507 -2,0.875 -0.76806,7e-5 -1.45531,-0.29893 -2.03125,-0.875 -0.57606,-0.57593 -0.84381,-1.23193 -0.84375,-2 -6e-5,-0.76793 0.26769,-1.45518 0.84375,-2.03125 0.57594,-0.57593 1.26319,-0.87493 2.03125,-0.875 z m -4.1875,5.0625 0.59375,0.28125 c 0.57594,0.86407 1.38144,1.43082 2.4375,1.71875 l 0.4375,0.4375 0,2.875 -1.3125,0.875 c -2.40006,-0.57594 -4.16055,-1.82994 -5.3125,-3.75 l 0.5625,-1.59375 2.59375,-0.84375 z m 8.34375,0 2.59375,0.84375 0.59375,1.59375 c -1.15207,1.92006 -2.94382,3.17406 -5.34375,3.75 l -1.28125,-0.875 0,-2.875 c 0.86394,-0.38393 1.99744,-1.18943 3.4375,-2.4375 z"
         id="path4686"
         inkscape:connector-curvature="0" />
      <path
         style="font-size:144px;font-style:normal;font-variant:normal;font-weight:500;font-stretch:normal;text-align:start;line-height:125%;letter-spacing:0px;word-spacing:0px;text-anchor:start;fill:#0000ff;fill-opacity:1;stroke:none;font-family:GL-MahjongTile;-inkscape-font-specification:GL-MahjongTile Medium"
         d="m 502.68748,913.96454 c 0.95994,7e-5 1.43994,0.48007 1.44,1.44 -6e-5,0.96007 -0.48006,1.44007 -1.44,1.44 -0.96006,7e-5 -1.44006,-0.47993 -1.44,-1.44 -6e-5,-0.95993 0.47994,-1.43993 1.44,-1.44"
         id="path4682"
         inkscape:connector-curvature="0" />
      <path
         style="font-size:144px;font-style:normal;font-variant:normal;font-weight:500;font-stretch:normal;text-align:start;line-height:125%;letter-spacing:0px;word-spacing:0px;text-anchor:start;fill:#000000;fill-opacity:1;stroke:none;font-family:GL-MahjongTile;-inkscape-font-specification:GL-MahjongTile Medium"
         d="m 502.69643,970.13393 c -2.78406,2e-5 -5.20281,0.98402 -7.21875,3 -1.92005,1.92001 -2.87505,4.27851 -2.875,7.0625 -5e-5,2.784 0.95495,5.20275 2.875,7.21875 2.01594,1.91995 4.43469,2.87505 7.21875,2.87505 2.78394,0 5.14243,-0.9551 7.0625,-2.87505 2.01593,-2.016 2.99993,-4.43475 3,-7.21875 -7e-5,-2.78399 -0.98407,-5.14249 -3,-7.0625 -1.92007,-2.01598 -4.27856,-2.99998 -7.0625,-3 z m 0,1.4375 c 0.95994,1e-5 2.00419,0.17851 3.15625,0.5625 l 0.59375,1.59375 -1.59375,2.3125 -0.59375,0 c -0.38406,-0.096 -0.89056,-0.15624 -1.5625,-0.15625 -0.67206,1e-5 -1.20981,0.0602 -1.59375,0.15625 l -0.5625,0 -1.59375,-2.3125 0.5625,-1.59375 c 1.15194,-0.38399 2.22744,-0.56249 3.1875,-0.5625 z m -6.625,3.03125 1.71875,0 1.59375,2.28125 c -0.0961,0.19201 -0.24556,0.49101 -0.4375,0.875 -0.19206,0.38401 -0.3416,0.77226 -0.4375,1.15625 -0.0961,0.38401 -0.15631,0.86151 -0.15625,1.4375 l -0.28125,0.5625 -2.71875,0.875 -1.3125,-1 0,-0.59375 c -5e-5,-2.11199 0.6872,-3.96174 2.03125,-5.59375 z m 11.5,0 1.75,0 c 1.34393,1.63201 1.99993,3.48176 2,5.59375 l 0,0.59375 -1.28125,1 -2.75,-0.875 -0.28125,-0.5625 c -7e-5,-0.57599 -0.0604,-1.05349 -0.15625,-1.4375 -0.0961,-0.38399 -0.21432,-0.77224 -0.40625,-1.15625 -0.19206,-0.38399 -0.3416,-0.68299 -0.4375,-0.875 l 1.5625,-2.28125 z m -4.875,2.71875 c 0.76794,1e-5 1.42394,0.29901 2,0.875 0.57594,0.57601 0.87494,1.23201 0.875,2 -6e-5,0.76801 -0.29906,1.45525 -0.875,2.03125 -0.57606,0.576 -1.23206,0.84375 -2,0.84375 -0.76806,0 -1.45531,-0.26775 -2.03125,-0.84375 -0.57606,-0.576 -0.84381,-1.26324 -0.84375,-2.03125 -6e-5,-0.76799 0.26769,-1.42399 0.84375,-2 0.57594,-0.57599 1.26319,-0.87499 2.03125,-0.875 z m -4.1875,5.03125 0.59375,0.3125 c 0.57594,0.864 1.38144,1.43075 2.4375,1.71875 l 0.4375,0.4375 0,2.875 -1.3125,0.875 c -2.40006,-0.576 -4.16055,-1.83 -5.3125,-3.75 l 0.5625,-1.59375 2.59375,-0.875 z m 8.34375,0 2.59375,0.875 0.59375,1.59375 c -1.15207,1.92 -2.94382,3.174 -5.34375,3.75 l -1.28125,-0.875 0,-2.875 c 0.86394,-0.384 1.99744,-1.22075 3.4375,-2.46875 z"
         id="path4666"
         inkscape:connector-curvature="0" />
      <path
         style="font-size:144px;font-style:normal;font-variant:normal;font-weight:500;font-stretch:normal;text-align:start;line-height:125%;letter-spacing:0px;word-spacing:0px;text-anchor:start;fill:#000000;fill-opacity:1;stroke:none;font-family:GL-MahjongTile;-inkscape-font-specification:GL-MahjongTile Medium"
         d="m 502.68748,978.76454 c 0.95994,10e-6 1.43994,0.48001 1.44,1.44 -6e-5,0.96001 -0.48006,1.44 -1.44,1.44 -0.96006,0 -1.44006,-0.47999 -1.44,-1.44 -6e-5,-0.95999 0.47994,-1.43999 1.44,-1.44"
         id="path4662"
         inkscape:connector-curvature="0" />
      <path
         style="font-size:144px;font-style:normal;font-variant:normal;font-weight:500;font-stretch:normal;text-align:start;line-height:125%;letter-spacing:0px;word-spacing:0px;text-anchor:start;fill:#000000;fill-opacity:1;stroke:none;font-family:GL-MahjongTile;-inkscape-font-specification:GL-MahjongTile Medium"
         d="m 468.13393,905.32143 c -2.78402,8e-5 -5.20277,1.01533 -7.21875,3.03125 -1.92002,1.92008 -2.87502,4.27857 -2.875,7.0625 -2e-5,2.78407 0.95498,5.17157 2.875,7.1875 2.01598,1.92006 4.43473,2.87506 7.21875,2.875 2.78397,6e-5 5.14247,-0.95494 7.0625,-2.875 2.01596,-2.01593 2.99996,-4.40343 3,-7.1875 -4e-5,-2.78393 -0.98404,-5.14242 -3,-7.0625 -1.92003,-2.01592 -4.27853,-3.03117 -7.0625,-3.03125 z m 0,1.4375 c 0.95997,8e-5 2.00422,0.20983 3.15625,0.59375 l 0.59375,1.5625 -1.59375,2.3125 -0.59375,0 c -0.38403,-0.0959 -0.89053,-0.15617 -1.5625,-0.15625 -0.67203,8e-5 -1.20978,0.0603 -1.59375,0.15625 l -0.5625,0 -1.59375,-2.3125 0.5625,-1.5625 c 1.15198,-0.38392 2.22747,-0.59367 3.1875,-0.59375 z m -6.625,3.03125 1.71875,0 1.59375,2.3125 c -0.096,0.19207 -0.24552,0.45982 -0.4375,0.84375 -0.19202,0.38407 -0.3415,0.77232 -0.4375,1.15625 -0.096,0.38407 -0.12502,0.86157 -0.125,1.4375 l -0.3125,0.59375 -2.71875,0.84375 -1.3125,-1 0,-0.5625 c -2e-5,-2.11193 0.68723,-3.99292 2.03125,-5.625 z m 11.5,0 1.75,0 c 1.34397,1.63208 1.99996,3.51307 2,5.625 l 0,0.5625 -1.28125,1 -2.75,-0.84375 -0.28125,-0.59375 c -3e-5,-0.57593 -0.0602,-1.05343 -0.15625,-1.4375 -0.096,-0.38393 -0.21428,-0.77218 -0.40625,-1.15625 -0.19203,-0.38393 -0.3415,-0.65168 -0.4375,-0.84375 l 1.5625,-2.3125 z m -4.875,2.71875 c 0.76797,7e-5 1.42397,0.29907 2,0.875 0.57597,0.57607 0.87497,1.26332 0.875,2.03125 -3e-5,0.76807 -0.29903,1.42407 -0.875,2 -0.57603,0.57607 -1.23203,0.87507 -2,0.875 -0.76803,7e-5 -1.45528,-0.29893 -2.03125,-0.875 -0.57602,-0.57593 -0.84377,-1.23193 -0.84375,-2 -2e-5,-0.76793 0.26773,-1.45518 0.84375,-2.03125 0.57597,-0.57593 1.26322,-0.87493 2.03125,-0.875 z m -4.1875,5.0625 0.59375,0.28125 c 0.57598,0.86407 1.38148,1.43082 2.4375,1.71875 l 0.4375,0.4375 0,2.875 -1.3125,0.875 c -2.40002,-0.57594 -4.16052,-1.82994 -5.3125,-3.75 l 0.5625,-1.59375 2.59375,-0.84375 z m 8.34375,0 2.59375,0.84375 0.59375,1.59375 c -1.15203,1.92006 -2.94378,3.17406 -5.34375,3.75 l -1.28125,-0.875 0,-2.875 c 0.86397,-0.38393 1.99747,-1.18943 3.4375,-2.4375 z"
         id="path4646"
         inkscape:connector-curvature="0" />
      <path
         style="font-size:144px;font-style:normal;font-variant:normal;font-weight:500;font-stretch:normal;text-align:start;line-height:125%;letter-spacing:0px;word-spacing:0px;text-anchor:start;fill:#000000;fill-opacity:1;stroke:none;font-family:GL-MahjongTile;-inkscape-font-specification:GL-MahjongTile Medium"
         d="m 468.12748,913.96454 c 0.95997,7e-5 1.43997,0.48007 1.44,1.44 -3e-5,0.96007 -0.48003,1.44007 -1.44,1.44 -0.96003,7e-5 -1.44003,-0.47993 -1.44,-1.44 -3e-5,-0.95993 0.47997,-1.43993 1.44,-1.44"
         id="path4642"
         inkscape:connector-curvature="0" />
      <path
         style="font-size:144px;font-style:normal;font-variant:normal;font-weight:500;font-stretch:normal;text-align:start;line-height:125%;letter-spacing:0px;word-spacing:0px;text-anchor:start;fill:#ff0000;fill-opacity:1;stroke:none;font-family:GL-MahjongTile;-inkscape-font-specification:GL-MahjongTile Medium"
         d="m 485.41518,937.72768 c -2.78404,5e-5 -5.20279,1.0153 -7.21875,3.03125 -1.92003,1.92004 -2.87503,4.24729 -2.875,7.03125 -3e-5,2.78404 0.95497,5.20278 2.875,7.21875 2.01596,1.92003 4.43471,2.87503 7.21875,2.875 2.78395,3e-5 5.14245,-0.95497 7.0625,-2.875 2.01595,-2.01597 2.99995,-4.43471 3,-7.21875 -5e-5,-2.78396 -0.98405,-5.11121 -3,-7.03125 -1.92005,-2.01595 -4.27855,-3.0312 -7.0625,-3.03125 z m 0,1.4375 c 0.95996,5e-5 2.0042,0.17855 3.15625,0.5625 l 0.59375,1.59375 -1.59375,2.3125 -0.59375,0 c -0.38405,-0.096 -0.89054,-0.15621 -1.5625,-0.15625 -0.67204,4e-5 -1.20979,0.0602 -1.59375,0.15625 l -0.5625,0 -1.59375,-2.3125 0.5625,-1.59375 c 1.15196,-0.38395 2.22746,-0.56245 3.1875,-0.5625 z m -6.625,3.03125 1.71875,0 1.59375,2.28125 c -0.096,0.19204 -0.24554,0.49104 -0.4375,0.875 -0.19204,0.38404 -0.3415,0.77229 -0.4375,1.15625 -0.096,0.38404 -0.12504,0.86154 -0.125,1.4375 l -0.3125,0.5625 -2.71875,0.875 -1.3125,-1 0,-0.59375 c -4e-5,-2.11196 0.68721,-3.96171 2.03125,-5.59375 z m 11.5,0 1.75,0 c 1.34395,1.63204 1.99995,3.48179 2,5.59375 l 0,0.59375 -1.28125,1 -2.75,-0.875 -0.28125,-0.5625 c -5e-5,-0.57596 -0.0602,-1.05346 -0.15625,-1.4375 -0.096,-0.38396 -0.2143,-0.77221 -0.40625,-1.15625 -0.19205,-0.38396 -0.3415,-0.68296 -0.4375,-0.875 l 1.5625,-2.28125 z m -4.875,2.71875 c 0.76796,4e-5 1.42395,0.29904 2,0.875 0.57595,0.57604 0.87495,1.23204 0.875,2 -5e-5,0.76804 -0.29905,1.45529 -0.875,2.03125 -0.57605,0.57604 -1.23204,0.87504 -2,0.875 -0.76804,4e-5 -1.45529,-0.29896 -2.03125,-0.875 -0.57604,-0.57596 -0.84379,-1.26321 -0.84375,-2.03125 -4e-5,-0.76796 0.26771,-1.42396 0.84375,-2 0.57596,-0.57596 1.26321,-0.87496 2.03125,-0.875 z m -4.1875,5.0625 0.59375,0.28125 c 0.57596,0.86404 1.38146,1.43078 2.4375,1.71875 l 0.4375,0.4375 0,2.875 -1.3125,0.875 c -2.40004,-0.57597 -4.16054,-1.82997 -5.3125,-3.75 l 0.5625,-1.59375 2.59375,-0.84375 z m 8.34375,0 2.59375,0.84375 0.59375,1.59375 c -1.15205,1.92003 -2.9438,3.17403 -5.34375,3.75 l -1.28125,-0.875 0,-2.875 c 0.86395,-0.38397 1.99745,-1.18946 3.4375,-2.4375 z"
         id="path4626"
         inkscape:connector-curvature="0" />
      <path
         style="font-size:144px;font-style:normal;font-variant:normal;font-weight:500;font-stretch:normal;text-align:start;line-height:125%;letter-spacing:0px;word-spacing:0px;text-anchor:start;fill:#ff0000;fill-opacity:1;stroke:none;font-family:GL-MahjongTile;-inkscape-font-specification:GL-MahjongTile Medium"
         d="m 485.40748,946.36454 c 0.95996,4e-5 1.43995,0.48004 1.44,1.44 -5e-5,0.96004 -0.48004,1.44004 -1.44,1.44 -0.96004,4e-5 -1.44004,-0.47996 -1.44,-1.44 -4e-5,-0.95996 0.47996,-1.43996 1.44,-1.44"
         id="path4622"
         inkscape:connector-curvature="0" />
    </g>
  </g>
</svg>
