<?xml version="1.0" encoding="UTF-8" standalone="no"?>
<!-- Created with Inkscape (http://www.inkscape.org/) -->

<svg
   xmlns:dc="http://purl.org/dc/elements/1.1/"
   xmlns:cc="http://creativecommons.org/ns#"
   xmlns:rdf="http://www.w3.org/1999/02/22-rdf-syntax-ns#"
   xmlns:svg="http://www.w3.org/2000/svg"
   xmlns="http://www.w3.org/2000/svg"
   xmlns:sodipodi="http://sodipodi.sourceforge.net/DTD/sodipodi-0.dtd"
   xmlns:inkscape="http://www.inkscape.org/namespaces/inkscape"
   width="79.571373"
   height="115.96954"
   id="svg3237"
   version="1.1"
   inkscape:version="0.48.3.1 r9886"
   sodipodi:docname="S2.svg">
  <defs
     id="defs3239" />
  <sodipodi:namedview
     id="base"
     pagecolor="#ffffff"
     bordercolor="#666666"
     borderopacity="1.0"
     inkscape:pageopacity="0.0"
     inkscape:pageshadow="2"
     inkscape:zoom="0.7"
     inkscape:cx="128.91043"
     inkscape:cy="32.823397"
     inkscape:document-units="px"
     inkscape:current-layer="layer1"
     showgrid="false"
     fit-margin-top="0"
     fit-margin-left="0"
     fit-margin-right="0"
     fit-margin-bottom="0"
     inkscape:window-width="748"
     inkscape:window-height="600"
     inkscape:window-x="377"
     inkscape:window-y="234"
     inkscape:window-maximized="0" />
  <metadata
     id="metadata3242">
    <rdf:RDF>
      <cc:Work
         rdf:about="">
        <dc:format>image/svg+xml</dc:format>
        <dc:type
           rdf:resource="http://purl.org/dc/dcmitype/StillImage" />
        <dc:title />
      </cc:Work>
    </rdf:RDF>
  </metadata>
  <g
     inkscape:label="Layer 1"
     inkscape:groupmode="layer"
     id="layer1"
     transform="translate(278.69365,-439.54912)">
    <rect
       ry="5.4056678"
       y="440.05362"
       x="-278.18915"
       height="114.96053"
       width="78.56237"
       id="rect6731-9-1"
       style="fill:#ffffff;stroke:#000000;stroke-width:1.00899994;stroke-miterlimit:4;stroke-opacity:1;stroke-dasharray:none;stroke-dashoffset:0" />
    <g
       transform="translate(-447.55752,-270.27193)"
       id="g7036">
      <path
         style="font-size:144px;font-style:normal;font-variant:normal;font-weight:500;font-stretch:normal;text-align:start;line-height:125%;letter-spacing:0px;word-spacing:0px;text-anchor:start;fill:#008800;fill-opacity:1;stroke:none;font-family:GL-MahjongTile;-inkscape-font-specification:GL-MahjongTile Medium"
         d="m 208.66518,773.13393 c -5.76004,3e-5 -8.65629,1.01528 -8.65625,3.03125 -4e-5,1.63203 1.19371,3.06453 3.59375,4.3125 l 0,9.0625 c -2.40004,0.76802 -3.59379,1.93277 -3.59375,3.46875 -4e-5,1.53601 1.19371,2.66951 3.59375,3.4375 l 0,9.09375 c -2.40004,1.248 -3.59379,2.6805 -3.59375,4.3125 -4e-5,2.01599 2.89621,3.03124 8.65625,3.03125 5.75995,-10e-6 8.62495,-1.01526 8.625,-3.03125 -5e-5,-1.632 -1.1938,-3.0645 -3.59375,-4.3125 l 0,-9.09375 c 2.39995,-0.76799 3.5937,-1.90149 3.59375,-3.4375 -5e-5,-1.53598 -1.1938,-2.70073 -3.59375,-3.46875 l 0,-9.0625 c 2.39995,-1.24797 3.5937,-2.68047 3.59375,-4.3125 -5e-5,-2.01597 -2.86505,-3.03122 -8.625,-3.03125 z m 0,2.875 c 0.95996,3e-5 1.6762,0.0602 2.15625,0.15625 l 0,12.65625 c -0.48005,-0.096 -1.19629,-0.12498 -2.15625,-0.125 -0.96004,2e-5 -1.67629,0.029 -2.15625,0.125 l 0,-12.65625 c 0.47996,-0.096 1.19621,-0.15622 2.15625,-0.15625 z m 0,14.125 c 0.19196,2e-5 0.51996,0.029 1,0.125 0.47995,2e-5 0.8682,2e-5 1.15625,0 l 0,5.46875 c -0.28805,1e-5 -0.6763,0.0602 -1.15625,0.15625 l -1,0 -1.03125,0 c -0.48004,-0.096 -0.83704,-0.15624 -1.125,-0.15625 l 0,-5.46875 c 0.28796,2e-5 0.64496,2e-5 1.125,0 0.47996,-0.096 0.83921,-0.12498 1.03125,-0.125 z m -2.15625,7.03125 c 0.47996,0.096 1.19621,0.15626 2.15625,0.15625 0.95996,1e-5 1.6762,-0.0602 2.15625,-0.15625 l 0,12.6875 c -0.48005,0.096 -1.19629,0.15625 -2.15625,0.15625 -0.96004,0 -1.67629,-0.0602 -2.15625,-0.15625 l 0,-12.6875 z"
         id="path5671"
         inkscape:connector-curvature="0" />
      <path
         style="font-size:144px;font-style:normal;font-variant:normal;font-weight:500;font-stretch:normal;text-align:start;line-height:125%;letter-spacing:0px;word-spacing:0px;text-anchor:start;fill:#008800;fill-opacity:1;stroke:none;font-family:GL-MahjongTile;-inkscape-font-specification:GL-MahjongTile Medium"
         d="m 208.66518,722.72768 c -5.76004,8e-5 -8.65629,1.01533 -8.65625,3.03125 -4e-5,1.63208 1.19371,3.06458 3.59375,4.3125 l 0,9.0625 c -2.40004,0.76807 -3.59379,1.93282 -3.59375,3.46875 -4e-5,1.53606 1.19371,2.70081 3.59375,3.46875 l 0,9.0625 c -2.40004,1.24805 -3.59379,2.68055 -3.59375,4.3125 -4e-5,2.01605 2.89621,3.03129 8.65625,3.03125 5.75995,4e-5 8.62495,-1.0152 8.625,-3.03125 -5e-5,-1.63195 -1.1938,-3.06445 -3.59375,-4.3125 l 0,-9.0625 c 2.39995,-0.76794 3.5937,-1.93269 3.59375,-3.46875 -5e-5,-1.53593 -1.1938,-2.70068 -3.59375,-3.46875 l 0,-9.0625 c 2.39995,-1.24792 3.5937,-2.68042 3.59375,-4.3125 -5e-5,-2.01592 -2.86505,-3.03117 -8.625,-3.03125 z m 0,2.875 c 0.95996,8e-5 1.6762,0.0603 2.15625,0.15625 l 0,12.65625 c -0.48005,-0.0959 -1.19629,-0.12493 -2.15625,-0.125 -0.96004,7e-5 -1.67629,0.0291 -2.15625,0.125 l 0,-12.65625 c 0.47996,-0.0959 1.19621,-0.15617 2.15625,-0.15625 z m 0,14.125 c 0.19196,7e-5 0.51996,0.0603 1,0.15625 0.47995,7e-5 0.8682,7e-5 1.15625,0 l 0,5.46875 c -0.28805,6e-5 -0.6763,0.0291 -1.15625,0.125 -0.48004,6e-5 -0.80804,6e-5 -1,0 -0.19204,6e-5 -0.55129,6e-5 -1.03125,0 -0.48004,-0.0959 -0.83704,-0.12494 -1.125,-0.125 l 0,-5.46875 c 0.28796,7e-5 0.64496,7e-5 1.125,0 0.47996,-0.0959 0.83921,-0.15618 1.03125,-0.15625 z m -2.15625,7.0625 c 0.47996,0.0961 1.19621,0.12506 2.15625,0.125 0.95996,6e-5 1.6762,-0.0289 2.15625,-0.125 l 0,12.65625 c -0.48005,0.096 -1.19629,0.1563 -2.15625,0.15625 -0.96004,5e-5 -1.67629,-0.0602 -2.15625,-0.15625 l 0,-12.65625 z"
         id="path3045"
         inkscape:connector-curvature="0" />
    </g>
  </g>
</svg>
