<?xml version="1.0" encoding="UTF-8" standalone="no"?>
<!-- Created with Inkscape (http://www.inkscape.org/) -->

<svg
   xmlns:dc="http://purl.org/dc/elements/1.1/"
   xmlns:cc="http://creativecommons.org/ns#"
   xmlns:rdf="http://www.w3.org/1999/02/22-rdf-syntax-ns#"
   xmlns:svg="http://www.w3.org/2000/svg"
   xmlns="http://www.w3.org/2000/svg"
   xmlns:sodipodi="http://sodipodi.sourceforge.net/DTD/sodipodi-0.dtd"
   xmlns:inkscape="http://www.inkscape.org/namespaces/inkscape"
   width="79.571373"
   height="115.96954"
   id="svg3237"
   version="1.1"
   inkscape:version="0.48.3.1 r9886"
   sodipodi:docname="S7.svg">
  <defs
     id="defs3239" />
  <sodipodi:namedview
     id="base"
     pagecolor="#ffffff"
     bordercolor="#666666"
     borderopacity="1.0"
     inkscape:pageopacity="0.0"
     inkscape:pageshadow="2"
     inkscape:zoom="0.7"
     inkscape:cx="172.24972"
     inkscape:cy="86.032799"
     inkscape:document-units="px"
     inkscape:current-layer="layer1"
     showgrid="false"
     fit-margin-top="0"
     fit-margin-left="0"
     fit-margin-right="0"
     fit-margin-bottom="0"
     inkscape:window-width="574"
     inkscape:window-height="436"
     inkscape:window-x="399"
     inkscape:window-y="247"
     inkscape:window-maximized="0" />
  <metadata
     id="metadata3242">
    <rdf:RDF>
      <cc:Work
         rdf:about="">
        <dc:format>image/svg+xml</dc:format>
        <dc:type
           rdf:resource="http://purl.org/dc/dcmitype/StillImage" />
        <dc:title />
      </cc:Work>
    </rdf:RDF>
  </metadata>
  <g
     inkscape:label="Layer 1"
     inkscape:groupmode="layer"
     id="layer1"
     transform="translate(322.03294,-492.75853)">
    <rect
       ry="5.4056678"
       y="493.26303"
       x="-321.52844"
       height="114.96053"
       width="78.56237"
       id="rect6731-9-7"
       style="fill:#ffffff;stroke:#000000;stroke-width:1.00899994;stroke-miterlimit:4;stroke-opacity:1;stroke-dasharray:none;stroke-dashoffset:0" />
    <g
       transform="translate(-952.14682,-217.06251)"
       id="g6944">
      <path
         style="font-size:144px;font-style:normal;font-variant:normal;font-weight:500;font-stretch:normal;text-align:start;line-height:125%;letter-spacing:0px;word-spacing:0px;text-anchor:start;fill:#008800;fill-opacity:1;stroke:none;font-family:GL-MahjongTile;-inkscape-font-specification:GL-MahjongTile Medium"
         d="m 647.29018,787.10268 c -5.56802,2e-5 -8.34376,1.01527 -8.34375,3.03125 -10e-6,1.63201 1.19374,3.06451 3.59375,4.3125 l 0,4.75 c -2.40001,0.76801 -3.59376,1.93276 -3.59375,3.46875 -10e-6,1.536 1.19374,2.6695 3.59375,3.4375 l 0,4.75 c -2.40001,1.24799 -3.59376,2.68049 -3.59375,4.3125 -10e-6,2.01599 2.77573,3.03124 8.34375,3.03125 5.56797,-10e-6 8.37497,-1.01526 8.375,-3.03125 -3e-5,-1.63201 -1.22503,-3.06451 -3.625,-4.3125 l 0,-4.75 c 2.39997,-0.768 3.62497,-1.9015 3.625,-3.4375 -3e-5,-1.53599 -1.22503,-2.70074 -3.625,-3.46875 l 0,-4.75 c 2.39997,-1.24799 3.62497,-2.68049 3.625,-4.3125 -3e-5,-2.01598 -2.80703,-3.03123 -8.375,-3.03125 z m 0,2.875 c 0.95998,2e-5 1.67623,0.0602 2.15625,0.15625 l 0,8.34375 c -0.48002,-0.096 -1.19627,-0.15624 -2.15625,-0.15625 -0.96002,1e-5 -1.67627,0.0602 -2.15625,0.15625 l 0,-8.34375 c 0.47998,-0.096 1.19623,-0.15623 2.15625,-0.15625 z m 0,9.78125 c 0.28798,1e-5 0.67623,0.0602 1.15625,0.15625 l 1,0 0,5.46875 c -0.19202,0 -0.52002,0.0602 -1,0.15625 l -1.15625,0 -1.15625,0 c -0.48002,-0.096 -0.80802,-0.15625 -1,-0.15625 l 0,-5.46875 1,0 c 0.47998,-0.096 0.86823,-0.15624 1.15625,-0.15625 z m -2.15625,7.0625 c 0.47998,0.096 1.19623,0.15625 2.15625,0.15625 0.95998,0 1.67623,-0.0602 2.15625,-0.15625 l 0,8.34375 c -0.48002,0.096 -1.19627,0.15624 -2.15625,0.15625 -0.96002,-10e-6 -1.67627,-0.0602 -2.15625,-0.15625 l 0,-8.34375 z"
         id="path5467"
         inkscape:connector-curvature="0" />
      <path
         style="font-size:144px;font-style:normal;font-variant:normal;font-weight:500;font-stretch:normal;text-align:start;line-height:125%;letter-spacing:0px;word-spacing:0px;text-anchor:start;fill:#000000;fill-opacity:1;stroke:none;font-family:GL-MahjongTile;-inkscape-font-specification:GL-MahjongTile Medium"
         d="m 669.91518,787.10268 c -5.56804,2e-5 -8.37504,1.01527 -8.375,3.03125 -4e-5,1.63201 1.22496,3.06451 3.625,4.3125 l 0,4.75 c -2.40004,0.76801 -3.62504,1.93276 -3.625,3.46875 -4e-5,1.536 1.22496,2.6695 3.625,3.4375 l 0,4.75 c -2.40004,1.24799 -3.62504,2.68049 -3.625,4.3125 -4e-5,2.01599 2.80696,3.03124 8.375,3.03125 5.56795,-10e-6 8.3437,-1.01526 8.34375,-3.03125 -5e-5,-1.63201 -1.1938,-3.06451 -3.59375,-4.3125 l 0,-4.75 c 2.39995,-0.768 3.5937,-1.9015 3.59375,-3.4375 -5e-5,-1.53599 -1.1938,-2.70074 -3.59375,-3.46875 l 0,-4.75 c 2.39995,-1.24799 3.5937,-2.68049 3.59375,-4.3125 -5e-5,-2.01598 -2.7758,-3.03123 -8.34375,-3.03125 z m 0,2.875 c 0.95996,2e-5 1.6762,0.0602 2.15625,0.15625 l 0,8.34375 c -0.48005,-0.096 -1.19629,-0.15624 -2.15625,-0.15625 -0.96004,1e-5 -1.67629,0.0602 -2.15625,0.15625 l 0,-8.34375 c 0.47996,-0.096 1.19621,-0.15623 2.15625,-0.15625 z m 0,9.78125 c 0.19196,1e-5 0.51996,0.0602 1,0.15625 l 1.15625,0 0,5.46875 c -0.28805,0 -0.6763,0.0602 -1.15625,0.15625 l -1,0 -1.03125,0 c -0.48004,-0.096 -0.83704,-0.15625 -1.125,-0.15625 l 0,-5.46875 1.125,0 c 0.47996,-0.096 0.83921,-0.15624 1.03125,-0.15625 z m -2.15625,7.0625 c 0.47996,0.096 1.19621,0.15625 2.15625,0.15625 0.95996,0 1.6762,-0.0602 2.15625,-0.15625 l 0,8.34375 c -0.48005,0.096 -1.19629,0.15624 -2.15625,0.15625 -0.96004,-10e-6 -1.67629,-0.0602 -2.15625,-0.15625 l 0,-8.34375 z"
         id="path5451"
         inkscape:connector-curvature="0" />
      <path
         style="font-size:144px;font-style:normal;font-variant:normal;font-weight:500;font-stretch:normal;text-align:start;line-height:125%;letter-spacing:0px;word-spacing:0px;text-anchor:start;fill:#008800;fill-opacity:1;stroke:none;font-family:GL-MahjongTile;-inkscape-font-specification:GL-MahjongTile Medium"
         d="m 692.50893,787.10268 c -5.56806,2e-5 -8.34381,1.01527 -8.34375,3.03125 -6e-5,1.63201 1.19369,3.06451 3.59375,4.3125 l 0,4.75 c -2.40006,0.76801 -3.59381,1.93276 -3.59375,3.46875 -6e-5,1.536 1.19369,2.6695 3.59375,3.4375 l 0,4.75 c -2.40006,1.24799 -3.59381,2.68049 -3.59375,4.3125 -6e-5,2.01599 2.77569,3.03124 8.34375,3.03125 5.56793,-10e-6 8.34368,-1.01526 8.34375,-3.03125 -7e-5,-1.63201 -1.19382,-3.06451 -3.59375,-4.3125 l 0,-4.75 c 2.39993,-0.768 3.59368,-1.9015 3.59375,-3.4375 -7e-5,-1.53599 -1.19382,-2.70074 -3.59375,-3.46875 l 0,-4.75 c 2.39993,-1.24799 3.59368,-2.68049 3.59375,-4.3125 -7e-5,-2.01598 -2.77582,-3.03123 -8.34375,-3.03125 z m 0,2.875 c 0.95993,2e-5 1.67618,0.0602 2.15625,0.15625 l 0,8.34375 c -0.48007,-0.096 -1.19632,-0.15624 -2.15625,-0.15625 -0.96007,1e-5 -1.67631,0.0602 -2.15625,0.15625 l 0,-8.34375 c 0.47994,-0.096 1.19618,-0.15623 2.15625,-0.15625 z m 0,9.78125 c 0.28793,1e-5 0.67618,0.0602 1.15625,0.15625 l 1,0 0,5.46875 c -0.19207,0 -0.52007,0.0602 -1,0.15625 l -1.15625,0 -1.15625,0 c -0.48006,-0.096 -0.80806,-0.15625 -1,-0.15625 l 0,-5.46875 1,0 c 0.47993,-0.096 0.86818,-0.15624 1.15625,-0.15625 z m -2.15625,7.0625 c 0.47994,0.096 1.19618,0.15625 2.15625,0.15625 0.95993,0 1.67618,-0.0602 2.15625,-0.15625 l 0,8.34375 c -0.48007,0.096 -1.19632,0.15624 -2.15625,0.15625 -0.96007,-10e-6 -1.67631,-0.0602 -2.15625,-0.15625 l 0,-8.34375 z"
         id="path5483"
         inkscape:connector-curvature="0" />
      <path
         style="font-size:144px;font-style:normal;font-variant:normal;font-weight:500;font-stretch:normal;text-align:start;line-height:125%;letter-spacing:0px;word-spacing:0px;text-anchor:start;fill:#008800;fill-opacity:1;stroke:none;font-family:GL-MahjongTile;-inkscape-font-specification:GL-MahjongTile Medium"
         d="m 692.50893,752.25893 c -5.56806,5e-5 -8.34381,1.0153 -8.34375,3.03125 -6e-5,1.63205 1.19369,3.06455 3.59375,4.3125 l 0,4.75 c -2.40006,0.76804 -3.59381,1.90154 -3.59375,3.4375 -6e-5,1.53604 1.19369,2.70079 3.59375,3.46875 l 0,4.75 c -2.40006,1.24803 -3.59381,2.68053 -3.59375,4.3125 -6e-5,2.01602 2.77569,3.03127 8.34375,3.03125 5.56793,2e-5 8.34368,-1.01523 8.34375,-3.03125 -7e-5,-1.63197 -1.19382,-3.06447 -3.59375,-4.3125 l 0,-4.75 c 2.39993,-0.76796 3.59368,-1.93271 3.59375,-3.46875 -7e-5,-1.53596 -1.19382,-2.66946 -3.59375,-3.4375 l 0,-4.75 c 2.39993,-1.24795 3.59368,-2.68045 3.59375,-4.3125 -7e-5,-2.01595 -2.77582,-3.0312 -8.34375,-3.03125 z m 0,2.875 c 0.95993,5e-5 1.67618,0.0602 2.15625,0.15625 l 0,8.34375 c -0.48007,-0.096 -1.19632,-0.15621 -2.15625,-0.15625 -0.96007,4e-5 -1.67631,0.0602 -2.15625,0.15625 l 0,-8.34375 c 0.47994,-0.096 1.19618,-0.1562 2.15625,-0.15625 z m 0,9.78125 c 0.28793,4e-5 0.67618,0.0602 1.15625,0.15625 0.47993,4e-5 0.80793,4e-5 1,0 l 0,5.46875 c -0.19207,4e-5 -0.52007,0.0602 -1,0.15625 -0.48007,4e-5 -0.86832,4e-5 -1.15625,0 -0.28807,4e-5 -0.67632,4e-5 -1.15625,0 -0.48006,-0.096 -0.80806,-0.15621 -1,-0.15625 l 0,-5.46875 c 0.19194,4e-5 0.51994,4e-5 1,0 0.47993,-0.096 0.86818,-0.15621 1.15625,-0.15625 z m -2.15625,7.0625 c 0.47994,0.096 1.19618,0.15628 2.15625,0.15625 0.95993,3e-5 1.67618,-0.0602 2.15625,-0.15625 l 0,8.34375 c -0.48007,0.096 -1.19632,0.15628 -2.15625,0.15625 -0.96007,3e-5 -1.67631,-0.0602 -2.15625,-0.15625 l 0,-8.34375 z"
         id="path5491"
         inkscape:connector-curvature="0" />
      <path
         style="font-size:144px;font-style:normal;font-variant:normal;font-weight:500;font-stretch:normal;text-align:start;line-height:125%;letter-spacing:0px;word-spacing:0px;text-anchor:start;fill:#000000;fill-opacity:1;stroke:none;font-family:GL-MahjongTile;-inkscape-font-specification:GL-MahjongTile Medium"
         d="m 669.91518,752.25893 c -5.56804,5e-5 -8.37504,1.0153 -8.375,3.03125 -4e-5,1.63205 1.22496,3.06455 3.625,4.3125 l 0,4.75 c -2.40004,0.76804 -3.62504,1.90154 -3.625,3.4375 -4e-5,1.53604 1.22496,2.70079 3.625,3.46875 l 0,4.75 c -2.40004,1.24803 -3.62504,2.68053 -3.625,4.3125 -4e-5,2.01602 2.80696,3.03127 8.375,3.03125 5.56795,2e-5 8.3437,-1.01523 8.34375,-3.03125 -5e-5,-1.63197 -1.1938,-3.06447 -3.59375,-4.3125 l 0,-4.75 c 2.39995,-0.76796 3.5937,-1.93271 3.59375,-3.46875 -5e-5,-1.53596 -1.1938,-2.66946 -3.59375,-3.4375 l 0,-4.75 c 2.39995,-1.24795 3.5937,-2.68045 3.59375,-4.3125 -5e-5,-2.01595 -2.7758,-3.0312 -8.34375,-3.03125 z m 0,2.875 c 0.95996,5e-5 1.6762,0.0602 2.15625,0.15625 l 0,8.34375 c -0.48005,-0.096 -1.19629,-0.15621 -2.15625,-0.15625 -0.96004,4e-5 -1.67629,0.0602 -2.15625,0.15625 l 0,-8.34375 c 0.47996,-0.096 1.19621,-0.1562 2.15625,-0.15625 z m 0,9.78125 c 0.19196,4e-5 0.51996,0.0602 1,0.15625 0.47995,4e-5 0.8682,4e-5 1.15625,0 l 0,5.46875 c -0.28805,4e-5 -0.6763,0.0602 -1.15625,0.15625 -0.48004,4e-5 -0.80804,4e-5 -1,0 -0.19204,4e-5 -0.55129,4e-5 -1.03125,0 -0.48004,-0.096 -0.83704,-0.15621 -1.125,-0.15625 l 0,-5.46875 c 0.28796,4e-5 0.64496,4e-5 1.125,0 0.47996,-0.096 0.83921,-0.15621 1.03125,-0.15625 z m -2.15625,7.0625 c 0.47996,0.096 1.19621,0.15628 2.15625,0.15625 0.95996,3e-5 1.6762,-0.0602 2.15625,-0.15625 l 0,8.34375 c -0.48005,0.096 -1.19629,0.15628 -2.15625,0.15625 -0.96004,3e-5 -1.67629,-0.0602 -2.15625,-0.15625 l 0,-8.34375 z"
         id="path5459"
         inkscape:connector-curvature="0" />
      <path
         style="font-size:144px;font-style:normal;font-variant:normal;font-weight:500;font-stretch:normal;text-align:start;line-height:125%;letter-spacing:0px;word-spacing:0px;text-anchor:start;fill:#008800;fill-opacity:1;stroke:none;font-family:GL-MahjongTile;-inkscape-font-specification:GL-MahjongTile Medium"
         d="m 647.29018,752.25893 c -5.56802,5e-5 -8.34376,1.0153 -8.34375,3.03125 -10e-6,1.63205 1.19374,3.06455 3.59375,4.3125 l 0,4.75 c -2.40001,0.76804 -3.59376,1.90154 -3.59375,3.4375 -10e-6,1.53604 1.19374,2.70079 3.59375,3.46875 l 0,4.75 c -2.40001,1.24803 -3.59376,2.68053 -3.59375,4.3125 -10e-6,2.01602 2.77573,3.03127 8.34375,3.03125 5.56797,2e-5 8.37497,-1.01523 8.375,-3.03125 -3e-5,-1.63197 -1.22503,-3.06447 -3.625,-4.3125 l 0,-4.75 c 2.39997,-0.76796 3.62497,-1.93271 3.625,-3.46875 -3e-5,-1.53596 -1.22503,-2.66946 -3.625,-3.4375 l 0,-4.75 c 2.39997,-1.24795 3.62497,-2.68045 3.625,-4.3125 -3e-5,-2.01595 -2.80703,-3.0312 -8.375,-3.03125 z m 0,2.875 c 0.95998,5e-5 1.67623,0.0602 2.15625,0.15625 l 0,8.34375 c -0.48002,-0.096 -1.19627,-0.15621 -2.15625,-0.15625 -0.96002,4e-5 -1.67627,0.0602 -2.15625,0.15625 l 0,-8.34375 c 0.47998,-0.096 1.19623,-0.1562 2.15625,-0.15625 z m 0,9.78125 c 0.28798,4e-5 0.67623,0.0602 1.15625,0.15625 0.47998,4e-5 0.80798,4e-5 1,0 l 0,5.46875 c -0.19202,4e-5 -0.52002,0.0602 -1,0.15625 -0.48002,4e-5 -0.86827,4e-5 -1.15625,0 -0.28802,4e-5 -0.67627,4e-5 -1.15625,0 -0.48002,-0.096 -0.80802,-0.15621 -1,-0.15625 l 0,-5.46875 c 0.19198,4e-5 0.51998,4e-5 1,0 0.47998,-0.096 0.86823,-0.15621 1.15625,-0.15625 z m -2.15625,7.0625 c 0.47998,0.096 1.19623,0.15628 2.15625,0.15625 0.95998,3e-5 1.67623,-0.0602 2.15625,-0.15625 l 0,8.34375 c -0.48002,0.096 -1.19627,0.15628 -2.15625,0.15625 -0.96002,3e-5 -1.67627,-0.0602 -2.15625,-0.15625 l 0,-8.34375 z"
         id="path5475"
         inkscape:connector-curvature="0" />
      <path
         style="font-size:144px;font-style:normal;font-variant:normal;font-weight:500;font-stretch:normal;text-align:start;line-height:125%;letter-spacing:0px;word-spacing:0px;text-anchor:start;fill:#ff0000;fill-opacity:1;stroke:none;font-family:GL-MahjongTile;-inkscape-font-specification:GL-MahjongTile Medium"
         d="m 669.91518,717.41518 c -5.56804,9e-5 -8.37504,0.98409 -8.375,3 -4e-5,1.63208 1.22496,3.09583 3.625,4.34375 l 0,4.75 c -2.40004,0.76808 -3.62504,1.90158 -3.625,3.4375 -4e-5,1.53607 1.22496,2.70082 3.625,3.46875 l 0,4.75 c -2.40004,1.24806 -3.62504,2.68056 -3.625,4.3125 -4e-5,2.01606 2.80696,3.03131 8.375,3.03125 5.56795,6e-5 8.3437,-1.01519 8.34375,-3.03125 -5e-5,-1.63194 -1.1938,-3.06444 -3.59375,-4.3125 l 0,-4.75 c 2.39995,-0.76793 3.5937,-1.93268 3.59375,-3.46875 -5e-5,-1.53592 -1.1938,-2.66942 -3.59375,-3.4375 l 0,-4.75 c 2.39995,-1.24792 3.5937,-2.71167 3.59375,-4.34375 -5e-5,-2.01591 -2.7758,-2.99991 -8.34375,-3 z m 0,2.875 c 0.95996,9e-5 1.6762,0.0291 2.15625,0.125 l 0,8.375 c -0.48005,-0.0959 -1.19629,-0.15617 -2.15625,-0.15625 -0.96004,8e-5 -1.67629,0.0603 -2.15625,0.15625 l 0,-8.375 c 0.47996,-0.0959 1.19621,-0.12491 2.15625,-0.125 z m 0,9.78125 c 0.19196,8e-5 0.51996,0.0603 1,0.15625 0.47995,8e-5 0.8682,8e-5 1.15625,0 l 0,5.46875 c -0.28805,7e-5 -0.6763,0.0291 -1.15625,0.125 -0.48004,7e-5 -0.80804,7e-5 -1,0 -0.19204,7e-5 -0.55129,7e-5 -1.03125,0 -0.48004,-0.0959 -0.83704,-0.12493 -1.125,-0.125 l 0,-5.46875 c 0.28796,8e-5 0.64496,8e-5 1.125,0 0.47996,-0.0959 0.83921,-0.15617 1.03125,-0.15625 z m -2.15625,7.0625 c 0.47996,0.0961 1.19621,0.15632 2.15625,0.15625 0.95996,7e-5 1.6762,-0.0602 2.15625,-0.15625 l 0,8.34375 c -0.48005,0.0961 -1.19629,0.15631 -2.15625,0.15625 -0.96004,6e-5 -1.67629,-0.0602 -2.15625,-0.15625 l 0,-8.34375 z"
         id="path5443"
         inkscape:connector-curvature="0" />
    </g>
  </g>
</svg>
