<?xml version="1.0" encoding="UTF-8" standalone="no"?>
<!-- Created with Inkscape (http://www.inkscape.org/) -->

<svg
   xmlns:dc="http://purl.org/dc/elements/1.1/"
   xmlns:cc="http://creativecommons.org/ns#"
   xmlns:rdf="http://www.w3.org/1999/02/22-rdf-syntax-ns#"
   xmlns:svg="http://www.w3.org/2000/svg"
   xmlns="http://www.w3.org/2000/svg"
   xmlns:sodipodi="http://sodipodi.sourceforge.net/DTD/sodipodi-0.dtd"
   xmlns:inkscape="http://www.inkscape.org/namespaces/inkscape"
   version="1.1"
   width="106.38706"
   height="54.027798"
   id="svg3237"
   inkscape:version="0.48.4 r9939"
   sodipodi:docname="E.svg">
  <sodipodi:namedview
     pagecolor="#ffffff"
     bordercolor="#666666"
     borderopacity="1"
     objecttolerance="10"
     gridtolerance="10"
     guidetolerance="10"
     inkscape:pageopacity="0"
     inkscape:pageshadow="2"
     inkscape:window-width="906"
     inkscape:window-height="708"
     id="namedview8"
     showgrid="false"
     inkscape:zoom="2.8779684"
     inkscape:cx="144.5096"
     inkscape:cy="9.7842331"
     inkscape:window-x="310"
     inkscape:window-y="149"
     inkscape:window-maximized="0"
     inkscape:current-layer="svg3237"
     fit-margin-top="0"
     fit-margin-left="0"
     fit-margin-right="0"
     fit-margin-bottom="0" />
  <defs
     id="defs3239" />
  <metadata
     id="metadata3242">
    <rdf:RDF>
      <cc:Work
         rdf:about="">
        <dc:format>image/svg+xml</dc:format>
        <dc:type
           rdf:resource="http://purl.org/dc/dcmitype/StillImage" />
        <dc:title></dc:title>
      </cc:Work>
    </rdf:RDF>
  </metadata>
  <rect
     style="fill:#e58a00;fill-opacity:1;stroke:none"
     id="rect6731-9-200"
     y="0"
     x="0"
     ry="9.2377272"
     height="54.027798"
     width="106.38706" />
  <path
     style="font-size:144px;font-style:normal;font-variant:normal;font-weight:500;font-stretch:normal;text-align:start;line-height:125%;letter-spacing:0px;word-spacing:0px;text-anchor:start;fill:#000000;fill-opacity:1;stroke:none;font-family:GL-MahjongTile;-inkscape-font-specification:GL-MahjongTile Medium"
     d="m 63.998389,7.2183424 c -0.714304,4.46e-5 -2.890741,0.4001417 -6.533424,1.1857818 -3.571324,0.7857293 -7.96904,1.7851338 -13.1831,2.9993298 -5.214105,1.142858 -8.522761,1.853397 -9.951264,2.139056 0.07142,0.857156 0.848354,1.302071 2.348312,1.302035 0.142837,3.6e-5 1.142242,-0.222426 2.99933,-0.651018 1.857051,-0.42851 4.144725,-0.850184 6.858932,-1.278784 2.78558,-0.42851 5.362121,-0.650972 7.719205,-0.651017 2.071314,4.5e-5 3.293181,0.222507 3.650347,0.651017 -0.28574,0.785729 -1.041107,1.629069 -2.25531,2.557568 l -1.604292,0.534765 c -0.07142,0.214315 -0.227515,0.792046 -0.441762,1.720545 -0.999992,1.428555 -2.665108,3.36096 -5.022134,5.789404 -2.9e-5,-1.142785 -0.156087,-2.475875 -0.441762,-3.975856 -0.285733,-1.499906 -0.707405,-2.232022 -1.278784,-2.232059 -0.428577,3.7e-5 -0.651039,0.554518 -0.651016,1.697295 -2.3e-5,0.14289 0.222439,2.141699 0.651016,5.99866 -1.42854,0.785714 -3.360945,1.585907 -5.789403,2.371562 -0.571429,-1.071358 -1.926096,-2.338052 -4.068858,-3.7666 -0.142866,-0.07142 -0.254083,-0.07142 -0.325509,0 -1.5e-5,3e-5 -0.06644,0.08969 -0.209256,0.232507 -0.07142,0.07142 -0.137828,0.137829 -0.209254,0.209255 0.07142,0.428585 0.360276,1.271932 0.860272,2.557568 0.499966,1.21427 1.321736,3.369129 2.464566,6.440421 1.214218,2.99991 2.412834,6.130924 3.627096,9.416501 -1.071411,0.642847 -1.604315,1.154175 -1.604292,1.51129 -2.3e-5,1.428525 1.354651,2.139064 4.068858,2.139056 0.571384,8e-6 1.393146,-0.06637 2.464564,-0.209256 1.071359,-0.142852 1.982784,-0.209248 2.697072,-0.209256 0.642803,8e-6 1.48615,0.06644 2.557568,0.209256 1.071351,0.142852 1.893122,0.209264 2.464566,0.209256 2.142739,8e-6 3.475836,-0.644127 3.975855,-1.929802 1.357055,-3.071298 2.711722,-5.647838 4.068858,-7.719204 1.428474,-2.142755 2.539109,-3.519005 3.324838,-4.16186 0.857066,-0.714237 1.522778,-1.358372 2.022804,-1.929802 0.499929,-0.571385 0.743968,-1.149108 0.74402,-1.720546 -5.2e-5,-1.285636 -1.243488,-2.884349 -3.74335,-4.812877 -2.499951,-1.999888 -4.321125,-2.999293 -5.463895,-2.99933 -0.64287,3.7e-5 -1.353409,0.199248 -2.139056,0.627767 -0.785722,0.428592 -1.740299,0.762277 -2.883077,0.976526 0.142815,-1.071351 0.386853,-1.959526 0.74402,-2.673821 0.357092,-0.142815 0.845169,-0.254083 1.488039,-0.325509 0.714222,-0.142815 1.22555,-0.298872 1.51129,-0.441762 0.357093,-0.21424 0.534728,-0.56951 0.534765,-1.069528 -3.7e-5,-0.714222 -0.644172,-1.42476 -1.929801,-2.139057 0.07135,-0.428518 0.38183,-0.828615 0.953275,-1.185781 0.857074,-0.142852 1.434805,-0.209212 1.720545,-0.209256 0.999925,4.4e-5 2.709862,0.177672 5.138387,0.534764 2.428436,0.28574 4.183198,0.441799 5.254639,0.441762 0.999911,3.7e-5 1.511238,-0.466463 1.511291,-1.395038 -5.3e-5,-1.428473 -1.555612,-3.005609 -4.626873,-4.7198744 C 67.710073,9.0501633 67.266823,8.7612976 66.69546,8.4041242 66.195434,7.9756129 65.750511,7.6867473 65.393426,7.5438508 65.036251,7.3296184 64.569751,7.218387 63.998389,7.2183424 z M 53.047348,20.773452 c 0.124995,0.0045 0.241613,0.03408 0.348759,0.06972 l 0,0.302258 c -2.9e-5,0.214315 -0.02158,0.548007 -0.093,0.976526 -3e-5,0.428585 -3e-5,0.717451 0,0.860273 -0.214308,0.07142 -0.592827,0.182686 -1.09278,0.325508 -0.50001,0.142882 -0.94326,0.230832 -1.371786,0.302258 0.142822,-0.928507 0.408438,-1.750269 0.837022,-2.464565 0.535672,-0.267848 0.996786,-0.385395 1.371787,-0.37201 z m 5.068635,3.278337 c 0.714221,3e-5 1.557568,0.400127 2.557567,1.185782 1.071352,0.785714 1.627499,1.629061 1.627544,2.557568 -4.5e-5,0.785714 -0.977865,3.118209 -2.906328,6.975184 -1.928536,3.785588 -3.394441,6.338878 -4.394366,7.695956 -0.500019,0.14285 -1.054492,0.187678 -1.697295,0.116252 0.214247,-2.928447 0.87996,-8.99127 2.022804,-18.205233 1.071351,-0.214248 2.004352,-0.325479 2.790074,-0.325509 z m -5.138387,0.860273 c -0.07142,0.857141 -0.227514,2.323045 -0.441761,4.394367 -0.142882,2.071373 -0.320517,4.20299 -0.534765,6.41717 -0.142881,2.214218 -0.275689,4.435489 -0.418511,6.649676 -0.142882,1.5e-5 -0.431747,1.5e-5 -0.860273,0 -0.428585,-0.07142 -0.71745,-0.116237 -0.860273,-0.116252 -0.142881,-2.857021 -0.320516,-6.099266 -0.534764,-9.742009 -0.214307,-3.714117 -0.347085,-5.890561 -0.418511,-6.533423 0.428526,-0.142823 1.094237,-0.320457 2.022804,-0.534765 0.999932,-0.285674 1.688895,-0.463338 2.046054,-0.534764 z m -6.114913,1.813548 c -2.1e-5,0.642863 0.04479,1.50946 0.116254,2.580819 0.07142,0.999984 0.09297,1.843331 0.093,2.557568 0.07142,0.642855 0.116224,1.087779 0.116254,1.302034 -3e-5,1.42854 0.132777,3.093656 0.41851,5.022134 0.285675,1.928514 0.463339,3.261611 0.534764,3.975855 l -1.813548,0 C 45.399359,38.235611 43.86705,33.793076 41.724295,28.864667 43.86705,27.793308 45.576993,27.082769 46.862681,26.72561 z"
     id="path3015"
     inkscape:connector-curvature="0" />
</svg>
