<?xml version="1.0" encoding="UTF-8" standalone="no"?>
<!-- Created with Inkscape (http://www.inkscape.org/) -->

<svg
   xmlns:dc="http://purl.org/dc/elements/1.1/"
   xmlns:cc="http://creativecommons.org/ns#"
   xmlns:rdf="http://www.w3.org/1999/02/22-rdf-syntax-ns#"
   xmlns:svg="http://www.w3.org/2000/svg"
   xmlns="http://www.w3.org/2000/svg"
   xmlns:sodipodi="http://sodipodi.sourceforge.net/DTD/sodipodi-0.dtd"
   xmlns:inkscape="http://www.inkscape.org/namespaces/inkscape"
   version="1.1"
   width="79.59375"
   height="115.96875"
   id="svg3237"
   inkscape:version="0.48.3.1 r9886"
   sodipodi:docname="X2.svg">
  <sodipodi:namedview
     pagecolor="#ffffff"
     bordercolor="#666666"
     borderopacity="1"
     objecttolerance="10"
     gridtolerance="10"
     guidetolerance="10"
     inkscape:pageopacity="0"
     inkscape:pageshadow="2"
     inkscape:window-width="794"
     inkscape:window-height="480"
     id="namedview8"
     showgrid="false"
     inkscape:zoom="2.035031"
     inkscape:cx="39.796875"
     inkscape:cy="57.984375"
     inkscape:window-x="262"
     inkscape:window-y="103"
     inkscape:window-maximized="0"
     inkscape:current-layer="svg3237" />
  <defs
     id="defs3239" />
  <metadata
     id="metadata3242">
    <rdf:RDF>
      <cc:Work
         rdf:about="">
        <dc:format>image/svg+xml</dc:format>
        <dc:type
           rdf:resource="http://purl.org/dc/dcmitype/StillImage" />
        <dc:title />
      </cc:Work>
    </rdf:RDF>
  </metadata>
  <rect
     style="fill:#ffffff;stroke:#000000;stroke-width:1.00899994000000004;stroke-miterlimit:4;stroke-opacity:1;stroke-dasharray:none;stroke-dashoffset:0;fill-opacity:1"
     id="rect6731-9-22"
     y="0.51525879"
     x="0.51345825"
     ry="5.4056678"
     height="114.96053"
     width="78.56237" />
  <path
     inkscape:connector-curvature="0"
     style="font-size:144px;font-style:normal;font-variant:normal;font-weight:500;font-stretch:normal;text-align:start;line-height:125%;letter-spacing:0px;word-spacing:0px;text-anchor:start;fill:#000000;fill-opacity:1;stroke:none;font-family:GL-MahjongTile;-inkscape-font-specification:GL-MahjongTile Medium"
     id="path3013"
     d="m 41.60714,24.09767 c -2.30404,2.11207 -4.12479,4.62007 -5.46875,7.5 l 0.4375,0 c 1.05596,7e-5 1.56246,1.46156 1.5625,4.4375 -4e-5,1.53606 -0.23879,4.82056 -0.71875,9.8125 -1.44004,0.86405 -3.26079,1.64055 -5.46875,2.3125 -2.20803,0.57605 -3.43078,0.9933 -3.71875,1.28125 0.47997,0.57605 0.98647,0.87505 1.5625,0.875 2.30396,5e-5 4.60221,-0.29895 6.90625,-0.875 -0.28804,3.16804 -0.76554,6.48154 -1.4375,9.9375 -0.86404,0.28804 -1.66954,0.61604 -2.4375,1 -0.76804,-1.34396 -4.64828,-3.49271 -11.65625,-6.46875 -0.19202,-0.096 -0.43077,-0.007 -0.71875,0.28125 -0.192,0.19204 -0.31252,0.49104 -0.3125,0.875 -2e-5,0.38404 0.44848,0.71204 1.3125,1 0.95997,0.28804 2.30322,0.85479 4.03125,1.71875 1.82397,0.86404 3.49522,2.05779 5.03125,3.59375 -0.57603,0.28804 -3.17328,1.30328 -7.78125,3.03125 -0.67203,-0.28797 -1.53778,-0.70522 -2.59375,-1.28125 -0.96002,-0.67197 -1.79452,-1.14947 -2.5625,-1.4375 -0.76802,-0.38396 -1.51552,-0.59371 -2.1875,-0.59375 l -0.84375,0.4375 c 1.15198,3.55203 2.67373,7.16453 4.59375,10.8125 0.38398,0.86402 0.92173,2.08677 1.59375,3.71875 0.76797,1.53602 1.39497,2.79002 1.875,3.75 0.47997,0.96002 0.98647,2.03551 1.5625,3.1875 0.67197,1.05601 1.29897,1.86151 1.875,2.4375 0.57597,0.48001 1.17397,0.71876 1.75,0.71875 0.57597,1e-5 1.14272,-0.23874 1.71875,-0.71875 0.57597,-0.57599 0.87497,-1.20299 0.875,-1.875 -3e-5,-1.53599 -1.01528,-4.31173 -3.03125,-8.34375 -2.01603,-4.03197 -3.03128,-6.77872 -3.03125,-8.21875 -3e-5,-0.57597 0.92597,-1.35247 2.75,-2.3125 1.82397,-1.05597 3.40597,-1.77222 4.75,-2.15625 1.82396,2.01603 2.80796,3.98628 3,5.90625 -2.78404,0.96003 -4.48428,1.73653 -5.15625,2.3125 0.67197,0.86403 1.38822,1.28127 2.15625,1.28125 0.19196,2e-5 0.43071,-0.0892 0.71875,-0.28125 0.38396,-0.19197 0.89046,-0.43072 1.5625,-0.71875 0.67196,-0.28797 1.44846,-0.52672 2.3125,-0.71875 0.096,0.48003 0.18525,1.16728 0.28125,2.03125 0.096,0.86402 0.2165,1.52002 0.3125,2 -1.05604,0.38402 -2.28104,0.77227 -3.625,1.15625 -1.34404,0.38402 -2.23879,0.71202 -2.71875,1 0.47996,0.96002 1.04671,1.43752 1.71875,1.4375 0.28796,2e-5 0.61596,-0.029 1,-0.125 0.47996,-0.19198 1.07796,-0.40173 1.75,-0.59375 0.67196,-0.19198 1.29896,-0.37048 1.875,-0.5625 -4e-5,3.07202 -0.12054,5.19176 -0.3125,6.34375 -0.86404,-0.28799 -1.75879,-0.43749 -2.71875,-0.4375 2.49596,1.53601 4.73396,3.02876 6.75,4.46875 2.01595,1.34401 3.41945,2.32801 4.1875,3 0.76795,0.57601 1.54445,1.08476 2.3125,1.46875 0.76795,0.288 1.57345,0.40625 2.4375,0.40625 0.67195,0 1.2387,-0.11825 1.71875,-0.40625 0.57594,-0.38399 1.17394,-1.01099 1.75,-1.875 0.67194,-0.95999 1.23869,-1.88599 1.71875,-2.75 0.47994,-0.95999 1.19619,-2.36349 2.15625,-4.1875 0.95994,-1.82398 1.88594,-3.43498 2.75,-4.875 3.64793,-6.43197 5.46868,-10.46172 5.46875,-12.09375 -7e-5,-0.76797 -0.14957,-1.45522 -0.4375,-2.03125 -0.28807,-0.57597 -0.82582,-1.29222 -1.59375,-2.15625 -0.67207,-0.95996 -1.23882,-1.82571 -1.71875,-2.59375 -1.05606,-1.72796 -2.01106,-2.92171 -2.875,-3.59375 -0.86406,-0.76796 -1.70081,-1.2165 -2.46875,-1.3125 -0.67206,-0.192 -1.86581,-0.28121 -3.59375,-0.28125 0.28794,-0.38396 0.67619,-0.77221 1.15625,-1.15625 0.47994,-0.47996 0.80794,-0.8682 1,-1.15625 0.28794,-0.38395 0.43744,-0.86145 0.4375,-1.4375 -6e-5,-0.67195 -0.95506,-1.8657 -2.875,-3.59375 -1.24805,0.67205 -3.60655,2.3143 -7.0625,4.90625 -3.45605,2.59204 -5.99304,4.02454 -7.625,4.3125 0.86396,-2.78396 1.72971,-5.2607 2.59375,-7.46875 4.70395,-1.34395 8.31645,-2.71845 10.8125,-4.0625 -0.096,-0.76795 -0.54455,-1.75195 -1.3125,-3 -0.67205,-1.24794 -1.29905,-1.87494 -1.875,-1.875 -0.48005,6e-5 -1.43505,0.65606 -2.875,2 -1.44005,1.24805 -2.54455,2.0848 -3.3125,2.46875 0.28795,-0.95995 0.61595,-2.45269 1,-4.46875 0.47995,-2.01594 0.8392,-3.35919 1.03125,-4.03125 1.05595,0.86406 2.18945,1.28131 3.4375,1.28125 0.47995,6e-5 0.8682,-0.0289 1.15625,-0.125 -5e-5,-0.0959 -5e-5,-0.30569 0,-0.59375 0.0959,-0.28794 0.1562,-0.4664 0.15625,-0.5625 -5e-5,-1.72794 -0.92605,-3.90793 -2.75,-6.5 -1.72805,-2.68793 -3.0713,-4.20968 -4.03125,-4.59375 z m 3.75,29.09375 c 0.76795,4e-5 1.1562,0.26779 1.15625,0.84375 -5e-5,0.28804 -0.0893,0.73654 -0.28125,1.3125 -1.82405,1.24804 -5.0483,2.50204 -9.65625,3.75 0.28796,-1.43996 0.52671,-2.36596 0.71875,-2.75 1.05596,-0.28796 2.18946,-0.67621 3.4375,-1.15625 1.24795,-0.57596 2.2632,-1.05346 3.03125,-1.4375 0.76795,-0.38396 1.3057,-0.56246 1.59375,-0.5625 z m 4.625,5.1875 c 0.456,0 0.92622,0.029 1.40625,0.125 3.35994,3.64803 5.06244,5.91728 5.0625,6.78125 -6e-5,0.57603 -0.0603,1.11378 -0.15625,1.59375 -0.0961,0.48003 -0.27456,1.07578 -0.5625,1.84375 -0.28806,0.67203 -0.52681,1.27003 -0.71875,1.75 -0.19206,0.48003 -0.64056,1.34577 -1.3125,2.59375 -0.57606,1.15202 -1.05356,2.13602 -1.4375,3 -0.96006,2.11202 -1.9753,3.99302 -3.03125,5.625 -0.96005,1.63201 -1.76555,2.79676 -2.4375,3.46875 -0.57605,0.67201 -1.02455,1.00001 -1.3125,1 -0.38405,1e-5 -2.2338,-0.71624 -5.59375,-2.15625 0.47996,-1.53599 0.80796,-4.43223 1,-8.65625 2.68795,-0.67198 5.22495,-0.99998 7.625,-1 0.57595,2e-5 0.87495,-0.32798 0.875,-1 -5e-5,-1.53598 -0.62705,-2.31247 -1.875,-2.3125 -0.19205,3e-5 -0.52005,0.0893 -1,0.28125 -0.38405,0.096 -1.1003,0.33478 -2.15625,0.71875 -0.96005,0.38402 -2.1248,0.74327 -3.46875,1.03125 0.19195,-2.49597 0.3415,-3.89947 0.4375,-4.1875 2.30395,-0.67197 4.9302,-0.99997 7.90625,-1 1.05595,3e-5 1.5937,-0.29897 1.59375,-0.875 -5e-5,-0.57597 -0.2388,-1.05347 -0.71875,-1.4375 -0.48005,-0.47997 -1.0178,-0.71872 -1.59375,-0.71875 -0.76805,3e-5 -2.1403,0.17853 -4.15625,0.5625 0.38395,-0.86397 0.8012,-1.69847 1.28125,-2.5625 0.57595,-0.86397 1.1427,-1.70071 1.71875,-2.46875 0.57595,-0.86396 1.02445,-1.49096 1.3125,-1.875 0.43197,-0.096 0.8565,-0.125 1.3125,-0.125 z m -5.21875,0.5625 c -0.76805,2.20804 -1.87255,4.65578 -3.3125,7.34375 -1.34404,0.67203 -2.95504,1.20978 -4.875,1.59375 -0.57604,-2.01597 -1.53104,-4.07547 -2.875,-6.1875 2.78396,-1.24796 6.45446,-2.17396 11.0625,-2.75 z" />
</svg>
