<?xml version="1.0" encoding="UTF-8" standalone="no"?>
<!-- Created with Inkscape (http://www.inkscape.org/) -->

<svg
   xmlns:dc="http://purl.org/dc/elements/1.1/"
   xmlns:cc="http://creativecommons.org/ns#"
   xmlns:rdf="http://www.w3.org/1999/02/22-rdf-syntax-ns#"
   xmlns:svg="http://www.w3.org/2000/svg"
   xmlns="http://www.w3.org/2000/svg"
   xmlns:sodipodi="http://sodipodi.sourceforge.net/DTD/sodipodi-0.dtd"
   xmlns:inkscape="http://www.inkscape.org/namespaces/inkscape"
   width="79.5625"
   height="115.96875"
   id="svg3237"
   version="1.1"
   inkscape:version="0.48.3.1 r9886"
   sodipodi:docname="X6.svg">
  <defs
     id="defs3239" />
  <sodipodi:namedview
     id="base"
     pagecolor="#ffffff"
     bordercolor="#666666"
     borderopacity="1.0"
     inkscape:pageopacity="0.0"
     inkscape:pageshadow="2"
     inkscape:zoom="0.7"
     inkscape:cx="237.92999"
     inkscape:cy="11.862841"
     inkscape:document-units="px"
     inkscape:current-layer="layer1"
     showgrid="false"
     fit-margin-top="0"
     fit-margin-left="0"
     fit-margin-right="0"
     fit-margin-bottom="0"
     inkscape:window-width="574"
     inkscape:window-height="436"
     inkscape:window-x="652"
     inkscape:window-y="357"
     inkscape:window-maximized="0" />
  <metadata
     id="metadata3242">
    <rdf:RDF>
      <cc:Work
         rdf:about="">
        <dc:format>image/svg+xml</dc:format>
        <dc:type
           rdf:resource="http://purl.org/dc/dcmitype/StillImage" />
        <dc:title />
      </cc:Work>
    </rdf:RDF>
  </metadata>
  <g
     inkscape:label="Layer 1"
     inkscape:groupmode="layer"
     id="layer1"
     transform="translate(-425.5625,-532.875)">
    <rect
       ry="5.4056678"
       y="533.38031"
       x="426.06268"
       height="114.96053"
       width="78.56237"
       id="rect6731-9-15"
       style="fill:#ffffff;stroke:#000000;stroke-width:1.00899994;stroke-miterlimit:4;stroke-opacity:1;stroke-dasharray:none;stroke-dashoffset:0" />
    <path
       inkscape:connector-curvature="0"
       id="path3021"
       d="m 475.28138,558.84643 c -0.48005,0.48007 -1.3458,2.53957 -2.59375,6.1875 -1.24805,3.64806 -2.2923,6.03556 -3.15625,7.1875 -1.53605,-1.72794 -2.4308,-2.83244 -2.71875,-3.3125 0.67195,-1.82394 0.99995,-2.7789 1,-2.875 -5e-5,-0.57594 -0.29905,-1.05344 -0.875,-1.4375 -0.57604,-0.47993 -1.14279,-0.71868 -1.71875,-0.71875 -0.57604,7e-5 -1.14279,0.29907 -1.71875,0.875 -0.57604,0.57606 -1.26329,1.32131 -2.03125,2.28125 -0.67204,0.96006 -1.29904,1.73656 -1.875,2.3125 -0.86404,0.76806 -2.05779,1.69406 -3.59375,2.75 -1.44003,1.05606 -2.78328,2.01106 -4.03125,2.875 -1.15203,0.86405 -1.779,1.3415 -1.875,1.4375 0.38397,0.38405 0.95072,0.56255 1.71875,0.5625 1.05597,5e-5 2.54872,-0.47745 4.46875,-1.4375 1.91996,-0.95994 3.41271,-1.49765 4.46875,-1.59375 -1.05604,2.97605 -2.93704,6.11105 -5.625,9.375 -0.96003,-1.05595 -2.48178,-2.33895 -4.59375,-3.875 -2.11203,-1.63195 -3.93277,-2.55795 -5.46875,-2.75 0.096,1.34405 1.28973,3.1648 3.59375,5.46875 2.39997,2.20805 3.74322,3.61154 4.03125,4.1875 -3.74403,4.89604 -9.50527,10.44753 -17.28125,16.6875 3.64798,-0.67197 6.63348,-1.77647 8.9375,-3.3125 2.30398,-1.63197 4.99047,-4.25822 8.0625,-7.90625 1.53597,-0.95996 2.72972,-1.43746 3.59375,-1.4375 0.57597,4e-5 1.05346,0.0893 1.4375,0.28125 -4e-5,1.34404 -0.38829,2.50879 -1.15625,3.46875 -1.44003,0.57603 -3.35003,1.70953 -5.75,3.4375 -2.40003,1.72803 -3.95302,2.80353 -4.625,3.1875 0.47998,0.76803 1.31672,1.12503 2.46875,1.125 0.86397,3e-5 2.05772,-0.65597 3.59375,-2 1.53597,-1.43997 2.78997,-2.24547 3.75,-2.4375 1.53596,1.05603 2.3415,1.95078 2.4375,2.71875 -0.48004,0.48003 -3.07728,1.79428 -7.78125,3.90625 -4.70402,2.11202 -7.41952,3.15627 -8.1875,3.15625 -0.86402,2e-5 -2.56652,-0.53773 -5.0625,-1.59375 0.95998,3.36002 2.21398,5.03127 3.75,5.03125 1.63198,2e-5 2.67623,-0.0892 3.15625,-0.28125 0.38398,0.38402 1.01098,1.10027 1.875,2.15625 0.86397,1.05602 1.55122,1.89277 2.03125,2.46875 0.47997,0.48001 1.10697,0.95751 1.875,1.4375 0.76797,0.48001 1.48422,0.71876 2.15625,0.71875 0.76797,10e-6 1.42397,-0.20974 2,-0.59375 0.57597,-0.38399 1.11372,-1.01099 1.59375,-1.875 0.57597,-0.86398 1.05347,-1.66948 1.4375,-2.4375 0.38396,-0.86398 0.92171,-2.05773 1.59375,-3.59375 0.76796,-1.63198 1.42396,-3.03548 2,-4.1875 0.76796,-0.19197 1.99296,-0.31025 3.625,-0.40625 1.63196,-0.19197 2.61595,-0.3415 3,-0.4375 -0.28805,2.30402 -1.24304,4.30327 -2.875,6.03125 -1.53604,1.63202 -3.02879,2.94627 -4.46875,3.90625 -1.34404,0.96002 -2.00004,1.70526 -2,2.28125 -4e-5,0.48001 0.17846,0.92851 0.5625,1.3125 0.47996,0.38401 0.95746,0.56251 1.4375,0.5625 0.86396,10e-6 2.56646,-0.71624 5.0625,-2.15625 2.59195,-1.53598 4.20295,-2.78998 4.875,-3.75 0.28795,-0.47998 0.73645,-3.34498 1.3125,-8.625 0.28795,3e-5 0.6762,3e-5 1.15625,0 0.57595,-0.096 0.93295,-0.15622 1.125,-0.15625 0.57595,3e-5 1.35245,0.0602 2.3125,0.15625 1.05594,3e-5 1.83244,3e-5 2.3125,0 3.35994,3e-5 5.24094,-0.47747 5.625,-1.4375 -0.86406,-1.15197 -2.32781,-1.98872 -4.34375,-2.46875 -0.38406,-0.096 -0.86156,0.0535 -1.4375,0.4375 -0.48006,0.28803 -0.89731,0.43753 -1.28125,0.4375 -0.19205,3e-5 -0.8793,0.0602 -2.03125,0.15625 -1.15205,0.096 -2.1963,0.12503 -3.15625,0.125 0.096,-1.91997 0.27445,-3.74072 0.5625,-5.46875 0.57595,-0.38396 1.4417,-0.71196 2.59375,-1 1.24795,-0.28796 1.9642,-0.52671 2.15625,-0.71875 -0.38405,-1.43996 -1.04005,-2.15621 -2,-2.15625 -1.05605,4e-5 -2.33905,0.38829 -3.875,1.15625 -1.44005,0.76804 -2.51555,1.15629 -3.1875,1.15625 -0.28805,4e-5 -0.6763,-0.29896 -1.15625,-0.875 0.67195,-2.20796 1.26995,-3.99971 1.75,-5.34375 0.57595,-1.43996 0.93295,-2.33471 1.125,-2.71875 0.28795,-0.38395 0.49765,-0.7722 0.59375,-1.15625 0.192,-0.38395 0.2812,-0.9217 0.28125,-1.59375 -5e-5,-1.91995 -1.1938,-3.65145 -3.59375,-5.1875 0.096,0.67205 0.1562,1.3883 0.15625,2.15625 -5e-5,3.16805 -0.62704,7.01929 -1.875,11.53125 -1.53604,0.96004 -3.11804,1.58704 -4.75,1.875 -0.19204,-1.05596 -0.0135,-2.07121 0.5625,-3.03125 0.28796,-0.19196 0.67621,-0.37046 1.15625,-0.5625 0.47996,-0.28796 0.89721,-0.58696 1.28125,-0.875 0.38396,-0.28796 0.68296,-0.61596 0.875,-1 -0.38404,-0.76796 -1.16054,-1.15621 -2.3125,-1.15625 -0.38404,4e-5 -0.89054,0.23879 -1.5625,0.71875 -0.67204,0.38404 -1.20979,0.59379 -1.59375,0.59375 -0.76804,4e-5 -1.45529,-0.29896 -2.03125,-0.875 4.70396,-7.39195 7.74971,-12.43694 9.09375,-15.125 2.11195,2.20806 4.4392,5.82055 7.03125,10.8125 -5e-5,0.096 -0.47755,0.9618 -1.4375,2.59375 0.86395,5e-5 1.7007,-0.2097 2.46875,-0.59375 2.30395,3.74404 3.88594,6.87904 4.75,9.375 0.86394,2.40003 1.58019,4.01103 2.15625,4.875 1.63194,0.76803 3.54194,1.84353 5.75,3.1875 2.20793,1.34403 4.02868,2.38828 5.46875,3.15625 1.53593,0.76802 2.78993,1.15627 3.75,1.15625 -1.92007,-3.93597 -3.50207,-6.77197 -4.75,-8.5 -1.24807,-1.72797 -2.26332,-2.74321 -3.03125,-3.03125 -0.76807,-0.38396 -2.14031,-1.57771 -4.15625,-3.59375 -2.01606,-2.01596 -4.46381,-4.94121 -7.34375,-8.78125 0.38394,-0.28795 0.86144,-0.76545 1.4375,-1.4375 0.67194,-0.67195 1.29894,-1.2097 1.875,-1.59375 0.57594,-0.38395 1.14269,-0.56245 1.71875,-0.5625 0.47994,5e-5 0.71869,-0.32795 0.71875,-1 -6e-5,-0.67195 -0.38831,-1.41945 -1.15625,-2.1875 -0.76806,-0.76794 -1.57356,-1.18515 -2.4375,-1.28125 -0.57606,2.01605 -1.8903,4.04655 -3.90625,6.0625 -0.38405,-0.38395 -1.36805,-1.8477 -3,-4.34375 2.30395,-3.26394 4.0042,-6.36769 5.15625,-9.34375 0.19194,-0.38394 0.49094,-0.77219 0.875,-1.15625 0.47994,-0.38393 0.71869,-0.71193 0.71875,-1 -6e-5,-0.76793 -0.38831,-1.69393 -1.15625,-2.75 -0.76805,-1.15193 -1.39505,-1.80793 -1.875,-2 z m -11.21875,34.25 c -0.096,0.48004 -0.27454,1.10704 -0.5625,1.875 -0.19204,0.67203 -0.40179,1.20978 -0.59375,1.59375 -0.096,0.38403 -0.15629,0.71203 -0.15625,1 0.47996,-0.096 1.40596,-0.90147 2.75,-2.4375 0.76796,0.28803 1.7832,0.43753 3.03125,0.4375 -5e-5,1.63203 -0.2098,3.39253 -0.59375,5.3125 -3.74404,0.57603 -5.83254,0.904 -6.3125,1 -0.096,-0.28797 -0.54454,-1.24297 -1.3125,-2.875 -0.096,-0.19197 -0.48429,-0.45972 -1.15625,-0.84375 -0.67204,-0.47997 -1.08929,-1.16722 -1.28125,-2.03125 1.63196,-1.63196 3.69146,-2.64721 6.1875,-3.03125 z m -7.90625,10.21875 c 0.57596,0.38403 0.84371,0.89278 0.84375,1.46875 -4e-5,0.76802 -0.71628,2.14027 -2.15625,4.15625 -1.44003,2.01602 -2.63378,3.03127 -3.59375,3.03125 -2.49603,2e-5 -4.52653,-0.77648 -6.0625,-2.3125 2.49597,-2.01598 6.16872,-4.13573 10.96875,-6.34375 z"
       style="font-size:144px;font-style:normal;font-variant:normal;font-weight:500;font-stretch:normal;text-align:start;line-height:125%;letter-spacing:0px;word-spacing:0px;text-anchor:start;fill:#008800;fill-opacity:1;stroke:none;font-family:GL-MahjongTile;-inkscape-font-specification:GL-MahjongTile Medium" />
    <path
       inkscape:connector-curvature="0"
       id="path7294"
       d="m 474.42936,608.36977 c 0.57595,-0.57598 1.77595,-0.86398 3.6,-0.864 2.20794,2e-5 4.31994,0.57602 6.336,1.728 2.01594,1.15202 3.02393,2.44802 3.024,3.888 -7e-5,1.44002 -0.76806,2.64001 -2.304,3.6 -1.44006,0.86401 -2.97606,1.29601 -4.608,1.296 -0.0961,10e-6 -0.24006,10e-6 -0.432,0 -0.0961,-0.096 -0.19206,-0.14399 -0.288,-0.144 -0.48006,-0.67199 -1.05606,-1.82399 -1.728,-3.456 -0.67206,-1.63198 -1.87205,-3.64798 -3.6,-6.048"
       style="font-size:144px;font-style:normal;font-variant:normal;font-weight:500;font-stretch:normal;text-align:start;line-height:125%;letter-spacing:0px;word-spacing:0px;text-anchor:start;fill:#008800;fill-opacity:1;stroke:none;font-family:GL-MahjongTile;-inkscape-font-specification:GL-MahjongTile Medium" />
  </g>
</svg>
